<svg xmlns="http://www.w3.org/2000/svg" fill="none" viewBox="0 0 48 43.39">
  <defs>
    <linearGradient id="dynamic-grad" x1="24" y1="26.55" x2="24" y2="43.39" gradientUnits="userSpaceOnUse">
      <stop stop-color="#E65C32"/>
      <stop offset="1" stop-color="#FBFAF5"/>
    </linearGradient>
  </defs>
  <!-- Bottom filled ellipse -->
  <ellipse cx="24" cy="34.97" rx="24" ry="8.42" fill="url(#dynamic-grad)"/>
  <!-- Middle ring -->
  <path d="M24 18.45C30.57 18.45 36.48 19.38 40.72 20.87 42.85 21.62 44.51 22.49 45.63 23.42 46.76 24.35 47.25 25.27 47.25 26.12 47.25 26.97 46.76 27.89 45.63 28.82 44.51 29.75 42.85 30.62 40.72 31.37 36.48 32.86 30.57 33.79 24 33.79 17.43 33.79 11.52 32.86 7.28 31.37 5.15 30.62 3.49 29.75 2.37 28.82 1.24 27.89 0.75 26.97 0.75 26.12 0.75 25.27 1.24 24.35 2.37 23.42 3.49 22.49 5.15 21.62 7.28 20.87 11.52 19.38 17.43 18.45 24 18.45Z" stroke="#E65C32" stroke-width="1.5"/>
  <!-- Top ring -->
  <path d="M24 9.6C30.57 9.6 36.48 10.54 40.72 12.03 42.85 12.77 44.51 13.64 45.63 14.57 46.76 15.51 47.25 16.42 47.25 17.28 47.25 18.13 46.76 19.04 45.63 19.98 44.51 20.91 42.85 21.78 40.72 22.52 36.48 24.01 30.57 24.95 24 24.95 17.43 24.95 11.52 24.01 7.28 22.52 5.15 21.78 3.49 20.91 2.37 19.98 1.24 19.04 0.75 18.13 0.75 17.28 0.75 16.42 1.24 15.51 2.37 14.57 3.49 13.64 5.15 12.77 7.28 12.03 11.52 10.54 17.43 9.6 24 9.6Z" stroke="#E65C32" stroke-width="1.5"/>
  <!-- Top-most ring -->
  <path d="M24 0.75C30.57 0.75 36.48 1.69 40.72 3.17 42.85 3.92 44.51 4.79 45.63 5.72 46.76 6.66 47.25 7.57 47.25 8.42 47.25 9.28 46.76 10.19 45.63 11.13 44.51 12.06 42.85 12.93 40.72 13.67 36.48 15.16 30.57 16.1 24 16.1 17.43 16.1 11.52 15.16 7.28 13.67 5.15 12.93 3.49 12.06 2.37 11.13 1.24 10.19 0.75 9.28 0.75 8.42 0.75 7.57 1.24 6.66 2.37 5.72 3.49 4.79 5.15 3.92 7.28 3.17 11.52 1.69 17.43 0.75 24 0.75Z" stroke="#E65C32" stroke-width="1.5"/>
</svg>
