<svg xmlns="http://www.w3.org/2000/svg" fill="none" viewBox="0 0 100 100">
  <circle cx="50" cy="50" r="49" stroke="#E65C32" stroke-opacity="0.25" stroke-width="2"/>
  <path d="M50 10C72.09 10 90 27.87 90 49.91 90 71.95 72.09 89.82 50 89.82 27.91 89.82 10 71.95 10 49.91 10 27.87 27.91 10 50 10Z" stroke="#E65C32" stroke-opacity="0.5" stroke-width="2"/>
  <path d="M50 20C66.3 20 79.5 33.13 79.5 49.3 79.5 65.48 66.3 78.61 50 78.61 33.7 78.61 20.5 65.48 20.5 49.3 20.5 33.13 33.7 20 50 20Z" stroke="#E65C32" stroke-opacity="0.75" stroke-width="2"/>
  <g transform="translate(30.26 39.77)">
    <path d="M24.15 2.54L15.33 18.71" stroke="#E65C32" stroke-width="3.5" stroke-linecap="round"/>
    <path d="M30.65 18.71L37.73 10.04 30.65 1.75" stroke="#E65C32" stroke-width="3.5" stroke-linecap="round" stroke-linejoin="round"/>
    <path d="M8.83 1.75L1.75 10.43 8.83 18.71" stroke="#E65C32" stroke-width="3.5" stroke-linecap="round" stroke-linejoin="round"/>
  </g>
</svg>
