<svg xmlns="http://www.w3.org/2000/svg" fill="none" viewBox="0 0 35.63 48.58">
  <defs>
    <linearGradient id="onboard-grad-1" x1="17.92" y1="19.37" x2="17.92" y2="54.34" gradientUnits="userSpaceOnUse">
      <stop stop-color="#E65C32"/>
      <stop offset="1" stop-color="#FBFAF5"/>
    </linearGradient>
    <linearGradient id="onboard-grad-2" x1="17.92" y1="19.38" x2="17.92" y2="53.39" gradientUnits="userSpaceOnUse">
      <stop stop-color="#E65C32"/>
      <stop offset="1" stop-color="#FBFAF5"/>
    </linearGradient>
  </defs>
  <!-- Left person -->
  <path d="M10.3 35.96C15.61 35.96 19.94 40.16 20.16 45.42H0.43C0.65 40.16 4.98 35.96 10.3 35.96Z" fill="#E65C32" stroke="#E65C32" stroke-width="0.84"/>
  <circle cx="10.3" cy="29.71" r="5.99" fill="#E65C32" stroke="#E65C32" stroke-width="0.84"/>
  <!-- Right person -->
  <path d="M25.34 35.96C30.65 35.96 34.98 40.16 35.2 45.42H15.47C15.69 40.16 20.02 35.96 25.34 35.96Z" fill="#E65C32" stroke="#E65C32" stroke-width="0.84"/>
  <circle cx="25.33" cy="29.71" r="5.99" fill="#E65C32" stroke="#E65C32" stroke-width="0.84"/>
  <!-- Center person (gradient, larger) -->
  <path d="M17.92 19.37C22.72 19.37 26.61 23.26 26.61 28.06 26.61 31.15 25 33.86 22.58 35.4 28.01 37.32 31.89 42.49 31.89 48.57H3.95C3.95 42.49 7.83 37.32 13.25 35.4 10.83 33.86 9.22 31.15 9.22 28.06 9.22 23.26 13.11 19.37 17.92 19.37Z" fill="url(#onboard-grad-1)"/>
  <path d="M17.91 40.95L14.98 35.57H20.94L17.91 40.95Z" fill="#FBFAF5"/>
  <path d="M17.96 39.73L19.77 48.58H16.08L17.96 39.73Z" fill="#FBFAF5"/>
  <circle cx="17.92" cy="28.07" r="8.7" fill="url(#onboard-grad-2)"/>
  <!-- Checkmark badge -->
  <path d="M12.53 2.25C15.53-0.75 20.39-0.75 23.39 2.25 26.4 5.25 26.4 10.12 23.39 13.12 20.39 16.11 15.53 16.12 12.53 13.12 9.53 10.12 9.53 5.25 12.53 2.25Z" fill="#E65C32"/>
  <path d="M21.5 5.69L17.07 9.85 14.91 7.99" stroke="white" stroke-width="2" stroke-linecap="round" stroke-linejoin="round"/>
</svg>
