<svg xmlns="http://www.w3.org/2000/svg" fill="none" viewBox="0 0 73.5 21">
  <path
    fill="currentColor"
    d="M4.406 1.753c.24-.556.363-1.151.363-1.753h4.137c0 1.124-.23 2.236-.678 3.274q-.253.585-.59 1.127c-.078.123.089.292.221.224a9.2 9.2 0 0 1 4.19-1.006v3.974a4.87 4.87 0 0 0-3.372 1.342 4.5 4.5 0 0 0-1.397 3.24c0 1.214.503 2.38 1.397 3.239a4.87 4.87 0 0 0 3.372 1.342v3.974c-2.362 0-4.627-.902-6.297-2.506-1.67-1.605-2.608-3.78-2.608-6.05a8.3 8.3 0 0 1 1.268-4.4c.077-.124-.09-.293-.222-.225q-.381.196-.782.355A9.2 9.2 0 0 1 0 8.555V4.581a4.9 4.9 0 0 0 1.825-.349 4.8 4.8 0 0 0 1.547-.993 4.6 4.6 0 0 0 1.034-1.486M69.03 5.218c0 .201-.271.295-.416.15-1.288-1.296-2.994-1.932-5.14-1.932-2.283 0-4.227.851-5.863 2.521-1.602 1.67-2.42 3.7-2.42 6.123s.818 4.486 2.42 6.156c1.636 1.67 3.58 2.489 5.863 2.489 2.146 0 3.852-.636 5.14-1.932.145-.145.416-.051.416.15v1.323h4.397V3.895H69.03zm-4.738 11.48q-2.044 0-3.375-1.278-1.329-1.326-1.329-3.34c0-1.342.443-2.455 1.33-3.307.886-.884 2.011-1.31 3.374-1.31 1.364 0 2.489.426 3.374 1.31.921.852 1.364 1.965 1.364 3.307 0 1.343-.443 2.456-1.364 3.34q-1.328 1.277-3.374 1.277m-33.076-2.882H18.944c-.291 0-.504.267-.398.527.694 1.709 2.236 2.55 4.627 2.55 1.67 0 2.965-.556 3.817-1.636l3.545 1.964c-1.67 2.325-4.158 3.504-7.43 3.504-2.83 0-5.08-.819-6.783-2.456q-2.557-2.456-2.557-6.189c0-2.455.852-4.518 2.522-6.155 1.67-1.67 3.852-2.489 6.477-2.489 2.488 0 4.567.819 6.169 2.489 1.636 1.67 2.454 3.7 2.454 6.155 0 .557-.068 1.114-.17 1.736m-12.761-3.797c-.094.263.12.522.41.522h7.567c.286 0 .5-.256.411-.517-.642-1.877-2.231-2.79-4.08-2.79-2.148 0-3.671 1.012-4.308 2.785m19.623-3.737c-.014-.861.018-2.306.018-2.306h-4.348v16.188h4.348v-7.738c0-1.554.505-2.655 1.55-3.335s2.258-.939 3.572-.777V3.652c-2.027 0-4.362 1.451-4.975 2.655-.025.049-.164.03-.165-.025m11.455-2.374s-.031 1.445-.017 2.307c0 .055.14.073.165.024.612-1.203 2.947-2.655 4.975-2.655v4.662c-1.314-.162-2.528.097-3.572.777s-1.55 1.781-1.55 3.335v7.738h-4.349V3.908z"
  />
</svg>
