<svg xmlns="http://www.w3.org/2000/svg" fill="currentColor" viewBox="0 0 20 15">
  <path
    d="M19.8 3.035s-.195-1.379-.796-1.984C18.242.254 17.39.25 17 .203 14.203 0 10.004 0 10.004 0h-.008S5.796 0 3 .203c-.39.047-1.242.05-2.004.848-.601.605-.793 1.984-.793 1.984S0 4.656 0 6.273V7.79c0 1.617.2 3.238.2 3.238s.195 1.38.792 1.985c.762.797 1.762.77 2.207.855 1.602.152 6.801.2 6.801.2s4.203-.008 7-.208c.39-.046 1.242-.05 2.004-.847.601-.606.797-1.985.797-1.985S20 9.41 20 7.79V6.273c0-1.617-.2-3.238-.2-3.238M7.935 9.63V4.008l5.402 2.82z"
  />
</svg>
