<svg
  width="1440"
  height="559"
  viewBox="0 0 1440 559"
  fill="none"
  xmlns="http://www.w3.org/2000/svg"
>
  <g clip-path="url(#clip0_74_2453)">
    <path
      d="M557.49 559C561.076 552.968 564.795 547.015 568.644 541.147C601.65 490.877 638.417 442.48 659.775 385.565C671.622 353.998 679.138 320.871 689.871 288.845C696.727 268.323 701.367 246.731 717.087 229.837C728.282 217.787 740.574 214.155 756.633 215.483C785.32 217.877 810.969 229.358 835.081 242.839C880.316 268.123 923.797 296.529 968.401 322.935C1017.67 352.1 1067.91 379.709 1123.05 396.234C1181.2 413.676 1233.53 400.857 1279.34 361.426C1310.45 334.658 1335.44 302.888 1358.72 269.062C1378.78 239.921 1400.12 210.815 1431.05 191.492C1436.06 188.357 1441.12 185.496 1446.26 183.066M1.00781 289.626C42.2078 280.853 84.3418 278.526 126.487 278.4C186.033 278.261 243.087 269.239 298.179 247.002C341.201 229.623 384.166 211.987 427.621 195.693C456.137 184.987 485.035 180.129 516.408 186.85C569.643 198.222 594.673 235.415 607.495 282.562C621.532 334.164 606.809 383.266 581.74 427.912C559.175 468.132 531.351 505.389 505.817 543.908C502.403 549.052 499.072 554.25 495.826 559.5"
      stroke="currentColor"
      stroke-linecap="round"
      stroke-linejoin="round"
    />
    <path
      d="M438.224 559C440.978 554.677 443.834 550.42 446.79 546.232C473.611 508.161 501.96 470.961 525.804 431.06C543.685 401.172 553.279 367.514 547.985 330.941C541.187 283.82 494.246 250.48 447.892 251.284C402.971 252.051 361.414 266.585 320.438 282.129C265.613 302.96 210.211 318.715 151.231 323.019C108.621 326.133 65.3046 328.33 25.2256 346.607C16.8386 350.434 8.74162 354.619 1.01562 359.313"
      stroke="currentColor"
      stroke-linecap="round"
      stroke-linejoin="round"
    />
    <path
      d="M374.97 558.499C381.163 548.108 387.694 537.924 394.977 528.363C412.699 505.116 433.353 484.071 450.667 460.543C468.486 436.355 482.964 410.051 484.362 378.664C486.28 336.354 459.407 311.245 417.14 309.404C383.309 307.933 350.897 316.316 320.134 329.129C256.908 355.459 190.884 372.512 124.986 389.884C81.3623 401.383 52.8623 429.243 38.9393 470.386C28.5993 501.012 16.1853 530.472 2.44531 559.499"
      stroke="currentColor"
      stroke-linecap="round"
      stroke-linejoin="round"
    />
    <path
      d="M254.333 560C258.705 540.319 273.159 525.834 287.839 512.667C310.66 492.239 337.245 475.99 359.902 455.375C369.713 446.448 376.061 431.803 379.729 418.55C384.03 403.108 373.732 392.365 350.033 396.145C331.439 399.092 312.724 406.698 296.241 416.048C276.853 427.041 257.56 439.681 244.373 458.627C234.017 473.521 222.824 488.245 215.246 504.547C205.849 524.682 194.895 543.4 180.625 560"
      stroke="currentColor"
      stroke-linecap="round"
      stroke-linejoin="round"
    />
    <path
      d="M1440.51 273.187C1435.53 275.877 1430.6 279.3 1425.79 283.514C1398.58 307.344 1375.15 335.568 1350.81 362.539C1322.62 393.795 1292.8 422.861 1257.38 446.156C1230.21 464.026 1200.53 475.581 1168.87 478.509C1124.4 482.641 1079.57 483.033 1034.87 484.613C1013.71 485.358 996.19 477.134 980.278 462.948C957.442 442.589 939.111 418.191 917.882 396.676C892.055 370.486 865.437 344.906 826.963 334.24C795.385 325.488 760.038 345.887 745.502 370.824C722.288 410.711 698.556 450.302 675.275 490.172C661.96 512.984 648.089 535.488 635.141 558.505"
      stroke="currentColor"
      stroke-linecap="round"
      stroke-linejoin="round"
      stroke-dasharray="4.58 4.58"
    />
    <path
      d="M1393.12 559.999C1408.81 544.499 1424.78 529.258 1440.51 513.795M1257.78 559.999C1266.41 552.756 1274.7 545.083 1282.44 536.728C1306.49 510.774 1331.23 485.236 1352.72 457.252C1373.22 430.564 1392.54 402.942 1418.19 381.049C1424.87 375.347 1432.16 369.981 1440.51 366.66M772.508 558.43C773.675 557.389 774.857 556.365 776.054 555.358C791.683 542.165 811.075 539.108 826.121 552.973C828.051 554.758 829.949 556.577 831.813 558.43"
      stroke="currentColor"
      stroke-linecap="round"
      stroke-linejoin="round"
    />
  </g>
  <defs>
    <clipPath id="clip0_74_2453">
      <rect width="1440" height="559" fill="white" />
    </clipPath>
  </defs>
</svg>
