<svg xmlns="http://www.w3.org/2000/svg" fill="none" viewBox="0 0 1440 559">
  <g clip-path="url(#a)">
    <path stroke="#289664" stroke-linecap="round" stroke-width=".5" d="M0 289.061c41.534-8.942 84.01-11.302 126.477-11.428h.002c59.497-.14 116.481-9.151 171.505-31.361 43.022-17.378 85.988-35.015 129.454-51.313 17.857-6.705 35.886-11.127 54.584-11.853a138 138 0 0 1 34.484 2.988c53.421 11.412 78.617 48.828 91.465 96.07 14.08 51.764-.697 101.015-25.803 145.725-22.586 40.258-50.419 77.526-75.941 116.029a578 578 0 0 0-9.51 14.815m60.189 0a476 476 0 0 1 11.319-18.127c33.018-50.29 69.757-98.659 91.082-155.485 11.831-31.523 19.346-64.644 30.09-96.701 6.843-20.486 11.493-42.178 27.324-59.191 11.285-12.146 23.799-15.848 39.953-14.512 28.795 2.404 54.512 13.921 78.65 27.418 45.255 25.295 88.739 53.702 133.33 80.102 49.256 29.159 99.466 56.746 154.536 73.252 58.01 17.398 110.12 4.634 155.83-34.709 31.05-26.727 56.02-58.459 79.29-92.268 20.06-29.149 41.44-58.323 72.47-77.711 3.05-1.908 6.12-3.717 9.22-5.389M0 290.084c41.502-8.958 83.977-11.327 126.482-11.453 59.597-.14 116.718-9.17 171.877-31.435 43.025-17.379 85.986-35.013 129.432-51.303 17.786-6.679 35.7-11.071 54.268-11.791 11.14-.432 22.516.457 34.24 2.969 53.048 11.332 77.913 48.3 90.709 95.353 13.991 51.438-.675 100.392-25.709 144.975-22.544 40.182-50.361 77.43-75.904 115.964a576 576 0 0 0-9.854 15.37M0 359.071c7.969-4.89 16.333-9.23 25.002-13.186 40.189-18.326 83.572-20.519 126.176-23.633 58.913-4.298 114.267-20.036 169.066-40.857 40.985-15.548 82.6-30.108 127.623-30.877 46.599-.808 93.757 32.675 100.596 80.084 5.313 36.702-4.322 70.485-22.246 100.447-23.864 39.934-52.222 77.143-79.035 115.203a326 326 0 0 0-8.381 12.481M1440 186.547a166 166 0 0 0-8.7 5.102c-30.82 19.258-52.12 48.297-72.17 77.429-23.3 33.844-48.31 65.65-79.46 92.459-45.91 39.519-98.48 52.394-156.77 34.909-55.21-16.545-105.48-44.178-154.759-73.348-44.617-26.415-88.094-54.817-133.309-80.09-24.086-13.467-49.665-24.909-78.246-27.295-15.964-1.32-28.032 2.244-39.137 14.197h-.002c-15.607 16.775-20.238 38.269-27.105 58.827-10.723 31.994-18.241 65.126-30.104 96.736-21.391 57.004-58.188 105.431-91.181 155.682a474 474 0 0 0-10.991 17.578m76.211 0c13.074-23.288 27.104-46.034 40.559-69.084 23.283-39.874 47.015-79.465 70.226-119.348 14.654-25.139 50.163-45.646 82.026-36.814 38.615 10.705 65.309 36.37 91.142 62.566 21.261 21.547 39.586 45.935 62.373 66.25 15.848 14.128 33.217 22.278 54.237 21.539 44.71-1.58 89.53-1.972 133.98-6.102 31.56-2.919 61.17-14.441 88.28-32.273 35.37-23.261 65.15-52.295 93.33-83.535 24.33-26.961 47.77-55.199 75.02-79.065 4.75-4.163 9.62-7.559 14.55-10.246M0 360.244c8.084-4.995 16.587-9.419 25.416-13.449 39.969-18.226 83.217-20.43 125.836-23.545 59.045-4.308 114.494-20.079 169.346-40.92 40.968-15.542 82.468-30.047 127.287-30.812 46.107-.8 92.832 32.395 99.588 79.226 5.276 36.447-4.278 69.978-22.114 99.791-23.824 39.87-52.167 77.061-78.996 115.141h.002a327 327 0 0 0-8.75 13.057M0 558.733h2.121c13.68-28.921 26.04-58.27 36.338-88.774 13.967-41.274 42.627-69.288 86.393-80.824 65.898-17.372 131.9-34.422 195.082-60.734 26.956-11.228 55.198-19.067 84.566-19.864 4.195-.113 8.413-.082 12.654.102 21.228.925 38.646 7.697 50.514 19.6 11.868 11.902 18.149 28.916 17.186 50.181h.001c-1.405 31.528-15.948 57.929-33.792 82.152-17.341 23.567-38 44.613-55.696 67.827v.002c-7.323 9.614-13.89 19.866-20.121 30.332M1440 273.758c-4.7 2.609-9.34 5.878-13.89 9.861-27.17 23.795-50.59 52.001-74.94 78.983-28.2 31.272-58.05 60.372-93.52 83.701-27.22 17.908-56.99 29.495-88.74 32.432-44.5 4.134-89.34 4.527-134.03 6.107-21.3.749-38.966-7.551-54.942-21.793-22.885-20.403-41.223-44.81-62.42-66.293-25.821-26.184-52.363-51.678-90.696-62.305-31.292-8.673-66.478 11.619-80.896 36.354-23.216 39.891-46.948 79.481-70.227 119.348-13.368 22.902-27.289 45.486-40.271 68.58m135.689 0a167 167 0 0 1 4.608-4.026v.002c7.878-6.65 16.724-10.766 25.535-11.457 8.81-.69 17.578 2.069 25.193 9.086a222 222 0 0 1 6.633 6.395m425.094 0c8.35-7.051 16.38-14.511 23.88-22.612 24.06-25.959 48.79-51.486 70.25-79.439 20.5-26.676 39.83-54.332 65.55-76.279 6.62-5.645 13.85-10.986 22.14-14.346M3.227 558.733c13.612-28.809 25.916-58.055 36.18-88.453 13.877-41.012 42.214-68.716 85.698-80.178h.002c65.896-17.372 131.943-34.43 195.211-60.778 30.721-12.794 63.059-21.154 96.793-19.687 21.04.916 38.192 7.618 49.848 19.309 11.656 11.69 17.85 28.384 16.896 49.429-1.392 31.246-15.806 57.451-33.599 81.604-17.285 23.49-37.937 44.534-55.684 67.814-7.476 9.815-14.156 20.277-20.488 30.94m-193.272 0c13.951-16.388 24.713-34.829 33.971-54.664 7.609-16.368 18.821-31.112 29.17-45.995 13.258-19.049 32.624-31.724 52.031-42.728 16.523-9.372 35.286-17.003 53.959-19.963 2.984-.476 5.763-.723 8.332-.762 7.71-.116 13.544 1.658 17.414 4.866 5.161 4.277 6.697 11.08 4.51 18.929-3.681 13.305-10.038 28.023-19.97 37.061-22.705 20.657-49.293 36.908-72.067 57.295-14.39 12.906-28.474 26.991-33.096 45.961M1440 367.135c-7.99 3.308-15.01 8.497-21.5 14.027-25.58 21.839-44.88 49.427-65.39 76.127-21.52 28.015-46.27 53.563-70.31 79.512-7.27 7.843-15.01 15.085-23.07 21.932m133.68 0c15.44-15.235 31.13-30.221 46.59-45.416M182.123 558.733c13.759-16.313 24.405-34.613 33.566-54.243v-.002c7.548-16.234 18.719-30.937 29.084-45.843 13.116-18.845 32.337-31.448 51.706-42.43 16.442-9.327 35.109-16.909 53.623-19.844 2.941-.469 5.668-.711 8.181-.748 7.538-.111 13.141 1.626 16.77 4.633 4.837 4.01 6.299 10.3 4.183 17.893-3.652 13.201-9.992 27.773-19.681 36.59-22.61 20.571-49.193 36.82-72.059 57.289-14.471 12.978-28.81 27.326-33.453 46.705M1440 514.719c-15 14.729-30.2 29.262-45.16 44.014m-622.227 0a166 166 0 0 1 3.756-3.26c7.752-6.543 16.415-10.553 24.969-11.223a33 33 0 0 1 3.201-.094c7.45.151 14.734 2.925 21.236 8.916a220 220 0 0 1 5.897 5.661"/>
  </g>
  <defs>
    <clipPath id="a">
      <path fill="white" d="M0 0h1440v559H0z"/>
    </clipPath>
  </defs>
</svg>
