<svg xmlns="http://www.w3.org/2000/svg" fill="none" viewBox="0 0 1440 790">
  <g clip-path="url(#a)">
    <path
      stroke="currentColor"
      stroke-linecap="round"
      stroke-linejoin="round"
      d="M1388.86 1306.29c-16.01-15.54-30.57-32.19-37.63-53.82-4.87-14.95-8.79-30.21-13-45.37-2.99-10.72-4.73-21.93-8.89-32.17-8.9-21.84-29.57-33.26-52.01-34.58-12.22-.7-24.9 1.79-37.02 4.43-31.22 6.81-62.02 15.75-93.43 21.42-26.24 4.72-52.9 1.85-79.43-1.42-39.18-4.81-78.651-2.9-118.034-3.38-19.772-.23-39.403-1.83-58.392-9.47-25.294-10.19-47.65-23.94-63.255-46.5-27.019-39.09-47.181-81.54-59.102-127.674-5.465-21.095-4.116-42.677-2.102-64.029 2.881-30.516 5.704-61.065 10.227-91.352 3.782-25.395 6.401-50.69 3.123-76.151-1.569-12.163-4.351-24.539-8.942-35.877-8.129-20.089-24.136-31.746-45.404-35.981-11.35-2.26-22.656-4.907-34.121-6.565-39.96-5.851-77.734-19.898-116.365-30.636-42.212-11.751-84.201-15.38-126.925-2.188-29.509 9.102-59.752 12.614-90.389 4.872-48.635-12.298-97.497-23.802-145.84-37.14-25.12-6.921-49.688-16.222-73.889-25.98-25.487-10.293-50.3-22.332-75.34-33.756-29.421-13.414-60.421-19.771-92.47-22.931-11.675-1.163-23.336-5.556-34.294-10.186-21.985-9.275-30.154-34.553-26.169-57.492 6.033-34.684 26.867-59.41 54.256-78.783 16.46-11.624 34.962-20.372 52.65-30.207 16.494-9.189 29.667-21.759 41.455-36.518 18.018-22.521 27.29-49.141 38.555-75.022 18.427-42.385 27.332-86.72 31.403-132.483 2.639-29.653 9.88-58.32 20.884-86.201 16.044-40.574 35.034-80.371 41.828-123.946 3.769-24.169 4.233-48.806 7.143-73.136 1.85-15.588 1.969-31.608 10.646-45.926 6.178-10.21 14.373-14.603 25.972-16.028 20.725-2.53 40.629 1.842 59.736 7.861 35.843 11.288 70.901 25.051 106.462 37.229 39.277 13.45 79.017 25.651 120.608 29.256 43.864 3.812 79.142-13.011 105.874-47.773 18.153-23.601 31.225-49.852 42.783-77.311 9.955-23.656 20.827-47.476 39.949-65.762 15.017-14.384 31.978-24.382 53.862-17.427 14.492 4.614 26.214 14.157 36.625 24.769 32.164 32.808 53.239 72.349 67.119 115.754 10.919 34.191 6.792 68.022-5.014 101.301-13.718 38.73-26.956 77.607-41.182 116.145-6.429 17.416-13.286 34.995-22.628 50.909-8.833 15.076-21.297 27.979-31.955 42.027-9.368 12.352-19.2 24.435-27.425 37.524-21.795 34.631-11.996 75.706 18.489 101.042 19.476 16.205 42.708 22.474 65.976 29.662 16.282 5.031 72.079 18.2 103.669-56.474 4.416-10.456 9.144-20.783 14.373-30.82 18.005-34.661 32-71.328 53.001-104.541C1016.83 12.763 1047.31-8.578 1088-14.902c33.76-5.235 67.58-2.437 101.09 1.718 41.93 5.192 83.74 11.673 125.35 19.089 19.85 3.52 39.96 8.833 57.1 19.94 17.6 11.394 32.64 26.294 44.83 43.437 19.53 27.438 41.83 52.192 67.94 73.435 21.49 17.493 41.35 17.394 63.03-.339 33.11-27.097 66.4-53.964 99.14-81.502 36.35-30.572 67.46-66.376 99.07-101.613 12.61-14.031 25.82-27.607 37.33-42.502 15.31-19.792 30.05-39.758 40.97-62.907 10.42-22.102 18.98-45.922 38.8-63.009 15.57-13.424 33.24-18.641 52.88-19.073 38.85-.829 76.29 8.73 114.07 15.896 31.95 6.055 63.99 8.875 95.79-1.475 27.67-9.003 49.38-24.999 64.84-50.308 25.32-41.49 30.03-86.936 26.85-133.676-1.81-26.619-6.12-53.011-15.94-78.368-9.65-24.898-24.57-45.745-45.02-62.129-16.01-12.814-33.14-24.838-51.31-34.222-22.67-11.7-47.14-19.838-72.42-24.514-55.59-10.274-111.66-16.917-168.01-21.462-10.86-.875-21.65-4.507-32.18-7.785-15.17-4.725-23.14-16.366-25.63-31.348-5.69-34.104-1.86-67.465 9.07-100.168 8.99-26.936 22.18-51.783 36.79-75.967M1353.96 1366.74c-27.26-21.26-54.95-42-81.64-63.92-39.54-32.46-84.89-40.88-133.78-32.9-26.73 4.37-53.53 9.99-79.21 18.38-36.45 11.9-71.536 9.15-107.31-1.64-21.141-6.37-42.656-11.83-64.371-15.78-32.995-6.02-63.952-2.07-85.646 27.35-12.8 17.36-24.362 35.69-35.938 53.92-6.959 10.94-16.276 16.25-29.077 15.08-2.621-.23-5.414-1.58-7.584-3.17-14.486-10.55-28.179-22.34-43.419-31.62-11.669-7.1-25.254-11.01-37.93-16.45-28.707-12.34-59.525-16.07-89.891-20.67-33.166-5.02-66.412-10.02-97.335-22.84-20.379-8.45-39.171-21.07-57.891-33.06-19.075-12.22-37.453-25.61-55.683-39.12-29.965-22.18-60.33-44.34-82.288-74.96-23.202-32.33-30.703-69.28-23.856-108.4 4.494-25.784 10.903-51.23 16.838-76.744 10.322-44.34 6.631-87.44-10.716-129.428-6.348-15.334-15.234-29.434-28.23-39.534-9.841-7.634-22.74-10.018-35.484-10.308-22.679-.5-45.352-1.279-68.003-1.248-29.106.03-50.153-13.098-64.935-37.568-10.941-18.114-25.65-33.263-43.142-44.442-13.167-8.423-28.56-14.458-43.781-18.388-38.184-9.863-77.225-13.743-116.641-9.488-8.556.921-17.057 3.749-25.223 6.668-23.797 8.518-33.128 29.27-38.489 51.029-4.448 17.994-5.944 37.023-6.267 55.625-.469 27.719-6.23 54.181-18.89 78.203-8.732 16.548-21.574 31.263-34.151 45.386-16.419 18.458-35.714 34.46-51.339 53.505-14.484 17.648-26.991 37.44-28.845 61.452-1.758 22.92 6.534 32.25 29.744 40.74 22.01 8.03 45.434 7.42 68.438 8.83 41.096 2.55 82.111 5.1 123.306.3 37.99-4.41 73.905-15.7 109.86-27.81 15.059-5.06 31.114-7.92 46.971-9.64 27.597-2.98 45.7 13.51 54.042 39.38 12.316 38.18 13.667 77.36 7.283 116.75-4.114 25.44-9.699 50.61-14.02 76.01-6.005 35.39 5.97 64.9 31.449 89.19 17.992 17.18 39.357 28.82 63.025 36.65 31.105 10.27 62.146 20.79 92.84 32.27 59.924 22.41 103.708 61.28 124.388 123.65 6.457 19.51 14.308 38.57 27.278 55.13 24.795 31.71 57.978 41.95 95.482 33.3 63.716-14.67 126.892-31.83 185.567-62.01 11.644-6 23.191-12.23 35.136-17.6 23.54-10.56 40.011-3.19 48.12 23.08 5.71 18.49 9.825 37.47 15.25 56.05 10.456 35.75 31.174 64.23 64.169 81.79 28.237 15.02 58.973 19.97 90.989 14.99 28.562-4.44 53.881-17.06 79.13-30.19 43.07-22.43 88.55-37.11 137.21-40.35 11.37-.76 22.91 1.17 34.37 1.85M923.796 2111.8c-15.605-17.03-25.73-37.45-33.501-58.69-13.156-35.97-20.355-73.31-17.247-111.79 1.781-21.98 7.734-43.11 18.136-62.91 7.646-14.58 14.462-29.64 21.11-44.72 4.604-10.42 4.692-23.58-10.504-32.94-31.746-19.59-64.543-37.45-96.72-56.33-12.097-7.12-24.277-14.35-35.349-22.93-17.935-13.93-37.514-24.08-58.905-31.62-27.02-9.51-54.019-8.01-81.319-2.82-48.038 9.12-89.886 32.69-131.242 57.06-34.21 20.13-69.721 36.03-110.019 38.33-39.597 2.25-70.352-13.7-93.462-45.58-15.073-20.75-28.871-42.16-40.983-64.89-14.086-26.43-17.792-54.58-19.168-83.65-1.022-21.48-.659-43.09-9.308-63.66-8.528-20.24-23.388-34.73-41.252-45.84-18-11.19-37.123-20.62-56.044-30.25-26.241-13.36-49.56-30.7-69.376-52.24-21.334-23.19-40.712-47.9-56.11-75.76-16.45-29.77-18.655-60.83-13.555-93.41 3.331-21.36 7.96-42.57 5.472-64.54-1.514-13.42-4.497-25.93-13.684-36.17-8.166-9.11-18.577-13.04-30.82-14.56-24.345-3-47.921 1.66-71.612 5.23-27.638 4.17-55.225 8.83-82.714 13.85-40.14 7.34-77.991 20.46-108.662 48.68-27.557 25.37-41.968 57.33-45.458 94.69-3.923 42.12 4.227 83.07 9.962 124.36 4.012 28.87 7.703 57.94 8.74 87.01.726 20.75-4.408 41.72-14.506 60.1-8.567 15.64-21.318 28.33-36.789 38.1-11.375 7.19-22.124 15.43-32.746 23.71-25.388 19.79-41.292 46.17-54.697 75.14-10.918 23.59-21.617 47.69-42.756 65.5-22.526 18.97-47.234 21.54-73.158 12.89-25.779-8.58-48.304-23.51-67.492-43.2-21.051-21.59-42.897-42.38-63.631-64.24-23.832-25.15-33.155-55.64-31.147-90.08 1.959-33.46 4.22-66.96 4.326-100.46.067-19.68-5.07-39.07-14.136-57-12.589-24.92-32.673-40.48-59.805-46.27-63.099-13.53-126.191-13.31-189.565-.75-24.39 4.83-47.77 11.87-69.72 22.97-23.51 11.9-38.15 31.38-44.11 57.39-5.48 23.93-5.46 48.03-2.26 72.08 5.15 38.88 9.67 77.96 17.26 116.4 6.59 33.39 27.94 57.58 57.15 74.89 22.38 13.25 46.75 21.87 70.723 31.63 35.897 14.58 70.505 32.2 97.492 60.96 17.614 18.81 29.834 40.41 26.144 68.09-2.605 19.4-9.997 36.74-22.735 50.88-25.453 28.22-52.552 54.94-78.176 83.01-13.517 14.82-25.415 31.1-37.888 46.83-4.26 5.38-8.08 11.14-12.08 16.73m659.855 381.01c5.09-18.39 10.476-36.72 15.212-55.22 8.755-34.14 10.697-68.64 5.433-103.62-6.685-44.42-19.835-88.02-17.765-133.53 1.69-37.14 4.297-74.26 6.067-111.41 1.894-39.72 6.554-78.98 15.765-117.74 9.609-40.43 17.4-81.32 28.042-121.49 5.904-22.35 15.526-43.78 24.352-65.26 6.396-15.53 13.914-30.65 21.515-45.64 13.386-26.48 32.263-49.02 52.5-70.44 22.793-24.11 45.456-48.21 71.508-69.1 25.299-20.3 53.934-29.81 85.429-32.24 24.407-1.86 48.941-2.35 73.349-4.22 6.084-.47 12.278-3.27 17.8-6.2 10.202-5.42 13.952-19.57 7.902-34.22-5.937-14.35-13.593-28-20.759-41.82-19.238-37.07-47.039-68.08-72.208-100.89-20.708-26.99-29.947-57.05-28.279-90.99.593-12.25.032-24.91-2.487-36.85-3.874-18.33-16.1-28.96-36.096-29.12-18.46-.14-37.208.52-55.356 3.67-26.816 4.61-52.762 11.87-76.076 27.83-26.373 18.06-40.817 43.39-43.554 73.17-6.077 65.99-12.249 132.05-10.047 198.58.829 25.03-.629 50.27-3.097 75.22-3.722 37.4-22.244 66.19-54.958 85.52-17.8 10.51-36.27 20.23-52.705 32.62-10.918 8.21-19.976 19.72-27.678 31.23-11.227 16.73-19.872 35.18-30.735 52.17-11.983 18.7-26.076 35.81-45.9 46.98-30.914 17.41-63.036 15.8-95.524 5.3-25.685-8.3-50.129-19.69-72.274-34.97-18.764-12.94-36.614-27.46-53.553-42.72-18.917-17.04-36.752-35.33-54.36-53.74-20.98-21.93-23.497-49.11-19.272-77.41 3.765-25.28 8.855-50.36 12.59-75.62 4.189-28.38 3.661-56.77-7.487-83.62-10.869-26.17-32.655-40.77-59.147-47.1-62.071-14.86-121.715-6.22-177.442 24.32-30.08 16.51-44.75 44.15-46.69 78.34-2.25 39.21 3.47 76.93 21.79 112.15 10.5 20.17 26.09 34.7 47.53 42.94 26.164 10.07 52.456 19.9 78.118 31.1 16.803 7.33 32.52 17.66 44.417 31.63 18.899 22.19 37.168 45.08 53.808 69 17.118 24.61 26.869 51.78 18.898 82.83-5.621 21.94-16.987 41-30.643 58.15-20.634 25.89-44.193 49.46-65.105 75.17-16.681 20.51-33.348 41.63-39.641 68.3-2.343 9.98-3.201 20.33-4.726 30.5M1650.28 851.451c-3.18-.65-6.63-.738-9.5-2.039-31.06-14.051-62.5-25.033-97.66-22.146-26.06 2.119-49.7 11.555-73.35 20.9-40.56 16.036-81.65 29.376-125.68 30.302-35.18.761-69.89-3.856-102.34-17.811-38.83-16.714-66.39-44.677-79.82-85.871-6.03-18.516-13.54-36.373-28.71-50.423-10.19-9.432-22.17-12.029-34.39-14.431-22.94-4.505-46.15-7.681-69.19-11.753-28.51-5.051-55.607-14.474-82.266-25.856-30.695-13.122-60.901-27.091-89.2-44.766-45.951-28.663-75.891-68.798-84.065-123.199-3.075-20.512 1.187-40.233 12.092-58.097 25.868-42.354 51.824-84.684 77.75-127.005 29.806-48.641 75.364-20.59 92.465-9.714 20.495 13.015 41.484 25.441 63.114 36.44 33.07 16.806 68.92 21.54 105.75 22.475 49.86 1.261 89.14-20.347 124.24-52.949 7.53-6.987 15.52-13.736 24.19-19.137 14.26-8.885 25.43-6.885 39.31 3.467 25.77 19.247 42.62 44.729 54.45 74.177 7.65 19.043 15.48 38.086 24.32 56.583 6.24 13.032 17.29 21.548 31.42 25.412 12.04 3.299 31.52-7.374 40.45-20.47 15.21-22.292 11.92-44.034.31-66.387-4.24-8.155-7.17-17.069-10.03-25.839-8.73-26.838-2.01-51.845 9.56-76.212 3.53-7.447 6.12-15.539 10.73-22.233 8.98-13.063 18.46-25.916 28.94-37.781 10.35-11.733 30.2-9.679 41.99 2.812 19.98 21.172 28.97 47.207 33.66 75.177 3.65 21.824 6.43 43.834 10.99 65.463 5.79 27.349 24.03 46.82 44.86 63.785 14.4 11.73 29.37 22.946 44.99 32.964 12.63 8.112 26.17 15.212 40.1 20.84 40.66 16.454 82.88 28.187 124.93 40.387 1.37.402 2.72.772 4.07 1.163m-477.35 826.841c-25.23-14.98-44.2-36.47-61.75-59.4-11.08-14.49-21.58-29.45-32.93-43.74-10.1-12.74-24.56-18.65-40.1-20.61-11.63-1.47-23.59-.97-35.37-.44-32.62 1.44-65.2 4.19-97.84 4.78-24.31.44-48.64-1.84-72.96-2.7-26.01-.93-52.055-2.63-78.064-2.17-31.164.56-60.88-6.41-90.783-13.42-15.154-3.56-30.528-6.42-45.935-8.74-19.213-2.89-34.026 6.06-47.644 18.55-14.682 13.45-28.751 28.15-45.357 38.74-21.44 13.66-46.55 12.42-71.032 9.03-28.461-3.94-56.842-8.38-85.296-12.42-24.17-3.44-48.552-5.67-72.507-10.19-20.898-3.95-41.105-10.91-59.976-21.21-18.639-10.17-38.302-18.75-55.966-30.39-31.776-20.91-63.634-42.13-84.506-75.57-16.802-26.89-22.75-55.93-19.592-87.23 3.241-32.213 15.676-61.993 24.006-92.859 7.201-26.684 14.295-53.405 21.37-80.137 5.7-21.589 12.078-42.837 22.862-62.673 5.247-9.668 9.006-20.323 12.006-30.953 4.853-17.092-2.915-30.367-14.167-42.775-16.718-18.442-37.934-28.917-61.002-36.093-29.249-9.125-58.819-17.201-88.106-26.169-38.911-11.901-77.622-24.459-116.566-36.302-25.204-7.664-51.214-11.217-77.34-13.989-31.547-3.359-63.512-4.928-94.496-11.224-43.908-8.902-68.826-35.06-77.654-83.207-2.776-15.148-4.193-30.025-2.154-45.272 3.327-24.963 19.004-42.359 36.269-58.453 33.44-31.147 69.459-58.697 111.27-78.148 19.202-8.935 38.584-18.049 54.34-32.599 16.177-14.922 28.35-32.44 37.396-53.099 11.514-26.225 18.176-53.222 21.179-81.276 2.129-19.77 2.483-39.716 3.758-59.567 1.585-24.53 8.93-47.585 17.984-70.218 12.466-31.125 26.744-61.691 36.852-93.586 11.234-35.408 14.466-72.456-3.095-107.037-16.042-31.597-39.289-54.322-78.767-54.549-23.27-.146-43.077 7.566-61.752 19.376-28.463 17.982-56.38 36.844-84.376 55.532-35.852 23.92-75.042 38.742-117.309 47.623-42.754 9.011-84.831 21.215-122.492 45.015-28.95 18.292-47.565 44.119-60.393 75.47-9.756 23.848-18.107 47.89-23.082 73.213-5.45 27.748-4.276 55.027 11.908 78.584 11.043 16.065 25.531 30.085 39.917 43.479 27.506 25.596 57.373 48.751 79.741 79.503 22.784 31.325 38.52 65.367 41.664 104.604 2.071 25.948-8.74 46.41-25.569 64.735-16.35 17.804-33.806 34.764-48.468 53.878-18.894 24.663-26.494 53.328-23.528 84.855 3.185 33.863 15.896 64.282 31.402 93.822 13.454 25.656 25.536 51.728 29.141 80.9 3.825 30.84-2.222 58.911-23.852 82.252-21.257 22.964-43.186 45.31-64.187 68.499-10.887 12.04-20.64 25.146-30.434 38.1-21.182 28.046-41.496 56.775-63.278 84.345-16.653 21.05-39.773 27.59-65.437 21.26-23.185-5.73-46.144-12.74-68.69-20.64-35.351-12.37-71.336-19.63-108.89-18.82-46.367 1.02-92.746 3.08-139.087 2.31-36.073-.6-72.111-4.47-108.102-7.62-25.034-2.17-47.58 3.78-68.154 17.73-2.17 1.48-3.41 4.31-5.07 6.51m2853.05-509.164c-15.98-4.494-31.93-9.106-47.98-13.435-31.81-8.601-63.91-16.262-95.46-25.814-21.86-6.635-42.93-15.944-64.45-23.795-15.25-5.567-30.88-9.731-47.33-8.36-24.32 2.025-42 16.339-58.02 32.866-16.11 16.633-31.17 34.286-47.41 50.791-21.85 22.21-48.44 25.315-77.29 17.062-26.66-7.632-46.54-25.327-65.97-43.923-15.54-14.861-30.47-30.981-50.57-39.634-15.67-6.76-32.5-10.717-48.55-16.642-17.85-6.582-36.21-12.427-52.86-21.37-26.78-14.381-55.63-22.325-84.44-30.196-33.41-9.136-67.39-16.212-101.091-24.308-22.496-5.406-44.688-12.051-68.299-5.146-19 5.556-32.663 17.639-42.723 33.549-27.339 43.253-24.1 87.583-3.049 132.198 14.365 30.449 34.831 56.299 61.356 76.599 41.838 32.046 89.296 44.822 141.686 35.743 19.08-3.298 37.9-8.137 56.89-12.079 43.05-8.943 65.82 7.57 69.17 50.599 1.43 18.459 1.78 37.011 3.76 55.403 3.29 30.608 18.62 54.851 44.09 71.308 16.17 10.44 35.01 16.044 54.35 18.807 51.31 7.393 99.45-3.239 146.02-24.647 24.61-11.312 49.75-21.545 75-31.413 32.52-12.71 65.13-8.709 97.35 1.692 14.87 4.806 29.44 10.622 44.19 15.8 1.14.398 2.77-.641 4.18-1.035m-512.29 887.344c-1.56.67-3.22 2.07-4.7 1.92-49.75-5.39-94.3 11.32-138.11 31.75-28.445 13.27-57.112 25.14-89.754 24.39-28.457-.65-55.139-6.47-81.419-17.35-32.774-13.57-58.545-36.29-84.288-59.51-13.331-12.01-26.261-24.54-42.454-33.25-12.607-6.76-25.713-10.34-39.545-9.28-19.235 1.46-38.606 3.2-57.431 7.17-38.328 8.07-74.799 22.15-111.421 35.91-22.343 8.4-45.733 14.79-69.184 19.19-21.726 4.09-43.633.33-62.549-12.21-19.79-13.12-35.106-30.83-47.682-50.97-17.568-28.11-20.1-60.2-25.433-91.68-4.81-28.38-17.755-52.2-41.091-70.27-19.321-14.96-40.936-24.92-63.286-34.28-36.123-15.13-74.677-25.82-106.46-49.62-45.27-33.9-78.53-75.41-72.71-136.58 1.831-19.12 6.056-38.07 10.203-56.88 5.513-24.96 5.459-49.95 1.41-74.88-2.925-18.01-11.071-34.46-26.477-44.3-8.524-5.46-20.657-7.97-30.938-7.4-20.352 1.12-40.85 4.02-60.773 8.5-42.284 9.49-85.013 15.25-128.139 18.14-59.655 3.98-116.513 18.08-169.592 45.78-10.896 5.69-20.519 13.93-30.34 21.5-11.336 8.72-14.475 22.18-15.155 34.89-2.966 56.99 1.023 113.66 10.673 169.91 4.684 27.3 10.104 54.49 14.236 81.86 3.756 24.81.822 48.87-14.3 69.85-5.907 8.18-13.031 15.53-20.146 22.73-15.443 15.66-32.042 30.29-46.659 46.65-16.082 18.01-27.087 39.39-37.507 61.31-8.638 18.17-17.012 37.75-34.402 49.92-15.578 10.9-32.393 10.44-49.194 1.41-18.155-9.76-31.877-24.75-46.343-38.81-17.258-16.75-35.316-32.65-49.085-52.86-12.915-18.97-18.288-39.6-18.606-61.99-.363-26.99.304-54.03-.899-80.99-1.403-31.29-8.858-61.33-24.414-88.86-15.288-27.03-38.749-42.84-69.451-45.83-38.231-3.73-76.603-6.27-114.949-8.41-53.789-3.02-107.226 1.24-160.266 10.48-24.42 4.25-49.01 7.69-71.58 19.1-12.1 6.13-23.01 14.29-28.65 26.15-5.39 11.34-8.54 24.37-9.73 36.95-2.77 29.65 1.88 58.89 8.16 87.88 8.53 39.31 15.24 78.86 11.72 119.36-1.25 14.19-2.44 28.41-4.5 42.49-1.82 12.47 1.93 22.99 10.86 30.82 10.6 9.3 21.96 17.92 33.83 25.52 23.92 15.32 47.94 30.65 72.84 44.28 21.65 11.86 44.85 20.86 66.888 32.04 22.311 11.34 46.568 19.67 63.964 39.12 13.152 14.68 17.584 31.02 11.387 50.39-7.726 24.12-25.253 40.58-42.696 57.16-26.679 25.36-53.713 50.36-80.313 75.8-5.73 5.48-10.34 12.17-15.45 18.3M1863.17 484.765c-33.55-9.783-67.18-19.121-99.28-33.365-32.03-14.199-61.51-31.755-85.18-57.838-23.64-26.011-33.73-56.82-32.46-92.041 1.3-35.877 6.89-70.818 16.91-105.281 6.68-22.976 19.4-41.718 35.3-59.141 14.74-16.166 29.25-32.715 41.91-50.493 8.24-11.592 13.19-25.566 19.2-38.648 11.21-24.349 22.04-48.78 39.09-69.933 11.23-13.925 20.99-29.054 32.24-42.968 16.77-20.752 33.31-41.657 53.91-59.066 23.02-19.476 49.67-28.203 79.09-27.486 25.36.613 50.82 2.636 75.99 5.89 47.99 6.245 94.61 5.147 139.14-17.003 25.4-12.631 41.04-32.463 50.5-58.693 18.63-51.648 28.9-104.937 31.3-159.608 1.73-39.433-.95-78.502-15.69-116.005-9.25-23.537-26.73-39.771-45.79-54.475-18.49-14.251-38-27.187-57.29-40.378-18.13-12.394-36.56-24.297-54.81-36.478-23.52-15.711-49.99-22.124-77.56-25.992-24.54-3.424-49.05-7.525-73.27-12.796-16.64-3.616-32.37-11.028-44.51-23.28-19.56-19.751-20.15-44.042-13.41-69.169 4.49-16.765 10.67-32.909 20.25-47.551M900.182 2152.7c-13.515-13.61-21.964-30.51-27.68-48.23-15.802-48.99-27.665-99.1-28.961-150.71-.703-28.5 3.56-57.08 5.018-85.67.966-19 .651-38.46-13.009-53.47-12.031-13.24-25.208-25.65-39.169-36.8-14.438-11.52-30.005-21.84-45.868-31.39-44.856-26.95-91.701-28.63-140.143-10.08-31.339 12.01-58.149 31.23-84.79 50.77-28.769 21.1-59.677 37.75-94.455 46.04-35.103 8.37-70.709 14.49-107.002 12.89-24.462-1.07-47.536-8.32-69.779-18.62-13.157-6.08-26.494-12.65-40.466-15.94-18.881-4.45-35.563 2.22-49.746 15.83-16.829 16.14-28.212 35.32-37.672 56.56-13.379 30.03-17.463 61.65-20.383 93.66-5.264 57.72 4.139 112.27 33.595 163.17 16.324 28.22 30.419 57.66 40.286 89.09 7.677 24.48-2.273 43.05-16.417 60.68-31.233 38.95-68.99 71.39-105.414 105.2-26.019 24.18-45.92 53.35-62.31 84.85-7.744 14.89-15.199 29.94-23.455 44.55-14.955 26.53-30.384 52.8-45.609 79.17M1624.99 897.302c-21.19-12.488-42.97-22.649-67.84-26.522-27.61-4.299-53.13 2.072-78.39 10.951-38.56 13.543-76.9 28.137-118.26 29.882-52.27 2.203-103.67-4.367-152.59-23.225-27.34-10.546-54.48-23.512-72.96-47.856-10.71-14.1-20.05-29.365-28.62-44.903-13.58-24.596-32.68-41.506-59.06-52.064-39.62-15.853-80.177-28.193-121.639-37.635-20.574-4.682-41.685-7.052-60.878 5.075-6.575 4.172-12.871 9.687-17.424 15.925-12.399 16.976-18.862 36.813-24.835 56.78-9.406 31.528-15.531 63.743-17.457 96.481-2.591 44.357 6.853 86.537 26.03 126.779 10.746 22.55 20.212 45.8 35.931 65.44 20.798 25.99 48.219 39.97 81.596 41.28 25.713.99 51.476.7 77.156 2.14 23.7 1.32 47.27 4.64 70.95 6.26 30.49 2.08 60.04-1.75 89.2-12.11 27.8-9.89 56-19.28 85.8-21.89 30.04-2.63 58.85.49 83.91 18.96 17.9 13.19 26.52 32.02 29.49 53.66 3.36 24.43 5.64 49.03 10.29 73.2 2.35 12.23 8.91 23.62 13.58 35.41M-162.135 2552.93c10.606-18.37 21.667-36.5 31.703-55.17 12.967-24.16 24.137-49.3 37.845-72.99 21.563-37.26 50.147-69.13 80.738-99.17 11.724-11.53 24.989-21.63 35.821-33.94 25.423-28.88 36.348-61.44 20.931-99.33-6.776-16.69-13.65-33.38-19.428-50.41-8.588-25.27-8.492-51.58-4.899-77.5 5.373-38.66 7.506-77.37 3.736-116.15-4.143-42.71-2.09-85.25.357-127.89 1.773-31-2.838-60.21-25.99-84.04-15.903-16.38-35.396-25.78-56.741-31.09-44.182-11.01-83.546-1.94-116.391 30.93-18.838 18.86-32.26 40.96-42.735 65.47-25.643 59.96-35.034 123.8-44.522 187.41-3.666 24.62-2.363 50.25-1.105 75.29 1.931 38.49-1.997 76.52-4.532 114.76-1.408 21.06-.518 42.42 1.134 63.53 3.571 45.44 7.537 90.78 4.121 136.44-2.708 36.32-6.267 72.51-13.926 108.18m160.12 92.37c11.21-20.8 23.752-41.01 33.32-62.52 12.832-28.91 26.024-57.51 42.093-84.8 13.559-23.04 30.897-42.87 49.942-61.2 19.955-19.2 41.962-36.33 61.396-56 25.71-26 41.039-56.96 38.71-94.98-1.321-21.64-7.876-41.69-17.282-60.77-21.786-44.19-27.09-91.18-26.201-139.63.618-33.72-.698-67.48-.577-101.24.104-29.13 3.588-57.89 10.435-86.32 7.168-29.79 15.63-59.55 13.32-90.7-2.44-32.97-20.28-56.68-46.958-74.58-9.402-6.3-18.371-13.48-28.428-18.52-17.835-8.93-35.818-18.06-54.684-24.27-23.083-7.6-45.565-1.89-67.623 7.76-37.312 16.29-67.378 41.73-94.218 71.46-5.931 6.58-10.491 14.43-15.185 22.03-6.099 9.89-11.507 20.24-17.567 30.16-15.78 25.82-25.033 54.27-32.311 83.23-10.131 40.31-18.559 81.01-27.766 121.55-8.359 36.71-10.718 74.03-12.319 111.5-1.695 40.4-6.76 80.76-3.229 121.2 2.558 29.16 6.971 58.18 11.176 87.15 6.505 44.78 3.072 89.04-5.803 133.05-3.413 16.87-7.466 33.6-11.242 50.39m-90.702-52.37c15.945-18.7 24.732-40.69 30.17-64.41 5.916-25.89 4.434-51.52-2.04-76.92-4.066-15.95-9.125-31.64-14.115-47.32-9.863-30.99-9.784-62.53-4.764-94.12 7.219-45.52 11.024-91 6.978-137.18-3.494-39.88-4.601-79.97-6.971-119.97-.257-4.54-1.099-9.32-2.897-13.47-7.801-17.89-15.199-20.31-32.858-16.5-15.566 3.35-30.701 8.85-45.969 13.55-41.045 12.65-80.921 6.38-120.638-6.7-32.154-10.6-63.866-23.07-98.307-24.94-23.273-1.26-39.278 9.45-51.988 28.12-18.593 27.31-36.048 55.27-57.631 80.67-23.159 27.23-48.861 52.95-64.404 85.98-8.926 18.98-11.633 36.9 2.911 54.65 9.106 11.09 22.521 16.68 36.657 20.57 25.894 7.14 52.45 5.56 78.74 7.24 27.085 1.74 52.682 8.19 75.917 22.6 15.134 9.38 29.497 20.32 45.373 28.15 23.765 11.72 48.338 21.95 73.009 31.69 27.79 10.99 53.849 23.9 64.515 54.29 4.545 12.93 7.289 26.8 8.638 40.46 2.992 30.41 4.57 60.95 6.75 91.44M1599.32 941.753c-24.59-11.397-48.9-25.2-77.42-19.589-16.8 3.305-33.37 8.39-49.59 13.985-17.71 6.093-34.81 14.008-52.4 20.508-32.32 11.974-65.58 10.018-98.68 4.581-48.88-8.044-97.56-17.283-144.79-32.598-26.06-8.444-52.62-15.551-77.05-28.734-20.59-11.115-34.01-27.783-43.03-48.743-5.71-13.271-10.94-26.801-17.53-39.626-11.58-22.521-29.64-37.444-53.517-46.913-21.199-8.41-42.085-14.377-65.178-12.468-23.012 1.904-39.868 13.813-51.322 32.183-27.736 44.566-35.519 92.659-21.848 143.911 9.128 34.262 23.967 65.627 45.543 93.79 19.696 25.71 45.861 37.68 78.142 39.46 38.51 2.13 76.89 6.43 115.38 9.35 21.55 1.62 43.15 1.35 64.19-4.4 33.14-9.06 65.94-19.5 99.3-27.74 30.85-7.64 62.36-11.65 94.35-9.78 57.83 3.37 105.79 45.17 100.05 108.62-2.26 24.81-1.42 49.9-2.01 74.85m-2587.22 50.95c13.15 3.25 26.15 8.26 39.46 9.4 35.53 3.01 71.24 3.7 106.781 6.51 25.979 2.05 51.794 5.85 77.671 9.1 32.998 4.14 66.07 3.88 99.217 2.87 13.125-.42 26.427-.11 39.442 1.49 28.664 3.54 49.025 20.13 65.105 43.24 17.275 24.83 28.939 52.38 37.074 81.06 10.405 36.77 17.491 74.48 27.539 111.38 6.6 24.3 22.061 41.58 47.355 49.09 17.342 5.15 31.423-1.24 43.275-12.05a254.6 254.6 0 0 0 33.015-36.56c13.634-18.45 25.403-38.26 38.236-57.32 15.187-22.56 20.565-48.45 22.474-74.57 3.358-46.17 3.351-92.49-5.218-138.28-9.74-51.91-29.752-99.4-68.44-136.23-28.021-26.66-62.825-42.16-101.903-44.9-28.695-2.02-57.541-2.35-86.334-2.56-46.328-.3-92.654-.65-138.952.56-28.281.74-56.583 5.17-82.322 17.63-15.434 7.49-29.485 18.06-43.655 27.95-20.54 14.33-39.78 30.77-64.09 38.71-9.42 3.07-19.26 4.79-28.91 7.11M810.494 2306c-13.302-30.38-26.167-61.37-47.117-87.14-23.822-29.3-57.642-41.74-94.452-45.38-21.772-2.16-43.702-2.67-65.576-3.63-27.844-1.22-55.692-2.39-83.533-3.17-37.861-1.07-75.384.04-112.827 8.01-50.49 10.74-97.081 29.87-139.954 58.24-7.917 5.25-15.913 10.99-22.083 18.07-10.189 11.72-13.917 26.2-7.069 40.67 11.129 23.49 22.858 46.79 35.819 69.33 30.485 53.04 54.219 109.05 76.158 166.03 19.157 49.77 36.862 100.13 62.931 147.11 18.249 32.89 45.243 53.54 80.153 64.75 19.512 6.26 39.477 11.1 59.224 16.59m225.847-391.18c-9.389-20.04-19.077-39.93-28.056-60.15-9.48-21.35-19.176-42.42-35.591-59.61-20.303-21.23-46.25-30.51-74.417-33.17-35.341-3.34-70.884-4.64-106.303-7.17-35.181-2.5-70.283-2.34-105.076 3.54-34.874 5.87-68.526 15.51-96.192 39.2-23.292 19.94-32.554 45.2-27.106 75.59 6.491 36.16 22.832 68.75 37.177 102.04 21.398 49.67 42.417 99.51 64.902 148.68 12.319 26.96 27.031 52.75 48.106 74.43 31.057 31.96 84.621 38.57 116.692-2.72 12.528-16.13 25.086-32.27 38.373-47.76 12.28-14.32 27.148-25.19 46.222-29.13 1.393-.28 2.57-1.6 3.838-2.47M1820.05 559.442c-49.48-13.995-100.74-16.627-151.34-23.329-20.69-2.744-41.35-6.294-62.42-2.956-20.5 3.252-36.12 13.61-46.36 31.394-8.71 15.124-17.19 30.481-24.34 46.378-11.82 26.276-32.85 34.901-59.67 33.015-17.58-1.23-35.04-3.729-52.59-5.306-27.41-2.461-54.64-4.791-82.12 2.039-22.62 5.628-39.6 18.518-52.37 36.489-13.54 19.041-22.41 40.338-23.77 64.612-1.56 27.734 15.77 54.7 45.95 64.829 37.44 12.571 72.94 6.902 108.53-5.424 37.55-12.996 68.54-36.511 98.48-61.684 15.88-13.345 33.54-24.378 54.69-22.394 16.41 1.527 32.82 6.637 48.42 12.325 24.63 8.975 48.59 19.775 72.8 29.903 2.82 1.187 5.35 3.035 8.03 4.584m-365.46 633.053c-23.88-16.15-46.93-33.75-71.88-48.05-22.66-13.01-46.35-25.17-73.65-26.56-23.39-1.2-45.37 3.28-66.19 14.01-26.49 13.62-44.17 36.18-61.61 59.27-16.01 21.21-28.5 44.99-48.19 63.55-11.8 11.12-24.944 19.37-40.258 24.02-14.806 4.48-29.84 8.29-44.864 12.08-25.874 6.55-44.53 22.38-60.919 43.02-11.954 15.05-19.109 31.76-22.945 49.54-13.42 62.14 38.807 96.81 90.111 87.65 30.831-5.51 56.862-21.38 81.995-39.12 21.83-15.39 44.99-28.7 70.74-36.06 28.89-8.28 57.71-16.91 88.02-19.61 17.64-1.59 34.72-.48 51.87 2.96M2183.48-70.032c-8.62.547-17.29.683-25.85 1.733-40.44 5.051-79.26-2.586-117.94-13.476-28.71-8.094-58.33-11.626-87.48-4.088-25.13 6.513-45.81 21.354-62.54 41.769-22.89 27.933-33.01 59.717-34.06 95.58-.45 14.624-3.26 29.964-8.82 43.382-4.72 11.385-14.14 21.32-22.97 30.432-20.3 20.898-41.2 41.241-62.47 61.162-18.45 17.289-35.15 36.02-47.31 58.067-15.28 27.704-23.15 57.649-17.32 89.419 4.29 23.397 17.56 42.37 34.99 58.212 20.94 19.056 44.81 33.172 71.96 41.701 25.03 7.873 49.96 16.149 74.92 24.237M532.936 987.568c-14.672-13.611-29.536-27.025-43.964-40.881-15.569-14.952-30.618-30.451-46.146-45.431-9.019-8.702-19.333-16.096-31.488-19.233-19.142-4.935-35.817 2.119-49.004 15.426-21.384 21.581-36.724 47.037-46.977 76.021-7.108 20.107-12.886 40.01-12.542 61.46.608 38.6 18.296 68.19 47.894 91.68 27.185 21.6 57.393 37.04 91.141 45.5 31.144 7.8 62.044 8.32 92.181-3.79 25.395-10.22 50.906-20.37 75.416-32.49 18.557-9.15 24.727-20.24 19.983-44.05-4.802-24.16-20.703-40.59-37.857-55.91-18.12-16.2-37.267-31.23-55.997-46.727-.465-.397-1.488-.139-2.264-.176M521.35 2808.86c-28.668-9.15-58.287-10.73-88.065-11.99-14.691-.61-29.321-3.74-35.586-20.28-2.489-6.61-5.426-13.06-7.498-19.81-13.435-43.99-25.2-88.57-40.378-131.95-18.304-52.36-38.583-104.06-59.684-155.36-9.741-23.67-23.76-45.72-42.397-63.78-34.492-33.41-63.666-33.08-99.082-.43-27.963 25.8-45.369 58.63-59.36 93.73-13.66 34.26-34.4 63.77-62.296 88.61-16.408 14.61-30.132 32.23-45.064 48.52M1936.47-354.879c17.86 3.989 35.58 8.848 53.6 11.75 23.82 3.83 47.95 6.761 72 2.477 9.93-1.776 19.91-4.984 29.02-9.281 17.54-8.278 25.25-24.489 29.17-42.226 6.56-29.725 3.55-58.223-14.14-84.084-13.07-19.14-32.52-29.469-53.52-36.61-39.49-13.443-79.92-21.107-121.88-14.85-25.82 3.859-46.83 15.318-59.37 39.208-17.14 32.717-14.92 81.134 19.56 109.754 13.34 11.098 27.79 19.619 45.17 22.432M-805.5 674.784c17.298 8.394 34.814 16.322 51.765 25.363 10.529 5.642 20.888 12.112 30.06 19.746 26.551 22.038 55.45 24.997 87.647 14.98 31.487-9.81 60.312-24.319 86.69-43.813 32.443-23.986 50.033-57.704 59.898-95.728 7.284-28.076 9.983-56.717-.945-84.565-5.568-14.189-12.727-27.806-19.955-41.258-18.81-34.866-38.094-69.491-57.15-104.242-9.456-17.256-18.79-34.545-28.185-51.818M280.387 2807.24c35.296-27.81 54.708-63.3 46.972-108.84-4.185-24.65-11.978-49.02-20.811-72.52-13.3-35.41-28.332-70.23-43.809-104.76-5.978-13.35-14.256-26.1-27.604-33.98-16.103-9.53-28.947-7.82-42.18 5.25-10.18 10.06-15.263 22.83-19.696 36.08-13.977 41.71-20.085 84.5-15.656 128.28 2.143 21.24 6.948 42.18 10.709 63.25 1.553 8.58 3.539 17.08 5.313 25.63M2001.76 244.715c-23.42-13.521-46.76-27.176-70.28-40.523-37.12-21.099-73.61-20.038-109.71 2.969-19.5 12.438-37.2 26.66-51.96 44.691-20.54 25.102-32.34 52.447-22.76 85.121 5.15 17.545 16.94 30.623 31.23 42.137 26.72 21.569 58.98 29.09 90.81 37.831 9.37 2.58 19.06 4.012 28.61 5.955M-572.076 272.533c9.664 22.954 18.968 46.086 29.072 68.857 16.091 36.278 37.476 69.135 69.46 93.255 41.075 30.962 84.866 31.469 129.599 7.536 17.635-9.429 32.077-22.86 42.538-39.464 10.694-17.009 14.43-36.622 10.489-56.657-6.236-31.565-24.305-56.133-47.635-77.467-26.082-23.874-55.826-42.743-84.35-63.324-13.869-10.012-26.463-22.501-37.314-35.782-11.631-14.246-13.955-32.628-14.689-50.735-.228-5.709.594-11.454.947-17.188m-295.604 510.977c26.101 9.543 52.063 19.546 78.379 28.494 27.418 9.353 55.186 16.364 84.28 6.199 15.682-5.467 28.344-14.657 38.431-27.673 25.697-33.15 31.418-70.456 22.162-110.421-13.048-56.161-35.996-108.452-63.567-158.836-1.242-2.259-3.082-4.196-4.654-6.285M-1225.81 1938.82c-3.02-15.96-5.83-31.99-9.14-47.91-6.71-32.12-.81-63.11 8.02-93.81 8.57-29.76 17.72-59.32 26.4-89.06 3.69-12.68.07-23.48-10.04-31.84-16.58-13.7-33.53-26.93-49.92-40.82-18.89-16.02-37.38-32.5-56-48.85-3.17-2.79-6.1-5.87-9.14-8.8m2637.49-138.08c-18.88-12.47-37.12-26.09-56.83-37.13-18.59-10.43-39.02-16.7-61.01-15.54-39.11 2.04-69.3 40.38-68.52 77.79.33 16 12.21 29.41 29.74 32.42 19.03 3.25 38.49 4.07 57.47 7.6 16.67 3.1 32.94 8.51 49.43 12.74 1.23.32 2.78-.66 4.17-1.04m-201.21 348.52c-4.41-.57-8.99-.61-13.22-1.79-30-8.49-59.735-8.79-88.101 5.06-36.866 18.01-57.42 48.4-60.89 89.11-3.914 45.98 9.805 86.9 39.382 122.41m-2244.561-185.13c3.81-14.79 6.99-29.79 11.54-44.36 7.31-23.31 16.55-46.04 23.12-69.54 13.92-49.72 4.11-80.44-35.43-114.96-16.24-14.18-35.06-25.38-52.71-37.94m612.895-1061.555c19.692 4.25 39.23 9.388 59.081 12.47 16.944 2.637 34.086 1.636 50.425-4.968 25.937-10.445 36.518-31.4 37.801-57.544 2.444-50.43-12.452-96.709-36.039-140.63M1802.59 589.687c-41.56-8.291-82.68-7.02-123.16 5.998-10.83 3.466-20.52 8.945-27.39 18.525-11.37 15.851-10.06 33.594 4.58 51.971 9.52 11.944 21.72 22.045 33.83 31.533 11.28 8.848 24.04 15.782 36.16 23.574m569.42-988.318c1.99-10.312 3.75-20.659 6.04-30.904a6475 6475 0 0 1 17.38-75.321c6-25.321 5.56-51.15 6.46-76.898 1.16-33.103 4.24-65.97 12.75-98.122.35-1.365.77-2.716 1.16-4.059M1043.92 1903.75c-23.39-4.58-45.992-4.32-68.145 6.74-26.966 13.47-41.407 40.58-40.732 69.04.539 22.36 6.641 43.15 20.039 61.56 1.78 2.44 2.194 5.86 3.242 8.86M626.275 312.393c8.511-22.048 2.359-42.665-6.388-62.931-14.022-32.513-31.622-62.747-54.629-89.987-14.137-16.721-31.813-26.155-52.237-30.827-38.951-8.892-78.169-16.473-117.137-25.246-44.903-10.119-81.547 3.5-109.791 38.7-24.419 30.444-40.396 65.067-45.106 104.319-3.104 25.914 5.468 48.443 18.664 70.224 14.423 23.8 26.703 48.547 35.144 75.447 9.204 29.319 19.082 37.156 53.319 40.268 44.697 4.062 87.329-6.253 127.494-25.704 24.352-11.797 47.838-25.301 71.842-37.787 14.221-7.391 28.993-13.821 43.052-21.511 14.759-8.056 27.088-19.032 35.242-34.089m42.232 547.187c8.289-28.524-5.457-48.952-28.887-62.942-15.329-9.133-30.709-17.909-48.954-19.987-21.801-2.512-31.729 3.682-37.791 24.471-6.481 22.14-5.284 44.035 4.007 65.051 12.167 27.484 45.802 38.499 74.731 26.748 16.228-6.591 28.598-16.746 36.382-32.455M-524.871 1373.8c3.843-15.57 8.833-30.94 11.312-46.73 5.891-37.64-1.084-73.54-16.602-108.23-11.917-26.67-28.512-50-51.067-67.96-20.401-16.25-45.2-26.53-71.299-25.74-52.217 1.57-104.211.57-156.291-2.82-30.582-2-60.983-.18-90.76 8.9-31.046 9.45-52.72 29.03-66.326 57.86-7.833 16.55-.577 34.72 17.421 45.6 32.337 19.54 67.597 23.25 104.219 18.66 16.436-2.05 32.854-4.47 49.199-7.16 18.825-3.12 37.444-1.47 54.162 6.95 14.095 7.09 26.211 18.22 34.956 31.67 16.686 25.67 32.551 51.87 48.852 77.81 11.734 18.7 22.815 37.64 41.918 50.57 18.191 12.33 35.386 12.44 54.014 1.43 16.415-9.73 26.987-23.85 35.83-39.92M721.828 898.642c3.974-15.08 9.284-29.98 11.619-45.339 4.134-27.119 5.339-54.643-11.356-78.65-6.137-8.838-14.314-17.26-23.407-22.895-27.023-16.81-54.741-32.504-82.573-47.957-20.232-11.243-40.837-22.24-63.644-27.286-40.552-8.968-72.786.308-98.35 33.226-11.275 14.541-13.514 31.65-6.526 49.616 13.139 33.775 25.552 67.827 38.679 101.622 13.382 34.378 33.829 63.379 65.818 83.081 28.333 17.437 59.012 20.474 90.677 13.028 13.845-3.264 27.688-8.174 40.335-14.623 17.908-9.143 29.388-25.107 38.166-42.939M-44.947 2255.47c3.108-12.11 9.077-24.01 5.724-36.87-2.854-11-6.585-21.87-10.906-32.38-5.237-12.71-12.364-24.69-17.164-37.54-5.103-13.61-1.477-26.71 4.748-39.72 15.835-33.09 35.479-64.61 41.365-101.85 3.924-24.75 2.394-49.59 2.378-74.37-.002-30.69-.723-61.38-1.314-92.08-.46-24.01-4.14-46.78-21.211-65.81-21.703-24.2-61.086-29.36-85.493-18.31-29.892 13.51-47.661 37.38-60.527 67.01-15.699 36.15-22.895 74.1-28.83 112.49-4.017 25.97-5.245 52.2-.029 78.14 5.331 26.49 19.624 48.47 37.702 68.03 9.644 10.43 20.156 20.02 29.812 30.42 16.282 17.55 14.749 36.87-4.285 56.69-10.279 10.73-21.04 20.99-31.272 31.76-17.534 18.43-25.104 41.25-27.366 65.93-3.325 36.28-.198 72.29 6.51 107.98 1.37 7.3 4.608 14.38 7.845 21.16 6.37 13.29 19.616 17.7 31.347 8.56 16.431-12.82 32.925-26.2 46.484-41.88 17.062-19.71 31.479-41.74 46.41-63.19 9.779-14.04 18.418-28.87 27.574-43.35m-520.401-951.18c9.568-37.24-1.448-68.46-28.477-94.52-11.83-11.41-27.02-17.53-43.076-15.16-19.84 2.91-31.031 14.55-28.894 37.4 1.952 20.76 11.52 38.8 21.745 56.55 9.023 15.65 19.67 29.32 36.38 37.71 12.361 6.21 27.166 3.07 34.601-8.65 2.566-4.05 4.805-8.28 7.209-12.44M1135.34 231.694c3.16-12.028 4.64-24.745-.94-35.753-9.94-19.67-22.88-23.801-39.2-10.912-11 8.682-15.51 22.553-13.34 36.967.95 6.33 3.48 13.036 7.14 18.283 12.34 17.64 33.87 12.256 42.73-2.34 1.06-1.751 2.05-3.547 3.08-5.339M35.708 218.014c6.814-20.534 11.616-41.459 11.61-63.232-.02-17.027-.281-34.038-.122-51.064.255-24.14 6.404-46.91 15.985-68.982 13.445-30.996 28.105-61.6 39.168-93.457 8.3-23.865 10.162-49.186 1.021-74.383-11.76-32.465-50-49.224-82.8-41.816-31.789 7.169-59.163 23.621-85.976 40.705-35.869 22.881-72.896 42.242-114.147 53.997-29.802 8.495-60.24 16.444-86.014 35.336-14.765 10.83-27.589 23.241-36.854 39.2-16.774 28.919-30.491 59.27-42.655 90.363-13.567 34.679-6.96 65.557 17.48 93.033 18.419 20.709 37.606 40.756 55.489 61.902 20.149 23.816 38.604 49.095 59.111 72.604 8.225 9.452 19.02 17.663 30.247 23.297 17.32 8.715 35.884 2.932 51.839-4.254 38.236-17.223 75.59-36.394 112.977-55.444 24.42-12.451 41.161-32.626 53.17-56.946m-372.063 611.51c1.678-7.718 4.622-15.4 4.836-23.167.57-20.9-10.127-35.738-26.709-47.779-21.958-15.916-46.694-25.417-72.222-33.01-29.606-8.817-57.704-2.114-85.267 9.809-32.673 14.137-63.744 30.844-90.551 54.512-17.095 15.086-32.509 31.761-45.091 50.97-5.654 8.635-11.536 17.576-19.062 24.463-14.31 13.07-28.535 9.33-39.943-.135-18.309-15.197-36.621-30.833-56.823-43.242-31.733-19.478-64.894-19.552-97.342.164-16.4 9.962-32.182 20.949-43.319 36.675-8.086 11.421-8.281 25.213-3.341 38.217 7.181 18.925 20.277 32.86 37.689 43.375 39.319 23.755 81.349 26.021 124.606 15.783 12.185-2.886 24.099-8.73 34.915-15.259 31.055-18.773 42.581-11.296 64.24 8.123 21.631 19.377 45.384 35.481 71.282 47.066 41.496 18.562 76.015 17.622 115.748-15.471 25.285-21.076 45.331-46.976 66.378-71.938 15.668-18.584 31.394-37.134 46.481-56.182 5.245-6.636 8.709-14.685 12.994-22.107M-2.468 210.186c2.017-5.543 4.104-11.073 6.044-16.661 5.896-17.029 4.903-34.642 4.026-52.189C6.378 117.395 1.26 93.338 8.83 69.668c4.341-13.532 8.81-27.196 14.931-39.982 9.165-19.126 20.736-37.119 29.57-56.384 9.096-19.808 15.508-40.626 11.883-63.126-4.863-30.335-27.641-44.205-57.928-39.28-24.242 3.944-46.026 14.679-65.988 28.316-41.026 28.026-85.405 49.876-129.647 71.933-29.289 14.6-45.429 38.592-49.263 69.868-3.483 28.574-9.444 56.361-16.7 84.119-6.133 23.498-1.697 46.286 8.899 68.16 12.073 24.884 27.327 47.467 46.739 67.079 21.022 21.236 46.156 27.908 75.147 19.792 28.615-7.999 56.001-18.815 82.12-33.138 16.061-8.796 27.524-21.968 38.41-36.013M-1009.12 1900.34c6.77-17.79 1.23-32.32-12.62-43.89-14.59-12.2-29.5-24.05-44.83-35.32-11.03-8.11-22.42-16.05-34.6-22.13-11.14-5.56-23.32-10.49-35.52-12.13-20.58-2.76-37.8 11.89-45.38 32.63-10.32 28.3-7.51 55.55 3.6 82.6 10.11 24.63 20.52 49.14 31.06 73.61 1.98 4.59 4.83 8.96 8.06 12.77 1.29 1.55 4.64 1.4 7.06 1.97 15.95 3.79 28.97-4.45 40.99-12.09 26.24-16.67 50.27-36.38 71.25-59.48 4.51-4.96 6.99-11.72 10.41-17.64m595.225-1035.052c2.165-7.849 5.36-15.565 6.266-23.55 2.237-19.912-11.342-41.297-30.047-48.19-19.859-7.301-40.257-12.242-61.577-8.281-34.536 6.405-62.227 23.985-78.007 55.637-17.844 35.808-13.979 77.671 23.177 105.086 16.217 11.959 37.146 12.194 56.9 4.04 22.69-9.364 40.118-25.338 54.925-44.214 9.947-12.685 18.598-26.376 27.821-39.633m-425.287 687.397c3.103-10.86 6.521-21.63 9.24-32.58 4.217-16.97 3.21-33.85-1.441-50.69-7.708-27.82-27.745-42.47-54.281-47.56-37.378-7.16-72.247 2.98-101.808 25.32-23.056 17.43-33.196 43.06-27.276 72.82 7.96 40.14 34.562 62.41 71.805 74.84 17.022 5.67 33.857 8.8 51.739 4.92 20.593-4.49 34.924-16.57 44.844-34.64 2.149-3.9 4.452-7.71 6.678-11.57M-53.776 175.834c4.286-17.136 1.564-33.537-4.207-50.003-4.734-13.451-8.113-27.379-11.93-41.123-5.534-19.952 4.587-35.879 15.271-50.375 13.2-17.875 29.69-33.337 42.748-51.32 5.653-7.788 8.007-19.126 8.661-29.08.783-11.603-8.111-17.714-24.385-11.535-12.77 4.836-24.942 12.998-35.272 22.07-12.152 10.667-23.993 22.49-30.57 37.892-5.164 12.106-10.946 24.215-13.929 36.911-4.392 18.566-10.625 36.043-20.939 52.037-7.257 11.232-14.791 22.278-21.72 33.699-7.548 12.451-11.767 25.95-14.311 40.468-3.417 19.463 4.08 34.098 18.06 45.433 9.126 7.402 21.85 7.192 32.938 5.986 10.393-1.119 20.697-5.245 30.454-9.404 13.842-5.888 22.318-17.495 28.619-30.769M-78.62 1972.87c9.52-34.76 10.38-70.19 7.527-105.79-.775-9.57-2.742-19.4-6.139-28.35-9.369-24.71-31.691-27.34-50.651-12.95-15 11.42-23.12 27.26-28.375 44.07-9.232 29.45-15.24 59.85-8.841 90.87 4.218 20.58 13.812 37.2 36.23 43.89 13.627 4.07 33.353-2.12 41.554-16.64 2.7-4.76 5.476-9.48 8.214-14.23M1316.47 111.042c5.33-15.737-4.88-32.5-18.27-40.26-44.85-25.893-93.71-32.72-144.46-31.202-27.38.823-54.19 5.34-76.92 21.005-23.79 16.408-38.97 40.028-50.16 66.931-9.88 23.8-17.52 48.075-20.3 73.43-3.79 34.54 1.34 67.574 27.82 93.068 34.18 32.89 88.9 38.165 129.47 13.014 18.9-11.707 31.38-30.593 37.95-52.498 5.58-18.524 11.04-37.066 16.68-55.576 9.05-29.705 29.27-48.642 57.35-60.703 11.63-5.004 22.42-12.063 33.33-18.616 2.85-1.723 4.69-5.103 6.99-7.737m-202.16 448.779c8.89-33.345-1.45-60.797-27.53-81.819-10.5-8.453-23.15-15.599-36-19.446-18.36-5.485-37.65-8.554-56.751-10.484-15.095-1.518-29.457 2.373-41.42 13.561-14.744 13.822-16.181 31.858-14.789 49.316 2.52 31.629 14.719 60.082 39.477 80.904 40.203 33.803 84.663 32.404 122.433-7.367 6.18-6.51 9.46-15.797 14.08-23.797M-344.73 363.49c10.824-31.044-5.338-53.123-25.734-72.635-19.744-18.904-43.671-31.588-70.238-38.316-15.304-3.876-31.253-5.964-45.987 1.824-14.919 7.888-21.855 21.951-21.9 38.066-.074 29.798 12.125 54.909 32.882 76.069 26.035 26.494 70.327 35 102.738 21.405 12.425-5.215 21.223-14.04 27.727-25.526M633.456 1483.02c8.728-30.35 5.073-59.52-10.706-86.5-9.606-16.41-23.48-28.02-42.038-35.88-33.591-14.26-69.208-20.99-103.625-31.94-30.012-9.54-59.42-20.84-85.399-38.93-15.038-10.48-28.343-23.43-42.712-34.94-20.5-16.43-41.375-32.44-61.875-48.88-29.213-23.39-58.072-47.23-87.48-70.37-6.346-5-11.552-11.89-21.164-12.84-7.817-.76-11.559 2.42-15.282 8.11-12.596 19.28-17.236 41.66-24.131 63.05-4.816 14.98-7.71 30.68-10.266 46.25-4.543 27.78 4.414 50.04 26.829 68.15 16.133 13.04 34.815 19.67 53.426 26.63 33.259 12.47 67.565 22.28 100.191 36.15 25.065 10.67 47.323 26.92 66.485 47.05 22.973 24.14 40.788 51.77 58.442 79.78 9.306 14.75 19.458 29.37 35.431 38.91 15.858 9.46 32.07 12.65 50.162 9.78 30.944-4.9 59.901-14.79 86.075-32.19 11.689-7.77 20.979-17.8 27.147-30.54m337.817-548.183c8.893-29.615 6.778-59.006-2.676-87.981-4.943-15.139-15.315-25.061-31.857-26.746-15.857-1.625-25.325 7.379-33.997 19.413-20.951 29.027-11.7 88.959 36.889 109.044 10.087 4.179 23.557-1.332 31.14-12.863m-1004.91-5.205c9.503-33.298 3.941-48.255-23.806-69.646-19.649-15.148-40.513-20.306-64.246-12.033-14.744 5.135-25.458 16.118-34.34 27.671-10.342 13.459-18.936 28.7-25.762 44.266-11.93 27.168 6.035 46.613 25.95 52.97 41.562 13.278 77.289 2.138 108.648-26.252 5.063-4.582 8.733-10.714 13.037-16.119M374.986 2049.83c4.553-14.93 6.297-29.75-3.444-43.39-7.715-10.83-17.483-18.5-30.702-22.87-28.129-9.33-56.576-15.16-86.267-12.69-49.847 4.14-64.66 49-43.859 86.12 20.403 36.43 57.121 52.79 97.84 42.27 21.605-5.57 40.389-15.51 55.159-32.28 4.261-4.84 7.202-10.82 10.742-16.28M2019.1-436.399c2.7-17.102-11.77-20.468-22.11-25.311-11.5-5.381-24.23-7.794-36.32.982-9.36 6.806-10.94 17.662-2.84 25.681 13.25 13.096 40.12 16.123 55.68 6.011 2.18-1.415 3.4-4.283 5.06-6.487M1433.75 733.559c6.5-17.99-8.25-31.905-27.38-34.545-20.47-2.82-39.25.984-55.04 16.489-8.8 8.645-12.52 18.734-10.22 29.365 2.34 10.913 12.07 15.839 23.17 18.802 21.37 5.677 59.38-7.74 68.98-29.213M678.159 567.6a93 93 0 0 0 2.712-8.484m3.089-17.468c1.244-12.801.499-25.722-.768-38.585-3.919-40.121 8.366-72.893 38.569-100.125 14.648-13.21 28.076-28.538 38.898-45.01 14.369-21.904 12.944-45.139-3.899-66.172-13.936-17.427-28.749-34.179-42.289-51.891-24.674-32.237-42.69-67.364-39.825-109.48 1.706-25.052 10.043-47.868 26.74-67.477 19.345-22.68 39.34-45.063 56.218-69.528 12.333-17.887 20.047-38.956 29.783-58.626 4.257-8.62 8.533-17.228 12.574-25.921 11.771-25.332 24.804-50.089 32.883-77.09 8.773-29.273 5.299-57.469-5.852-84.931-7.741-19.068-19.549-35.189-35.113-49.573-20-18.46-51.523-20.75-72.099 6.514-15.818 20.939-28.308 44.442-41.62 67.187-15.423 26.359-32.325 51.401-54.05 73.17-16.663 16.699-36.043 29.284-58.097 36.033-30.97 9.493-62.751 16.383-94.262 24.098-14.915 3.648-28.57.391-41.957-7.338-19.213-11.092-35.82-25.718-54.062-37.869-22.194-14.793-44.861-29.036-73.752-30.938-23.714-1.56-45.814 18.142-52.468 37.998-10.618 31.754-21.646 63.375-32.313 95.127-11.761 35.026-25.158 69.546-31.796 106.168-4.639 25.543-8.942 51.305-15.929 76.237-5.678 20.214-14.929 39.444-22.929 58.959-11.121 27.147-22.738 54.083-33.751 81.266-9.352 23.104-18.335 46.37-27.18 69.664-6.17 16.254-12.971 32.401-17.295 49.155-2.639 10.274-3.44 22.174-1.026 32.383 8.67 36.748 29.982 65.142 61.043 86.674 48.249 33.459 103.603 46.193 160.068 55.352 23.569 3.815 47.441 6.392 71.279 7.869 18.638 1.174 37.704 1.696 56.095-.846 49.267-6.793 97.353-2.008 145.409 9.288 18.302 4.295 37.33 7.108 56.066 7.31 18.328.198 36.544-3.601 50.014-17.799m5.533-6.956c1.654-2.464 3.203-5.014 4.857-7.477m91.7 1471.952c8.156-25.8 5.197-52.26 3.527-78.41-1.596-25.39-4.803-50.71-8.215-75.94-3.849-28.44-17.375-52.54-41.7-67.25-18.99-11.48-41.244-13.92-62.934-3.93-29.785 13.72-49.173 36.79-60.111 67.23-11.298 31.46-22.655 62.9-33.093 94.65-4.266 12.96-6.474 26.36-6.273 40.53.316 22.93 20.207 41.72 38.883 48.44 15.405 5.53 31.209 7.2 47.366 8.48 22.969 1.82 45.865 4.22 68.919 1.62 2.924-.34 5.866-.49 8.782-.86 21.179-2.79 36.281-13.57 44.356-33.66M2163.04-320.092c3.41-13.448 7.64-26.737 10.05-40.356 4.32-24.365 1.46-48.634-2.75-72.835-3.97-22.88-11.39-44.153-25.18-63.217-17.54-24.237-41.02-39.516-68.89-49.206-49.63-17.265-100.93-24.039-153.14-24.136-25.26-.037-49.62 4.818-71.62 18.821-19.85 12.646-31.26 31.198-38.34 52.603-14.72 44.424-18.64 90.506-17.23 136.89.91 29.956 12.03 38.196 41.26 44.767 65.25 14.647 131.16 26.351 196.74 39.591 20.06 4.052 40.01 6.243 60.51 4.098 31.08-3.262 52.9-19.68 68.07-46.133M600.972 2393.68c4.922-15.25 10.321-30.13 9.504-46.84-1.108-22.72-9.947-39.93-29.821-51.48-46.287-26.88-95.313-30.3-144.881-13.27-37.303 12.8-47.474 45.43-36.767 79.98 11.039 35.68 31.506 66.69 59.679 91.31 22.786 19.92 47.485 27.7 80.36 9.03 28.267-16.04 46.901-39.85 61.414-67.84m216.239-284.15c7.48-29.84 4.956-59.91 2.236-90.03-4.037-44.82-8.174-89.64-11.14-134.53-2.207-33.2-12.656-62.05-37.92-84.58-28.969-25.83-61.661-41.77-101.725-37.37-20.097 2.19-38.224 9.18-55.671 19.8-24.373 14.82-44.149 34.37-63.383 54.85-28.919 30.8-63.694 50.05-106.284 54.99-27.811 3.22-55.408 8.21-83.12 12.28-37.436 5.51-74.815 1.38-112.213-.76-27.862-1.59-53.022 4.52-72.788 25.57-14.758 15.72-22.676 35.18-26.179 55.9-10.904 64.29 15.677 115.54 60.724 157.66 23.029 21.55 53.319 25.75 84.545 17.64 39.942-10.38 79.041-23.17 117.81-37.31 31.11-11.34 63.094-15.11 96.548-7.75 42.929 9.45 86.4 14.47 130.813 12.43 36.89-1.7 73.638 4.63 110.243 9.7 9.836 1.36 19.877 2.15 29.77 1.72 14.226-.63 26.099-6.14 32.119-20.4 1.314-3.12 3.359-5.95 5.073-8.92m-126.38 305.19c10.238-33.59 8.51-67.13-1.471-100.32-7.214-24.03-21.35-43.78-44.129-54.8-21.771-10.54-45.453-16.29-69.567-19.17-38.579-4.59-77.176-8.7-116.137-4.39-26.738 2.97-53.2 8-75.648 23-31.55 21.06-39.992 49.13-31.578 86.99 8.46 38.09 25.478 72.9 43.756 107 11.589 21.62 24.189 42.7 36.573 63.88 10.628 18.17 23.116 34.94 39.912 47.9 15.748 12.15 36.005 9.27 49.274 1.43 19.899-11.74 34.939-28.84 52.198-43.5 27.812-23.62 55.718-47.14 84.33-69.79 13.3-10.52 24.03-22.6 31.967-37.37M1944.17 338.307c.45-29.994-38.89-76.969-73.69-76.215-25.54.544-45.76 14.705-55.41 37.222-7.12 16.556 5.22 41.337 22.31 47.325 27.62 9.674 55.79 11.852 84.7 7.491 9.97-1.513 17.58-5.323 21.57-14.916M-475.607 2056.61c12.031-40.03-7.898-69.04-34.663-94.18-16.239-15.27-35.926-26.79-53.278-40.97-19.169-15.67-41.713-24.11-64.46-32.15-35.822-12.66-68.26-5.97-94.821 21.1-14.972 15.29-28.203 32.5-40.623 50-5.633 7.93-8.543 18.41-10.523 28.16-2.919 14.46 5.166 25.94 19.076 30.09 52.281 15.56 104.459 31.52 156.894 46.5 20.994 6 42.513 10.38 63.993 14.43 14.593 2.75 29.426.8 42.464-6.32 6.157-3.36 10.349-10.4 15.418-15.75M193.885 987.408c4.35-13.681 9.784-27.147 12.765-41.13 3.783-17.735 5.04-35.771-3.374-53.095-7.554-15.516-18.647-26.906-36.012-30.018-13.564-2.434-27.304-2.913-41.032.907-13.983 3.904-28.153 7.288-42.454 9.827-13.13 2.34-25.874-2.139-35.476-10.098-26.353-21.846-51.792-44.784-77.03-67.94-14.358-13.173-26.672-28.687-41.54-41.203-24.498-20.647-49.483-27.978-76.523-4.086-7.383 6.507-11.487 16.911-16.483 25.876-4.503 8.066-7.848 16.801-12.235 24.934-13.794 25.629-26.827 51.723-42.142 76.422-10.854 17.508-25.816 32.464-37.241 49.668-6.941 10.463-12.022 22.693-15.4 34.827-4.161 14.87 10.363 31.454 23.265 36.95 25.104 10.691 51.156 17.861 78.759 19.951 41.568 3.15 80.564-4.25 118.277-21.903 29.963-14.031 56.18-33.824 83.96-51.249 4.676-2.93 9.26-6.194 14.333-8.252 22.415-9.11 36.85-5.557 54.154 14.766 15.04 17.653 28.923 36.283 43.353 54.458 2.014 2.53 4.161 5 6.469 7.28 11.656 11.49 20.025 10.36 28.274-3.8 4.313-7.38 8.559-14.822 12.833-22.224M-54.088 1425.11c2.507-25.59-28.548-42.06-47.775-37.89-21.46 4.65-42.568 11.58-63.231 19.08-12.474 4.55-25.112 10.49-35.454 18.6-17.681 13.88-22.826 36.2-14.185 56.74 4.157 9.9 18.268 13.04 32.552 6.92 10.436-4.49 20.42-10.11 30.423-15.54a283.6 283.6 0 0 1 63.168-25.22c6.56-1.74 13.558-3.3 19.1-6.89 5.76-3.74 10.007-9.85 14.91-14.91m656.81-911.72c.836-16.507 1.802-33.015 2.49-49.53.928-22.545 9.94-41.63 25.172-57.766 15.06-15.928 31.378-30.693 45.81-47.137 18.524-21.125 25.615-45.791 13.522-72.512-11.299-24.978-24.702-48.985-36.718-73.657-15.872-32.604-28.724-66.163-30.764-102.99-1.66-30.001 1.16-59.344 14.72-86.393 7.738-15.451 21.091-26.864 33.689-38.662 20.937-19.602 40.927-40.06 56.536-64.512 16.611-26.007 34.711-51.077 51.244-77.129 11.255-17.713 16.142-37.715 11.298-58.504-5.29-22.69-17.902-33.364-34.845-29.858-11.537 2.386-19.24 10.25-25.661 18.52-14.994 19.333-24.648 41.8-35.28 63.779-11.145 23.046-24.959 44.834-38.215 66.815-17.985 29.814-44.641 52.463-66.436 79.075-18.768 22.885-38.938 43.342-65.378 57.018-29.188 15.095-59.418 17.382-90.575 6.975-28.721-9.591-52.145-27.69-75.024-46.733-7.641-6.366-15.743-12.38-24.257-17.501-12.725-7.63-26.047-2.598-35.205 9.078-17.601 22.377-25.693 49.267-37.802 74.25-8.692 17.907-17.694 35.636-26.144 53.658-10.646 22.716-20.857 45.659-31.319 68.456-5.17 11.228-9.716 22.843-15.928 33.47-23.052 39.303-32.223 82.764-38.639 127.02-3.267 22.453-6.468 44.971-8.048 67.576-1.935 27.541 7.086 51.743 27.81 70.596 16.864 15.339 37.723 22.602 59.371 28.675 43.022 12.039 86.352 11.431 129.938 4.853 23.58-3.555 47.047-7.715 70.619-11.3 28.959-4.408 56.763.49 84.047 10.434 13.173 4.804 26.625 8.946 40.215 12.448 7.182 1.86 14.963 2.728 22.346 2.236 12.743-.868 22.379-7.178 26.973-19.768m-158.811 537.73c5.656-19.69-10.345-38.62-27.242-45.21-18.974-7.41-38.503 10.33-34.835 31.78 2.999 17.43 19.186 31.41 37.542 31.29 11.959-.09 19.545-6.32 24.012-16.96m67.364 35.32c11.146-31.42.048-57.59-18.96-82.14-16.378-21.122-34.715-40.191-58.087-53.479-31.342-17.838-60.631-6.579-78.409 18.601-17.636 24.978-25.657 52.008-17.611 82.178 5.5 20.68 18.548 36.08 35.388 49.32 25.702 20.21 54.729 27.36 86.122 22.97 22.487-3.13 39.88-16.2 51.025-36.57"
    />
  </g>
  <defs>
    <clipPath id="a">
      <path d="M0 0h1440v790H0z" />
    </clipPath>
  </defs>
</svg>
