<svg xmlns="http://www.w3.org/2000/svg" fill="none" viewBox="0 0 1440 451">
  <g clip-path="url(#a)">
    <path
      stroke="#3C3C3C"
      stroke-linecap="round"
      stroke-linejoin="round"
      d="M579.072 1.104c-2.707 10.74-6.253 21.135-13.799 29.54-5.215 5.807-10.806 11.281-16.275 16.855-3.867 3.948-8.253 7.476-11.623 11.811-7.181 9.246-6.96 20.97-1.955 30.945 2.729 5.43 6.949 10.263 11.093 14.82 10.672 11.734 22.163 22.76 32.393 34.859 8.541 10.109 13.921 22.285 19.103 34.506 7.657 18.038 18.274 34.539 27.842 51.592 4.806 8.56 8.994 17.397 10.419 27.461 1.9 13.404 1.536 26.432-4.287 38.741-10.098 21.323-23.345 40.533-40.216 57.111-7.712 7.587-17.324 12.365-27.002 16.8-13.833 6.337-27.666 12.707-41.808 18.281-11.855 4.678-23.378 9.832-33.51 17.563-4.839 3.693-9.468 7.962-13.202 12.751-6.618 8.483-7.657 18.259-4.199 28.456 1.845 5.441 3.514 10.96 5.646 16.302 7.402 18.635 10.739 38.365 15.711 57.642 5.425 21.068 14.285 40.024 30.56 55.12 11.236 10.429 20.251 22.562 24.527 37.658 6.784 23.966 13.965 47.832 20.23 71.931 3.259 12.519 5.358 25.392 7.17 38.221 1.901 13.515 2.884 27.174 4.188 40.777 1.535 15.981 6.496 30.889 13.092 45.454 2.398 5.309 3.403 11.414 4.132 17.275 1.47 11.756-7.369 21.544-18.219 25.525-16.407 6.017-32.206 3.196-47.331-3.771-9.082-4.192-17.435-9.976-26.052-15.14-8.044-4.811-16.717-7.355-25.986-8.76-14.153-2.156-27.897.465-41.818 2.047-22.793 2.599-44.062 9.776-64.744 19.387-13.402 6.226-27.522 10.23-42.238 12.42-21.423 3.174-43.244 4.888-63.661 12.784-11.325 4.38-22.031 10.297-33.212 15.086-7.159 3.074-14.075 7-22.384 6.823-5.922-.121-9.844-2.555-13.335-7.188-6.232-8.284-9.292-17.928-11.446-27.638-4.044-18.215-6.828-36.707-10.419-55.021-3.966-20.228-8.585-40.345-17.357-59.124-9.248-19.808-25.235-30.801-46.812-33.665-14.65-1.947-29.18-1.051-43.851.796-12.64 1.593-25.577 2.831-38.184-.851-9.91-2.887-18.417-7.698-20.86-18.835-1.612-7.376-.419-14.786 1.559-21.897 6.12-21.976 17.887-40.854 33.1-57.598 11.988-13.183 27.555-19.808 44.791-22.993 20.053-3.716 40.05-7.675 60.148-11.126 9.081-1.559 18.34-2.975 27.499-2.908 8.673.055 17.313 2.212 25.997 3.306 7.634.963 15.269 2.19 22.936 2.478 20.296.774 35.521-13.637 38.847-33.035 2.132-12.398-.939-23.944-3.624-35.733-1.878-8.251-10.065-35.512-50.005-30.557-5.591.696-11.203 1.227-16.816 1.47-19.368.863-38.603 3.949-58.093 3.163-20.373-.818-37.111-8.626-49.927-24.552-10.629-13.216-17.821-28.456-24.351-43.895-8.176-19.321-15.766-38.907-22.903-58.637-3.414-9.412-6.121-19.376-5.602-29.507.53-10.396 3.204-20.559 7.546-30.059 6.95-15.207 12.054-30.945 14.706-47.446 2.187-13.581-2.785-22.096-15.789-27.018-19.865-7.509-39.675-15.151-59.639-22.395-22.163-8.041-45.276-12.531-68.268-17.375-9.16-1.935-18.274-4.247-27.533-5.496-12.308-1.67-24.549-3.053-37.211-2.002-12.087 1.006-24.45 3.24-36.714-1.04-9.634-3.362-16.263-9.666-21.323-18.005-9.999-16.5-15.181-34.97-21.478-52.997-5.326-15.24-12.065-29.716-24.406-40.82-10.739-9.666-23.003-15.03-37.72-15.395-24.118-.586-44.823 8.67-64.125 21.643-10.993 7.388-21.268 15.793-29.731 26.31-8.308 10.33-13.567 21.921-15.534 34.783-1.536 10.064-2.453 20.416-1.978 30.557.597 12.652 3.171 25.194 7.436 37.227 9.38 26.454 20.44 52.211 32.471 77.571 2.321 4.888 3.436 10.429 4.641 15.771 1.734 7.697-1.293 14.012-7.115 18.801-13.248 10.915-28.539 17.551-45.31 20.968-13.811 2.821-27.765 3.318-41.785 3.042M613.72 1.105c-2.375 16.998-4.419 34.052-7.214 50.973-4.144 25.06 3.491 46.649 19.058 65.693 8.507 10.407 17.578 20.537 27.555 29.496 14.164 12.718 21.688 28.489 25.93 46.549 2.508 10.672 5.503 21.278 9.193 31.597 5.601 15.682 14.981 28.014 33.012 30.037 10.64 1.195 21.39 1.615 32.096 2.069 6.43.276 11.026 2.964 13.7 8.759.553 1.183.663 2.72.519 4.047-.939 8.848-2.607 17.662-2.817 26.521-.155 6.78 1.536 13.592 2.342 20.394 1.823 15.406 7.867 29.584 13.424 43.784 6.077 15.506 12.175 31.044 14.341 47.523 1.425 10.86.663 22.075.155 33.101-.52 11.236-1.713 22.462-2.994 33.654-2.1 18.392-4.088 36.95-11.8 53.992-8.143 18.005-22.163 30.403-40.68 37.171-12.198 4.468-24.727 8.029-37.167 11.812-21.622 6.569-39.233 18.856-52.977 36.739-5.016 6.536-8.872 13.858-9.988 21.953-.84 6.127 1.337 12.265 4.375 17.817 5.414 9.876 10.706 19.819 16.341 29.551 7.236 12.508 6.816 24.818-.034 37.249-5.071 9.201-7.932 19.287-8.396 29.584-.354 7.752.872 15.87 2.961 23.39 5.236 18.868 13.258 36.618 24.87 52.511 2.519 3.45 5.844 6.403 9.126 9.19 9.567 8.118 20.804 6.979 31.487 3.882 8.839-2.555 17.391-6.636 25.467-11.115 12.032-6.68 24.837-10.772 38.305-11.291 9.281-.354 18.793 1.515 27.986 3.417 12.009 2.477 23.676 6.802 35.741 8.792 11.181 1.847 22.793 2.312 33.576-2.853 10.286-4.933 12.242-10.816 10.132-22.904-2.011-11.458-8.088-21.378-13.192-31.619-9.104-18.304-18.186-36.574-30.472-53.097-11.324-15.24-25.09-27.881-39.221-40.334-5.911-5.22-11.126-11.413-15.8-17.806-8.131-11.125-5.535-23.003 3.514-33.012 13.357-14.776 29.864-25.083 48.381-32.117 11.954-4.545 24.163-8.394 36.15-12.84 16.705-6.204 26.417-18.679 30.538-35.667 2.917-11.999 2.619-24.076.111-36.197-3.304-15.926-6.486-31.885-9.171-47.932-5.237-31.332.608-59.81 22.285-84.185 6.784-7.62 13.026-15.727 16.926-25.415 7.48-18.535 3.646-35.346-9.38-49.325-22.119-23.756-45.177-46.66-72.71-64.399-5.469-3.517-11.015-6.935-16.285-10.739-10.385-7.498-11.303-16.412-2.022-26.421 6.53-7.045 13.667-13.526 20.307-20.471 12.772-13.371 19.876-29.352 19.235-47.899-.552-15.87-6.054-30.314-16.141-42.844-8.994-11.181-20.705-18.934-32.615-26.532-20.329-12.95-37.929-28.865-51.398-48.982-3.148-4.7-5.181-10.142-7.733-15.24m268.098-.012c-3.44 10.938-9.71 20.361-16.91 28.976-12.2 14.588-26.464 26.952-43.776 35.17-9.889 4.689-20.451 7.376-31.543 7.819-8.165.331-16.33 1.139-24.462 2.023-5.623.609-11.302 3.838-11.556 12.697-.542 18.513-.078 37.049-.21 55.574-.056 6.967-.144 14.001-1.083 20.891-1.536 11.17-1.039 22.108 1.028 33.178 2.618 13.98 9.965 25.216 18.97 35.667 15.843 18.392 36.36 30.535 57.098 42.27 17.144 9.71 32.794 21.035 43.784 37.79 10.8 16.467 11.57 33.654 3.6 51.504-5.18 11.634-10.96 22.882-17.72 33.731-7.87 12.619-19.047 21.201-31.2 29.009-8.982 5.773-18.362 10.982-25.058 19.808-6.585 8.693-9.126 18.679-9.468 29.119-.343 10.518.353 21.08.906 31.608.773 14.599-.895 28.932-5.237 42.801-4.674 14.93-10.485 29.396-18.639 42.932-8.717 14.466-21.522 23.126-36.791 29.021-10.01 3.87-20.274 7.144-29.102 13.669-5.391 3.981-10.032 8.372-12.153 14.864-1.889 5.773-.994 11.225 1.392 16.866 4.751 11.214 12.606 20.194 20.02 29.495 8.651 10.85 17.501 21.555 26.483 32.128 13.114 15.439 28.151 28.456 47.895 34.638 17.744 5.552 35.056 3.816 51.983-3.959 19.079-8.77 34.659-22.44 50.989-35.158 11.41-8.892 22.99-17.695 35.23-25.359 8.74-5.464 19.03-8.461 29.44-8.682 8.85-.199 17.46 2.134 25.51 6.359 5.91 3.108 12.12 5.685 18.31 8.195 14.81 6.006 30.1 6.293 45.88 4.866 12.85-1.161 25.86-2.543 38.77 2.124 13.74 4.977 20.98 14.963 23.7 28.257 2.7 13.216 1.87 26.609-1.83 39.748-4.05 14.41-7.57 28.964-11.82 43.309-4.89 16.489-15.69 28.068-30.99 35.755-14.87 7.465-29.83 14.808-44.26 23.081-8.47 4.855-15.53 11.878-20.99 20.228-7.59 11.601-9.29 24.098-5.05 37.204 9.84 30.491 25.6 57.564 46.72 81.7 8.13 9.29 16.96 17.59 27.18 24.27 10.95 7.16 22.96 8.62 35.62 4.72 11.65-3.58 22-9.57 31.54-16.92 15.44-11.86 31.12-23.51 45.76-36.316 12.71-11.126 17.82-26.311 18.01-43.165.14-12.918-2.2-25.537-3.96-38.266-2.64-19.056-3.66-38.31 2.01-57.056 3.71-12.243 9.97-22.86 22.78-28.146 8.98-3.694 18.28-4.822 27.51-2.854 18.45 3.937 36.66 8.959 55.09 13.006 9.72 2.135 19.68 3.207 29.53 4.667 3.37.498 6.8.708 10.19 1.04m.02-378.322c-9.17 2.378-18.38 4.612-27.51 7.166-16.85 4.712-32.16 12.442-45.89 23.391-17.44 13.902-32.92 30.381-52.99 40.788-16.39 8.493-32.99 16.589-49.4 25.049-17.54 9.047-35.58 16.789-54.52 22.451-19.77 5.906-39.28 12.707-59.19 18.104-11.07 3.009-22.67 4.192-34.1 5.729-8.26 1.106-16.62 1.626-24.95 2.079-14.71.819-29.08-1.703-43.31-5.087-16.02-3.815-32.01-7.576-47.46-13.592-15-5.839-26.19-15.793-35.05-28.733-6.86-10.031-13.16-20.46-20.02-30.491-1.72-2.499-4.46-4.468-7.085-6.115-4.861-3.042-11.877-1.14-16.672 5.098-4.696 6.116-8.662 12.796-12.827 19.31-11.159 17.474-17.59 37.126-25.445 56.093-6.463 15.605-17.092 27.041-32.096 34.749-5.413 2.787-10.716 6.172-15.224 10.219-6.917 6.216-8.452 14.112-3.558 22.75 4.519 7.974 9.458 15.87 15.313 22.893 8.64 10.385 18.197 19.741 30.847 25.802 14.308 6.856 28.782 6.779 42.261.564 29.876-13.769 59.806-27.516 87.856-44.979 10.55-6.57 21.77-12.21 33.1-17.342 17.01-7.686 33.98-6.867 50.4 2.4 8.94 5.043 17.7 10.573 27.11 14.566 6.24 2.654 13.43 3.694 20.29 4.147 9.98.675 20.06-.188 30.05.265 11.02.509 21.87 2.323 31.59 8.074 15.16 8.969 22.44 23.181 25.99 39.759 2.8 13.105 3.97 26.443 2.9 39.759-.9 11.28-2.71 22.561-5.07 33.631-2.63 12.365-6.06 24.575-9.61 36.718-4.22 14.466-15.28 22.296-28.49 27.505-11.8 4.656-23.85 8.693-35.64 13.36-13.23 5.242-25.31 12.519-34.08 23.977-8.55 11.17-9.42 24.165-5.57 37.126 9.02 30.381 27.53 53.882 54.49 70.259 14.56 8.84 30.09 8.29 45.27.63 17.41-8.77 32.2-20.59 42.8-37.213 6.07-9.522 8.44-19.829 6.66-31.099-2.16-13.747-4.46-27.494-6.02-41.307-1.02-9.047-.47-18.37 2.57-26.952 4.85-13.636 10.16-27.173 16.31-40.268 6.33-13.47 15.59-24.408 30.92-28.688 10.82-3.03 21.84-2.875 32.6-1.261 16.25 2.445 32.23 6.725 48.47 9.335 12.96 2.079 26.17 4.003 39.2.088 4.87-1.471 9.53-3.672 14.28-5.541M318.672 1.614c.508 1.526 1.326 3.03 1.481 4.59 1.668 16.843 4.75 33.09 14.716 47.489 7.38 10.683 17.302 18.502 27.19 26.355 16.96 13.459 32.891 27.814 44.216 46.516 9.06 14.941 15.689 31.011 17.744 48.429 2.453 20.847-2.729 39.637-17.103 55.64-6.463 7.189-12.275 14.853-14.551 24.862-1.525 6.724.332 12.52 2.331 18.37 3.757 10.982 8.154 21.754 12.12 32.67 4.906 13.514 7.58 27.505 9.303 41.793 1.978 16.457 3.469 32.913 2.895 49.47-.917 26.874-10.739 49.712-32.096 66.732-8.054 6.415-17.589 9.478-27.974 9.224-24.627-.608-49.265-1.261-73.892-1.902-28.306-.741-27.555-27.295-27.124-37.348.508-12.044.641-24.154 0-36.187-.983-18.392-7.844-34.981-16.584-51.05-11.832-21.754-30.869-33.278-53.596-40.279-4.872-1.504-9.755-3.262-14.23-5.651-7.358-3.926-9.269-9.224-8.264-17.762 1.878-15.859 8.651-29.429 18.373-41.827 6.287-8.018 12.529-16.113 18.286-24.508 4.054-5.916 4.971-12.784 3.126-19.818-1.569-5.994-10.993-11.723-18.837-12.309-13.358-1.007-21.887 5.806-28.616 16.346-2.452 3.848-5.557 7.321-8.617 10.727-9.37 10.418-21.788 13.736-35.134 14.809-4.077.332-8.198 1.228-12.22.907-7.844-.62-15.722-1.504-23.423-3.064-7.612-1.537-11.656-10.584-9.214-18.757 4.143-13.846 13.103-24.176 23.964-33.134 8.474-6.989 17.247-13.647 25.411-20.98 10.32-9.279 14.164-21.953 16.286-35.125 1.469-9.102 2.574-18.325 3.005-27.527.353-7.443.044-15.03-.994-22.417-3.017-21.566-8.452-42.634-13.645-63.747-.166-.686-.343-1.36-.508-2.035m473.899-.012c-.177 14.566-4.707 28.058-10.209 41.297-3.48 8.36-7.303 16.589-10.628 25.016-2.972 7.51-1.923 15.196 1.094 22.362 2.253 5.364 5.436 10.385 8.584 15.318 8.718 13.669 17.987 26.996 26.34 40.887 6.22 10.34 11.28 21.367 16.948 32.039 6.054 11.413 11.789 23.037 18.44 34.107 7.977 13.261 12.352 27.771 16.76 42.369 2.232 7.399 4.817 14.721 7.646 21.92 3.524 8.981 11.048 13.128 19.798 15.882 9.425 2.975 19.236 5.375 27.909 9.887 11.192 5.828 16.893 16.932 21.511 28.301 5.37 13.216 10.507 26.521 15.832 39.759 4.519 11.247 9.612 22.285 13.612 33.709 3.491 9.965 5.513 20.383 5.767 31.055.254 10.54 1.448 21.124.829 31.608-1.105 18.857-2.32 37.824-11.513 55.099-7.391 13.901-18.395 23.667-32.637 30.081-14.65 6.603-30.537 8.649-45.873 12.73a8484 8484 0 0 0-39.752 10.705c-10.695 2.909-21.412 5.442-32.615 5.729-5.458.144-10.971 1.173-16.285 2.522-8.551 2.156-12.33 8.792-14.871 16.711-3.779 11.767-3.016 23.49-.376 35.191 3.337 14.842 7.204 29.562 10.618 44.382 4.541 19.686 8.75 39.449 13.324 59.135 2.961 12.74 7.889 24.806 13.181 36.728 6.386 14.4 13.645 28.534 18.628 43.42 7.071 21.09 2.01 38.299-16.496 54.047-5.822 4.955-11.866 9.257-18.926 12.166-11.556 4.767-22.925 2.344-34.128-1.084-21.688-6.647-42.47-15.295-61.209-28.445-8.606-6.038-17.334-12.11-27.499-15.273-10.43-3.252-20.981-4.136-32.107-2.898-14.131 1.56-27.389 5.397-40.194 11.071-9.026 3.992-17.688 8.792-26.538 13.172-10.938 5.408-22.672 7.974-34.648 9.699-16.473 2.367-33.156 3.815-49.375 7.388-18.009 3.959-34.737 11.767-45.244 27.903-9.601 14.742-13.6 30.38-3.9 47.412 5.712 10.042 13.943 16.644 23.655 21.743 14.794 7.774 29.831 15.096 44.812 22.495 19.18 9.481 35.278 22.651 49.586 38.621 14.484 16.15 30.173 31.21 49.751 41.49 15.048 7.91 30.77 9.5 47.431 7.24 12.672-1.73 25.079-4.11 37.199-8.25 13.281-4.55 24.716-11.83 30.826-24.63 4.165-8.74 6.595-18.45 8.783-27.96 4.176-18.18 6.717-36.775 14.385-54.027 7.811-17.574 18.539-32.792 34.626-43.884 10.639-7.333 22.119-7.764 34.173-5.077 11.711 2.61 23.334 5.906 35.189 7.465 15.291 2.002 29.499-1.847 42.315-10.948 13.767-9.777 23.688-22.794 32.538-36.795 7.689-12.155 15.899-23.822 27.544-32.615 12.308-9.301 25.875-13.669 41.276-10.163 15.148 3.439 30.196 7.321 45.376 10.595 7.878 1.692 15.932 2.632 23.931 3.627 17.313 2.146 34.703 3.749 51.961 6.271 13.181 1.935 21.732 10.252 25.378 22.86 3.292 11.391 5.977 23.004 8.176 34.66 3.458 18.27 9.27 35.545 18.937 51.493 11.943 19.686 24.338 39.118 35.508 59.238 8.7 15.66 15.98 32.11 23.56 48.37 5.28 11.3 13.43 19.52 24.54 24.91 1.17.56 2.69.39 4.05.56M136.748 1.104c2.033 7.985 4.011 15.993 6.132 23.966 4.198 15.816 8.872 31.52 12.595 47.457 2.574 11.048 3.801 22.417 5.767 33.62 1.393 7.941 3.481 15.694 8.154 22.429 6.905 9.954 17.446 14.001 28.527 16.788 11.148 2.798 22.473 4.889 33.598 7.775 14.971 3.882 22.904 14.543 26.517 28.998 3.336 13.36.662 26.3-2.508 39.272-2.531 10.374-5.757 20.792-4.486 31.586.983 8.417 3.458 16.634 4.894 25.006 1.602 9.312 3.646 18.657 3.934 28.036.464 15.085 4.209 29.462 7.977 43.806 4.364 16.634 9.755 33.002 14.639 49.502 3.259 11.016 5.911 22.208 14.738 30.646 7.104 6.791 15.689 9.666 25.025 10.042 25.378 1.018 43.63-11.38 57.584-31.508 9.524-13.736 15.556-28.954 17.7-45.399 3.392-25.946-2.895-49.525-19.799-69.797-6.154-7.388-12.904-14.278-19.313-21.466-14.528-16.291-13.081-30.182 4.586-42.303 7.579-5.198 15.467-9.953 22.881-15.372 12.341-9.014 18.959-21.622 19.71-36.663.475-9.544-1.79-19.033-5.402-28.035-9.557-23.9-26.075-41.96-46.835-56.67-10.971-7.774-21.61-16.046-32.117-24.452-13.535-10.827-19.91-25.846-23.434-42.28-1.624-7.587-2.74-15.295-4.176-22.926-.111-.587-.962-1.029-1.481-1.538m508.581-.01c.674.508 1.691.873 1.989 1.548 10.032 22.727 28.273 37.735 47.928 51.504 12.761 8.936 24.981 18.314 32.759 32.537 6.783 12.397 10.904 25.315 12.749 39.316 2.299 17.463-1.071 34.185-4.662 51.017-1.856 8.715-4.033 17.386-3.756 26.51.221 7.1 1.933 13.625 5.822 19.31 5.403 7.907 10.96 15.804 17.335 22.915 12.982 14.477 28.085 26.665 43.089 38.996 9.159 7.52 17.71 15.992 25.422 24.983 7.149 8.328 10.971 18.68 10.275 29.927-.729 11.768-4.541 22.75-10.076 33.157-7.723 14.532-20.892 23.589-33.101 33.698-11.004 9.113-18.031 20.593-20.009 35.114-1.635 12.021-.552 23.789.973 35.722 2.463 19.288 7.435 38.52 5.093 58.095-3.337 27.881-12.927 52.488-40.669 65.174-8.673 3.959-17.866 6.845-26.98 9.732-12.099 3.827-22.826 10.053-32.538 17.983-7.016 5.729-12.065 13.315-12.474 22.384-.232 5.021 1.702 10.861 4.497 15.141a184.5 184.5 0 0 0 18.738 24.021c14.573 15.826 27.654 32.769 39.598 50.597 16.517 24.663 36.691 45.609 61.771 61.557 5.149 3.274 11.082 5.364 16.772 7.708 6.563 2.71 13.125.719 18.76-2.145 25.239-12.873 48.599-28.655 70.389-46.771 10.57-8.792 20.92-17.872 31.65-26.443 9.74-7.775 20.81-12.486 33.58-11.192 4.98.509 9.91 1.747 14.77 3.019 10.56 2.754 20.97 6.26 31.63 8.483 11.74 2.444 23.66 1.869 35.67.907 9.95-.797 20.45-2.057 29.99 2.4 8.56 3.992 12.53 11.336 12.82 20.802.31 10.231-2.73 19.852-5.18 29.563-2.92 11.579-5.27 23.291-10.54 34.229-4.95 10.263-12.49 17.695-22.03 23.39-11.51 6.857-23.3 13.283-34.59 20.494-13.11 8.372-24.17 19.033-32.14 32.559-7.83 13.282-8.8 27.295-2.47 41.241 7.89 17.363 16.32 34.494 24.92 51.515 12.05 23.879 27.14 45.799 44.28 66.309 7.89 9.45 15.47 19.17 25.97 26.04 5.64 3.68 11.86 6.35 18.35 5.83 6.21-.5 12.6-2.38 18.3-4.99 13.44-6.17 24.85-15.43 35.75-25.33 14.79-13.42 30.12-26.13 48.41-34.67 6.4-2.99 12.81-6.01 19.38-8.62 5.81-2.31 9.4-6.53 10.55-12.32a139.6 139.6 0 0 0 2.57-20.876c.65-14.09 1.28-28.224.96-42.313-.27-12.254-2.16-24.464-2.83-36.718-.66-12.409-3.1-24.906.94-37.215 3.05-9.301 8.97-15.262 18.84-17.408 12.29-2.665 23.71.786 35.17 4.17 17.52 5.176 34.98 10.595 52.51 15.715 3.78 1.106 7.8 1.427 11.7 2.102M108.21 1.104c4.121 16.855 8.452 33.632 10.297 50.974 1.845 17.297 1.613 34.328-3.723 50.984-5.314 16.622-16.053 28.611-31.51 36.806-15.744 8.35-32.151 14.62-49.453 18.867-11.534 2.832-22.748 2.013-34.184-.497-10.606-2.323-21.323-4.457-32.106-5.486-7.027-.663-14.264.675-21.379 1.338-13.247 1.228-26.439 2.632-39.763.553-8.773-1.371-17.7-1.813-26.472-3.196-13.082-2.057-26.174-3.981-38.769-8.516-14.087-5.065-24.45-14.355-31.444-27.184-6.032-11.059-11.479-22.506-16.329-34.14-9.226-22.186-21.269-41.96-41.841-55.608-11.733-7.785-24.141-9.588-37.763-7.144-26.826 4.81-52.281 13.625-76.378 26.167-17.379 9.046-33.51 19.896-45.972 35.545-7.823 9.82-10.463 21.367-12.054 33.212-1.536 11.49-2.254 23.092-3.138 34.66-.829 10.871-1.37 21.754-2.077 32.625-.917 14.013 2.895 26.986 8.076 39.803 4.619 11.403 8.938 22.96 12.684 34.683 2.574 8.051 3.292 16.656 1.038 24.917-3.634 13.316-13.932 19.597-26.405 22.937-8.32 2.234-16.794 3.584-25.467 3.097M1064.2 1.104c-2.5 9.19-7.67 17.021-13.87 23.878-17.14 18.956-35.73 36.496-57.595 49.867-12.075 7.377-25.422 12.641-38.072 19.11-8.408 4.303-16.695 9.269-19.755 18.868a168 168 0 0 0-6.099 25.979c-1.37 9.069-1.944 18.326-2.11 27.516-.453 25.979 10.452 46.538 30.449 62.763 12.938 10.495 27.854 17.252 42.872 23.855 16.2 7.133 31.03 16.291 43.23 29.186 12.31 13.017 23.77 26.808 32.09 42.811 5.62 10.783 8.22 22.506 9.32 34.627.65 7.167 1.14 14.533 3.19 21.356 2.77 9.224 9.78 14.743 19.15 17.463 11.11 3.23 22.18 3.362 33.66 2.157 16.23-1.703 30.84-7.797 45.32-14.488 26.12-12.066 47.24-29.651 61.81-54.955 8.07-14.023 17.23-27.394 28.29-39.438 8.62-9.378 19.07-9.71 30.17-8.007 24.49 3.76 47.8 11.944 71.38 19.21 16.85 5.187 34.33 6.503 51.94 5.729 8.32-.365 16.64-.896 24.97-.973 15.11-.155 30.24-.044 45.35-.044M344.658 1.104c-.11 12.21.928 24.1 5.436 35.756 5.005 12.94 14.076 22.329 24.163 30.989 15.39 13.215 31.178 26.078 42.194 43.43 13.921 21.931 23.853 45.665 27.886 71.378 2.254 14.377 3.414 29.263-2.464 43.254-3.403 8.106-7.645 15.914-12.197 23.457-7.204 11.944-9.734 24.353-7.723 38.321 3.016 20.969 7.778 41.473 14.009 61.645 3.094 10.009 7.314 19.675 17.291 24.917 3.425 1.792 7.358 3.13 11.17 3.539 10.374 1.117 20.506-1.028 30.571-3.417 15.887-3.782 31.256-9.146 45.807-16.445 19.71-9.899 35.498-24.431 48.038-42.668 7.027-10.219 14.672-20.062 19.213-31.696 6.011-15.395 5.215-30.657-2.508-45.333-5.955-11.303-12.473-22.307-18.23-33.709-5.314-10.518-9.733-21.478-14.915-32.062-6.673-13.625-15.656-25.381-27.345-35.346-11.148-9.5-22.185-19.299-30.703-31.464-8.585-12.265-14.396-25.426-12.673-40.788 1.227-10.97 7.182-19.354 15.744-26 9.667-7.51 19.677-14.599 28.914-22.595 4.673-4.048 7.944-9.7 11.855-14.632m941.699 356.902c-10.53 0-21.07-.255-31.59.066-13.6.42-27.17 1.858-40.76 1.847-21.37-.022-42.16-4.402-62.67-10.097-7.87-2.179-15.5-5.375-23.48-6.979-18.73-3.76-35.43-.376-47.89 15.66-5.49 7.056-10.96 14.157-16.85 20.87-8.73 9.964-20.07 16.456-32.1 21.344-17.95 7.289-35.12 15.981-50.85 27.229-17.34 12.387-36.13 22.064-55.07 31.597-13.77 6.934-25.18 16.169-29.67 32.039-3.1 10.905-2.3 21.621.71 32.117 6.23 21.732 19.9 36.408 42.19 42.369 12.78 3.417 25.61 3.705 38.74 2.123 32.14-3.86 61.92-15.671 91.62-27.383 11.49-4.534 22.18-11.458 32.63-18.215 16.07-10.385 33.39-18.138 50.46-26.543 9.4-4.623 18.36-10.307 27.03-16.257 18.65-12.818 37.15-25.78 57.62-35.645 16.29-7.852 32.73-15.306 49.97-20.869m-.04-91.784c-11.72.343-23.52-.033-35.14 1.195-15.62 1.659-31.18 3.085-46.9 2.953-13.27-.111-26.1-2.644-38.71-6.282-13.2-3.816-26.03-9.025-39.31-12.497-17.55-4.601-34.67-3.506-50.43 6.934-8.97 5.939-15.97 13.736-21.84 22.517-13.58 20.338-32.47 34.284-53.51 45.93-14.65 8.107-28.84 17.054-43.38 25.382a185.2 185.2 0 0 1-39.7 16.943c-14.58 4.313-29.47 8.062-42.29 16.788-13.57 9.235-19.33 22.794-20.41 38.708-.37 5.607-1.23 11.248-.9 16.822.58 9.887 1.12 19.885 3.14 29.54 2.46 11.811 10.49 20.061 20.11 27.151 16.27 11.999 34.66 18.613 54.11 22.771 4.3.918 8.8.929 13.23 1.062 5.77.166 11.56-.078 17.33.066 15.01.376 29.54-2.709 43.79-6.768 19.85-5.652 39.44-12.133 59.15-18.237 17.85-5.519 34.48-13.769 50.98-22.385 17.79-9.301 36.4-17.142 52.9-28.699 11.9-8.339 23.28-17.441 34.7-26.443 17.63-13.913 37.51-23.424 58.63-30.536 8.1-2.72 16.3-5.131 24.45-7.675m0 52.002c-12-2.211-23.63-.53-35.18 3.02-12.59 3.882-23.24 10.882-32.56 19.973-5.84 5.707-11.33 11.778-16.83 17.817-10.88 11.933-24.46 19.73-39.28 25.415-21.36 8.195-41.85 17.85-60.7 31.055-16.28 11.402-33.24 21.831-49.84 32.78-1.89 1.239-3.74 2.787-5.07 4.59-5.76 7.797-4.96 11.579 1.06 18.226 5.3 5.861 11.42 11.004 17.23 16.401 15.63 14.51 22.83 33.211 27.06 53.539 3.43 16.456 5.93 33.189 13.68 48.462 5.24 10.319 13.81 14.544 24.99 15.373 16.35 1.217 32.7 1.781 48.98 4.756 17.45 3.196 34.89 7.863 52.94 6.348 10.38-.874 18.75-4.158 22.77-14.82 2.51-6.669 1.58-13.824-.25-20.869-3.36-12.906-10.63-23.933-16.43-35.656-5.98-12.077-9.56-24.685-9.13-38.255.28-8.836 1.42-17.728.84-26.498-.86-13.128-2.56-26.233-4.49-39.261-2.18-14.676-3.1-29.087 7.32-41.219 4.43-5.165 9.71-9.788 15.25-13.758 12.33-8.836 25.07-17.098 37.63-25.603M370.135 1.104c1.204 13.405 1.303 27.284 10.794 38.156 5.591 6.403 11.888 12.265 18.318 17.85 7.016 6.105 14.662 11.49 21.821 17.44 13.17 10.927 20.583 25.714 26.461 41.297 8.673 23.014 16.782 46.239 21.92 70.349 2.839 13.305 6.375 26.487 6.773 40.268.331 11.612-3.503 21.521-10.275 30.601-4.287 5.751-8.806 11.358-12.684 17.375-6.806 10.572-8.739 22.041-6.883 34.66 1.646 11.203 4.265 21.666 10.816 31.121 6.53 9.423 15.833 13.714 26.572 14.079 26.041.863 48.646-7.73 67.285-26.333 12.462-12.43 22.262-26.598 29.013-42.866 6.165-14.853 4.817-29.075-2.431-43.397-8.64-17.087-16.318-34.661-24.616-51.936-4.651-9.666-10.131-18.889-17.821-26.509-12.12-12-24.748-23.513-36.57-35.811-10.938-11.369-20.484-23.922-27.621-38.144-12.905-25.702-6.839-56.702 21.865-69.984 11.225-5.187 21.798-11.779 32.67-17.718M1189.55 1101.45c-1.86-6.46-2.94-13.3-5.75-19.3-7.53-16.03-16.09-31.56-23.7-47.54-5.57-11.68-10.34-23.72-15.37-35.652-6.41-15.218-14.73-29.374-23.39-43.376-3.44-5.54-6.61-11.335-9.15-17.33-5.59-13.205-3.51-26.078 2.43-38.73 6.39-13.592 15.34-25.448 25.65-36.065 13.22-13.603 27.67-26.012 41.04-39.493 8.81-8.87 12.4-19.808 9.35-32.548-2.09-8.737-8.33-13.205-15.92-15.616a126.5 126.5 0 0 0-23.91-5.121c-11.32-1.283-22.75-1.427-34.13-2.212-13.47-.929-25.93 3.185-37.63 8.848-20.68 10.02-40.59 21.521-58.15 36.573-19.9 17.076-35.343 37.47-41.575 63.25-4.508 18.668-2.53 37.48 5.988 54.965 6.254 12.84 13.27 25.326 20.327 37.757 11.37 19.996 22.72 40 34.73 59.61 7.33 11.98 16.26 23.05 28.01 31.02 7.04 4.78 15.08 8.2 22.84 11.84 11.26 5.27 23.11 9.46 32.55 17.95 3.66 3.28 6.84 7.09 10.23 10.66M1152.35 1.613c-9.75 13.26-19.88 26.488-25.76 41.894-6.69 17.518-3.64 35.147 3.93 51.88 4.48 9.898 9.7 19.453 14.72 29.097 6.38 12.276 12.79 24.541 19.37 36.707 8.93 16.544 18.72 32.404 31.44 46.527 17.15 19.044 36.93 34.328 59.77 45.72 4.22 2.101 8.67 4.114 13.25 5.01 7.57 1.471 14.72-.52 19.23-7.056 7.34-10.617 14.44-21.445 20.92-32.615 15.23-26.277 33.42-50.387 52.47-73.966 16.64-20.592 33.89-40.71 47.62-63.58 9.61-16.015 11.78-32.748 7.94-50.542-2.15-9.943-5.03-19.73-7.57-29.585m-224.2 0c-6.29 9.014-12.43 18.116-18.9 26.997-6.83 9.378-13.48 18.779-16.79 30.104-4.09 14-1.64 27.46 4.21 40.234 7.33 16.025 15.6 31.63 23.3 47.489 7.66 15.749 16.44 30.801 27.6 44.305 11.18 13.537 23.68 25.613 40.72 31.63 14.35 5.065 27.51 2.776 39.22-7.111 13.94-11.768 23.89-26.886 34.64-41.319 16.04-21.532 32.25-42.944 47.81-64.819 8.53-11.989 15.96-24.718 20.05-39.162 6.03-21.29-4.42-45.963-30.13-49.502-10.04-1.383-20.1-2.776-30.05-4.645-9.2-1.725-17.57-5.42-24-12.641-.46-.531-1.32-.708-2.01-1.04m-1150.138-.52c6.264 24.752 17.854 47.446 27.532 70.87 3.956 9.577 7.557 19.343 14.22 27.57 6.485 8.008 14.816 12.155 25.002 12.144 8.662-.011 17.368-.177 25.975-1.05 14.23-1.438 23.158 5.463 29.002 17.463 3.834 7.863 7.093 15.992 10.772 23.932 5.745 12.398 11.502 24.685 21.257 34.804 8.033 8.328 17.788 12.431 28.682 13.46 11.546 1.095 22.904-.376 33.676-5.817 12.308-6.216 19.6-20.361 16.462-35.855-3.889-19.222-15.136-33.079-29.267-45.322-14.905-12.918-32.704-20.405-50.956-27.03-9.678-3.516-18.804-8.371-23.201-17.96-3.414-7.432-5.292-15.76-6.718-23.878-2.254-12.817-3.557-25.801-5.215-38.73-.187-1.504-.022-3.052-.022-4.59m362.832-.01c-1.017 14.278-2.862 28.555-2.818 42.833.033 12.973.685 26.178 6.861 38.266 5.293 10.352 12.673 18.691 22.451 24.983 12.429 8.007 26.516 10.009 40.768 11.779 13.093 1.614 26.417 1.084 39.277 4.943 7.712 2.312 14.518 5.917 20.319 11.347 5.601 5.254 10.971 10.772 16.329 16.291 9.237 9.5 20.672 13.592 33.609 15.516 9.436 1.405 18.396.332 26.992-2.433 30.04-9.655 31.985-40.721 15.313-60.506-10.021-11.89-23.301-19.144-37.167-25.547-12.032-5.563-23.5-12.221-33.057-21.467-10.728-10.363-21.589-20.615-30.273-32.98-5.06-7.188-8.827-14.808-11.6-23.036m-947.823.011c2.376 3.572 4.586 7.266 7.16 10.683 12.208 16.136 18.561 34.727 23.478 54.06 3.646 14.354 9.479 27.969 19.953 38.63 9.038 9.19 20.55 14.399 33.477 16.523 17.688 2.908 33.863-.631 49.54-9.08 6.398-3.44 13.69-6.038 20.838-6.979 6.066-.796 12.673.786 18.783 2.323 14.02 3.539 27.952 7.476 41.796 11.679 12.01 3.638 24.207 6.171 36.703 5.928 15.7-.31 30.526-4.358 42.735-14.754 8.993-7.653 13.855-18.07 16.34-29.495 2.995-13.736 3.138-27.505.067-41.296-2.829-12.719-5.458-25.493-8.176-38.233m561.568 447.179c-2.21 9.688-4.287 19.409-6.662 29.053-2.563 10.407-5.491 20.726-8.076 31.122-1.503 6.038-2.122 12.309-.453 18.314 2.629 9.456 9.8 14.875 18.793 17.242 14.584 3.837 29.333 4.114 44.337 1.327 10.408-1.935 20.396-4.391 29.533-9.865 16.44-9.843 24.77-24.795 27.521-43.353 2.541-17.054 1.68-33.875-3.06-50.487-4.375-15.328-11.822-28.743-24.506-38.697-10.694-8.383-21.389-16.832-32.681-24.364-8.54-5.707-14.838-5.607-23.898 2.345-9.192 8.062-12.308 18.978-14.639 30.159-2.464 11.811-4.176 23.778-6.187 35.678-.055.298.31.674.486 1.017M1440.27 1.104c3.19 14.599 9.86 27.727 16.71 40.843 3.38 6.47 5.67 13.537.11 20.338-2.22 2.71-4.27 5.575-6.65 8.14-15.58 16.7-31.82 32.825-46.7 50.122-17.97 20.869-35.16 42.424-51.98 64.233-7.75 10.065-13.75 21.566-16.89 34.064-5.8 23.125 1.58 35.589 24.41 42.711 18.03 5.619 36.46 4.955 55.02 2.256 18.12-2.632 35.95-1.039 53.55 4.789 10.35 3.429 21.33 4.955 32.04 7.333m-1770.806-97.898c-2.718-8.671-5.027-17.497-8.253-25.968-4.265-11.192-8.994-22.296-16.805-31.575a58.3 58.3 0 0 0-11.192-10.175c-7.911-5.485-16.793-4.777-25.389-2.057-14.407 4.557-25.909 12.929-32.637 26.952-4.983 10.374-4.596 21.301-2.453 32.106 4.022 20.316 10.761 39.604 23.865 56.094 8.065 10.141 18.208 16.334 31.587 15.793 18.318-.752 38.581-13.725 42.327-35.656 1.458-8.494 1.535-16.822-1.569-24.995M852.211 1101.45c-.685-9.53-1.624-19.03-1.944-28.56-.188-5.93.022-11.99 1.027-17.83 2.884-16.89-3.016-30.05-15.313-41.4-12.032-11.11-25.422-19.9-40.349-26.403-18.362-7.996-37.222-7.189-56.015-1.991-13.877 3.838-26.859 9.788-36.117 21.404-4.718 5.91-8.795 12.37-12.783 18.82-10.32 16.74-20.418 33.63-30.627 50.45-5.071 8.35-10.186 16.66-15.28 24.99m854.57-995.811c-20.71-8.272-40.79-7.808-58.44 6.824-9.56 7.918-18.1 17.319-26.01 26.952-11.92 14.51-23.16 29.617-34.16 44.846-4.26 5.884-7.68 12.608-7.76 20.305-.1 9.29 3.82 14.389 12.73 16.833 6.85 1.88 13.6.896 20.39-.487 21.41-4.346 41.31-12.342 59.04-25.116 8.59-6.193 16.4-13.459 24.52-20.305 3.31-2.798 6.47-5.762 9.7-8.649M-29.376 1.104c0 13.427-.077 26.853.023 40.28.143 21.2 9.656 36.628 28.504 46.438C9.338 93.119 19.845 97.2 31.258 99.069c15.888 2.599 30.571.885 42.238-11.347 6.265-6.569 8.96-14.886 10.364-23.888 2.64-16.844-2.133-32.581-6.276-48.44-1.215-4.668-3.005-9.191-4.54-13.78M621.365 1100.94c7.469-9.86 15.103-19.6 22.384-29.6 11.601-15.92 20.418-33.28 22.849-53.02 3.115-25.346-7.536-44.302-28.925-57.595-8.43-5.242-17.788-8.118-27.522-8.494-9.966-.376-19.324 2.887-26.958 9.556-12.021 10.517-18.097 24.386-21.478 39.713-3.79 17.14-4.519 34.62-6.287 51.99-.861 8.45-3.104 16.97-6.12 24.93-3.238 8.54-10.563 14.1-18.164 18.91-2.398 1.52-5.071 2.59-7.624 3.86m293.014.26c-2.375-13.6-4.518-27.24-7.203-40.78-2.784-14.11-6.663-27.79-18.252-37.78-6.243-5.39-13.336-8.55-21.434-9.65-20.628-2.82-38.084 3.98-52.966 17.88-20.904 19.55-37.686 42.4-52.502 66.76-.663 1.1-1.039 2.37-1.547 3.57m837.259-133.083c-6.11 5.265-12.31 10.451-18.33 15.826-12.14 10.861-26.92 16.017-42.31 19.837-14.92 3.71-29.9 7.12-44.84 10.76-6.36 1.56-10.11 5.8-11.19 12.23-1.78 10.52-3.26 21.1-5.16 31.59-2.2 12.1-4.69 24.15-7.1 36.21-.41 2.06-1.01 4.08-1.52 6.12M655.506 1.104c-.674 11.215-2 22.44-1.857 33.655.133 10.583 2.508 20.924 8.464 30.092 10.584 16.313 34.559 19.775 50.447 10.153 6.794-4.114 9.612-12.553 6.551-20.836-3.325-8.992-7.8-17.563-10.993-26.598-2.806-7.94-4.519-16.28-6.795-24.42-.165-.608-.972-1.028-1.48-1.537m199.755 0c.85 2.035 1.966 4.015 2.508 6.127 3.8 15.008 11.048 27.87 24.041 36.63 16.893 11.38 35.057 12.673 53.419 4.058 20.734-9.732 34.924-25.79 42.844-47.324m477.48 1011.116c-7.3 2.03-14.54 4.39-21.93 6.05-11.83 2.64-23.9 4.31-35.63 7.32-24.83 6.36-35.6 18.2-40.63 43.77-2.06 10.51-2.21 21.38-3.22 32.09m-608.439 0c-3.06-9.53-5.701-19.2-9.303-28.5-3.071-7.94-7.756-15.07-14.65-20.45-10.927-8.56-22.561-7.91-34.117-1.97-22.285 11.47-38.482 29.36-51.508 50.41M168.348 1.104c6.75 19.93 17.5 37.293 33.145 51.471 4.176 3.794 8.938 6.603 14.761 7.178 9.634.951 16.937-4.015 21.201-14.875 2.774-7.056 4.088-14.809 5.16-22.373 1.005-7.045.818-14.256 1.16-21.4m-566.164.508c-4.928 1.703-9.811 3.517-14.783 5.077a3265 3265 0 0 1-36.692 11.225c-12.374 3.705-23.367 10.307-34.659 16.313-14.517 7.72-29.411 14.554-45.343 18.878-.673.188-1.358.343-2.032.509M921.506 1.105c3.834 11.192 9.557 20.847 19.81 27.626 12.484 8.25 27.72 7.73 39.785.376 9.48-5.784 16.904-13.57 21.489-23.9.61-1.37 1.98-2.4 3.01-3.594M341.09 575.755c-11.59 1.814-18.926 9.578-25.467 18.37-10.496 14.101-19.125 29.175-25.124 45.831-3.679 10.23-3.348 20.172-.287 30.115 5.844 18.956 12.319 37.701 18.219 56.635 6.794 21.821 21.743 34.196 43.884 37.603 19.147 2.941 37.995 1.216 56.038-6.503 11.91-5.099 19.467-14.378 25.555-25.459 6.651-12.111 14.241-23.535 23.709-33.842 10.32-11.237 11.237-17.43 4.077-32.924-9.347-20.228-24.361-35.999-42.691-48.441-11.114-7.543-22.749-14.289-34.073-21.511-6.707-4.28-13.137-9.035-19.931-13.172-7.127-4.346-14.905-6.923-23.401-6.691m224.735-154.003c-14.319 3.517-19.688 14.499-19.887 28.047-.121 8.859-.077 17.651 3.558 26.012 4.331 9.998 9.457 12.729 19.898 10.175 11.126-2.71 20.24-8.66 26.969-17.872 8.795-12.055 5.182-29.253-7.049-38.775-6.861-5.342-14.297-8.14-22.981-7.587m516.209 385.479c-7.65 2.212-15.49 3.882-22.9 6.735-17.64 6.813-31.34 18.724-42.4 34.008-8.51 11.745-14.42 24.674-16.54 38.83-1.922 12.807-.19 26.023 6.63 37.049 13.63 22.064 26.11 44.669 37.58 67.905 6.72 13.651 15.05 26.271 26.35 36.821 11.76 11 25.56 15.46 41.33 14.15 9.06-.74 15.07-8.37 15.28-18.81.37-18.76-6.79-34.837-17.85-49.447a620 620 0 0 0-15.29-19.376c-6.01-7.321-9.92-15.737-10.45-25.016-.45-7.819 1.33-15.793 4.94-22.893 6.89-13.548 14.22-26.875 21.32-40.323 5.13-9.688 10.52-19.155 11.34-30.58.78-10.882-3.44-18.303-12.79-23.579-8.26-4.645-16.95-5.684-26.06-5.496M569.382 389.127c-7.468 2.035-15.191 3.45-22.373 6.259-12.683 4.955-24.814 11.27-30.991 24.409-2.275 4.833-3.866 10.44-4.032 15.748-.519 15.793-.387 31.608-.122 47.412.188 11.491.575 23.081 4.066 34.141 6.209 19.664 18.197 31.221 38.692 34.041 9.048 1.239 16.959-2.046 22.947-9.511 11.259-14.035 22.815-27.826 34.085-41.86 11.457-14.289 18.848-30.281 19.378-48.927.465-16.512-5.844-30.458-16.904-42.226-4.839-5.142-10.385-9.876-16.296-13.713-8.375-5.431-18.086-6.404-27.93-5.751m773.038-7.156c-5.98 1.67-12.58 2.057-17.27 6.691-4.02 3.959-7.77 8.262-11.22 12.73-4.16 5.408-7.54 11.446-11.87 16.699-4.59 5.574-11.12 7.267-18.26 7.819-18.15 1.405-36.58.786-54.04 7.499-11.62 4.457-21.91 11.28-32.56 17.441-13.2 7.62-26.21 15.549-39.26 23.424-10.21 6.16-19.08 13.393-23.02 25.459-5.02 15.339 2.54 33.554 13.34 41.307 13.23 9.5 27.9 11.214 43.83 9.389 19.44-2.223 37.53-8.549 55.51-15.527 12.16-4.723 23.74-10.706 33.6-19.388 10.06-8.869 15.96-20.471 19.88-33.101 2.09-6.735 3.61-13.636 5.68-20.371 3.51-11.358 12.19-15.495 25.44-12.232 7.16 1.758 14.24 3.838 21.41 5.563 12.27 2.964 23.96.553 35.13-4.601 16.42-7.576 31.13-17.861 44.8-29.606 2.8-2.4 5.04-5.552 7.15-8.626 4.13-6.039 2.74-12.829-4.1-15.605-9.59-3.882-19.43-7.653-29.54-9.589-12.71-2.444-25.75-3.174-38.68-4.269-8.46-.719-16.98-.752-25.48-1.095m-279.72 459.909c-18.39 5.132-29.07 17.618-33.57 35.711-1.96 7.919-.82 15.97 4.18 22.285 6.18 7.808 13.95 9.732 23.25 3.141 8.44-5.994 13.82-14.587 18.91-23.391 4.49-7.764 7.72-15.737 7.18-25.005-.4-6.857-5.42-12.442-12.31-12.73-2.37-.099-4.75-.011-7.13-.011M180.058 376.896c-5.955 1.625-11.789 4.147-15.136 9.278-5.989 9.158-4.552 15.749 5.038 19.565 6.463 2.577 13.545 1.072 19.202-3.44 2.486-1.979 4.74-4.733 6.088-7.609 4.518-9.688-3.138-17.606-11.612-17.794-1.017-.023-2.033 0-3.061 0m266.51 476.232c-10.518 2.167-20.705 5.297-30.063 10.705-7.314 4.236-14.562 8.571-21.92 12.73-10.441 5.883-21.754 8.892-33.62 10.252-16.661 1.913-33.455 3.207-49.895 6.359-12.319 2.356-23.665 7.841-32.228 18.027-11.037 13.116-8.75 33.72 2.574 45.985 10.971 11.889 24.837 19.576 38.836 26.864 18.738 9.743 36.249 20.86 51.54 35.68 11.049 10.7 22.02 21.82 36.538 28.21 8.319 3.66 16.837 6.09 25.996 6.12 16.595.03 33.046-1.61 49.431-4.1 18.274-2.77 29.908-13.28 35.653-30.61 4.331-13.06 8.187-26.287 12.839-39.226 5.236-14.577 11.523-28.788 16.539-43.442 2.022-5.884 2.873-12.564 2.508-18.79-.552-9.611-7.646-16.158-14.694-21.234-16.893-12.166-34.405-23.468-51.873-34.815-11.413-7.41-24.24-9.6-37.675-8.726m355.208 8.172c-3.735 1.195-7.767 1.836-11.159 3.672-9.126 4.943-12.85 13.227-13.91 23.346-1.392 13.393.663 26.388 3.734 39.25 3.558 14.92 13.413 25.338 25.378 34.23 14.187 10.539 29.08 19.752 45.906 25.403 10.728 3.606 21.722 6.094 33.102 6.735 5.115.288 10.418.598 15.246 2.124 9.17 2.909 11.093 9.951 9.855 17.211-1.988 11.64-4.165 23.4-4.485 35.17-.497 18.48 7.701 32.75 24.229 41.81 8.353 4.58 16.992 8.64 26.516 9.52 6.916.65 12.894-2.69 17.258-8.05 6.353-7.78 9.093-16.87 9.292-26.97.453-22.81-9.005-41.44-24.141-57.5-4.265-4.52-9.734-8.194-15.225-11.224-15.777-8.693-15.424-15.506-12.452-29.64 2.961-14.112 3.989-28.323 2.542-42.335-2.32-22.451-11.292-37.061-35.377-45.93-15.336-5.641-31.444-7.831-47.398-10.684-11.877-2.123-23.754-4.28-35.687-6.038-4.154-.609-8.474-.1-12.727-.1m-350.08 10.197c-2.883.509-5.778.985-8.662 1.538-8.783 1.692-16.108 6.492-23.433 11.225-9.988 6.47-19.059 14.643-31.113 17.264-6.894 1.493-13.877 2.964-20.892 3.506-10.496.807-21.103.298-31.577 1.283-10.772 1.006-21.312 3.417-30.084 10.561-11.833 9.622-12.143 22.86-2.508 34.661 7.711 9.445 17.732 16.147 28.549 21.345 22.229 10.683 42.635 24.341 63.097 37.891 13.545 8.97 27.864 9.95 42.26 3.84 13.148-5.6 26.572-9.94 40.305-13.71 11.623-3.193 20.318-10.758 27.091-20.744 7.7-11.369 13.622-23.535 17.235-36.751 3.911-14.311.541-26.775-10.142-37.226-10.541-10.319-21.987-19.41-34.626-27.085-7.767-4.722-16.274-6.381-25.014-7.576m975.886 13.238c-9.33 1.504-14.2 7.498-15.73 16.324-1.63 9.301-3.02 18.657-4.06 28.047-.75 6.757-1.34 13.625-.93 20.371.38 6.171 1.28 12.63 3.6 18.282 3.93 9.533 14.5 13.304 25.29 11.413 14.73-2.588 25.75-10.562 34.62-22.053 8.08-10.462 16.03-21.024 23.93-31.63 1.48-1.99 2.65-4.302 3.49-6.635.34-.94-.55-2.345-.9-3.528-2.34-7.797-9.11-11.348-15.37-14.621-13.68-7.145-28.12-12.586-43.26-15.87-3.25-.708-6.77-.1-10.16-.1m-592.663 1.018c-3.911 1.017-8.021 1.559-11.678 3.152-9.115 3.981-14.937 15.129-13.258 24.883 1.79 10.352 4.729 20.35 11.723 28.534 11.324 13.26 25.754 20.803 43.276 19.73 19.821-1.216 36.858-13.271 39.421-36.054 1.116-9.942-3.977-19-12.385-25.47-9.657-7.432-20.849-10.96-32.637-12.641-7.922-1.128-15.954-1.449-23.942-2.123m401.033 12.221c-5.43 1.36-10.91 2.566-16.29 4.114-8.35 2.4-15.35 7.023-21.44 13.205-10.04 10.219-11.37 22.473-6.97 35.147 6.2 17.85 19.21 30.325 36.15 37.492 13.21 5.585 26.75 3.583 38.07-6.348 15.28-13.393 18.26-30.358 14.36-49.458-1.79-8.726-4.62-16.744-10.73-23.468-7.04-7.742-15.79-10.905-26.02-10.684-2.21.044-4.42 0-6.63 0m-788.315 4.081c-8.43 2.411-14.805 7.653-20.451 14.223-4.607 5.374-9.756 10.285-14.716 15.339-7.204 7.332-16.562 6.934-25.445 5.939-10.96-1.239-21.699-4.49-32.67-5.64-4.751-.498-10.209 1.305-14.65 3.494-5.182 2.544-5.602 7.886 1.094 13.349 5.248 4.291 11.777 7.499 18.241 9.688 7.601 2.577 15.622 4.734 23.875 3.738 6.486-.785 13.126-1.305 19.324-3.174 9.071-2.72 18.13-4.379 27.566-3.915 6.629.332 13.247.83 19.876.974 7.225.154 14.075-1.383 20.948-3.893 9.214-3.362 13.644-10.219 15.048-19.045.917-5.762-2.332-11.181-5.602-15.649-3.06-4.192-7.391-7.598-11.601-10.761-5.966-4.49-13.059-5.253-20.329-4.667m778.137-435.445c-17.3 4.534-32.75 12.962-47.34 23.026-3.92 2.709-7.66 5.994-10.66 9.677-8.3 10.163-3.89 20.415 7 24.994 8.63 3.617 17.46 3.174 25.99 1.261 14.95-3.34 29.51-8.306 41.25-18.757 7.8-6.923 12.57-15.174 9.88-26.476-1.63-6.868-9.19-13.814-17.47-13.736-2.72.022-5.43 0-8.15 0M83.24 328.963c-8.087 1.615-12.76 10.164-12.771 17.85 0 25.713 9.192 48.418 22.44 69.863 7.147 11.568 15.743 21.975 28.117 27.858 12.96 6.161 26.881 6.824 41.222 4.955 12.684-1.659 25.014-4.402 36.603-9.5 15.789-6.945 28.715-17.352 33.101-35.07 5.657-22.86-5.656-47.699-26.538-58.902-9.723-5.22-20.937-5.895-31.985-3.285-9.347 2.201-18.672 4.457-28.03 6.625-15.015 3.483-28.173-.509-40.327-9.589-5.038-3.76-10.75-6.647-16.274-9.71-1.447-.797-3.359-.752-5.06-1.084m243.087-24.485c-16.539 4.457-25.776 15.715-28.339 32.15-1.028 6.613-.961 13.824.574 20.305 2.199 9.257 5.668 18.314 9.579 27.007 3.094 6.868 8.331 12.077 16.109 14.444 9.601 2.908 17.711-.951 24.87-5.884 12.971-8.936 22.174-21.245 24.98-37.06 4.552-25.68-7.082-44.448-33.554-50.819-4.331-1.039-9.137-.143-13.722-.143m276.719 676.11c-16.031 3.052-21.511 15.483-24.837 29.101-3.226 13.18-2.74 26.62.961 39.71 2.133 7.54 5.193 14.92 12.198 19.32 7.093 4.46 14.86 3.95 21.798-.03 12.827-7.37 20.594-18.85 24.539-33.02 4.927-17.78-2.409-38.934-16.297-49.496-5.325-4.048-11.302-5.64-17.854-5.585m237.973-698.55c-15.214 3.783-26.848 12.597-34.527 26.079-4.673 8.206-6.22 17.053-4.994 26.985 2.21 17.983 8.154 34.97 11.988 52.488 3.348 15.273 5.789 30.723 4.463 46.384-.773 9.068-3.038 18.004-4.419 27.04-1.978 12.895-3.679 25.846-5.657 38.741-2.806 18.37-5.888 36.696-8.54 55.088-.575 3.97-2.243 7.918-.265 12.287 1.613 3.55 3.911 4.368 7.281 4.556 11.413.631 22.185-2.931 33.09-5.275 7.634-1.648 15.103-4.302 22.428-7.067 13.07-4.944 20.417-14.322 22.638-28.456 1.602-10.175-.188-19.852-1.812-29.584-2.894-17.397-7.192-34.583-9.325-52.057-1.635-13.426-.176-27.03 3.724-40.268 4.673-15.87 12.131-30.391 19.787-44.934 4.033-7.665 7.8-15.661 7.933-24.895.133-9.169-2.519-16.932-8.242-23.999-9.789-12.088-21.224-22.086-35.2-29.021-6.243-3.096-12.861-4.6-19.865-4.092m-319.486-9.168c-14.938 3.528-27.047 11.734-37.156 22.993-5.281 5.883-6.972 12.806-3.591 20.338 3.237 7.222 9.458 9.058 16.783 9.799 17.677 1.802 41.144-17.054 37.719-42.933-.707-5.375-6.419-9.799-13.258-10.197m247.164 433.398c-16.672 4.181-21.721 10.286-24.03 27.527-1.635 12.21 1.326 22.462 10.772 30.613 5.867 5.065 13.247 6.945 20.417 7.896 8.353 1.106 17.037 1.018 25.423.089 14.639-1.615 18.539-14.167 16.329-24.309-4.607-21.168-18.263-33.764-38.249-40.201-3.226-1.04-6.773-1.095-10.165-1.604m378.64-453.814c-7.55 1.747-14.35 4.678-17.8 12.253-2.74 6.006-3.61 12.111-2.21 18.879 2.97 14.411 7.53 28.091 15.96 40.245 14.15 20.405 37.11 15.639 47.9-2.521 10.6-17.817 8.52-37.669-6.11-52.566-7.75-7.907-16.69-13.514-27.56-15.704-3.14-.631-6.45-.409-9.67-.575m-1477.297-89.748c-8.021 3.086-5.878 10.142-5.392 15.793.542 6.282 2.663 12.354 9.436 15.373 5.248 2.333 10.308.321 11.744-5.154 2.343-8.947-3.027-21.256-11.236-25.437-1.149-.586-2.685-.398-4.044-.564m647.692-38.764c-9.347 1.67-11.667 11.469-8.054 20.35 3.867 9.5 10.165 16.633 20.749 19.575 5.9 1.637 11.159.73 15.158-2.897 4.11-3.716 3.812-9.124 2.331-14.632-2.861-10.595-18.064-23.612-29.676-22.407m115.678 366.114a46 46 0 0 0-4.319.94m-8.277 3.008c-5.811 2.643-11.181 6.171-16.395 9.909-16.275 11.646-33.411 14.499-52.613 8.273-9.314-3.019-19.235-4.988-29.002-5.552-12.982-.741-22.616 5.64-27.477 18.104-4.033 10.319-7.558 20.848-11.811 31.066-7.734 18.614-18.363 35.081-37.178 44.305-11.192 5.485-23.069 7.564-35.642 5.253-14.551-2.687-29.135-5.729-43.84-6.912-10.751-.863-21.722 1.05-32.593 1.747-4.762.31-9.524.608-14.264 1.029-13.81 1.227-27.687 1.769-41.299 4.999-14.76 3.494-26.019 11.988-35.056 23.601-6.276 8.062-10.275 17.142-12.596 27.405-2.972 13.183 3.867 27.306 20.694 29.385 12.927 1.604 26.13 1.139 39.21 1.217 15.159.088 30.119 1.139 44.869 5.076 11.313 3.019 21.533 8.228 29.908 16.036 11.766 10.96 22.616 22.915 33.753 34.55 5.27 5.508 7.258 12.188 7.258 19.863 0 11.015-2.165 21.787-2.861 32.647-.851 13.216-1.348 26.499 5.005 39.394 5.215 10.584 19.169 15.196 29.355 13.128 16.286-3.318 32.615-6.426 48.912-9.721 17.975-3.639 36.139-6.448 53.529-12.686 12.131-4.346 24.274-8.891 36.725-12.077 10.098-2.576 20.661-3.373 31.035-4.777 14.429-1.958 28.892-3.65 43.31-5.663 12.253-1.714 24.483-3.627 36.692-5.607 8.518-1.382 17.147-2.466 25.422-4.767 5.071-1.415 10.386-4.025 14.175-7.597 13.645-12.852 20.561-29.065 22.108-47.766 2.409-29.054-5.856-56.017-15.932-82.57-4.209-11.082-9.026-21.987-14.307-32.604-4.121-8.305-8.629-16.633-14.286-23.91-15.147-19.498-25.025-41.363-32.096-64.831-2.695-8.936-6.209-17.817-10.772-25.923-4.463-7.93-10.617-14.82-20.064-17.087m-4.364-.653c-1.469-.099-2.95-.133-4.419-.232M1048.4 85.235c-13.12 2.897-23.76 10.738-34.58 17.949-10.52 6.99-20.609 14.654-30.608 22.385-11.27 8.714-18.274 20.515-18.562 34.627-.221 11.015 4.254 21.19 13.932 28.036 13.292 9.4 28.018 12.01 43.818 9.157 16.33-2.953 32.66-5.873 48.9-9.268 6.63-1.382 12.94-3.76 18.98-7.366 9.78-5.828 12.92-19.044 11.17-28.743-1.45-7.996-4.65-15.207-8.11-22.473-4.91-10.33-9.57-20.77-16.4-30.038-.88-1.172-1.67-2.4-2.56-3.56-6.45-8.417-14.83-12.233-25.47-10.717m-1361.102-13.25c-6.629 1.87-13.391 3.351-19.843 5.696-11.546 4.191-21.268 11.446-30.626 19.265-8.85 7.388-16.153 15.86-20.926 26.521-6.066 13.559-6.806 27.45-4.055 41.838 4.894 25.625 14.717 49.37 27.632 71.842 6.254 10.872 14.385 20.14 25.864 26.123 10.364 5.397 21.169 5.696 32.129 3.428 22.749-4.7 43.531-14.454 63.12-26.576 12.65-7.83 13.435-14.653 9.004-28.854-9.899-31.696-21.224-62.939-31.808-94.426-3.237-9.632-7.248-18.757-13.258-27.04-9.115-12.552-21.589-17.861-36.725-17.817M1242.04 69.94c-7.78 1.67-15.51 3.042-22.49 7.543-9.49 6.116-14.7 14.19-14.73 25.603-.07 26.576 10.63 48.507 30.25 65.593 14.76 12.863 31.31 9.136 43.51-4.047 12.6-13.603 20.85-30.104 24.44-48.33 2.9-14.743.12-27.295-16.07-36.795-13.91-8.173-28.77-10.274-44.4-9.567M1066.74 47.5c-14.69 4.192-26.98 12.741-39.26 21.39-18.26 12.862-36.502 25.768-55.063 38.188-13.722 9.19-23.533 20.847-26.947 37.304-3.911 18.867-2.652 36.883 9.181 53.019 5.933 8.095 13.435 14.156 22.329 19.022 12.419 6.802 25.73 10.451 39.31 13.636 20.42 4.789 37.32 14.964 50.02 32.051 8.28 11.159 17.28 21.787 25.9 32.692 11.66 14.731 19.16 31.829 27.53 48.44 6.23 12.376 15.1 21.677 29.05 24.95 10.42 2.445 20.75 1.018 30.53-2.621 30.34-11.269 45.77-35.423 52.7-65.251 3.55-15.251-2.16-29.318-13.4-40.732-14.37-14.598-29.58-28.235-45.28-41.395-12.59-10.562-22.15-23.38-27.29-39.593-6.59-20.803-15.22-40.743-27.12-59.334-9.89-15.44-16.29-32.814-23.19-49.812-1.86-4.568-4.01-9.08-6.65-13.228-3.8-5.96-9.12-9.699-16.74-8.748-1.67.21-3.39.034-5.09.034M353.319 630.82c-7.877 1.15-14.617 4.59-18.185 11.8-2.663 5.386-4.718 11.359-5.558 17.286-1.149 8.041-1.591 16.335-1.06 24.431.85 12.895 3.502 25.337 10.418 36.795 11.712 19.387 42.327 24.629 58.645 2.93 9.005-11.977 13.369-25.934 15.402-40.732 2.707-19.763-7.027-32.282-23.511-40.743-10.11-5.187-20.583-9.544-32.074-10.794-1.215-.133-2.386-.652-3.568-.995m875.982-604.71c-16.98 3.936-30.97 13.005-42.75 25.536-8.54 9.068-13.53 20.05-12.61 32.58.87 11.978 4.28 23.591 9.03 34.672 7.6 17.729 15.41 35.346 26.93 51.029 7.91 10.761 16.64 20.891 28.66 26.819 16.88 8.339 31.05 4.999 45.23-8.018 14.28-13.095 25.02-29.053 35.14-45.377 6.42-10.352 12.35-21.002 18.38-31.586 5.17-9.08 9.28-18.613 10.69-29.053 1.31-9.788-4.95-17.784-11.62-21.544-9.98-5.64-21.06-7.864-31.65-11.646-17.06-6.094-34.09-12.254-50.93-18.934-7.82-3.107-15.68-4.722-24-4.468M25.148 2.631C12.144 9.886 1.714 38.464 10.675 53.24c6.573 10.85 17.677 16.026 29.753 14.588 8.883-1.05 16.473-12.508 14.805-21.345-2.696-14.278-8.75-26.93-17.8-38.277-3.126-3.915-6.65-6.237-11.766-5.574M1364.34 616.543c-20.2 4.767-27.72 20.537-31.89 38.288-2.53 10.772-2.59 22.097-4.38 33.079-1.98 12.132-.01 23.921 2.17 35.7 3.45 18.547 14.38 30.834 32.61 35.534 10.28 2.643 20.97 4.059 31.57 5.054 4.81.454 10.04-.896 14.72-2.466 6.94-2.334 9.87-8.66 8.2-15.671-6.29-26.344-12.38-52.743-18.95-79.009-2.63-10.518-6.09-20.859-9.68-31.1-2.44-6.956-6.96-12.851-13.26-16.688-2.97-1.814-7.03-1.869-10.59-2.721m-626.294-22.439c-6.96 1.526-14.098 2.532-20.848 4.722-8.563 2.776-16.628 6.713-21.986 14.632-4.795 7.1-6.939 14.698-3.967 22.937 2.32 6.437 5.524 12.464 10.574 17.419 5.148 5.043 10.12 10.296 14.76 15.815 4.265 5.065 5.502 11.656 4.464 17.761-2.851 16.755-6.397 33.389-10.087 49.989-2.1 9.445-5.712 18.591-7.403 28.091-2.795 15.661.254 28.224 17.236 33.92 4.629 1.559 10.12.741 15.213.663 4.585-.066 9.17-.796 13.756-.929 14.44-.431 28.891-1.305 43.309-.851 10.22.32 20.363 3.041 30.593 3.683 6.221.387 12.739-.465 18.794-2.024 7.424-1.903 10.949-12.265 10.109-19.177-1.635-13.449-5.016-26.433-10.971-38.819-8.96-18.658-21.821-33.588-38.769-45.422-13.468-9.4-28.483-15.759-42.868-23.379-2.419-1.283-4.96-2.445-7.104-4.114-9.479-7.377-11.534-14.466-7.093-26.952 3.856-10.85 8.419-21.445 12.651-32.161.585-1.493 1.115-3.031 1.524-4.59 2.044-7.863-.519-11.181-8.651-11.214-4.242-.023-8.496 0-12.739 0m249.198-2.035c-11.623 5.275-10.994 22.716-4.431 29.949 7.325 8.073 15.545 15.428 23.9 22.45 5.05 4.236 10.74 8.196 16.79 10.629 10.35 4.158 21.23.829 27.91-7.985 3.23-4.247 1.07-11.093-5.1-15.716-4.52-3.373-9.42-6.271-14.23-9.223a140.8 140.8 0 0 1-26.52-20.903c-2.38-2.389-4.79-5.01-7.702-6.503-3.038-1.548-6.717-1.858-10.109-2.709m-554.928-56.083c-7.303 3.738-14.639 7.421-21.909 11.225-9.921 5.198-20.362 6.061-31.079 3.517-10.584-2.521-20.981-5.872-31.632-7.996-13.677-2.72-26.041.354-34.526 12.188-7.933 11.059-14.926 22.782-22.55 34.074-10.076 14.919-21.312 28.777-36.636 38.797-12.485 8.162-25.798 14.233-40.791 15.118-8.562.509-16.782-2.4-24.98-4.888-13.623-4.137-27.378-7.653-41.763-8.295-15.302-.686-30.571-2.245-45.873-2.886-10.408-.443-20.219 2.422-27.953 9.666-8.44 7.907-9.9 15.981-4.187 22.395 3.889 4.369 9.181 5.729 14.33 6.437 12.031 1.647 24.085.221 36.172-.664 12.673-.929 25.467-.398 38.205-.155 17.28.332 33.632 6.171 50.481 8.936 14.495 2.389 28.295 5.983 40.735 13.957 13.733 8.804 22.219 21.235 25.478 37.215 3.005 14.732 1.038 29.297-1.47 43.862-.839 4.867-1.414 9.843-1.502 14.776-.122 7.365 5.347 11.845 12.639 12.884 13.988 2.013 27.555-1.183 41.299-2.179 9.855-.707 19.711-1.238 29.555-2.079 12.407-1.061 24.803-2.366 37.2-3.528 6.109-.564 12.23-1.493 18.34-1.46 22.616.155 43.575-6.691 64.191-14.919 10.463-4.169 20.937-8.383 31.046-13.315 12.319-6.006 20.484-15.893 23.445-29.485 2.409-11.06.354-21.831-2.408-32.648-5.503-21.488-16.518-39.969-30.163-57.078-7.38-9.256-14.992-18.314-22.384-27.56-9.081-11.358-13.876-24.53-16.373-38.73a215 215 0 0 0-4.63-20.383c-.983-3.55-2.541-7.111-4.585-10.163-3.535-5.265-8.64-7.842-15.191-6.691m270.565-65.207c-9.867 2.455-14.032 14.034-12.673 22.937 1.525 9.998 13.999 13.991 22.307 7.089 6.751-5.618 8.739-16.047 4.132-23.91-3.005-5.121-7.568-6.835-13.247-6.116m-1.536-37.735c-16.275 3.008-24.771 14.278-30.605 28.545-5.016 12.287-8.662 24.906-8.573 38.254.11 17.906 12.219 27.704 27.455 29.098 15.114 1.382 28.726-1.88 39.697-12.829 7.524-7.498 10.905-16.932 12.418-27.461 2.31-16.069-1.822-30.325-11.501-42.734-6.927-8.891-16.86-13.127-28.383-12.862"
    />
  </g>
  <defs>
    <clipPath id="a">
      <path fill="white" d="M0 0h1440v451H0z" />
    </clipPath>
  </defs>
</svg>
