<svg xmlns="http://www.w3.org/2000/svg" fill="none" viewBox="0 0 149 89">
  <path fill="#12110D" d="M61.842 50.995a4.536 4.536 0 0 0-4.53 4.53 4.536 4.536 0 0 0 4.53 4.53 4.535 4.535 0 0 0 4.53-4.53 4.535 4.535 0 0 0-4.53-4.53m-12.661 0a4.535 4.535 0 0 0-4.53 4.53 4.535 4.535 0 0 0 4.53 4.53 4.536 4.536 0 0 0 4.53-4.53 4.536 4.536 0 0 0-4.53-4.53m25.322 0a4.535 4.535 0 0 0-4.53 4.53 4.535 4.535 0 0 0 4.53 4.53 4.535 4.535 0 0 0 4.53-4.53 4.535 4.535 0 0 0-4.53-4.53m25.321 0a4.535 4.535 0 0 0-4.53 4.53 4.535 4.535 0 0 0 4.53 4.53 4.535 4.535 0 0 0 4.53-4.53 4.535 4.535 0 0 0-4.53-4.53m-12.661 0a4.536 4.536 0 0 0-4.531 4.53 4.536 4.536 0 0 0 4.53 4.53 4.535 4.535 0 0 0 4.53-4.53 4.533 4.533 0 0 0-4.529-4.53M52.958 38.157c0-2.119-1.598-3.717-3.717-3.717s-3.717 1.598-3.717 3.717 1.599 3.717 3.717 3.717c2.12 0 3.717-1.6 3.717-3.717m-8.992 0c0-2.937 2.358-5.156 5.275-5.156s5.276 2.198 5.276 5.136v4.516c0 .46-.32.778-.8.778-.478 0-.798-.319-.798-.778v-1.319h-.08c-.62 1.06-1.86 1.978-3.697 1.978-2.838 0-5.176-2.198-5.176-5.155m21.622 0c0-2.119-1.599-3.717-3.717-3.717-2.12 0-3.718 1.598-3.718 3.717s1.599 3.717 3.718 3.717 3.717-1.6 3.717-3.717m-6.955 8.492c-.42-.2-.619-.56-.46-.979.16-.44.56-.619.98-.42.72.34 1.619.58 2.577.58 2.378 0 3.817-1.42 3.817-3.837v-.66h-.08c-.62 1.06-1.859 1.979-3.697 1.979-2.838 0-5.175-2.199-5.175-5.156 0-2.958 2.358-5.156 5.276-5.156s5.275 2.198 5.275 5.136v3.756c0 3.237-2.078 5.415-5.475 5.415-1.039.001-2.078-.198-3.038-.658m19.584-8.492c0-2.119-1.599-3.717-3.717-3.717-2.12 0-3.717 1.598-3.717 3.717s1.598 3.717 3.717 3.717 3.717-1.6 3.717-3.717m-8.992 0c0-2.937 2.339-5.156 5.276-5.156s5.275 2.218 5.275 5.156-2.338 5.156-5.275 5.156-5.276-2.219-5.276-5.156m21.621 0c0-2.119-1.599-3.717-3.717-3.717s-3.717 1.598-3.717 3.717 1.598 3.717 3.717 3.717 3.717-1.6 3.717-3.717m-8.992 0c0-2.937 2.318-5.156 5.176-5.156 1.838 0 3.078.92 3.697 1.979h.08v-5.255c0-.46.32-.78.8-.78.478 0 .798.32.798.78v8.451c0 2.937-2.338 5.136-5.275 5.136-2.918 0-5.276-2.218-5.276-5.155m21.622 0c0-2.119-1.598-3.717-3.717-3.717s-3.717 1.598-3.717 3.717 1.598 3.717 3.717 3.717 3.717-1.6 3.717-3.717m-8.993 0c0-2.937 2.358-5.156 5.276-5.156s5.275 2.198 5.275 5.136v4.516c0 .46-.32.778-.799.778-.478 0-.799-.319-.799-.778v-1.319h-.08c-.619 1.06-1.859 1.978-3.697 1.978-2.837 0-5.176-2.198-5.176-5.155"/>
</svg>
