<svg width="658" height="420" viewBox="0 0 658 420" fill="none" xmlns="http://www.w3.org/2000/svg">
<g filter="url(#filter0_d_9_388)">
<rect x="54.332" y="40" width="524" height="328" rx="32" fill="white"/>
<path d="M190.614 150V149.776L191.874 148.292V140.228H181.962V148.292L183.222 149.776V150H177.622V149.776L178.882 148.292V131.52L177.622 130.036V129.812H183.222V130.036L181.962 131.52V138.408H191.874V131.52L190.614 130.036V129.812H196.214V130.036L194.954 131.52V148.292L196.214 149.776V150H190.614ZM200.592 142.468C200.648 145.968 202.664 148.04 205.296 148.04C207.368 148.04 208.824 146.92 209.524 144.82L211.12 145.268C210.448 148.264 208.152 150.28 204.764 150.28C200.396 150.28 197.652 146.892 197.652 142.72C197.652 138.548 200.228 135.188 204.54 135.188C209.412 135.188 211.232 138.828 211.008 142.468H200.592ZM204.54 136.644C202.356 136.644 201.012 138.576 200.676 141.068H208.012C207.872 138.688 206.668 136.644 204.54 136.644ZM216.414 148.432L217.394 149.776V150H212.55V149.776L213.53 148.432V131.744L212.55 130.316V130.064L216.414 129.392V148.432ZM222.888 148.432L223.868 149.776V150H219.024V149.776L220.004 148.432V131.744L219.024 130.316V130.064L222.888 129.392V148.432ZM232.527 150.28C228.327 150.28 225.303 147.06 225.303 142.72C225.303 138.38 228.327 135.188 232.527 135.188C236.699 135.188 239.751 138.38 239.751 142.72C239.751 147.06 236.699 150.28 232.527 150.28ZM232.527 148.656C234.963 148.656 236.755 146.192 236.755 142.72C236.755 139.248 234.963 136.784 232.527 136.784C230.063 136.784 228.327 139.248 228.327 142.72C228.327 146.192 230.063 148.656 232.527 148.656ZM242.893 144.064L241.857 129.812H245.385L244.321 144.064H242.893ZM241.941 146.752H245.273V150H241.941V146.752ZM257.718 148.292L258.978 149.776V150H253.378V149.776L254.638 148.292V131.52L253.378 130.036V129.812H258.978V130.036L257.718 131.52V148.292ZM261.187 129.812H264.547V133.06L262.251 137.064H261.439L263.007 132.892L261.187 133.06V129.812ZM265.362 150V149.776L266.314 148.432V137.68L265.334 136.252V136L269.198 135.328V138.24C269.982 136.476 271.578 135.188 273.594 135.188C275.778 135.188 277.346 136.364 277.85 138.408C278.83 136.308 280.566 135.188 282.442 135.188C285.242 135.188 287.09 137.064 287.09 140.088V148.432L288.042 149.776V150H283.31V149.776L284.206 148.432V140.48C284.206 138.156 283.03 137.344 281.602 137.344C279.894 137.344 278.438 138.772 278.13 141.012V148.432L279.026 149.776V150H274.35V149.776L275.246 148.432V140.48C275.246 138.156 274.07 137.344 272.698 137.344C270.962 137.344 269.506 138.828 269.198 141.012V148.432L270.094 149.776V150H265.362ZM298.843 150V149.776L300.103 148.292V131.548L295.819 131.8L293.607 133.508H293.383L293.831 129.812H309.455L309.903 133.508H309.679L307.467 131.8L303.183 131.548V148.292L304.443 149.776V150H298.843ZM310.277 142.468C310.333 145.968 312.349 148.04 314.981 148.04C317.053 148.04 318.509 146.92 319.209 144.82L320.805 145.268C320.133 148.264 317.837 150.28 314.449 150.28C310.081 150.28 307.337 146.892 307.337 142.72C307.337 138.548 309.913 135.188 314.225 135.188C319.097 135.188 320.917 138.828 320.693 142.468H310.277ZM314.225 136.644C312.041 136.644 310.697 138.576 310.361 141.068H317.697C317.557 138.688 316.353 136.644 314.225 136.644ZM322.347 150V149.776L323.327 148.432V137.68L322.347 136.252V136L326.211 135.328V138.492C326.911 136.476 328.367 135.188 330.243 135.188C330.607 135.188 330.943 135.216 331.251 135.272L331.027 138.128C328.143 137.26 326.687 139.388 326.211 141.236V148.432L327.527 149.776V150H322.347ZM332.239 150V149.776L333.219 148.432V137.68L332.239 136.252V136L336.103 135.328V138.492C336.803 136.476 338.259 135.188 340.135 135.188C340.499 135.188 340.835 135.216 341.143 135.272L340.919 138.128C338.035 137.26 336.579 139.388 336.103 141.236V148.432L337.419 149.776V150H332.239ZM345.979 150.28C343.235 150.28 341.387 148.684 341.387 146.36C341.387 143.924 343.207 142.468 346.455 141.796L350.599 141.012V139.836C350.599 137.764 349.395 136.672 347.659 136.672C345.839 136.672 344.467 137.876 344.467 140.228L341.639 139.612C342.003 137.176 344.215 135.188 347.715 135.188C351.243 135.188 353.483 137.092 353.483 140.424V148.32L354.463 149.776V150H350.599V147.508C349.703 149.244 348.079 150.28 345.979 150.28ZM350.599 145.296V142.384L347.435 143.028C345.363 143.532 344.355 144.512 344.355 146.08C344.355 147.424 345.335 148.376 346.875 148.376C348.863 148.376 350.123 147.004 350.599 145.296ZM371.308 150.28C366.044 150.28 361.228 146.78 361.228 139.892C361.228 132.948 366.268 129.532 371.392 129.532C375.34 129.532 378.196 131.296 379.4 134.012L377.272 136.168L377.048 136.14C376.46 133.48 374.332 131.296 371.392 131.296C367.416 131.296 364.42 134.32 364.42 139.696C364.42 145.072 367.78 147.928 371.532 147.928C374.724 147.928 377.02 146.304 377.916 143.028L379.736 143.308C378.952 147.788 375.592 150.28 371.308 150.28ZM387.967 150.28C383.767 150.28 380.743 147.06 380.743 142.72C380.743 138.38 383.767 135.188 387.967 135.188C392.139 135.188 395.191 138.38 395.191 142.72C395.191 147.06 392.139 150.28 387.967 150.28ZM387.967 148.656C390.403 148.656 392.195 146.192 392.195 142.72C392.195 139.248 390.403 136.784 387.967 136.784C385.503 136.784 383.767 139.248 383.767 142.72C383.767 146.192 385.503 148.656 387.967 148.656ZM396.575 150V149.776L397.835 148.292V131.52L396.575 130.036V129.812H405.731C410.127 129.812 412.675 132.052 412.675 135.72C412.675 139.248 410.127 141.656 405.731 141.656H400.915V148.264L402.595 149.776V150H396.575ZM400.915 139.808H404.919C407.887 139.808 409.483 138.156 409.483 135.692C409.483 133.256 407.859 131.66 404.919 131.66H400.915V139.808ZM417.712 148.432L418.692 149.776V150H413.848V149.776L414.828 148.432V137.68L413.848 136.252V136L417.712 135.328V148.432ZM416.228 133.34C415.192 133.34 414.352 132.5 414.352 131.464C414.352 130.456 415.192 129.644 416.228 129.644C417.292 129.644 418.132 130.456 418.132 131.464C418.132 132.5 417.292 133.34 416.228 133.34ZM424.211 148.432L425.191 149.776V150H420.347V149.776L421.327 148.432V131.744L420.347 130.316V130.064L424.211 129.392V148.432ZM433.851 150.28C429.651 150.28 426.627 147.06 426.627 142.72C426.627 138.38 429.651 135.188 433.851 135.188C438.023 135.188 441.075 138.38 441.075 142.72C441.075 147.06 438.023 150.28 433.851 150.28ZM433.851 148.656C436.287 148.656 438.079 146.192 438.079 142.72C438.079 139.248 436.287 136.784 433.851 136.784C431.387 136.784 429.651 139.248 429.651 142.72C429.651 146.192 431.387 148.656 433.851 148.656ZM447.948 150.28C445.652 150.28 443.888 149.048 443.888 146.136V137.148H441.396V135.776C443.804 135.524 444.812 134.796 445.204 131.94H446.772V135.468L450.328 135.272L450.44 137.148H446.772V146.22C446.772 147.788 447.668 148.404 448.76 148.404C449.292 148.404 449.852 148.32 450.328 147.984L450.412 149.356C449.936 149.832 449.04 150.28 447.948 150.28ZM451.694 146.752H455.054V150L452.758 154.004H451.946L453.514 149.832L451.694 150V146.752ZM164.999 195.516C164.103 195.516 163.235 195.264 162.759 194.928L163.543 192.296C164.019 192.716 164.691 192.968 165.475 192.968C166.623 192.968 167.659 192.296 168.331 190.644L168.695 189.748L163.795 177.12L162.479 175.692V175.468H167.491V175.692L166.791 177.092L170.151 186.444L173.455 177.092L172.783 175.692V175.468H176.815V175.692L175.443 177.12L169.927 191.4C168.723 194.396 167.099 195.516 164.999 195.516ZM183.742 190.28C179.542 190.28 176.518 187.06 176.518 182.72C176.518 178.38 179.542 175.188 183.742 175.188C187.914 175.188 190.966 178.38 190.966 182.72C190.966 187.06 187.914 190.28 183.742 190.28ZM183.742 188.656C186.178 188.656 187.97 186.192 187.97 182.72C187.97 179.248 186.178 176.784 183.742 176.784C181.278 176.784 179.542 179.248 179.542 182.72C179.542 186.192 181.278 188.656 183.742 188.656ZM198.252 190.28C195.396 190.28 193.324 188.404 193.324 185.296V177.568L192.344 176.252V176L196.208 175.328V184.96C196.208 187.172 197.44 188.124 199.064 188.124C200.828 188.124 202.34 186.696 202.76 184.512V177.568L201.78 176.252V176L205.644 175.328V188.432L206.624 189.776V190H202.76V187.228C201.948 189.048 200.268 190.28 198.252 190.28ZM208.338 190V189.776L209.318 188.432V177.68L208.338 176.252V176L212.202 175.328V178.492C212.902 176.476 214.358 175.188 216.234 175.188C216.598 175.188 216.934 175.216 217.242 175.272L217.018 178.128C214.134 177.26 212.678 179.388 212.202 181.236V188.432L213.518 189.776V190H208.338ZM221.043 190V189.776L222.527 188.376L229.807 169.812H231.963L239.327 188.292L240.839 189.776V190H235.071L235.043 189.776L235.995 188.348L234.427 184.316H226.307L224.767 188.404L225.691 189.776L225.663 190H221.043ZM226.979 182.468H233.699L230.283 173.676L226.979 182.468ZM246.244 188.292L247.504 189.776V190H241.904V189.776L243.164 188.292V171.52L241.904 170.036V169.812H247.504V170.036L246.244 171.52V188.292ZM260.608 190.28C256.968 190.28 254.98 188.6 254.588 187.172L255.988 185.016L256.24 185.044C256.744 187.536 258.284 189.216 260.608 189.216C262.288 189.216 263.408 188.264 263.408 186.696C263.408 185.38 262.596 184.54 261.056 184.064L258.676 183.364C257.108 182.888 255.064 182.02 255.064 179.304C255.064 176.924 257.192 175.188 260.216 175.188C262.652 175.188 264.64 176.28 265.508 177.988L264.22 179.78L263.968 179.752C263.604 177.596 262.176 176.196 260.216 176.196C258.676 176.196 257.584 177.204 257.584 178.408C257.584 179.556 258.34 180.228 259.796 180.704L262.232 181.404C264.248 182.048 266.152 182.944 266.152 185.772C266.152 188.348 263.912 190.28 260.608 190.28ZM270.351 182.468C270.407 185.968 272.423 188.04 275.055 188.04C277.127 188.04 278.583 186.92 279.283 184.82L280.879 185.268C280.207 188.264 277.911 190.28 274.523 190.28C270.155 190.28 267.411 186.892 267.411 182.72C267.411 178.548 269.987 175.188 274.299 175.188C279.171 175.188 280.991 178.828 280.767 182.468H270.351ZM274.299 176.644C272.115 176.644 270.771 178.576 270.435 181.068H277.771C277.631 178.688 276.427 176.644 274.299 176.644ZM289.309 190.28C285.137 190.28 282.225 187.116 282.225 182.72C282.225 178.212 285.361 175.188 289.505 175.188C292.445 175.188 294.629 176.672 295.357 178.716L293.481 180.312L293.257 180.284C292.781 178.156 291.465 176.784 289.533 176.784C286.985 176.784 285.249 178.996 285.249 182.384C285.249 186.192 287.573 188.012 289.869 188.012C291.801 188.012 293.313 186.92 294.069 184.596L295.637 184.876C295.049 188.18 292.697 190.28 289.309 190.28ZM302.673 190.28C299.817 190.28 297.745 188.404 297.745 185.296V177.568L296.765 176.252V176L300.629 175.328V184.96C300.629 187.172 301.861 188.124 303.485 188.124C305.249 188.124 306.761 186.696 307.181 184.512V177.568L306.201 176.252V176L310.065 175.328V188.432L311.045 189.776V190H307.181V187.228C306.369 189.048 304.689 190.28 302.673 190.28ZM312.759 190V189.776L313.739 188.432V177.68L312.759 176.252V176L316.623 175.328V178.492C317.323 176.476 318.779 175.188 320.655 175.188C321.019 175.188 321.355 175.216 321.663 175.272L321.439 178.128C318.555 177.26 317.099 179.388 316.623 181.236V188.432L317.939 189.776V190H312.759ZM326.515 188.432L327.495 189.776V190H322.651V189.776L323.631 188.432V177.68L322.651 176.252V176L326.515 175.328V188.432ZM325.031 173.34C323.995 173.34 323.155 172.5 323.155 171.464C323.155 170.456 323.995 169.644 325.031 169.644C326.095 169.644 326.935 170.456 326.935 171.464C326.935 172.5 326.095 173.34 325.031 173.34ZM334.835 190.28C332.539 190.28 330.775 189.048 330.775 186.136V177.148H328.283V175.776C330.691 175.524 331.699 174.796 332.091 171.94H333.659V175.468L337.215 175.272L337.327 177.148H333.659V186.22C333.659 187.788 334.555 188.404 335.647 188.404C336.179 188.404 336.739 188.32 337.215 187.984L337.299 189.356C336.823 189.832 335.927 190.28 334.835 190.28ZM340.037 195.516C339.141 195.516 338.273 195.264 337.797 194.928L338.581 192.296C339.057 192.716 339.729 192.968 340.513 192.968C341.661 192.968 342.697 192.296 343.369 190.644L343.733 189.748L338.833 177.12L337.517 175.692V175.468H342.529V175.692L341.829 177.092L345.189 186.444L348.493 177.092L347.821 175.692V175.468H351.853V175.692L350.481 177.12L344.965 191.4C343.761 194.396 342.137 195.516 340.037 195.516ZM361.61 190.28C358.866 190.28 357.018 188.684 357.018 186.36C357.018 183.924 358.838 182.468 362.086 181.796L366.23 181.012V179.836C366.23 177.764 365.026 176.672 363.29 176.672C361.47 176.672 360.098 177.876 360.098 180.228L357.27 179.612C357.634 177.176 359.846 175.188 363.346 175.188C366.874 175.188 369.114 177.092 369.114 180.424V188.32L370.094 189.776V190H366.23V187.508C365.334 189.244 363.71 190.28 361.61 190.28ZM366.23 185.296V182.384L363.066 183.028C360.994 183.532 359.986 184.512 359.986 186.08C359.986 187.424 360.966 188.376 362.506 188.376C364.494 188.376 365.754 187.004 366.23 185.296ZM377.218 190.28C373.578 190.28 371.59 188.6 371.198 187.172L372.598 185.016L372.85 185.044C373.354 187.536 374.894 189.216 377.218 189.216C378.898 189.216 380.018 188.264 380.018 186.696C380.018 185.38 379.206 184.54 377.666 184.064L375.286 183.364C373.718 182.888 371.674 182.02 371.674 179.304C371.674 176.924 373.802 175.188 376.826 175.188C379.262 175.188 381.25 176.28 382.118 177.988L380.83 179.78L380.578 179.752C380.214 177.596 378.786 176.196 376.826 176.196C375.286 176.196 374.194 177.204 374.194 178.408C374.194 179.556 374.95 180.228 376.406 180.704L378.842 181.404C380.858 182.048 382.762 182.944 382.762 185.772C382.762 188.348 380.522 190.28 377.218 190.28ZM389.817 190.28C386.177 190.28 384.189 188.6 383.797 187.172L385.197 185.016L385.449 185.044C385.953 187.536 387.493 189.216 389.817 189.216C391.497 189.216 392.617 188.264 392.617 186.696C392.617 185.38 391.805 184.54 390.265 184.064L387.885 183.364C386.317 182.888 384.273 182.02 384.273 179.304C384.273 176.924 386.401 175.188 389.425 175.188C391.861 175.188 393.849 176.28 394.717 177.988L393.429 179.78L393.177 179.752C392.813 177.596 391.385 176.196 389.425 176.196C387.885 176.196 386.793 177.204 386.793 178.408C386.793 179.556 387.549 180.228 389.005 180.704L391.441 181.404C393.457 182.048 395.361 182.944 395.361 185.772C395.361 188.348 393.121 190.28 389.817 190.28ZM400.68 188.432L401.66 189.776V190H396.816V189.776L397.796 188.432V177.68L396.816 176.252V176L400.68 175.328V188.432ZM399.196 173.34C398.16 173.34 397.32 172.5 397.32 171.464C397.32 170.456 398.16 169.644 399.196 169.644C400.26 169.644 401.1 170.456 401.1 171.464C401.1 172.5 400.26 173.34 399.196 173.34ZM409 190.28C405.36 190.28 403.372 188.6 402.98 187.172L404.38 185.016L404.632 185.044C405.136 187.536 406.676 189.216 409 189.216C410.68 189.216 411.8 188.264 411.8 186.696C411.8 185.38 410.988 184.54 409.448 184.064L407.068 183.364C405.5 182.888 403.456 182.02 403.456 179.304C403.456 176.924 405.584 175.188 408.608 175.188C411.044 175.188 413.032 176.28 413.9 177.988L412.612 179.78L412.36 179.752C411.996 177.596 410.568 176.196 408.608 176.196C407.068 176.196 405.976 177.204 405.976 178.408C405.976 179.556 406.732 180.228 408.188 180.704L410.624 181.404C412.64 182.048 414.544 182.944 414.544 185.772C414.544 188.348 412.304 190.28 409 190.28ZM421.516 190.28C419.22 190.28 417.456 189.048 417.456 186.136V177.148H414.964V175.776C417.372 175.524 418.38 174.796 418.772 171.94H420.34V175.468L423.896 175.272L424.008 177.148H420.34V186.22C420.34 187.788 421.236 188.404 422.328 188.404C422.86 188.404 423.42 188.32 423.896 187.984L423.98 189.356C423.504 189.832 422.608 190.28 421.516 190.28ZM429.547 190.28C426.803 190.28 424.955 188.684 424.955 186.36C424.955 183.924 426.775 182.468 430.023 181.796L434.167 181.012V179.836C434.167 177.764 432.963 176.672 431.227 176.672C429.407 176.672 428.035 177.876 428.035 180.228L425.207 179.612C425.571 177.176 427.783 175.188 431.283 175.188C434.811 175.188 437.051 177.092 437.051 180.424V188.32L438.031 189.776V190H434.167V187.508C433.271 189.244 431.647 190.28 429.547 190.28ZM434.167 185.296V182.384L431.003 183.028C428.931 183.532 427.923 184.512 427.923 186.08C427.923 187.424 428.903 188.376 430.443 188.376C432.431 188.376 433.691 187.004 434.167 185.296ZM439.556 190V189.776L440.536 188.432V177.68L439.556 176.252V176L443.42 175.328V178.212C444.232 176.42 445.884 175.188 447.928 175.188C450.812 175.188 452.884 177.036 452.884 180.172V188.432L453.864 189.776V190H449.02V189.776L450 188.432V180.508C450 178.408 448.852 177.344 447.088 177.344C445.352 177.344 443.812 178.772 443.42 180.928V188.432L444.4 189.776V190H439.556ZM460.79 190.28C458.494 190.28 456.73 189.048 456.73 186.136V177.148H454.238V175.776C456.646 175.524 457.654 174.796 458.046 171.94H459.614V175.468L463.17 175.272L463.282 177.148H459.614V186.22C459.614 187.788 460.51 188.404 461.602 188.404C462.134 188.404 462.694 188.32 463.17 187.984L463.254 189.356C462.778 189.832 461.882 190.28 460.79 190.28ZM464.648 186.752H468.008V190H464.648V186.752Z" fill="#1F1F1F"/>
</g>
<circle cx="316.332" cy="40" r="40" fill="#FA6234"/>
<path fill-rule="evenodd" clip-rule="evenodd" d="M310.466 24.8311C311.33 22.7446 311.775 20.5084 311.775 18.25H326.693C326.693 22.4674 325.863 26.6435 324.249 30.5399C323.622 32.0526 322.882 33.5114 322.037 34.9048C321.774 35.3387 322.334 35.9274 322.78 35.6865C327.424 33.1812 332.699 31.8767 338.071 31.8767V46.7948C333.51 46.7948 329.095 48.5651 325.869 51.7901C323.168 54.4913 321.458 57.9987 320.974 61.7468H305.99C306.343 56.6078 307.926 51.6558 310.57 47.2956C310.834 46.8617 310.274 46.2729 309.827 46.5139C308.867 47.0318 307.88 47.5015 306.868 47.9206C302.972 49.5345 298.796 50.3652 294.578 50.3652L294.578 35.4471C296.836 35.4471 299.073 35.0024 301.159 34.138C303.246 33.2738 305.141 32.0071 306.738 30.4101C308.335 28.8133 309.602 26.9175 310.466 24.8311Z" fill="white"/>
<g filter="url(#filter1_d_9_388)">
<path d="M102.332 280C102.332 262.327 116.659 248 134.332 248H327.332C344.453 248 358.332 261.879 358.332 279V279C358.332 296.121 344.453 310 327.332 310H102.332V280Z" fill="url(#paint0_linear_9_388)" shape-rendering="crispEdges"/>
<path d="M134.332 248.5H327.332C344.177 248.5 357.832 262.155 357.832 279C357.832 295.845 344.177 309.5 327.332 309.5H102.832V280C102.832 262.603 116.935 248.5 134.332 248.5Z" stroke="url(#paint1_linear_9_388)" shape-rendering="crispEdges"/>
<path fill-rule="evenodd" clip-rule="evenodd" d="M132.177 273.421C132.495 272.653 132.658 271.831 132.658 271H138.146C138.146 272.551 137.841 274.088 137.247 275.521C137.017 276.077 136.744 276.614 136.433 277.126C136.337 277.286 136.543 277.502 136.707 277.414C138.415 276.492 140.356 276.012 142.332 276.012V281.5C140.654 281.5 139.03 282.151 137.843 283.337C136.85 284.331 136.221 285.621 136.042 287H130.53C130.66 285.11 131.242 283.288 132.215 281.684C132.312 281.525 132.106 281.308 131.942 281.397C131.589 281.587 131.225 281.76 130.853 281.914C129.42 282.508 127.884 282.813 126.332 282.813L126.332 277.326C127.163 277.326 127.985 277.162 128.753 276.844C129.521 276.526 130.218 276.06 130.805 275.473C131.393 274.886 131.859 274.188 132.177 273.421Z" fill="#E65C32"/>
<path d="M153.646 285V272.4H157.912C158.908 272.4 159.724 272.568 160.36 272.904C160.996 273.24 161.464 273.69 161.764 274.254C162.076 274.806 162.232 275.436 162.232 276.144C162.232 276.816 162.076 277.44 161.764 278.016C161.464 278.58 160.99 279.036 160.342 279.384C159.694 279.72 158.866 279.888 157.858 279.888H155.446V285H153.646ZM160.27 285L157.552 279.402H159.532L162.358 285H160.27ZM155.446 278.52H157.786C158.674 278.52 159.328 278.304 159.748 277.872C160.168 277.428 160.378 276.864 160.378 276.18C160.378 275.484 160.174 274.932 159.766 274.524C159.358 274.116 158.698 273.912 157.786 273.912H155.446V278.52ZM168.031 285.216C167.167 285.216 166.399 285.018 165.727 284.622C165.055 284.226 164.527 283.674 164.143 282.966C163.771 282.258 163.585 281.436 163.585 280.5C163.585 279.54 163.771 278.706 164.143 277.998C164.527 277.278 165.055 276.72 165.727 276.324C166.399 275.916 167.179 275.712 168.067 275.712C168.955 275.712 169.717 275.91 170.353 276.306C170.989 276.702 171.481 277.23 171.829 277.89C172.177 278.538 172.351 279.258 172.351 280.05C172.351 280.17 172.345 280.302 172.333 280.446C172.333 280.578 172.327 280.728 172.315 280.896H164.899V279.618H170.551C170.515 278.862 170.263 278.274 169.795 277.854C169.327 277.422 168.745 277.206 168.049 277.206C167.557 277.206 167.107 277.32 166.699 277.548C166.291 277.764 165.961 278.088 165.709 278.52C165.469 278.94 165.349 279.474 165.349 280.122V280.626C165.349 281.298 165.469 281.868 165.709 282.336C165.961 282.792 166.291 283.14 166.699 283.38C167.107 283.608 167.551 283.722 168.031 283.722C168.607 283.722 169.081 283.596 169.453 283.344C169.825 283.092 170.101 282.75 170.281 282.318H172.081C171.925 282.87 171.661 283.368 171.289 283.812C170.917 284.244 170.455 284.586 169.903 284.838C169.363 285.09 168.739 285.216 168.031 285.216ZM174.351 285V275.928H175.971L176.097 277.206C176.385 276.738 176.769 276.372 177.249 276.108C177.729 275.844 178.269 275.712 178.869 275.712C179.325 275.712 179.739 275.778 180.111 275.91C180.483 276.03 180.813 276.216 181.101 276.468C181.389 276.72 181.623 277.032 181.803 277.404C182.127 276.876 182.559 276.462 183.099 276.162C183.651 275.862 184.233 275.712 184.845 275.712C185.577 275.712 186.207 275.862 186.735 276.162C187.263 276.45 187.665 276.888 187.941 277.476C188.217 278.052 188.355 278.772 188.355 279.636V285H186.573V279.816C186.573 278.976 186.399 278.34 186.051 277.908C185.715 277.476 185.217 277.26 184.557 277.26C184.113 277.26 183.717 277.374 183.369 277.602C183.021 277.83 182.745 278.16 182.541 278.592C182.349 279.024 182.253 279.552 182.253 280.176V285H180.453V279.816C180.453 278.976 180.279 278.34 179.931 277.908C179.595 277.476 179.097 277.26 178.437 277.26C178.017 277.26 177.633 277.374 177.285 277.602C176.937 277.83 176.661 278.16 176.457 278.592C176.253 279.024 176.151 279.552 176.151 280.176V285H174.351ZM194.785 285.216C193.921 285.216 193.153 285.018 192.481 284.622C191.809 284.226 191.281 283.674 190.897 282.966C190.525 282.258 190.339 281.436 190.339 280.5C190.339 279.54 190.525 278.706 190.897 277.998C191.281 277.278 191.809 276.72 192.481 276.324C193.153 275.916 193.933 275.712 194.821 275.712C195.709 275.712 196.471 275.91 197.107 276.306C197.743 276.702 198.235 277.23 198.583 277.89C198.931 278.538 199.105 279.258 199.105 280.05C199.105 280.17 199.099 280.302 199.087 280.446C199.087 280.578 199.081 280.728 199.069 280.896H191.653V279.618H197.305C197.269 278.862 197.017 278.274 196.549 277.854C196.081 277.422 195.499 277.206 194.803 277.206C194.311 277.206 193.861 277.32 193.453 277.548C193.045 277.764 192.715 278.088 192.463 278.52C192.223 278.94 192.103 279.474 192.103 280.122V280.626C192.103 281.298 192.223 281.868 192.463 282.336C192.715 282.792 193.045 283.14 193.453 283.38C193.861 283.608 194.305 283.722 194.785 283.722C195.361 283.722 195.835 283.596 196.207 283.344C196.579 283.092 196.855 282.75 197.035 282.318H198.835C198.679 282.87 198.415 283.368 198.043 283.812C197.671 284.244 197.209 284.586 196.657 284.838C196.117 285.09 195.493 285.216 194.785 285.216ZM205.137 285.216C204.273 285.216 203.511 285.012 202.851 284.604C202.191 284.184 201.675 283.62 201.303 282.912C200.943 282.192 200.763 281.376 200.763 280.464C200.763 279.54 200.943 278.724 201.303 278.016C201.675 277.308 202.191 276.75 202.851 276.342C203.523 275.922 204.291 275.712 205.155 275.712C205.863 275.712 206.487 275.856 207.027 276.144C207.567 276.42 207.987 276.816 208.287 277.332V272.04H210.087V285H208.467L208.287 283.596C208.107 283.872 207.873 284.136 207.585 284.388C207.297 284.628 206.949 284.826 206.541 284.982C206.133 285.138 205.665 285.216 205.137 285.216ZM205.425 283.65C205.989 283.65 206.487 283.518 206.919 283.254C207.351 282.99 207.681 282.618 207.909 282.138C208.149 281.658 208.269 281.1 208.269 280.464C208.269 279.828 208.149 279.276 207.909 278.808C207.681 278.328 207.351 277.956 206.919 277.692C206.487 277.416 205.989 277.278 205.425 277.278C204.885 277.278 204.399 277.416 203.967 277.692C203.535 277.956 203.199 278.328 202.959 278.808C202.719 279.276 202.599 279.828 202.599 280.464C202.599 281.1 202.719 281.658 202.959 282.138C203.199 282.618 203.535 282.99 203.967 283.254C204.399 283.518 204.885 283.65 205.425 283.65ZM212.674 285V275.928H214.474V285H212.674ZM213.592 274.218C213.244 274.218 212.956 274.11 212.728 273.894C212.512 273.678 212.404 273.402 212.404 273.066C212.404 272.742 212.512 272.478 212.728 272.274C212.956 272.058 213.244 271.95 213.592 271.95C213.928 271.95 214.21 272.058 214.438 272.274C214.666 272.478 214.78 272.742 214.78 273.066C214.78 273.402 214.666 273.678 214.438 273.894C214.21 274.11 213.928 274.218 213.592 274.218ZM220.054 285.216C219.31 285.216 218.692 285.09 218.2 284.838C217.708 284.586 217.342 284.25 217.102 283.83C216.862 283.398 216.742 282.936 216.742 282.444C216.742 281.844 216.898 281.334 217.21 280.914C217.522 280.482 217.966 280.152 218.542 279.924C219.118 279.696 219.808 279.582 220.612 279.582H222.97C222.97 279.054 222.892 278.616 222.736 278.268C222.58 277.92 222.346 277.662 222.034 277.494C221.734 277.314 221.35 277.224 220.882 277.224C220.342 277.224 219.88 277.356 219.496 277.62C219.112 277.872 218.872 278.25 218.776 278.754H216.976C217.048 278.118 217.264 277.578 217.624 277.134C217.996 276.678 218.47 276.33 219.046 276.09C219.622 275.838 220.234 275.712 220.882 275.712C221.734 275.712 222.448 275.862 223.024 276.162C223.6 276.462 224.032 276.888 224.32 277.44C224.62 277.98 224.77 278.628 224.77 279.384V285H223.204L223.06 283.47C222.928 283.71 222.772 283.938 222.592 284.154C222.412 284.37 222.196 284.556 221.944 284.712C221.704 284.868 221.422 284.988 221.098 285.072C220.786 285.168 220.438 285.216 220.054 285.216ZM220.396 283.758C220.78 283.758 221.128 283.68 221.44 283.524C221.752 283.368 222.016 283.158 222.232 282.894C222.46 282.618 222.628 282.312 222.736 281.976C222.856 281.628 222.922 281.274 222.934 280.914V280.86H220.792C220.276 280.86 219.856 280.926 219.532 281.058C219.22 281.178 218.992 281.346 218.848 281.562C218.704 281.778 218.632 282.03 218.632 282.318C218.632 282.618 218.698 282.876 218.83 283.092C218.974 283.296 219.178 283.458 219.442 283.578C219.706 283.698 220.024 283.758 220.396 283.758ZM230.618 285C230.042 285 229.544 284.91 229.124 284.73C228.704 284.55 228.38 284.25 228.152 283.83C227.924 283.41 227.81 282.84 227.81 282.12V277.458H226.244V275.928H227.81L228.026 273.66H229.61V275.928H232.184V277.458H229.61V282.138C229.61 282.654 229.718 283.008 229.934 283.2C230.15 283.38 230.522 283.47 231.05 283.47H232.094V285H230.618ZM238.027 285.216C237.163 285.216 236.395 285.018 235.723 284.622C235.051 284.226 234.523 283.674 234.139 282.966C233.767 282.258 233.581 281.436 233.581 280.5C233.581 279.54 233.767 278.706 234.139 277.998C234.523 277.278 235.051 276.72 235.723 276.324C236.395 275.916 237.175 275.712 238.063 275.712C238.951 275.712 239.713 275.91 240.349 276.306C240.985 276.702 241.477 277.23 241.825 277.89C242.173 278.538 242.347 279.258 242.347 280.05C242.347 280.17 242.341 280.302 242.329 280.446C242.329 280.578 242.323 280.728 242.311 280.896H234.895V279.618H240.547C240.511 278.862 240.259 278.274 239.791 277.854C239.323 277.422 238.741 277.206 238.045 277.206C237.553 277.206 237.103 277.32 236.695 277.548C236.287 277.764 235.957 278.088 235.705 278.52C235.465 278.94 235.345 279.474 235.345 280.122V280.626C235.345 281.298 235.465 281.868 235.705 282.336C235.957 282.792 236.287 283.14 236.695 283.38C237.103 283.608 237.547 283.722 238.027 283.722C238.603 283.722 239.077 283.596 239.449 283.344C239.821 283.092 240.097 282.75 240.277 282.318H242.077C241.921 282.87 241.657 283.368 241.285 283.812C240.913 284.244 240.451 284.586 239.899 284.838C239.359 285.09 238.735 285.216 238.027 285.216ZM252.985 285.216C252.121 285.216 251.359 285.012 250.699 284.604C250.039 284.184 249.523 283.62 249.151 282.912C248.791 282.192 248.611 281.376 248.611 280.464C248.611 279.54 248.791 278.724 249.151 278.016C249.523 277.308 250.039 276.75 250.699 276.342C251.371 275.922 252.139 275.712 253.003 275.712C253.711 275.712 254.335 275.856 254.875 276.144C255.415 276.42 255.835 276.816 256.135 277.332V272.04H257.935V285H256.315L256.135 283.596C255.955 283.872 255.721 284.136 255.433 284.388C255.145 284.628 254.797 284.826 254.389 284.982C253.981 285.138 253.513 285.216 252.985 285.216ZM253.273 283.65C253.837 283.65 254.335 283.518 254.767 283.254C255.199 282.99 255.529 282.618 255.757 282.138C255.997 281.658 256.117 281.1 256.117 280.464C256.117 279.828 255.997 279.276 255.757 278.808C255.529 278.328 255.199 277.956 254.767 277.692C254.335 277.416 253.837 277.278 253.273 277.278C252.733 277.278 252.247 277.416 251.815 277.692C251.383 277.956 251.047 278.328 250.807 278.808C250.567 279.276 250.447 279.828 250.447 280.464C250.447 281.1 250.567 281.658 250.807 282.138C251.047 282.618 251.383 282.99 251.815 283.254C252.247 283.518 252.733 283.65 253.273 283.65ZM263.402 285.216C262.658 285.216 262.04 285.09 261.548 284.838C261.056 284.586 260.69 284.25 260.45 283.83C260.21 283.398 260.09 282.936 260.09 282.444C260.09 281.844 260.246 281.334 260.558 280.914C260.87 280.482 261.314 280.152 261.89 279.924C262.466 279.696 263.156 279.582 263.96 279.582H266.318C266.318 279.054 266.24 278.616 266.084 278.268C265.928 277.92 265.694 277.662 265.382 277.494C265.082 277.314 264.698 277.224 264.23 277.224C263.69 277.224 263.228 277.356 262.844 277.62C262.46 277.872 262.22 278.25 262.124 278.754H260.324C260.396 278.118 260.612 277.578 260.972 277.134C261.344 276.678 261.818 276.33 262.394 276.09C262.97 275.838 263.582 275.712 264.23 275.712C265.082 275.712 265.796 275.862 266.372 276.162C266.948 276.462 267.38 276.888 267.668 277.44C267.968 277.98 268.118 278.628 268.118 279.384V285H266.552L266.408 283.47C266.276 283.71 266.12 283.938 265.94 284.154C265.76 284.37 265.544 284.556 265.292 284.712C265.052 284.868 264.77 284.988 264.446 285.072C264.134 285.168 263.786 285.216 263.402 285.216ZM263.744 283.758C264.128 283.758 264.476 283.68 264.788 283.524C265.1 283.368 265.364 283.158 265.58 282.894C265.808 282.618 265.976 282.312 266.084 281.976C266.204 281.628 266.27 281.274 266.282 280.914V280.86H264.14C263.624 280.86 263.204 280.926 262.88 281.058C262.568 281.178 262.34 281.346 262.196 281.562C262.052 281.778 261.98 282.03 261.98 282.318C261.98 282.618 262.046 282.876 262.178 283.092C262.322 283.296 262.526 283.458 262.79 283.578C263.054 283.698 263.372 283.758 263.744 283.758ZM273.966 285C273.39 285 272.892 284.91 272.472 284.73C272.052 284.55 271.728 284.25 271.5 283.83C271.272 283.41 271.158 282.84 271.158 282.12V277.458H269.592V275.928H271.158L271.374 273.66H272.958V275.928H275.532V277.458H272.958V282.138C272.958 282.654 273.066 283.008 273.282 283.2C273.498 283.38 273.87 283.47 274.398 283.47H275.442V285H273.966ZM280.523 285.216C279.779 285.216 279.161 285.09 278.669 284.838C278.177 284.586 277.811 284.25 277.571 283.83C277.331 283.398 277.211 282.936 277.211 282.444C277.211 281.844 277.367 281.334 277.679 280.914C277.991 280.482 278.435 280.152 279.011 279.924C279.587 279.696 280.277 279.582 281.081 279.582H283.439C283.439 279.054 283.361 278.616 283.205 278.268C283.049 277.92 282.815 277.662 282.503 277.494C282.203 277.314 281.819 277.224 281.351 277.224C280.811 277.224 280.349 277.356 279.965 277.62C279.581 277.872 279.341 278.25 279.245 278.754H277.445C277.517 278.118 277.733 277.578 278.093 277.134C278.465 276.678 278.939 276.33 279.515 276.09C280.091 275.838 280.703 275.712 281.351 275.712C282.203 275.712 282.917 275.862 283.493 276.162C284.069 276.462 284.501 276.888 284.789 277.44C285.089 277.98 285.239 278.628 285.239 279.384V285H283.673L283.529 283.47C283.397 283.71 283.241 283.938 283.061 284.154C282.881 284.37 282.665 284.556 282.413 284.712C282.173 284.868 281.891 284.988 281.567 285.072C281.255 285.168 280.907 285.216 280.523 285.216ZM280.865 283.758C281.249 283.758 281.597 283.68 281.909 283.524C282.221 283.368 282.485 283.158 282.701 282.894C282.929 282.618 283.097 282.312 283.205 281.976C283.325 281.628 283.391 281.274 283.403 280.914V280.86H281.261C280.745 280.86 280.325 280.926 280.001 281.058C279.689 281.178 279.461 281.346 279.317 281.562C279.173 281.778 279.101 282.03 279.101 282.318C279.101 282.618 279.167 282.876 279.299 283.092C279.443 283.296 279.647 283.458 279.911 283.578C280.175 283.698 280.493 283.758 280.865 283.758ZM292.142 285V272.04H293.942V285H292.142ZM300.517 285.216C299.653 285.216 298.885 285.018 298.213 284.622C297.541 284.226 297.013 283.674 296.629 282.966C296.257 282.258 296.071 281.436 296.071 280.5C296.071 279.54 296.257 278.706 296.629 277.998C297.013 277.278 297.541 276.72 298.213 276.324C298.885 275.916 299.665 275.712 300.553 275.712C301.441 275.712 302.203 275.91 302.839 276.306C303.475 276.702 303.967 277.23 304.315 277.89C304.663 278.538 304.837 279.258 304.837 280.05C304.837 280.17 304.831 280.302 304.819 280.446C304.819 280.578 304.813 280.728 304.801 280.896H297.385V279.618H303.037C303.001 278.862 302.749 278.274 302.281 277.854C301.813 277.422 301.231 277.206 300.535 277.206C300.043 277.206 299.593 277.32 299.185 277.548C298.777 277.764 298.447 278.088 298.195 278.52C297.955 278.94 297.835 279.474 297.835 280.122V280.626C297.835 281.298 297.955 281.868 298.195 282.336C298.447 282.792 298.777 283.14 299.185 283.38C299.593 283.608 300.037 283.722 300.517 283.722C301.093 283.722 301.567 283.596 301.939 283.344C302.311 283.092 302.587 282.75 302.767 282.318H304.567C304.411 282.87 304.147 283.368 303.775 283.812C303.403 284.244 302.941 284.586 302.389 284.838C301.849 285.09 301.225 285.216 300.517 285.216ZM309.843 285.216C309.099 285.216 308.481 285.09 307.989 284.838C307.497 284.586 307.131 284.25 306.891 283.83C306.651 283.398 306.531 282.936 306.531 282.444C306.531 281.844 306.687 281.334 306.999 280.914C307.311 280.482 307.755 280.152 308.331 279.924C308.907 279.696 309.597 279.582 310.401 279.582H312.759C312.759 279.054 312.681 278.616 312.525 278.268C312.369 277.92 312.135 277.662 311.823 277.494C311.523 277.314 311.139 277.224 310.671 277.224C310.131 277.224 309.669 277.356 309.285 277.62C308.901 277.872 308.661 278.25 308.565 278.754H306.765C306.837 278.118 307.053 277.578 307.413 277.134C307.785 276.678 308.259 276.33 308.835 276.09C309.411 275.838 310.023 275.712 310.671 275.712C311.523 275.712 312.237 275.862 312.813 276.162C313.389 276.462 313.821 276.888 314.109 277.44C314.409 277.98 314.559 278.628 314.559 279.384V285H312.993L312.849 283.47C312.717 283.71 312.561 283.938 312.381 284.154C312.201 284.37 311.985 284.556 311.733 284.712C311.493 284.868 311.211 284.988 310.887 285.072C310.575 285.168 310.227 285.216 309.843 285.216ZM310.185 283.758C310.569 283.758 310.917 283.68 311.229 283.524C311.541 283.368 311.805 283.158 312.021 282.894C312.249 282.618 312.417 282.312 312.525 281.976C312.645 281.628 312.711 281.274 312.723 280.914V280.86H310.581C310.065 280.86 309.645 280.926 309.321 281.058C309.009 281.178 308.781 281.346 308.637 281.562C308.493 281.778 308.421 282.03 308.421 282.318C308.421 282.618 308.487 282.876 308.619 283.092C308.763 283.296 308.967 283.458 309.231 283.578C309.495 283.698 309.813 283.758 310.185 283.758ZM322.563 285L318.387 280.032L322.167 275.928H324.345L319.845 280.734V279.384L324.831 285H322.563ZM316.857 285V272.04H318.657V285H316.857ZM329.367 285.216C328.599 285.216 327.927 285.09 327.351 284.838C326.775 284.586 326.319 284.232 325.983 283.776C325.647 283.32 325.443 282.786 325.371 282.174H327.207C327.267 282.462 327.381 282.726 327.549 282.966C327.729 283.206 327.969 283.398 328.269 283.542C328.581 283.686 328.947 283.758 329.367 283.758C329.763 283.758 330.087 283.704 330.339 283.596C330.603 283.476 330.795 283.32 330.915 283.128C331.035 282.924 331.095 282.708 331.095 282.48C331.095 282.144 331.011 281.892 330.843 281.724C330.687 281.544 330.447 281.406 330.123 281.31C329.811 281.202 329.433 281.106 328.989 281.022C328.569 280.95 328.161 280.854 327.765 280.734C327.381 280.602 327.033 280.44 326.721 280.248C326.421 280.056 326.181 279.816 326.001 279.528C325.821 279.228 325.731 278.862 325.731 278.43C325.731 277.914 325.869 277.452 326.145 277.044C326.421 276.624 326.811 276.3 327.315 276.072C327.831 275.832 328.437 275.712 329.133 275.712C330.141 275.712 330.951 275.952 331.563 276.432C332.175 276.912 332.535 277.59 332.643 278.466H330.897C330.849 278.058 330.669 277.746 330.357 277.53C330.045 277.302 329.631 277.188 329.115 277.188C328.599 277.188 328.203 277.29 327.927 277.494C327.651 277.698 327.513 277.968 327.513 278.304C327.513 278.52 327.591 278.712 327.747 278.88C327.903 279.048 328.131 279.192 328.431 279.312C328.743 279.42 329.121 279.522 329.565 279.618C330.201 279.738 330.771 279.888 331.275 280.068C331.779 280.248 332.181 280.512 332.481 280.86C332.781 281.208 332.931 281.706 332.931 282.354C332.943 282.918 332.799 283.416 332.499 283.848C332.211 284.28 331.797 284.616 331.257 284.856C330.729 285.096 330.099 285.216 329.367 285.216Z" fill="#12110D"/>
</g>
<g filter="url(#filter2_d_9_388)">
<path d="M372.332 280C372.332 262.327 386.659 248 404.332 248H602.332C619.453 248 633.332 261.879 633.332 279V279C633.332 296.121 619.453 310 602.332 310H372.332V280Z" fill="url(#paint2_linear_9_388)" shape-rendering="crispEdges"/>
<path d="M404.332 248.5H602.332C619.177 248.5 632.832 262.155 632.832 279C632.832 295.845 619.177 309.5 602.332 309.5H372.832V280C372.832 262.603 386.935 248.5 404.332 248.5Z" stroke="url(#paint3_linear_9_388)" shape-rendering="crispEdges"/>
<path fill-rule="evenodd" clip-rule="evenodd" d="M402.177 273.421C402.495 272.653 402.658 271.831 402.658 271H408.146C408.146 272.551 407.841 274.088 407.247 275.521C407.017 276.077 406.744 276.614 406.433 277.126C406.337 277.286 406.543 277.502 406.707 277.414C408.415 276.492 410.356 276.012 412.332 276.012V281.5C410.654 281.5 409.03 282.151 407.843 283.337C406.85 284.331 406.221 285.621 406.042 287H400.53C400.66 285.11 401.242 283.288 402.215 281.684C402.312 281.525 402.106 281.308 401.942 281.397C401.589 281.587 401.225 281.76 400.853 281.914C399.42 282.508 397.884 282.813 396.332 282.813L396.332 277.326C397.163 277.326 397.985 277.162 398.753 276.844C399.521 276.526 400.218 276.06 400.805 275.473C401.393 274.886 401.859 274.188 402.177 273.421Z" fill="#E65C32"/>
<path d="M429.172 285.216C427.936 285.216 426.868 284.946 425.968 284.406C425.08 283.854 424.39 283.092 423.898 282.12C423.418 281.136 423.178 279.996 423.178 278.7C423.178 277.416 423.418 276.282 423.898 275.298C424.39 274.314 425.08 273.552 425.968 273.012C426.868 272.46 427.936 272.184 429.172 272.184C430.648 272.184 431.842 272.538 432.754 273.246C433.678 273.954 434.266 274.95 434.518 276.234H432.538C432.358 275.49 431.986 274.896 431.422 274.452C430.87 274.008 430.12 273.786 429.172 273.786C428.32 273.786 427.582 273.984 426.958 274.38C426.334 274.776 425.854 275.34 425.518 276.072C425.182 276.804 425.014 277.68 425.014 278.7C425.014 279.72 425.182 280.602 425.518 281.346C425.854 282.078 426.334 282.642 426.958 283.038C427.582 283.422 428.32 283.614 429.172 283.614C430.12 283.614 430.87 283.404 431.422 282.984C431.986 282.552 432.358 281.97 432.538 281.238H434.518C434.266 282.486 433.678 283.464 432.754 284.172C431.842 284.868 430.648 285.216 429.172 285.216ZM439.587 285.216C438.843 285.216 438.225 285.09 437.733 284.838C437.241 284.586 436.875 284.25 436.635 283.83C436.395 283.398 436.275 282.936 436.275 282.444C436.275 281.844 436.431 281.334 436.743 280.914C437.055 280.482 437.499 280.152 438.075 279.924C438.651 279.696 439.341 279.582 440.145 279.582H442.503C442.503 279.054 442.425 278.616 442.269 278.268C442.113 277.92 441.879 277.662 441.567 277.494C441.267 277.314 440.883 277.224 440.415 277.224C439.875 277.224 439.413 277.356 439.029 277.62C438.645 277.872 438.405 278.25 438.309 278.754H436.509C436.581 278.118 436.797 277.578 437.157 277.134C437.529 276.678 438.003 276.33 438.579 276.09C439.155 275.838 439.767 275.712 440.415 275.712C441.267 275.712 441.981 275.862 442.557 276.162C443.133 276.462 443.565 276.888 443.853 277.44C444.153 277.98 444.303 278.628 444.303 279.384V285H442.737L442.593 283.47C442.461 283.71 442.305 283.938 442.125 284.154C441.945 284.37 441.729 284.556 441.477 284.712C441.237 284.868 440.955 284.988 440.631 285.072C440.319 285.168 439.971 285.216 439.587 285.216ZM439.929 283.758C440.313 283.758 440.661 283.68 440.973 283.524C441.285 283.368 441.549 283.158 441.765 282.894C441.993 282.618 442.161 282.312 442.269 281.976C442.389 281.628 442.455 281.274 442.467 280.914V280.86H440.325C439.809 280.86 439.389 280.926 439.065 281.058C438.753 281.178 438.525 281.346 438.381 281.562C438.237 281.778 438.165 282.03 438.165 282.318C438.165 282.618 438.231 282.876 438.363 283.092C438.507 283.296 438.711 283.458 438.975 283.578C439.239 283.698 439.557 283.758 439.929 283.758ZM446.601 285V272.04H448.401V285H446.601ZM455.066 285.216C454.19 285.216 453.41 285.018 452.726 284.622C452.042 284.214 451.502 283.656 451.106 282.948C450.722 282.24 450.53 281.418 450.53 280.482C450.53 279.534 450.722 278.706 451.106 277.998C451.502 277.278 452.042 276.72 452.726 276.324C453.41 275.916 454.19 275.712 455.066 275.712C456.17 275.712 457.094 276 457.838 276.576C458.582 277.152 459.056 277.932 459.26 278.916H457.388C457.268 278.388 456.992 277.98 456.56 277.692C456.14 277.404 455.636 277.26 455.048 277.26C454.568 277.26 454.124 277.386 453.716 277.638C453.308 277.878 452.978 278.238 452.726 278.718C452.486 279.186 452.366 279.768 452.366 280.464C452.366 280.98 452.438 281.442 452.582 281.85C452.726 282.246 452.918 282.582 453.158 282.858C453.41 283.134 453.698 283.344 454.022 283.488C454.346 283.62 454.688 283.686 455.048 283.686C455.444 283.686 455.798 283.626 456.11 283.506C456.434 283.374 456.704 283.182 456.92 282.93C457.148 282.678 457.304 282.378 457.388 282.03H459.26C459.056 282.99 458.582 283.764 457.838 284.352C457.094 284.928 456.17 285.216 455.066 285.216ZM464.697 285.216C463.989 285.216 463.371 285.072 462.843 284.784C462.327 284.496 461.925 284.064 461.637 283.488C461.361 282.912 461.223 282.186 461.223 281.31V275.928H463.023V281.112C463.023 281.964 463.209 282.606 463.581 283.038C463.953 283.47 464.487 283.686 465.183 283.686C465.651 283.686 466.071 283.572 466.443 283.344C466.827 283.116 467.127 282.786 467.343 282.354C467.559 281.922 467.667 281.394 467.667 280.77V275.928H469.467V285H467.865L467.739 283.452C467.463 284.004 467.061 284.436 466.533 284.748C466.005 285.06 465.393 285.216 464.697 285.216ZM471.931 285V272.04H473.731V285H471.931ZM479.209 285.216C478.465 285.216 477.847 285.09 477.355 284.838C476.863 284.586 476.497 284.25 476.257 283.83C476.017 283.398 475.897 282.936 475.897 282.444C475.897 281.844 476.053 281.334 476.365 280.914C476.677 280.482 477.121 280.152 477.697 279.924C478.273 279.696 478.963 279.582 479.767 279.582H482.125C482.125 279.054 482.047 278.616 481.891 278.268C481.735 277.92 481.501 277.662 481.189 277.494C480.889 277.314 480.505 277.224 480.037 277.224C479.497 277.224 479.035 277.356 478.651 277.62C478.267 277.872 478.027 278.25 477.931 278.754H476.131C476.203 278.118 476.419 277.578 476.779 277.134C477.151 276.678 477.625 276.33 478.201 276.09C478.777 275.838 479.389 275.712 480.037 275.712C480.889 275.712 481.603 275.862 482.179 276.162C482.755 276.462 483.187 276.888 483.475 277.44C483.775 277.98 483.925 278.628 483.925 279.384V285H482.359L482.215 283.47C482.083 283.71 481.927 283.938 481.747 284.154C481.567 284.37 481.351 284.556 481.099 284.712C480.859 284.868 480.577 284.988 480.253 285.072C479.941 285.168 479.593 285.216 479.209 285.216ZM479.551 283.758C479.935 283.758 480.283 283.68 480.595 283.524C480.907 283.368 481.171 283.158 481.387 282.894C481.615 282.618 481.783 282.312 481.891 281.976C482.011 281.628 482.077 281.274 482.089 280.914V280.86H479.947C479.431 280.86 479.011 280.926 478.687 281.058C478.375 281.178 478.147 281.346 478.003 281.562C477.859 281.778 477.787 282.03 477.787 282.318C477.787 282.618 477.853 282.876 477.985 283.092C478.129 283.296 478.333 283.458 478.597 283.578C478.861 283.698 479.179 283.758 479.551 283.758ZM489.773 285C489.197 285 488.699 284.91 488.279 284.73C487.859 284.55 487.535 284.25 487.307 283.83C487.079 283.41 486.965 282.84 486.965 282.12V277.458H485.399V275.928H486.965L487.181 273.66H488.765V275.928H491.339V277.458H488.765V282.138C488.765 282.654 488.873 283.008 489.089 283.2C489.305 283.38 489.677 283.47 490.205 283.47H491.249V285H489.773ZM497.182 285.216C496.318 285.216 495.55 285.018 494.878 284.622C494.206 284.226 493.678 283.674 493.294 282.966C492.922 282.258 492.736 281.436 492.736 280.5C492.736 279.54 492.922 278.706 493.294 277.998C493.678 277.278 494.206 276.72 494.878 276.324C495.55 275.916 496.33 275.712 497.218 275.712C498.106 275.712 498.868 275.91 499.504 276.306C500.14 276.702 500.632 277.23 500.98 277.89C501.328 278.538 501.502 279.258 501.502 280.05C501.502 280.17 501.496 280.302 501.484 280.446C501.484 280.578 501.478 280.728 501.466 280.896H494.05V279.618H499.702C499.666 278.862 499.414 278.274 498.946 277.854C498.478 277.422 497.896 277.206 497.2 277.206C496.708 277.206 496.258 277.32 495.85 277.548C495.442 277.764 495.112 278.088 494.86 278.52C494.62 278.94 494.5 279.474 494.5 280.122V280.626C494.5 281.298 494.62 281.868 494.86 282.336C495.112 282.792 495.442 283.14 495.85 283.38C496.258 283.608 496.702 283.722 497.182 283.722C497.758 283.722 498.232 283.596 498.604 283.344C498.976 283.092 499.252 282.75 499.432 282.318H501.232C501.076 282.87 500.812 283.368 500.44 283.812C500.068 284.244 499.606 284.586 499.054 284.838C498.514 285.09 497.89 285.216 497.182 285.216ZM513.057 285.216C512.565 285.216 512.115 285.144 511.707 285C511.311 284.868 510.963 284.682 510.663 284.442C510.363 284.202 510.111 283.926 509.907 283.614L509.727 285H508.107V272.04H509.907V277.35C510.195 276.894 510.597 276.51 511.113 276.198C511.641 275.874 512.289 275.712 513.057 275.712C513.921 275.712 514.683 275.922 515.343 276.342C516.003 276.75 516.513 277.314 516.873 278.034C517.245 278.742 517.431 279.558 517.431 280.482C517.431 281.382 517.245 282.192 516.873 282.912C516.513 283.632 516.003 284.196 515.343 284.604C514.683 285.012 513.921 285.216 513.057 285.216ZM512.769 283.65C513.321 283.65 513.807 283.518 514.227 283.254C514.659 282.99 514.995 282.618 515.235 282.138C515.487 281.658 515.613 281.1 515.613 280.464C515.613 279.828 515.487 279.276 515.235 278.808C514.995 278.328 514.659 277.956 514.227 277.692C513.807 277.416 513.321 277.278 512.769 277.278C512.205 277.278 511.707 277.416 511.275 277.692C510.855 277.956 510.525 278.328 510.285 278.808C510.045 279.276 509.925 279.828 509.925 280.464C509.925 281.1 510.045 281.658 510.285 282.138C510.525 282.618 510.855 282.99 511.275 283.254C511.707 283.518 512.205 283.65 512.769 283.65ZM519.533 285V275.928H521.153L521.315 277.638C521.519 277.23 521.783 276.888 522.107 276.612C522.431 276.324 522.809 276.102 523.241 275.946C523.685 275.79 524.189 275.712 524.753 275.712V277.62H524.105C523.733 277.62 523.379 277.668 523.043 277.764C522.707 277.848 522.407 277.998 522.143 278.214C521.891 278.43 521.693 278.724 521.549 279.096C521.405 279.468 521.333 279.93 521.333 280.482V285H519.533ZM530.246 285.216C529.382 285.216 528.614 285.018 527.942 284.622C527.27 284.226 526.742 283.674 526.358 282.966C525.986 282.258 525.8 281.436 525.8 280.5C525.8 279.54 525.986 278.706 526.358 277.998C526.742 277.278 527.27 276.72 527.942 276.324C528.614 275.916 529.394 275.712 530.282 275.712C531.17 275.712 531.932 275.91 532.568 276.306C533.204 276.702 533.696 277.23 534.044 277.89C534.392 278.538 534.566 279.258 534.566 280.05C534.566 280.17 534.56 280.302 534.548 280.446C534.548 280.578 534.542 280.728 534.53 280.896H527.114V279.618H532.766C532.73 278.862 532.478 278.274 532.01 277.854C531.542 277.422 530.96 277.206 530.264 277.206C529.772 277.206 529.322 277.32 528.914 277.548C528.506 277.764 528.176 278.088 527.924 278.52C527.684 278.94 527.564 279.474 527.564 280.122V280.626C527.564 281.298 527.684 281.868 527.924 282.336C528.176 282.792 528.506 283.14 528.914 283.38C529.322 283.608 529.766 283.722 530.246 283.722C530.822 283.722 531.296 283.596 531.668 283.344C532.04 283.092 532.316 282.75 532.496 282.318H534.296C534.14 282.87 533.876 283.368 533.504 283.812C533.132 284.244 532.67 284.586 532.118 284.838C531.578 285.09 530.954 285.216 530.246 285.216ZM539.572 285.216C538.828 285.216 538.21 285.09 537.718 284.838C537.226 284.586 536.86 284.25 536.62 283.83C536.38 283.398 536.26 282.936 536.26 282.444C536.26 281.844 536.416 281.334 536.728 280.914C537.04 280.482 537.484 280.152 538.06 279.924C538.636 279.696 539.326 279.582 540.13 279.582H542.488C542.488 279.054 542.41 278.616 542.254 278.268C542.098 277.92 541.864 277.662 541.552 277.494C541.252 277.314 540.868 277.224 540.4 277.224C539.86 277.224 539.398 277.356 539.014 277.62C538.63 277.872 538.39 278.25 538.294 278.754H536.494C536.566 278.118 536.782 277.578 537.142 277.134C537.514 276.678 537.988 276.33 538.564 276.09C539.14 275.838 539.752 275.712 540.4 275.712C541.252 275.712 541.966 275.862 542.542 276.162C543.118 276.462 543.55 276.888 543.838 277.44C544.138 277.98 544.288 278.628 544.288 279.384V285H542.722L542.578 283.47C542.446 283.71 542.29 283.938 542.11 284.154C541.93 284.37 541.714 284.556 541.462 284.712C541.222 284.868 540.94 284.988 540.616 285.072C540.304 285.168 539.956 285.216 539.572 285.216ZM539.914 283.758C540.298 283.758 540.646 283.68 540.958 283.524C541.27 283.368 541.534 283.158 541.75 282.894C541.978 282.618 542.146 282.312 542.254 281.976C542.374 281.628 542.44 281.274 542.452 280.914V280.86H540.31C539.794 280.86 539.374 280.926 539.05 281.058C538.738 281.178 538.51 281.346 538.366 281.562C538.222 281.778 538.15 282.03 538.15 282.318C538.15 282.618 538.216 282.876 538.348 283.092C538.492 283.296 538.696 283.458 538.96 283.578C539.224 283.698 539.542 283.758 539.914 283.758ZM550.779 285.216C549.903 285.216 549.123 285.018 548.439 284.622C547.755 284.214 547.215 283.656 546.819 282.948C546.435 282.24 546.243 281.418 546.243 280.482C546.243 279.534 546.435 278.706 546.819 277.998C547.215 277.278 547.755 276.72 548.439 276.324C549.123 275.916 549.903 275.712 550.779 275.712C551.883 275.712 552.807 276 553.551 276.576C554.295 277.152 554.769 277.932 554.973 278.916H553.101C552.981 278.388 552.705 277.98 552.273 277.692C551.853 277.404 551.349 277.26 550.761 277.26C550.281 277.26 549.837 277.386 549.429 277.638C549.021 277.878 548.691 278.238 548.439 278.718C548.199 279.186 548.079 279.768 548.079 280.464C548.079 280.98 548.151 281.442 548.295 281.85C548.439 282.246 548.631 282.582 548.871 282.858C549.123 283.134 549.411 283.344 549.735 283.488C550.059 283.62 550.401 283.686 550.761 283.686C551.157 283.686 551.511 283.626 551.823 283.506C552.147 283.374 552.417 283.182 552.633 282.93C552.861 282.678 553.017 282.378 553.101 282.03H554.973C554.769 282.99 554.295 283.764 553.551 284.352C552.807 284.928 551.883 285.216 550.779 285.216ZM557.079 285V272.04H558.879V277.404C559.179 276.876 559.593 276.462 560.121 276.162C560.661 275.862 561.255 275.712 561.903 275.712C562.623 275.712 563.241 275.862 563.757 276.162C564.273 276.45 564.669 276.888 564.945 277.476C565.221 278.052 565.359 278.778 565.359 279.654V285H563.577V279.834C563.577 278.994 563.397 278.358 563.037 277.926C562.677 277.482 562.143 277.26 561.435 277.26C560.955 277.26 560.523 277.374 560.139 277.602C559.755 277.83 559.449 278.166 559.221 278.61C558.993 279.042 558.879 279.57 558.879 280.194V285H557.079ZM576.461 285.216C575.585 285.216 574.805 285.018 574.121 284.622C573.437 284.214 572.897 283.656 572.501 282.948C572.117 282.24 571.925 281.418 571.925 280.482C571.925 279.534 572.117 278.706 572.501 277.998C572.897 277.278 573.437 276.72 574.121 276.324C574.805 275.916 575.585 275.712 576.461 275.712C577.565 275.712 578.489 276 579.233 276.576C579.977 277.152 580.451 277.932 580.655 278.916H578.783C578.663 278.388 578.387 277.98 577.955 277.692C577.535 277.404 577.031 277.26 576.443 277.26C575.963 277.26 575.519 277.386 575.111 277.638C574.703 277.878 574.373 278.238 574.121 278.718C573.881 279.186 573.761 279.768 573.761 280.464C573.761 280.98 573.833 281.442 573.977 281.85C574.121 282.246 574.313 282.582 574.553 282.858C574.805 283.134 575.093 283.344 575.417 283.488C575.741 283.62 576.083 283.686 576.443 283.686C576.839 283.686 577.193 283.626 577.505 283.506C577.829 283.374 578.099 283.182 578.315 282.93C578.543 282.678 578.699 282.378 578.783 282.03H580.655C580.451 282.99 579.977 283.764 579.233 284.352C578.489 284.928 577.565 285.216 576.461 285.216ZM586.901 285.216C586.049 285.216 585.281 285.018 584.597 284.622C583.925 284.226 583.391 283.674 582.995 282.966C582.611 282.246 582.419 281.418 582.419 280.482C582.419 279.522 582.617 278.688 583.013 277.98C583.409 277.26 583.949 276.702 584.633 276.306C585.317 275.91 586.085 275.712 586.937 275.712C587.801 275.712 588.569 275.91 589.241 276.306C589.913 276.702 590.441 277.254 590.825 277.962C591.221 278.67 591.419 279.504 591.419 280.464C591.419 281.424 591.221 282.258 590.825 282.966C590.441 283.674 589.907 284.226 589.223 284.622C588.539 285.018 587.765 285.216 586.901 285.216ZM586.901 283.668C587.393 283.668 587.837 283.548 588.233 283.308C588.641 283.068 588.965 282.714 589.205 282.246C589.457 281.766 589.583 281.172 589.583 280.464C589.583 279.756 589.463 279.168 589.223 278.7C588.983 278.22 588.659 277.86 588.251 277.62C587.855 277.38 587.417 277.26 586.937 277.26C586.457 277.26 586.013 277.38 585.605 277.62C585.197 277.86 584.867 278.22 584.615 278.7C584.375 279.168 584.255 279.756 584.255 280.464C584.255 281.172 584.375 281.766 584.615 282.246C584.867 282.714 585.191 283.068 585.587 283.308C585.995 283.548 586.433 283.668 586.901 283.668ZM597.047 285.216C596.279 285.216 595.607 285.09 595.031 284.838C594.455 284.586 593.999 284.232 593.663 283.776C593.327 283.32 593.123 282.786 593.051 282.174H594.887C594.947 282.462 595.061 282.726 595.229 282.966C595.409 283.206 595.649 283.398 595.949 283.542C596.261 283.686 596.627 283.758 597.047 283.758C597.443 283.758 597.767 283.704 598.019 283.596C598.283 283.476 598.475 283.32 598.595 283.128C598.715 282.924 598.775 282.708 598.775 282.48C598.775 282.144 598.691 281.892 598.523 281.724C598.367 281.544 598.127 281.406 597.803 281.31C597.491 281.202 597.113 281.106 596.669 281.022C596.249 280.95 595.841 280.854 595.445 280.734C595.061 280.602 594.713 280.44 594.401 280.248C594.101 280.056 593.861 279.816 593.681 279.528C593.501 279.228 593.411 278.862 593.411 278.43C593.411 277.914 593.549 277.452 593.825 277.044C594.101 276.624 594.491 276.3 594.995 276.072C595.511 275.832 596.117 275.712 596.812 275.712C597.821 275.712 598.631 275.952 599.243 276.432C599.855 276.912 600.215 277.59 600.323 278.466H598.577C598.529 278.058 598.349 277.746 598.037 277.53C597.725 277.302 597.311 277.188 596.795 277.188C596.279 277.188 595.883 277.29 595.607 277.494C595.331 277.698 595.193 277.968 595.193 278.304C595.193 278.52 595.271 278.712 595.427 278.88C595.583 279.048 595.811 279.192 596.111 279.312C596.423 279.42 596.801 279.522 597.245 279.618C597.881 279.738 598.451 279.888 598.955 280.068C599.459 280.248 599.861 280.512 600.161 280.86C600.461 281.208 600.611 281.706 600.611 282.354C600.623 282.918 600.479 283.416 600.179 283.848C599.891 284.28 599.477 284.616 598.937 284.856C598.409 285.096 597.779 285.216 597.047 285.216ZM606.105 285C605.529 285 605.031 284.91 604.611 284.73C604.191 284.55 603.867 284.25 603.639 283.83C603.411 283.41 603.297 282.84 603.297 282.12V277.458H601.731V275.928H603.297L603.513 273.66H605.097V275.928H607.671V277.458H605.097V282.138C605.097 282.654 605.205 283.008 605.421 283.2C605.637 283.38 606.009 283.47 606.537 283.47H607.581V285H606.105Z" fill="#12110D"/>
</g>
<g filter="url(#filter3_d_9_388)">
<path d="M157.332 362C157.332 344.327 171.659 330 189.332 330H444.332C461.453 330 475.332 343.879 475.332 361V361C475.332 378.121 461.453 392 444.332 392H157.332V362Z" fill="url(#paint4_linear_9_388)" shape-rendering="crispEdges"/>
<path d="M189.332 330.5H444.332C461.177 330.5 474.832 344.155 474.832 361C474.832 377.845 461.177 391.5 444.332 391.5H157.832V362C157.832 344.603 171.935 330.5 189.332 330.5Z" stroke="url(#paint5_linear_9_388)" shape-rendering="crispEdges"/>
<path fill-rule="evenodd" clip-rule="evenodd" d="M187.177 355.421C187.495 354.653 187.658 353.831 187.658 353H193.146C193.146 354.551 192.841 356.088 192.247 357.521C192.017 358.077 191.744 358.614 191.433 359.126C191.337 359.286 191.543 359.502 191.707 359.414C193.415 358.492 195.356 358.012 197.332 358.012V363.5C195.654 363.5 194.03 364.151 192.843 365.337C191.85 366.331 191.221 367.621 191.042 369H185.53C185.66 367.11 186.242 365.288 187.215 363.684C187.312 363.525 187.106 363.308 186.942 363.397C186.589 363.587 186.225 363.76 185.853 363.914C184.42 364.508 182.884 364.813 181.332 364.813L181.332 359.326C182.163 359.326 182.985 359.162 183.753 358.844C184.521 358.526 185.218 358.06 185.805 357.473C186.393 356.886 186.859 356.188 187.177 355.421Z" fill="#E65C32"/>
<path d="M207.836 367L212.462 354.4H214.424L219.05 367H217.124L213.434 356.56L209.726 367H207.836ZM209.924 363.886L210.428 362.446H216.35L216.854 363.886H209.924ZM223.909 367.216C223.201 367.216 222.583 367.072 222.055 366.784C221.539 366.496 221.137 366.064 220.849 365.488C220.573 364.912 220.435 364.186 220.435 363.31V357.928H222.235V363.112C222.235 363.964 222.421 364.606 222.793 365.038C223.165 365.47 223.699 365.686 224.395 365.686C224.863 365.686 225.283 365.572 225.655 365.344C226.039 365.116 226.339 364.786 226.555 364.354C226.771 363.922 226.879 363.394 226.879 362.77V357.928H228.679V367H227.077L226.951 365.452C226.675 366.004 226.273 366.436 225.745 366.748C225.217 367.06 224.605 367.216 223.909 367.216ZM235.176 367.216C234.312 367.216 233.55 367.012 232.89 366.604C232.23 366.184 231.714 365.62 231.342 364.912C230.982 364.192 230.802 363.376 230.802 362.464C230.802 361.54 230.982 360.724 231.342 360.016C231.714 359.308 232.23 358.75 232.89 358.342C233.562 357.922 234.33 357.712 235.194 357.712C235.902 357.712 236.526 357.856 237.066 358.144C237.606 358.42 238.026 358.816 238.326 359.332V354.04H240.126V367H238.506L238.326 365.596C238.146 365.872 237.912 366.136 237.624 366.388C237.336 366.628 236.988 366.826 236.58 366.982C236.172 367.138 235.704 367.216 235.176 367.216ZM235.464 365.65C236.028 365.65 236.526 365.518 236.958 365.254C237.39 364.99 237.72 364.618 237.948 364.138C238.188 363.658 238.308 363.1 238.308 362.464C238.308 361.828 238.188 361.276 237.948 360.808C237.72 360.328 237.39 359.956 236.958 359.692C236.526 359.416 236.028 359.278 235.464 359.278C234.924 359.278 234.438 359.416 234.006 359.692C233.574 359.956 233.238 360.328 232.998 360.808C232.758 361.276 232.638 361.828 232.638 362.464C232.638 363.1 232.758 363.658 232.998 364.138C233.238 364.618 233.574 364.99 234.006 365.254C234.438 365.518 234.924 365.65 235.464 365.65ZM242.713 367V357.928H244.513V367H242.713ZM243.631 356.218C243.283 356.218 242.995 356.11 242.767 355.894C242.551 355.678 242.443 355.402 242.443 355.066C242.443 354.742 242.551 354.478 242.767 354.274C242.995 354.058 243.283 353.95 243.631 353.95C243.967 353.95 244.249 354.058 244.477 354.274C244.705 354.478 244.819 354.742 244.819 355.066C244.819 355.402 244.705 355.678 244.477 355.894C244.249 356.11 243.967 356.218 243.631 356.218ZM250.831 367C250.255 367 249.757 366.91 249.337 366.73C248.917 366.55 248.593 366.25 248.365 365.83C248.137 365.41 248.023 364.84 248.023 364.12V359.458H246.457V357.928H248.023L248.239 355.66H249.823V357.928H252.397V359.458H249.823V364.138C249.823 364.654 249.931 365.008 250.147 365.2C250.363 365.38 250.735 365.47 251.263 365.47H252.307V367H250.831ZM262.318 367.216C261.61 367.216 260.992 367.072 260.464 366.784C259.948 366.496 259.546 366.064 259.258 365.488C258.982 364.912 258.844 364.186 258.844 363.31V357.928H260.644V363.112C260.644 363.964 260.83 364.606 261.202 365.038C261.574 365.47 262.108 365.686 262.804 365.686C263.272 365.686 263.692 365.572 264.064 365.344C264.448 365.116 264.748 364.786 264.964 364.354C265.18 363.922 265.288 363.394 265.288 362.77V357.928H267.088V367H265.486L265.36 365.452C265.084 366.004 264.682 366.436 264.154 366.748C263.626 367.06 263.014 367.216 262.318 367.216ZM273.062 367.216C272.294 367.216 271.622 367.09 271.046 366.838C270.47 366.586 270.014 366.232 269.678 365.776C269.342 365.32 269.138 364.786 269.066 364.174H270.902C270.962 364.462 271.076 364.726 271.244 364.966C271.424 365.206 271.664 365.398 271.964 365.542C272.276 365.686 272.642 365.758 273.062 365.758C273.458 365.758 273.782 365.704 274.034 365.596C274.298 365.476 274.49 365.32 274.61 365.128C274.73 364.924 274.79 364.708 274.79 364.48C274.79 364.144 274.706 363.892 274.538 363.724C274.382 363.544 274.142 363.406 273.818 363.31C273.506 363.202 273.128 363.106 272.684 363.022C272.264 362.95 271.856 362.854 271.46 362.734C271.076 362.602 270.728 362.44 270.416 362.248C270.116 362.056 269.876 361.816 269.696 361.528C269.516 361.228 269.426 360.862 269.426 360.43C269.426 359.914 269.564 359.452 269.84 359.044C270.116 358.624 270.506 358.3 271.01 358.072C271.526 357.832 272.132 357.712 272.828 357.712C273.836 357.712 274.646 357.952 275.258 358.432C275.87 358.912 276.23 359.59 276.338 360.466H274.592C274.544 360.058 274.364 359.746 274.052 359.53C273.74 359.302 273.326 359.188 272.81 359.188C272.294 359.188 271.898 359.29 271.622 359.494C271.346 359.698 271.208 359.968 271.208 360.304C271.208 360.52 271.286 360.712 271.442 360.88C271.598 361.048 271.826 361.192 272.126 361.312C272.438 361.42 272.816 361.522 273.26 361.618C273.896 361.738 274.466 361.888 274.97 362.068C275.474 362.248 275.876 362.512 276.176 362.86C276.476 363.208 276.626 363.706 276.626 364.354C276.638 364.918 276.494 365.416 276.194 365.848C275.906 366.28 275.492 366.616 274.952 366.856C274.424 367.096 273.794 367.216 273.062 367.216ZM282.849 367.216C281.985 367.216 281.217 367.018 280.545 366.622C279.873 366.226 279.345 365.674 278.961 364.966C278.589 364.258 278.403 363.436 278.403 362.5C278.403 361.54 278.589 360.706 278.961 359.998C279.345 359.278 279.873 358.72 280.545 358.324C281.217 357.916 281.997 357.712 282.885 357.712C283.773 357.712 284.535 357.91 285.171 358.306C285.807 358.702 286.299 359.23 286.647 359.89C286.995 360.538 287.169 361.258 287.169 362.05C287.169 362.17 287.163 362.302 287.151 362.446C287.151 362.578 287.145 362.728 287.133 362.896H279.717V361.618H285.369C285.333 360.862 285.081 360.274 284.613 359.854C284.145 359.422 283.563 359.206 282.867 359.206C282.375 359.206 281.925 359.32 281.517 359.548C281.109 359.764 280.779 360.088 280.527 360.52C280.287 360.94 280.167 361.474 280.167 362.122V362.626C280.167 363.298 280.287 363.868 280.527 364.336C280.779 364.792 281.109 365.14 281.517 365.38C281.925 365.608 282.369 365.722 282.849 365.722C283.425 365.722 283.899 365.596 284.271 365.344C284.643 365.092 284.919 364.75 285.099 364.318H286.899C286.743 364.87 286.479 365.368 286.107 365.812C285.735 366.244 285.273 366.586 284.721 366.838C284.181 367.09 283.557 367.216 282.849 367.216ZM289.169 367V357.928H290.789L290.951 359.638C291.155 359.23 291.419 358.888 291.743 358.612C292.067 358.324 292.445 358.102 292.877 357.946C293.321 357.79 293.825 357.712 294.389 357.712V359.62H293.741C293.369 359.62 293.015 359.668 292.679 359.764C292.343 359.848 292.043 359.998 291.779 360.214C291.527 360.43 291.329 360.724 291.185 361.096C291.041 361.468 290.969 361.93 290.969 362.482V367H289.169ZM304.158 367.216C303.39 367.216 302.718 367.09 302.142 366.838C301.566 366.586 301.11 366.232 300.774 365.776C300.438 365.32 300.234 364.786 300.162 364.174H301.998C302.058 364.462 302.172 364.726 302.34 364.966C302.52 365.206 302.76 365.398 303.06 365.542C303.372 365.686 303.738 365.758 304.158 365.758C304.554 365.758 304.878 365.704 305.13 365.596C305.394 365.476 305.586 365.32 305.706 365.128C305.826 364.924 305.886 364.708 305.886 364.48C305.886 364.144 305.802 363.892 305.634 363.724C305.478 363.544 305.238 363.406 304.914 363.31C304.602 363.202 304.224 363.106 303.78 363.022C303.36 362.95 302.952 362.854 302.556 362.734C302.172 362.602 301.824 362.44 301.512 362.248C301.212 362.056 300.972 361.816 300.792 361.528C300.612 361.228 300.522 360.862 300.522 360.43C300.522 359.914 300.66 359.452 300.936 359.044C301.212 358.624 301.602 358.3 302.106 358.072C302.622 357.832 303.228 357.712 303.924 357.712C304.932 357.712 305.742 357.952 306.354 358.432C306.966 358.912 307.326 359.59 307.434 360.466H305.688C305.64 360.058 305.46 359.746 305.148 359.53C304.836 359.302 304.422 359.188 303.906 359.188C303.39 359.188 302.994 359.29 302.718 359.494C302.442 359.698 302.304 359.968 302.304 360.304C302.304 360.52 302.382 360.712 302.538 360.88C302.694 361.048 302.922 361.192 303.222 361.312C303.534 361.42 303.912 361.522 304.356 361.618C304.992 361.738 305.562 361.888 306.066 362.068C306.57 362.248 306.972 362.512 307.272 362.86C307.572 363.208 307.722 363.706 307.722 364.354C307.734 364.918 307.59 365.416 307.29 365.848C307.002 366.28 306.588 366.616 306.048 366.856C305.52 367.096 304.89 367.216 304.158 367.216ZM313.945 367.216C313.081 367.216 312.313 367.018 311.641 366.622C310.969 366.226 310.441 365.674 310.057 364.966C309.685 364.258 309.499 363.436 309.499 362.5C309.499 361.54 309.685 360.706 310.057 359.998C310.441 359.278 310.969 358.72 311.641 358.324C312.313 357.916 313.093 357.712 313.981 357.712C314.869 357.712 315.631 357.91 316.267 358.306C316.903 358.702 317.395 359.23 317.743 359.89C318.091 360.538 318.265 361.258 318.265 362.05C318.265 362.17 318.259 362.302 318.247 362.446C318.247 362.578 318.241 362.728 318.229 362.896H310.813V361.618H316.465C316.429 360.862 316.177 360.274 315.709 359.854C315.241 359.422 314.659 359.206 313.963 359.206C313.471 359.206 313.021 359.32 312.613 359.548C312.205 359.764 311.875 360.088 311.623 360.52C311.383 360.94 311.263 361.474 311.263 362.122V362.626C311.263 363.298 311.383 363.868 311.623 364.336C311.875 364.792 312.205 365.14 312.613 365.38C313.021 365.608 313.465 365.722 313.945 365.722C314.521 365.722 314.995 365.596 315.367 365.344C315.739 365.092 316.015 364.75 316.195 364.318H317.995C317.839 364.87 317.575 365.368 317.203 365.812C316.831 366.244 316.369 366.586 315.817 366.838C315.277 367.09 314.653 367.216 313.945 367.216ZM324.459 367.216C323.583 367.216 322.803 367.018 322.119 366.622C321.435 366.214 320.895 365.656 320.499 364.948C320.115 364.24 319.923 363.418 319.923 362.482C319.923 361.534 320.115 360.706 320.499 359.998C320.895 359.278 321.435 358.72 322.119 358.324C322.803 357.916 323.583 357.712 324.459 357.712C325.563 357.712 326.487 358 327.231 358.576C327.975 359.152 328.449 359.932 328.653 360.916H326.781C326.661 360.388 326.385 359.98 325.953 359.692C325.533 359.404 325.029 359.26 324.441 359.26C323.961 359.26 323.517 359.386 323.109 359.638C322.701 359.878 322.371 360.238 322.119 360.718C321.879 361.186 321.759 361.768 321.759 362.464C321.759 362.98 321.831 363.442 321.975 363.85C322.119 364.246 322.311 364.582 322.551 364.858C322.803 365.134 323.091 365.344 323.415 365.488C323.739 365.62 324.081 365.686 324.441 365.686C324.837 365.686 325.191 365.626 325.503 365.506C325.827 365.374 326.097 365.182 326.313 364.93C326.541 364.678 326.697 364.378 326.781 364.03H328.653C328.449 364.99 327.975 365.764 327.231 366.352C326.487 366.928 325.563 367.216 324.459 367.216ZM334.089 367.216C333.381 367.216 332.763 367.072 332.235 366.784C331.719 366.496 331.317 366.064 331.029 365.488C330.753 364.912 330.615 364.186 330.615 363.31V357.928H332.415V363.112C332.415 363.964 332.601 364.606 332.973 365.038C333.345 365.47 333.879 365.686 334.575 365.686C335.043 365.686 335.463 365.572 335.835 365.344C336.219 365.116 336.519 364.786 336.735 364.354C336.951 363.922 337.059 363.394 337.059 362.77V357.928H338.859V367H337.257L337.131 365.452C336.855 366.004 336.453 366.436 335.925 366.748C335.397 367.06 334.785 367.216 334.089 367.216ZM341.324 367V357.928H342.944L343.106 359.638C343.31 359.23 343.574 358.888 343.898 358.612C344.222 358.324 344.6 358.102 345.032 357.946C345.476 357.79 345.98 357.712 346.544 357.712V359.62H345.896C345.524 359.62 345.17 359.668 344.834 359.764C344.498 359.848 344.198 359.998 343.934 360.214C343.682 360.43 343.484 360.724 343.34 361.096C343.196 361.468 343.124 361.93 343.124 362.482V367H341.324ZM348.323 367V357.928H350.123V367H348.323ZM349.241 356.218C348.893 356.218 348.605 356.11 348.377 355.894C348.161 355.678 348.053 355.402 348.053 355.066C348.053 354.742 348.161 354.478 348.377 354.274C348.605 354.058 348.893 353.95 349.241 353.95C349.577 353.95 349.859 354.058 350.087 354.274C350.315 354.478 350.429 354.742 350.429 355.066C350.429 355.402 350.315 355.678 350.087 355.894C349.859 356.11 349.577 356.218 349.241 356.218ZM356.441 367C355.865 367 355.367 366.91 354.947 366.73C354.527 366.55 354.203 366.25 353.975 365.83C353.747 365.41 353.633 364.84 353.633 364.12V359.458H352.067V357.928H353.633L353.849 355.66H355.433V357.928H358.007V359.458H355.433V364.138C355.433 364.654 355.541 365.008 355.757 365.2C355.973 365.38 356.345 365.47 356.873 365.47H357.917V367H356.441ZM361.036 370.96L363.25 365.992H362.728L359.146 357.928H361.09L363.934 364.516L366.796 357.928H368.686L362.926 370.96H361.036ZM384.474 367L377.634 360.07C377.07 359.518 376.668 359.014 376.428 358.558C376.2 358.102 376.086 357.61 376.086 357.082C376.086 356.53 376.218 356.038 376.482 355.606C376.758 355.162 377.148 354.814 377.652 354.562C378.168 354.31 378.78 354.184 379.488 354.184C380.196 354.184 380.796 354.316 381.288 354.58C381.792 354.832 382.176 355.18 382.44 355.624C382.716 356.068 382.848 356.572 382.836 357.136H381.072C381.072 356.632 380.916 356.254 380.604 356.002C380.292 355.738 379.92 355.606 379.488 355.606C378.972 355.606 378.564 355.744 378.264 356.02C377.976 356.284 377.832 356.632 377.832 357.064C377.832 357.412 377.934 357.766 378.138 358.126C378.342 358.474 378.648 358.864 379.056 359.296L386.688 367H384.474ZM378.75 367.216C377.886 367.216 377.124 367.06 376.464 366.748C375.804 366.424 375.294 365.974 374.934 365.398C374.574 364.81 374.394 364.132 374.394 363.364C374.394 362.752 374.52 362.194 374.772 361.69C375.024 361.174 375.396 360.724 375.888 360.34C376.38 359.944 376.986 359.626 377.706 359.386L378.39 359.152L379.272 360.304L378.534 360.556C377.73 360.832 377.136 361.198 376.752 361.654C376.368 362.11 376.176 362.65 376.176 363.274C376.176 363.73 376.284 364.144 376.5 364.516C376.728 364.888 377.04 365.176 377.436 365.38C377.832 365.584 378.294 365.686 378.822 365.686C379.506 365.686 380.118 365.542 380.658 365.254C381.198 364.954 381.732 364.468 382.26 363.796C382.5 363.484 382.746 363.13 382.998 362.734C383.25 362.338 383.514 361.888 383.79 361.384L384.294 360.466H386.166L385.41 361.852C385.098 362.464 384.78 363.022 384.456 363.526C384.144 364.018 383.826 364.456 383.502 364.84C382.818 365.68 382.092 366.286 381.324 366.658C380.568 367.03 379.71 367.216 378.75 367.216ZM392.951 367V354.04H394.751V367H392.951ZM401.362 367.216C400.51 367.216 399.742 367.018 399.058 366.622C398.386 366.226 397.852 365.674 397.456 364.966C397.072 364.246 396.88 363.418 396.88 362.482C396.88 361.522 397.078 360.688 397.474 359.98C397.87 359.26 398.41 358.702 399.094 358.306C399.778 357.91 400.546 357.712 401.398 357.712C402.262 357.712 403.03 357.91 403.702 358.306C404.374 358.702 404.902 359.254 405.286 359.962C405.682 360.67 405.88 361.504 405.88 362.464C405.88 363.424 405.682 364.258 405.286 364.966C404.902 365.674 404.368 366.226 403.684 366.622C403 367.018 402.226 367.216 401.362 367.216ZM401.362 365.668C401.854 365.668 402.298 365.548 402.694 365.308C403.102 365.068 403.426 364.714 403.666 364.246C403.918 363.766 404.044 363.172 404.044 362.464C404.044 361.756 403.924 361.168 403.684 360.7C403.444 360.22 403.12 359.86 402.712 359.62C402.316 359.38 401.878 359.26 401.398 359.26C400.918 359.26 400.474 359.38 400.066 359.62C399.658 359.86 399.328 360.22 399.076 360.7C398.836 361.168 398.716 361.756 398.716 362.464C398.716 363.172 398.836 363.766 399.076 364.246C399.328 364.714 399.652 365.068 400.048 365.308C400.456 365.548 400.894 365.668 401.362 365.668ZM411.23 371.176C410.402 371.176 409.67 371.068 409.034 370.852C408.398 370.648 407.906 370.33 407.558 369.898C407.21 369.466 407.036 368.938 407.036 368.314C407.036 367.99 407.108 367.66 407.252 367.324C407.396 367 407.63 366.688 407.954 366.388C408.278 366.088 408.716 365.818 409.268 365.578L410.276 366.388C409.664 366.616 409.25 366.886 409.034 367.198C408.83 367.522 408.728 367.834 408.728 368.134C408.728 368.494 408.836 368.794 409.052 369.034C409.268 369.274 409.562 369.454 409.934 369.574C410.318 369.694 410.75 369.754 411.23 369.754C411.698 369.754 412.106 369.688 412.454 369.556C412.802 369.424 413.072 369.238 413.264 368.998C413.456 368.758 413.552 368.476 413.552 368.152C413.552 367.768 413.408 367.444 413.12 367.18C412.832 366.928 412.28 366.778 411.464 366.73C410.78 366.682 410.198 366.616 409.718 366.532C409.25 366.448 408.848 366.346 408.512 366.226C408.188 366.106 407.912 365.974 407.684 365.83C407.468 365.686 407.282 365.536 407.126 365.38V364.966L408.926 363.112L410.384 363.616L408.422 365.434L408.8 364.624C408.932 364.708 409.058 364.792 409.178 364.876C409.298 364.948 409.46 365.014 409.664 365.074C409.868 365.134 410.144 365.188 410.492 365.236C410.84 365.284 411.296 365.332 411.86 365.38C412.676 365.44 413.33 365.584 413.822 365.812C414.326 366.04 414.692 366.346 414.92 366.73C415.148 367.114 415.262 367.57 415.262 368.098C415.262 368.614 415.118 369.106 414.83 369.574C414.554 370.042 414.116 370.426 413.516 370.726C412.928 371.026 412.166 371.176 411.23 371.176ZM411.23 364.21C410.462 364.21 409.808 364.066 409.268 363.778C408.74 363.49 408.332 363.1 408.044 362.608C407.768 362.116 407.63 361.57 407.63 360.97C407.63 360.358 407.768 359.812 408.044 359.332C408.332 358.84 408.746 358.45 409.286 358.162C409.826 357.862 410.474 357.712 411.23 357.712C411.986 357.712 412.628 357.862 413.156 358.162C413.696 358.45 414.104 358.84 414.38 359.332C414.668 359.812 414.812 360.358 414.812 360.97C414.812 361.57 414.668 362.116 414.38 362.608C414.104 363.1 413.696 363.49 413.156 363.778C412.628 364.066 411.986 364.21 411.23 364.21ZM411.23 362.77C411.818 362.77 412.286 362.62 412.634 362.32C412.982 362.008 413.156 361.558 413.156 360.97C413.156 360.382 412.982 359.938 412.634 359.638C412.286 359.326 411.818 359.17 411.23 359.17C410.642 359.17 410.168 359.326 409.808 359.638C409.448 359.938 409.268 360.382 409.268 360.97C409.268 361.558 409.448 362.008 409.808 362.32C410.168 362.62 410.642 362.77 411.23 362.77ZM412.706 359.35L412.274 357.928H416V359.17L412.706 359.35ZM417.914 362.446V360.934H425.186V362.446H417.914ZM427.864 367V357.928H429.664V367H427.864ZM428.782 356.218C428.434 356.218 428.146 356.11 427.918 355.894C427.702 355.678 427.594 355.402 427.594 355.066C427.594 354.742 427.702 354.478 427.918 354.274C428.146 354.058 428.434 353.95 428.782 353.95C429.118 353.95 429.4 354.058 429.628 354.274C429.856 354.478 429.97 354.742 429.97 355.066C429.97 355.402 429.856 355.678 429.628 355.894C429.4 356.11 429.118 356.218 428.782 356.218ZM432.238 367V357.928H433.858L433.966 359.476C434.254 358.936 434.662 358.51 435.19 358.198C435.718 357.874 436.324 357.712 437.008 357.712C437.728 357.712 438.346 357.856 438.862 358.144C439.378 358.432 439.78 358.87 440.068 359.458C440.356 360.034 440.5 360.76 440.5 361.636V367H438.7V361.816C438.7 360.976 438.514 360.34 438.142 359.908C437.77 359.476 437.23 359.26 436.522 359.26C436.054 359.26 435.634 359.374 435.262 359.602C434.89 359.818 434.59 360.142 434.362 360.574C434.146 361.006 434.038 361.534 434.038 362.158V367H432.238ZM446.312 367.216C445.544 367.216 444.872 367.09 444.296 366.838C443.72 366.586 443.264 366.232 442.928 365.776C442.592 365.32 442.388 364.786 442.316 364.174H444.152C444.212 364.462 444.326 364.726 444.494 364.966C444.674 365.206 444.914 365.398 445.214 365.542C445.526 365.686 445.892 365.758 446.312 365.758C446.708 365.758 447.032 365.704 447.284 365.596C447.548 365.476 447.74 365.32 447.86 365.128C447.98 364.924 448.04 364.708 448.04 364.48C448.04 364.144 447.956 363.892 447.788 363.724C447.632 363.544 447.392 363.406 447.068 363.31C446.756 363.202 446.378 363.106 445.934 363.022C445.514 362.95 445.106 362.854 444.71 362.734C444.326 362.602 443.978 362.44 443.666 362.248C443.366 362.056 443.126 361.816 442.946 361.528C442.766 361.228 442.676 360.862 442.676 360.43C442.676 359.914 442.814 359.452 443.09 359.044C443.366 358.624 443.756 358.3 444.26 358.072C444.776 357.832 445.382 357.712 446.078 357.712C447.086 357.712 447.896 357.952 448.508 358.432C449.12 358.912 449.48 359.59 449.588 360.466H447.842C447.794 360.058 447.614 359.746 447.302 359.53C446.99 359.302 446.576 359.188 446.06 359.188C445.544 359.188 445.148 359.29 444.872 359.494C444.596 359.698 444.458 359.968 444.458 360.304C444.458 360.52 444.536 360.712 444.692 360.88C444.848 361.048 445.076 361.192 445.376 361.312C445.688 361.42 446.066 361.522 446.51 361.618C447.146 361.738 447.716 361.888 448.22 362.068C448.724 362.248 449.126 362.512 449.426 362.86C449.726 363.208 449.876 363.706 449.876 364.354C449.888 364.918 449.744 365.416 449.444 365.848C449.156 366.28 448.742 366.616 448.202 366.856C447.674 367.096 447.044 367.216 446.312 367.216Z" fill="#12110D"/>
</g>
<defs>
<filter id="filter0_d_9_388" x="18.332" y="8" width="596" height="400" filterUnits="userSpaceOnUse" color-interpolation-filters="sRGB">
<feFlood flood-opacity="0" result="BackgroundImageFix"/>
<feColorMatrix in="SourceAlpha" type="matrix" values="0 0 0 0 0 0 0 0 0 0 0 0 0 0 0 0 0 0 127 0" result="hardAlpha"/>
<feOffset dy="4"/>
<feGaussianBlur stdDeviation="18"/>
<feComposite in2="hardAlpha" operator="out"/>
<feColorMatrix type="matrix" values="0 0 0 0 0 0 0 0 0 0 0 0 0 0 0 0 0 0 0.05 0"/>
<feBlend mode="normal" in2="BackgroundImageFix" result="effect1_dropShadow_9_388"/>
<feBlend mode="normal" in="SourceGraphic" in2="effect1_dropShadow_9_388" result="shape"/>
</filter>
<filter id="filter1_d_9_388" x="78.332" y="228" width="304" height="110" filterUnits="userSpaceOnUse" color-interpolation-filters="sRGB">
<feFlood flood-opacity="0" result="BackgroundImageFix"/>
<feColorMatrix in="SourceAlpha" type="matrix" values="0 0 0 0 0 0 0 0 0 0 0 0 0 0 0 0 0 0 127 0" result="hardAlpha"/>
<feOffset dy="4"/>
<feGaussianBlur stdDeviation="12"/>
<feComposite in2="hardAlpha" operator="out"/>
<feColorMatrix type="matrix" values="0 0 0 0 0 0 0 0 0 0 0 0 0 0 0 0 0 0 0.1 0"/>
<feBlend mode="normal" in2="BackgroundImageFix" result="effect1_dropShadow_9_388"/>
<feBlend mode="normal" in="BackgroundImageFix" in2="effect1_dropShadow_9_388" result="BackgroundImageFix"/>
<feBlend mode="normal" in="SourceGraphic" in2="BackgroundImageFix" result="shape"/>
</filter>
<filter id="filter2_d_9_388" x="348.332" y="228" width="309" height="110" filterUnits="userSpaceOnUse" color-interpolation-filters="sRGB">
<feFlood flood-opacity="0" result="BackgroundImageFix"/>
<feColorMatrix in="SourceAlpha" type="matrix" values="0 0 0 0 0 0 0 0 0 0 0 0 0 0 0 0 0 0 127 0" result="hardAlpha"/>
<feOffset dy="4"/>
<feGaussianBlur stdDeviation="12"/>
<feComposite in2="hardAlpha" operator="out"/>
<feColorMatrix type="matrix" values="0 0 0 0 0 0 0 0 0 0 0 0 0 0 0 0 0 0 0.1 0"/>
<feBlend mode="normal" in2="BackgroundImageFix" result="effect1_dropShadow_9_388"/>
<feBlend mode="normal" in="BackgroundImageFix" in2="effect1_dropShadow_9_388" result="BackgroundImageFix"/>
<feBlend mode="normal" in="SourceGraphic" in2="BackgroundImageFix" result="shape"/>
</filter>
<filter id="filter3_d_9_388" x="133.332" y="310" width="366" height="110" filterUnits="userSpaceOnUse" color-interpolation-filters="sRGB">
<feFlood flood-opacity="0" result="BackgroundImageFix"/>
<feColorMatrix in="SourceAlpha" type="matrix" values="0 0 0 0 0 0 0 0 0 0 0 0 0 0 0 0 0 0 127 0" result="hardAlpha"/>
<feOffset dy="4"/>
<feGaussianBlur stdDeviation="12"/>
<feComposite in2="hardAlpha" operator="out"/>
<feColorMatrix type="matrix" values="0 0 0 0 0 0 0 0 0 0 0 0 0 0 0 0 0 0 0.1 0"/>
<feBlend mode="normal" in2="BackgroundImageFix" result="effect1_dropShadow_9_388"/>
<feBlend mode="normal" in="BackgroundImageFix" in2="effect1_dropShadow_9_388" result="BackgroundImageFix"/>
<feBlend mode="normal" in="SourceGraphic" in2="BackgroundImageFix" result="shape"/>
</filter>
<linearGradient id="paint0_linear_9_388" x1="230.332" y1="248" x2="230.332" y2="310" gradientUnits="userSpaceOnUse">
<stop stop-color="#FFF5EC" stop-opacity="0.4"/>
<stop offset="1" stop-color="white" stop-opacity="0"/>
</linearGradient>
<linearGradient id="paint1_linear_9_388" x1="230.332" y1="248" x2="230.332" y2="310" gradientUnits="userSpaceOnUse">
<stop stop-color="#E65C32"/>
<stop offset="1" stop-color="#FBFAF5"/>
</linearGradient>
<linearGradient id="paint2_linear_9_388" x1="502.832" y1="248" x2="502.832" y2="310" gradientUnits="userSpaceOnUse">
<stop stop-color="#FFF5EC" stop-opacity="0.4"/>
<stop offset="1" stop-color="white" stop-opacity="0"/>
</linearGradient>
<linearGradient id="paint3_linear_9_388" x1="502.832" y1="248" x2="502.832" y2="310" gradientUnits="userSpaceOnUse">
<stop stop-color="#E65C32"/>
<stop offset="1" stop-color="#FBFAF5"/>
</linearGradient>
<linearGradient id="paint4_linear_9_388" x1="316.332" y1="330" x2="316.332" y2="392" gradientUnits="userSpaceOnUse">
<stop stop-color="#FFF5EC" stop-opacity="0.4"/>
<stop offset="1" stop-color="white" stop-opacity="0"/>
</linearGradient>
<linearGradient id="paint5_linear_9_388" x1="316.332" y1="330" x2="316.332" y2="392" gradientUnits="userSpaceOnUse">
<stop stop-color="#E65C32"/>
<stop offset="1" stop-color="#FBFAF5"/>
</linearGradient>
</defs>
</svg>
