<svg width="658" height="420" viewBox="0 0 658 420" fill="none" xmlns="http://www.w3.org/2000/svg">
<rect x="55" y="40" width="524" height="328" rx="32" fill="#FBFAF5"/>
<path d="M191.35 150V149.776L192.61 148.292V140.256H182.698V148.292L183.958 149.776V150H178.358V149.776L179.618 148.292V131.52L178.358 130.036V129.812H183.958V130.036L182.698 131.52V138.408H192.61V131.52L191.35 130.036V129.812H196.95V130.036L195.69 131.52V148.292L196.95 149.776V150H191.35ZM201.301 142.468C201.357 145.996 203.345 148.04 206.005 148.04C208.077 148.04 209.533 146.892 210.233 144.848L211.829 145.296C211.157 148.292 208.833 150.28 205.473 150.28C201.105 150.28 198.361 146.892 198.361 142.72C198.361 138.576 200.937 135.188 205.221 135.188C210.121 135.188 211.941 138.828 211.717 142.468H201.301ZM205.221 136.672C203.065 136.672 201.721 138.576 201.385 141.068H208.721C208.581 138.688 207.349 136.672 205.221 136.672ZM217.123 148.46L218.103 149.776V150H213.259V149.776L214.239 148.46V131.744L213.259 130.316V130.092L217.123 129.392V148.46ZM223.597 148.46L224.577 149.776V150H219.733V149.776L220.713 148.46V131.744L219.733 130.316V130.092L223.597 129.392V148.46ZM233.236 150.28C229.036 150.28 226.012 147.06 226.012 142.72C226.012 138.408 229.036 135.188 233.236 135.188C237.408 135.188 240.46 138.408 240.46 142.72C240.46 147.06 237.408 150.28 233.236 150.28ZM233.236 148.684C235.672 148.684 237.464 146.192 237.464 142.72C237.464 139.248 235.672 136.784 233.236 136.784C230.772 136.784 229.036 139.248 229.036 142.72C229.036 146.192 230.772 148.684 233.236 148.684ZM243.602 144.092L242.566 129.812H246.094L245.03 144.092H243.602ZM242.622 146.752H245.982V150H242.622V146.752ZM258.427 148.292L259.687 149.776V150H254.087V149.776L255.347 148.292V131.52L254.087 130.036V129.812H259.687V130.036L258.427 131.52V148.292ZM261.896 129.84H265.256V133.06L262.96 137.092H262.148L263.716 132.892L261.896 133.088V129.84ZM266.044 150V149.776L266.996 148.432V137.68L266.016 136.252V136.028L269.852 135.328V138.24C270.664 136.476 272.26 135.188 274.248 135.188C276.46 135.188 278 136.364 278.532 138.408C279.512 136.308 281.248 135.188 283.124 135.188C285.924 135.188 287.772 137.092 287.772 140.088V148.432L288.696 149.776V150H283.992V149.776L284.888 148.432V140.508C284.888 138.156 283.684 137.344 282.284 137.344C280.576 137.344 279.12 138.744 278.812 141.012V148.432L279.708 149.776V150H275.032V149.776L275.928 148.432V140.508C275.928 138.156 274.752 137.344 273.352 137.344C271.644 137.344 270.188 138.828 269.852 141.012V148.432L270.748 149.776V150H266.044ZM299.525 150V149.776L300.785 148.292V131.548L296.501 131.8L294.289 133.508H294.065L294.513 129.812H310.137L310.585 133.508H310.361L308.121 131.8L303.865 131.548V148.292L305.125 149.776V150H299.525ZM310.986 142.468C311.042 145.996 313.03 148.04 315.69 148.04C317.762 148.04 319.218 146.892 319.918 144.848L321.514 145.296C320.842 148.292 318.518 150.28 315.158 150.28C310.79 150.28 308.046 146.892 308.046 142.72C308.046 138.576 310.622 135.188 314.906 135.188C319.806 135.188 321.626 138.828 321.402 142.468H310.986ZM314.906 136.672C312.75 136.672 311.406 138.576 311.07 141.068H318.406C318.266 138.688 317.034 136.672 314.906 136.672ZM323.056 150V149.776L324.036 148.46V137.68L323.056 136.252V136.028L326.92 135.328V138.436C327.648 136.448 329.076 135.188 330.952 135.188C331.316 135.188 331.652 135.216 331.932 135.3L331.736 138.128C328.852 137.26 327.396 139.388 326.92 141.236V148.432L328.236 149.776V150H323.056ZM332.948 150V149.776L333.928 148.46V137.68L332.948 136.252V136.028L336.812 135.328V138.436C337.54 136.448 338.968 135.188 340.844 135.188C341.208 135.188 341.544 135.216 341.824 135.3L341.628 138.128C338.744 137.26 337.288 139.388 336.812 141.236V148.432L338.128 149.776V150H332.948ZM346.688 150.28C343.916 150.28 342.068 148.684 342.068 146.36C342.068 143.924 343.916 142.468 347.164 141.824L351.308 141.012V139.836C351.308 137.792 350.076 136.672 348.368 136.672C346.52 136.672 345.176 137.904 345.176 140.256L342.348 139.612C342.712 137.148 344.924 135.188 348.396 135.188C351.924 135.188 354.192 137.092 354.192 140.452V148.348L355.172 149.776V150H351.308V147.508C350.412 149.244 348.788 150.28 346.688 150.28ZM351.308 145.324V142.384L348.144 143.028C346.1 143.532 345.064 144.512 345.064 146.08C345.064 147.424 346.044 148.376 347.584 148.376C349.544 148.376 350.832 147.004 351.308 145.324ZM371.989 150.28C366.725 150.28 361.909 146.78 361.909 139.892C361.909 132.948 366.949 129.532 372.073 129.532C376.021 129.532 378.877 131.324 380.081 134.04L377.925 136.168L377.701 136.14C377.141 133.508 375.013 131.296 372.045 131.296C368.097 131.296 365.101 134.32 365.101 139.724C365.101 145.072 368.461 147.928 372.213 147.928C375.405 147.928 377.701 146.304 378.597 143.028L380.417 143.308C379.633 147.788 376.273 150.28 371.989 150.28ZM388.648 150.28C384.448 150.28 381.424 147.06 381.424 142.72C381.424 138.408 384.448 135.188 388.648 135.188C392.82 135.188 395.872 138.408 395.872 142.72C395.872 147.06 392.82 150.28 388.648 150.28ZM388.648 148.684C391.084 148.684 392.876 146.192 392.876 142.72C392.876 139.248 391.084 136.784 388.648 136.784C386.184 136.784 384.448 139.248 384.448 142.72C384.448 146.192 386.184 148.684 388.648 148.684ZM397.257 150V149.776L398.517 148.292V131.52L397.257 130.036V129.812H406.413C410.809 129.812 413.357 132.052 413.357 135.72C413.357 139.248 410.809 141.656 406.413 141.656H401.597V148.264L403.277 149.776V150H397.257ZM401.597 139.836H405.601C408.569 139.836 410.165 138.156 410.165 135.72C410.165 133.256 408.541 131.66 405.601 131.66H401.597V139.836ZM418.366 148.432L419.346 149.776V150H414.502V149.776L415.482 148.432V137.68L414.502 136.252V136.028L418.366 135.328V148.432ZM416.854 133.34C415.818 133.34 415.006 132.528 415.006 131.492C415.006 130.456 415.818 129.644 416.854 129.644C417.946 129.644 418.758 130.456 418.758 131.492C418.758 132.528 417.946 133.34 416.854 133.34ZM424.838 148.46L425.818 149.776V150H420.974V149.776L421.954 148.46V131.744L420.974 130.316V130.092L424.838 129.392V148.46ZM434.478 150.28C430.278 150.28 427.254 147.06 427.254 142.72C427.254 138.408 430.278 135.188 434.478 135.188C438.65 135.188 441.702 138.408 441.702 142.72C441.702 147.06 438.65 150.28 434.478 150.28ZM434.478 148.684C436.914 148.684 438.706 146.192 438.706 142.72C438.706 139.248 436.914 136.784 434.478 136.784C432.014 136.784 430.278 139.248 430.278 142.72C430.278 146.192 432.014 148.684 434.478 148.684ZM448.574 150.28C446.278 150.28 444.542 149.048 444.542 146.136V137.176H442.05V135.776C444.43 135.552 445.466 134.796 445.858 131.94H447.426V135.468L450.982 135.272L451.094 137.176H447.426V146.22C447.426 147.816 448.322 148.404 449.414 148.404C449.946 148.404 450.506 148.292 450.982 147.984L451.066 149.356C450.59 149.832 449.694 150.28 448.574 150.28ZM452.321 146.78H455.681V150L453.385 154.004H452.573L454.141 149.832L452.321 150.028V146.78ZM165.831 195.516C164.907 195.516 164.067 195.292 163.591 194.928L164.347 192.296C164.851 192.716 165.523 192.968 166.279 192.968C167.455 192.968 168.491 192.296 169.163 190.672L169.499 189.748L164.599 177.12L163.283 175.692V175.468H168.295L168.323 175.692L167.623 177.092L170.983 186.472L174.287 177.092L173.587 175.692L173.615 175.468H177.647V175.692L176.275 177.12L170.731 191.4C169.583 194.368 167.931 195.516 165.831 195.516ZM184.574 190.28C180.374 190.28 177.35 187.06 177.35 182.72C177.35 178.408 180.374 175.188 184.574 175.188C188.746 175.188 191.798 178.408 191.798 182.72C191.798 187.06 188.746 190.28 184.574 190.28ZM184.574 188.684C187.01 188.684 188.802 186.192 188.802 182.72C188.802 179.248 187.01 176.784 184.574 176.784C182.11 176.784 180.374 179.248 180.374 182.72C180.374 186.192 182.11 188.684 184.574 188.684ZM199.084 190.28C196.2 190.28 194.156 188.432 194.156 185.296V177.568L193.148 176.252V176.028L197.012 175.328V184.96C197.012 187.172 198.272 188.124 199.896 188.124C201.66 188.124 203.172 186.696 203.592 184.512V177.568L202.612 176.252V176.028L206.476 175.328V188.432L207.456 189.776V190H203.592V187.228C202.78 189.048 201.1 190.28 199.084 190.28ZM209.143 190V189.776L210.123 188.46V177.68L209.143 176.252V176.028L213.007 175.328V178.436C213.735 176.448 215.163 175.188 217.039 175.188C217.403 175.188 217.739 175.216 218.019 175.3L217.823 178.128C214.939 177.26 213.483 179.388 213.007 181.236V188.432L214.323 189.776V190H209.143ZM221.875 190V189.776L223.359 188.376L230.639 169.812H232.795L240.159 188.292L241.671 189.776V190H235.875L235.847 189.776L236.799 188.376L235.231 184.316H227.139L225.599 188.404L226.523 189.776L226.495 190H221.875ZM227.811 182.496H234.531L231.115 173.704L227.811 182.496ZM247.076 188.292L248.336 189.776V190H242.736V189.776L243.996 188.292V171.52L242.736 170.036V169.812H248.336V170.036L247.076 171.52V188.292ZM261.412 190.28C258.024 190.28 255.924 188.6 255.392 186.864L257.296 185.072H257.52C257.968 187.284 259.452 188.712 261.412 188.712C263.036 188.712 264.128 187.76 264.128 186.332C264.128 185.156 263.4 184.372 261.972 183.952L259.536 183.252C257.772 182.776 255.896 181.824 255.896 179.332C255.896 176.924 258.08 175.188 261.104 175.188C263.624 175.188 265.612 176.392 266.396 178.044L264.632 179.696L264.408 179.668C264.044 177.792 262.7 176.7 261.076 176.7C259.62 176.7 258.584 177.568 258.584 178.716C258.584 179.752 259.284 180.34 260.628 180.732L262.952 181.376C265.136 181.992 266.956 183.028 266.956 185.772C266.956 188.32 264.66 190.28 261.412 190.28ZM271.156 182.468C271.212 185.996 273.2 188.04 275.86 188.04C277.932 188.04 279.388 186.892 280.088 184.848L281.684 185.296C281.012 188.292 278.688 190.28 275.328 190.28C270.96 190.28 268.216 186.892 268.216 182.72C268.216 178.576 270.792 175.188 275.076 175.188C279.976 175.188 281.796 178.828 281.572 182.468H271.156ZM275.076 176.672C272.92 176.672 271.576 178.576 271.24 181.068H278.576C278.436 178.688 277.204 176.672 275.076 176.672ZM290.114 190.28C285.942 190.28 283.03 187.144 283.03 182.72C283.03 178.212 286.138 175.188 290.31 175.188C293.222 175.188 295.434 176.7 296.162 178.716L294.286 180.312L294.062 180.284C293.586 178.156 292.242 176.784 290.338 176.784C287.762 176.784 286.026 179.024 286.026 182.384C286.026 186.192 288.378 188.012 290.674 188.012C292.606 188.012 294.118 186.92 294.846 184.596L296.442 184.876C295.854 188.208 293.502 190.28 290.114 190.28ZM303.478 190.28C300.594 190.28 298.55 188.432 298.55 185.296V177.568L297.542 176.252V176.028L301.406 175.328V184.96C301.406 187.172 302.666 188.124 304.29 188.124C306.054 188.124 307.566 186.696 307.986 184.512V177.568L307.006 176.252V176.028L310.87 175.328V188.432L311.85 189.776V190H307.986V187.228C307.174 189.048 305.494 190.28 303.478 190.28ZM313.537 190V189.776L314.517 188.46V177.68L313.537 176.252V176.028L317.401 175.328V178.436C318.129 176.448 319.557 175.188 321.433 175.188C321.797 175.188 322.133 175.216 322.413 175.3L322.217 178.128C319.333 177.26 317.877 179.388 317.401 181.236V188.432L318.717 189.776V190H313.537ZM327.293 188.432L328.273 189.776V190H323.429V189.776L324.409 188.432V177.68L323.429 176.252V176.028L327.293 175.328V188.432ZM325.781 173.34C324.745 173.34 323.933 172.528 323.933 171.492C323.933 170.456 324.745 169.644 325.781 169.644C326.873 169.644 327.685 170.456 327.685 171.492C327.685 172.528 326.873 173.34 325.781 173.34ZM335.557 190.28C333.261 190.28 331.525 189.048 331.525 186.136V177.176H329.033V175.776C331.413 175.552 332.449 174.796 332.841 171.94H334.409V175.468L337.965 175.272L338.077 177.176H334.409V186.22C334.409 187.816 335.305 188.404 336.397 188.404C336.929 188.404 337.489 188.292 337.965 187.984L338.049 189.356C337.573 189.832 336.677 190.28 335.557 190.28ZM340.76 195.516C339.836 195.516 338.996 195.292 338.52 194.928L339.276 192.296C339.78 192.716 340.452 192.968 341.208 192.968C342.384 192.968 343.42 192.296 344.092 190.672L344.428 189.748L339.528 177.12L338.212 175.692V175.468H343.224L343.252 175.692L342.552 177.092L345.912 186.472L349.216 177.092L348.516 175.692L348.544 175.468H352.576V175.692L351.204 177.12L345.66 191.4C344.512 194.368 342.86 195.516 340.76 195.516ZM362.332 190.28C359.56 190.28 357.712 188.684 357.712 186.36C357.712 183.924 359.56 182.468 362.808 181.824L366.952 181.012V179.836C366.952 177.792 365.72 176.672 364.012 176.672C362.164 176.672 360.82 177.904 360.82 180.256L357.992 179.612C358.356 177.148 360.568 175.188 364.04 175.188C367.568 175.188 369.836 177.092 369.836 180.452V188.348L370.816 189.776V190H366.952V187.508C366.056 189.244 364.432 190.28 362.332 190.28ZM366.952 185.324V182.384L363.788 183.028C361.744 183.532 360.708 184.512 360.708 186.08C360.708 187.424 361.688 188.376 363.228 188.376C365.188 188.376 366.476 187.004 366.952 185.324ZM377.886 190.28C374.498 190.28 372.398 188.6 371.866 186.864L373.77 185.072H373.994C374.442 187.284 375.926 188.712 377.886 188.712C379.51 188.712 380.602 187.76 380.602 186.332C380.602 185.156 379.874 184.372 378.446 183.952L376.01 183.252C374.246 182.776 372.37 181.824 372.37 179.332C372.37 176.924 374.554 175.188 377.578 175.188C380.098 175.188 382.086 176.392 382.87 178.044L381.106 179.696L380.882 179.668C380.518 177.792 379.174 176.7 377.55 176.7C376.094 176.7 375.058 177.568 375.058 178.716C375.058 179.752 375.758 180.34 377.102 180.732L379.426 181.376C381.61 181.992 383.43 183.028 383.43 185.772C383.43 188.32 381.134 190.28 377.886 190.28ZM390.457 190.28C387.069 190.28 384.969 188.6 384.437 186.864L386.341 185.072H386.565C387.013 187.284 388.497 188.712 390.457 188.712C392.081 188.712 393.173 187.76 393.173 186.332C393.173 185.156 392.445 184.372 391.017 183.952L388.581 183.252C386.817 182.776 384.941 181.824 384.941 179.332C384.941 176.924 387.125 175.188 390.149 175.188C392.669 175.188 394.657 176.392 395.441 178.044L393.677 179.696L393.453 179.668C393.089 177.792 391.745 176.7 390.121 176.7C388.665 176.7 387.629 177.568 387.629 178.716C387.629 179.752 388.329 180.34 389.673 180.732L391.997 181.376C394.181 181.992 396.001 183.028 396.001 185.772C396.001 188.32 393.705 190.28 390.457 190.28ZM401.321 188.432L402.301 189.776V190H397.457V189.776L398.437 188.432V177.68L397.457 176.252V176.028L401.321 175.328V188.432ZM399.809 173.34C398.773 173.34 397.961 172.528 397.961 171.492C397.961 170.456 398.773 169.644 399.809 169.644C400.901 169.644 401.713 170.456 401.713 171.492C401.713 172.528 400.901 173.34 399.809 173.34ZM409.585 190.28C406.197 190.28 404.097 188.6 403.565 186.864L405.469 185.072H405.693C406.141 187.284 407.625 188.712 409.585 188.712C411.209 188.712 412.301 187.76 412.301 186.332C412.301 185.156 411.573 184.372 410.145 183.952L407.709 183.252C405.945 182.776 404.069 181.824 404.069 179.332C404.069 176.924 406.253 175.188 409.277 175.188C411.797 175.188 413.785 176.392 414.569 178.044L412.805 179.696L412.581 179.668C412.217 177.792 410.873 176.7 409.249 176.7C407.793 176.7 406.757 177.568 406.757 178.716C406.757 179.752 407.457 180.34 408.801 180.732L411.125 181.376C413.309 181.992 415.129 183.028 415.129 185.772C415.129 188.32 412.833 190.28 409.585 190.28ZM422.074 190.28C419.778 190.28 418.042 189.048 418.042 186.136V177.176H415.55V175.776C417.93 175.552 418.966 174.796 419.358 171.94H420.926V175.468L424.482 175.272L424.594 177.176H420.926V186.22C420.926 187.816 421.822 188.404 422.914 188.404C423.446 188.404 424.006 188.292 424.482 187.984L424.566 189.356C424.09 189.832 423.194 190.28 422.074 190.28ZM430.105 190.28C427.333 190.28 425.485 188.684 425.485 186.36C425.485 183.924 427.333 182.468 430.581 181.824L434.725 181.012V179.836C434.725 177.792 433.493 176.672 431.785 176.672C429.937 176.672 428.593 177.904 428.593 180.256L425.765 179.612C426.129 177.148 428.341 175.188 431.813 175.188C435.341 175.188 437.609 177.092 437.609 180.452V188.348L438.589 189.776V190H434.725V187.508C433.829 189.244 432.205 190.28 430.105 190.28ZM434.725 185.324V182.384L431.561 183.028C429.517 183.532 428.481 184.512 428.481 186.08C428.481 187.424 429.461 188.376 431.001 188.376C432.961 188.376 434.249 187.004 434.725 185.324ZM440.087 190V189.776L441.067 188.46V177.68L440.087 176.252V176.028L443.951 175.328V178.212C444.763 176.42 446.415 175.188 448.431 175.188C451.315 175.188 453.387 177.036 453.387 180.172V188.46L454.367 189.776V190H449.523V189.776L450.503 188.46V180.508C450.503 178.408 449.355 177.344 447.619 177.344C445.883 177.344 444.371 178.772 443.951 180.956V188.46L444.931 189.776V190H440.087ZM461.293 190.28C458.997 190.28 457.261 189.048 457.261 186.136V177.176H454.769V175.776C457.149 175.552 458.185 174.796 458.577 171.94H460.145V175.468L463.701 175.272L463.813 177.176H460.145V186.22C460.145 187.816 461.041 188.404 462.133 188.404C462.665 188.404 463.225 188.292 463.701 187.984L463.785 189.356C463.309 189.832 462.413 190.28 461.293 190.28ZM465.152 186.752H468.512V190H465.152V186.752Z" fill="#1F1F1F"/>
<circle cx="317" cy="40" r="40" fill="#FA6234"/>
<path fill-rule="evenodd" clip-rule="evenodd" d="M311.134 24.833C311.998 22.7466 312.443 20.5103 312.443 18.252H327.361C327.361 22.4694 326.53 26.6455 324.917 30.5418C324.29 32.0545 323.55 33.5133 322.705 34.9067C322.442 35.3406 323.002 35.9293 323.448 35.6885C328.092 33.1832 333.367 31.8787 338.739 31.8787V46.7967C334.178 46.7967 329.763 48.567 326.537 51.7921C323.836 54.4933 322.126 58.0007 321.642 61.7488H306.658C307.011 56.6098 308.594 51.6577 311.238 47.2976C311.501 46.8637 310.942 46.2749 310.495 46.5158C309.535 47.0337 308.548 47.5035 307.536 47.9225C303.64 49.5364 299.464 50.3671 295.246 50.3671L295.246 35.4491C297.504 35.4491 299.741 35.0043 301.827 34.14C303.914 33.2758 305.809 32.0091 307.406 30.4121C309.003 28.8153 310.27 26.9195 311.134 24.833Z" fill="white"/>
<g filter="url(#filter0_d_124_6968)">
<path d="M103 280C103 262.327 117.327 248 135 248H322C339.121 248 353 261.879 353 279V279C353 296.121 339.121 310 322 310H103V280Z" fill="url(#paint0_linear_124_6968)" shape-rendering="crispEdges"/>
<path d="M135 248.5H322C338.845 248.5 352.5 262.155 352.5 279C352.5 295.845 338.845 309.5 322 309.5H103.5V280C103.5 262.603 117.603 248.5 135 248.5Z" stroke="url(#paint1_linear_124_6968)" shape-rendering="crispEdges"/>
<path fill-rule="evenodd" clip-rule="evenodd" d="M132.845 273.421C133.163 272.653 133.326 271.831 133.326 271H138.814C138.814 272.551 138.509 274.088 137.915 275.521C137.685 276.077 137.412 276.614 137.101 277.126C137.005 277.286 137.211 277.502 137.375 277.414C139.083 276.492 141.024 276.012 143 276.012V281.5C141.322 281.5 139.698 282.151 138.511 283.337C137.518 284.331 136.889 285.621 136.71 287H131.198C131.328 285.11 131.91 283.288 132.883 281.684C132.98 281.525 132.774 281.308 132.61 281.397C132.257 281.587 131.893 281.76 131.521 281.914C130.088 282.508 128.551 282.813 127 282.813L127 277.326C127.831 277.326 128.653 277.162 129.421 276.844C130.189 276.526 130.886 276.06 131.473 275.473C132.061 274.886 132.527 274.188 132.845 273.421Z" fill="#E65C32"/>
<path d="M154.314 285V272.4H158.58C159.576 272.4 160.392 272.568 161.028 272.904C161.664 273.24 162.132 273.69 162.432 274.254C162.744 274.806 162.9 275.436 162.9 276.144C162.9 276.816 162.744 277.44 162.432 278.016C162.132 278.58 161.658 279.036 161.01 279.384C160.362 279.72 159.534 279.888 158.526 279.888H156.114V285H154.314ZM160.938 285L158.22 279.402H160.2L163.026 285H160.938ZM156.114 278.52H158.454C159.342 278.52 159.996 278.304 160.416 277.872C160.836 277.428 161.046 276.864 161.046 276.18C161.046 275.484 160.842 274.932 160.434 274.524C160.026 274.116 159.366 273.912 158.454 273.912H156.114V278.52ZM168.699 285.216C167.835 285.216 167.067 285.018 166.395 284.622C165.723 284.226 165.195 283.674 164.811 282.966C164.439 282.258 164.253 281.436 164.253 280.5C164.253 279.54 164.439 278.706 164.811 277.998C165.195 277.278 165.723 276.72 166.395 276.324C167.067 275.916 167.847 275.712 168.735 275.712C169.623 275.712 170.385 275.91 171.021 276.306C171.657 276.702 172.149 277.23 172.497 277.89C172.845 278.538 173.019 279.258 173.019 280.05C173.019 280.17 173.013 280.302 173.001 280.446C173.001 280.578 172.995 280.728 172.983 280.896H165.567V279.618H171.219C171.183 278.862 170.931 278.274 170.463 277.854C169.995 277.422 169.413 277.206 168.717 277.206C168.225 277.206 167.775 277.32 167.367 277.548C166.959 277.764 166.629 278.088 166.377 278.52C166.137 278.94 166.017 279.474 166.017 280.122V280.626C166.017 281.298 166.137 281.868 166.377 282.336C166.629 282.792 166.959 283.14 167.367 283.38C167.775 283.608 168.219 283.722 168.699 283.722C169.275 283.722 169.749 283.596 170.121 283.344C170.493 283.092 170.769 282.75 170.949 282.318H172.749C172.593 282.87 172.329 283.368 171.957 283.812C171.585 284.244 171.123 284.586 170.571 284.838C170.031 285.09 169.407 285.216 168.699 285.216ZM175.019 285V275.928H176.639L176.765 277.206C177.053 276.738 177.437 276.372 177.917 276.108C178.397 275.844 178.937 275.712 179.537 275.712C179.993 275.712 180.407 275.778 180.779 275.91C181.151 276.03 181.481 276.216 181.769 276.468C182.057 276.72 182.291 277.032 182.471 277.404C182.795 276.876 183.227 276.462 183.767 276.162C184.319 275.862 184.901 275.712 185.513 275.712C186.245 275.712 186.875 275.862 187.403 276.162C187.931 276.45 188.333 276.888 188.609 277.476C188.885 278.052 189.023 278.772 189.023 279.636V285H187.241V279.816C187.241 278.976 187.067 278.34 186.719 277.908C186.383 277.476 185.885 277.26 185.225 277.26C184.781 277.26 184.385 277.374 184.037 277.602C183.689 277.83 183.413 278.16 183.209 278.592C183.017 279.024 182.921 279.552 182.921 280.176V285H181.121V279.816C181.121 278.976 180.947 278.34 180.599 277.908C180.263 277.476 179.765 277.26 179.105 277.26C178.685 277.26 178.301 277.374 177.953 277.602C177.605 277.83 177.329 278.16 177.125 278.592C176.921 279.024 176.819 279.552 176.819 280.176V285H175.019ZM191.475 285V275.928H193.275V285H191.475ZM192.393 274.218C192.045 274.218 191.757 274.11 191.529 273.894C191.313 273.678 191.205 273.402 191.205 273.066C191.205 272.742 191.313 272.478 191.529 272.274C191.757 272.058 192.045 271.95 192.393 271.95C192.729 271.95 193.011 272.058 193.239 272.274C193.467 272.478 193.581 272.742 193.581 273.066C193.581 273.402 193.467 273.678 193.239 273.894C193.011 274.11 192.729 274.218 192.393 274.218ZM199.881 285.216C199.017 285.216 198.255 285.012 197.595 284.604C196.935 284.184 196.419 283.62 196.047 282.912C195.687 282.192 195.507 281.376 195.507 280.464C195.507 279.54 195.687 278.724 196.047 278.016C196.419 277.308 196.935 276.75 197.595 276.342C198.267 275.922 199.035 275.712 199.899 275.712C200.607 275.712 201.231 275.856 201.771 276.144C202.311 276.42 202.731 276.816 203.031 277.332V272.04H204.831V285H203.211L203.031 283.596C202.851 283.872 202.617 284.136 202.329 284.388C202.041 284.628 201.693 284.826 201.285 284.982C200.877 285.138 200.409 285.216 199.881 285.216ZM200.169 283.65C200.733 283.65 201.231 283.518 201.663 283.254C202.095 282.99 202.425 282.618 202.653 282.138C202.893 281.658 203.013 281.1 203.013 280.464C203.013 279.828 202.893 279.276 202.653 278.808C202.425 278.328 202.095 277.956 201.663 277.692C201.231 277.416 200.733 277.278 200.169 277.278C199.629 277.278 199.143 277.416 198.711 277.692C198.279 277.956 197.943 278.328 197.703 278.808C197.463 279.276 197.343 279.828 197.343 280.464C197.343 281.1 197.463 281.658 197.703 282.138C197.943 282.618 198.279 282.99 198.711 283.254C199.143 283.518 199.629 283.65 200.169 283.65ZM207.418 285V275.928H209.218V285H207.418ZM208.336 274.218C207.988 274.218 207.7 274.11 207.472 273.894C207.256 273.678 207.148 273.402 207.148 273.066C207.148 272.742 207.256 272.478 207.472 272.274C207.7 272.058 207.988 271.95 208.336 271.95C208.672 271.95 208.954 272.058 209.182 272.274C209.41 272.478 209.524 272.742 209.524 273.066C209.524 273.402 209.41 273.678 209.182 273.894C208.954 274.11 208.672 274.218 208.336 274.218ZM214.798 285.216C214.054 285.216 213.436 285.09 212.944 284.838C212.452 284.586 212.086 284.25 211.846 283.83C211.606 283.398 211.486 282.936 211.486 282.444C211.486 281.844 211.642 281.334 211.954 280.914C212.266 280.482 212.71 280.152 213.286 279.924C213.862 279.696 214.552 279.582 215.356 279.582H217.714C217.714 279.054 217.636 278.616 217.48 278.268C217.324 277.92 217.09 277.662 216.778 277.494C216.478 277.314 216.094 277.224 215.626 277.224C215.086 277.224 214.624 277.356 214.24 277.62C213.856 277.872 213.616 278.25 213.52 278.754H211.72C211.792 278.118 212.008 277.578 212.368 277.134C212.74 276.678 213.214 276.33 213.79 276.09C214.366 275.838 214.978 275.712 215.626 275.712C216.478 275.712 217.192 275.862 217.768 276.162C218.344 276.462 218.776 276.888 219.064 277.44C219.364 277.98 219.514 278.628 219.514 279.384V285H217.948L217.804 283.47C217.672 283.71 217.516 283.938 217.336 284.154C217.156 284.37 216.94 284.556 216.688 284.712C216.448 284.868 216.166 284.988 215.842 285.072C215.53 285.168 215.182 285.216 214.798 285.216ZM215.14 283.758C215.524 283.758 215.872 283.68 216.184 283.524C216.496 283.368 216.76 283.158 216.976 282.894C217.204 282.618 217.372 282.312 217.48 281.976C217.6 281.628 217.666 281.274 217.678 280.914V280.86H215.536C215.02 280.86 214.6 280.926 214.276 281.058C213.964 281.178 213.736 281.346 213.592 281.562C213.448 281.778 213.376 282.03 213.376 282.318C213.376 282.618 213.442 282.876 213.574 283.092C213.718 283.296 213.922 283.458 214.186 283.578C214.45 283.698 214.768 283.758 215.14 283.758ZM225.363 285C224.787 285 224.289 284.91 223.869 284.73C223.449 284.55 223.125 284.25 222.897 283.83C222.669 283.41 222.555 282.84 222.555 282.12V277.458H220.989V275.928H222.555L222.771 273.66H224.355V275.928H226.929V277.458H224.355V282.138C224.355 282.654 224.463 283.008 224.679 283.2C224.895 283.38 225.267 283.47 225.795 283.47H226.839V285H225.363ZM232.771 285.216C231.907 285.216 231.139 285.018 230.467 284.622C229.795 284.226 229.267 283.674 228.883 282.966C228.511 282.258 228.325 281.436 228.325 280.5C228.325 279.54 228.511 278.706 228.883 277.998C229.267 277.278 229.795 276.72 230.467 276.324C231.139 275.916 231.919 275.712 232.807 275.712C233.695 275.712 234.457 275.91 235.093 276.306C235.729 276.702 236.221 277.23 236.569 277.89C236.917 278.538 237.091 279.258 237.091 280.05C237.091 280.17 237.085 280.302 237.073 280.446C237.073 280.578 237.067 280.728 237.055 280.896H229.639V279.618H235.291C235.255 278.862 235.003 278.274 234.535 277.854C234.067 277.422 233.485 277.206 232.789 277.206C232.297 277.206 231.847 277.32 231.439 277.548C231.031 277.764 230.701 278.088 230.449 278.52C230.209 278.94 230.089 279.474 230.089 280.122V280.626C230.089 281.298 230.209 281.868 230.449 282.336C230.701 282.792 231.031 283.14 231.439 283.38C231.847 283.608 232.291 283.722 232.771 283.722C233.347 283.722 233.821 283.596 234.193 283.344C234.565 283.092 234.841 282.75 235.021 282.318H236.821C236.665 282.87 236.401 283.368 236.029 283.812C235.657 284.244 235.195 284.586 234.643 284.838C234.103 285.09 233.479 285.216 232.771 285.216ZM247.729 285.216C246.865 285.216 246.103 285.012 245.443 284.604C244.783 284.184 244.267 283.62 243.895 282.912C243.535 282.192 243.355 281.376 243.355 280.464C243.355 279.54 243.535 278.724 243.895 278.016C244.267 277.308 244.783 276.75 245.443 276.342C246.115 275.922 246.883 275.712 247.747 275.712C248.455 275.712 249.079 275.856 249.619 276.144C250.159 276.42 250.579 276.816 250.879 277.332V272.04H252.679V285H251.059L250.879 283.596C250.699 283.872 250.465 284.136 250.177 284.388C249.889 284.628 249.541 284.826 249.133 284.982C248.725 285.138 248.257 285.216 247.729 285.216ZM248.017 283.65C248.581 283.65 249.079 283.518 249.511 283.254C249.943 282.99 250.273 282.618 250.501 282.138C250.741 281.658 250.861 281.1 250.861 280.464C250.861 279.828 250.741 279.276 250.501 278.808C250.273 278.328 249.943 277.956 249.511 277.692C249.079 277.416 248.581 277.278 248.017 277.278C247.477 277.278 246.991 277.416 246.559 277.692C246.127 277.956 245.791 278.328 245.551 278.808C245.311 279.276 245.191 279.828 245.191 280.464C245.191 281.1 245.311 281.658 245.551 282.138C245.791 282.618 246.127 282.99 246.559 283.254C246.991 283.518 247.477 283.65 248.017 283.65ZM258.146 285.216C257.402 285.216 256.784 285.09 256.292 284.838C255.8 284.586 255.434 284.25 255.194 283.83C254.954 283.398 254.834 282.936 254.834 282.444C254.834 281.844 254.99 281.334 255.302 280.914C255.614 280.482 256.058 280.152 256.634 279.924C257.21 279.696 257.9 279.582 258.704 279.582H261.062C261.062 279.054 260.984 278.616 260.828 278.268C260.672 277.92 260.438 277.662 260.126 277.494C259.826 277.314 259.442 277.224 258.974 277.224C258.434 277.224 257.972 277.356 257.588 277.62C257.204 277.872 256.964 278.25 256.868 278.754H255.068C255.14 278.118 255.356 277.578 255.716 277.134C256.088 276.678 256.562 276.33 257.138 276.09C257.714 275.838 258.326 275.712 258.974 275.712C259.826 275.712 260.54 275.862 261.116 276.162C261.692 276.462 262.124 276.888 262.412 277.44C262.712 277.98 262.862 278.628 262.862 279.384V285H261.296L261.152 283.47C261.02 283.71 260.864 283.938 260.684 284.154C260.504 284.37 260.288 284.556 260.036 284.712C259.796 284.868 259.514 284.988 259.19 285.072C258.878 285.168 258.53 285.216 258.146 285.216ZM258.488 283.758C258.872 283.758 259.22 283.68 259.532 283.524C259.844 283.368 260.108 283.158 260.324 282.894C260.552 282.618 260.72 282.312 260.828 281.976C260.948 281.628 261.014 281.274 261.026 280.914V280.86H258.884C258.368 280.86 257.948 280.926 257.624 281.058C257.312 281.178 257.084 281.346 256.94 281.562C256.796 281.778 256.724 282.03 256.724 282.318C256.724 282.618 256.79 282.876 256.922 283.092C257.066 283.296 257.27 283.458 257.534 283.578C257.798 283.698 258.116 283.758 258.488 283.758ZM268.71 285C268.134 285 267.636 284.91 267.216 284.73C266.796 284.55 266.472 284.25 266.244 283.83C266.016 283.41 265.902 282.84 265.902 282.12V277.458H264.336V275.928H265.902L266.118 273.66H267.702V275.928H270.276V277.458H267.702V282.138C267.702 282.654 267.81 283.008 268.026 283.2C268.242 283.38 268.614 283.47 269.142 283.47H270.186V285H268.71ZM275.267 285.216C274.523 285.216 273.905 285.09 273.413 284.838C272.921 284.586 272.555 284.25 272.315 283.83C272.075 283.398 271.955 282.936 271.955 282.444C271.955 281.844 272.111 281.334 272.423 280.914C272.735 280.482 273.179 280.152 273.755 279.924C274.331 279.696 275.021 279.582 275.825 279.582H278.183C278.183 279.054 278.105 278.616 277.949 278.268C277.793 277.92 277.559 277.662 277.247 277.494C276.947 277.314 276.563 277.224 276.095 277.224C275.555 277.224 275.093 277.356 274.709 277.62C274.325 277.872 274.085 278.25 273.989 278.754H272.189C272.261 278.118 272.477 277.578 272.837 277.134C273.209 276.678 273.683 276.33 274.259 276.09C274.835 275.838 275.447 275.712 276.095 275.712C276.947 275.712 277.661 275.862 278.237 276.162C278.813 276.462 279.245 276.888 279.533 277.44C279.833 277.98 279.983 278.628 279.983 279.384V285H278.417L278.273 283.47C278.141 283.71 277.985 283.938 277.805 284.154C277.625 284.37 277.409 284.556 277.157 284.712C276.917 284.868 276.635 284.988 276.311 285.072C275.999 285.168 275.651 285.216 275.267 285.216ZM275.609 283.758C275.993 283.758 276.341 283.68 276.653 283.524C276.965 283.368 277.229 283.158 277.445 282.894C277.673 282.618 277.841 282.312 277.949 281.976C278.069 281.628 278.135 281.274 278.147 280.914V280.86H276.005C275.489 280.86 275.069 280.926 274.745 281.058C274.433 281.178 274.205 281.346 274.061 281.562C273.917 281.778 273.845 282.03 273.845 282.318C273.845 282.618 273.911 282.876 274.043 283.092C274.187 283.296 274.391 283.458 274.655 283.578C274.919 283.698 275.237 283.758 275.609 283.758ZM286.886 285V272.04H288.686V285H286.886ZM295.262 285.216C294.398 285.216 293.63 285.018 292.958 284.622C292.286 284.226 291.758 283.674 291.374 282.966C291.002 282.258 290.816 281.436 290.816 280.5C290.816 279.54 291.002 278.706 291.374 277.998C291.758 277.278 292.286 276.72 292.958 276.324C293.63 275.916 294.41 275.712 295.298 275.712C296.186 275.712 296.948 275.91 297.584 276.306C298.22 276.702 298.712 277.23 299.06 277.89C299.408 278.538 299.582 279.258 299.582 280.05C299.582 280.17 299.576 280.302 299.564 280.446C299.564 280.578 299.558 280.728 299.546 280.896H292.13V279.618H297.782C297.746 278.862 297.494 278.274 297.026 277.854C296.558 277.422 295.976 277.206 295.28 277.206C294.788 277.206 294.338 277.32 293.93 277.548C293.522 277.764 293.192 278.088 292.94 278.52C292.7 278.94 292.58 279.474 292.58 280.122V280.626C292.58 281.298 292.7 281.868 292.94 282.336C293.192 282.792 293.522 283.14 293.93 283.38C294.338 283.608 294.782 283.722 295.262 283.722C295.838 283.722 296.312 283.596 296.684 283.344C297.056 283.092 297.332 282.75 297.512 282.318H299.312C299.156 282.87 298.892 283.368 298.52 283.812C298.148 284.244 297.686 284.586 297.134 284.838C296.594 285.09 295.97 285.216 295.262 285.216ZM304.587 285.216C303.843 285.216 303.225 285.09 302.733 284.838C302.241 284.586 301.875 284.25 301.635 283.83C301.395 283.398 301.275 282.936 301.275 282.444C301.275 281.844 301.431 281.334 301.743 280.914C302.055 280.482 302.499 280.152 303.075 279.924C303.651 279.696 304.341 279.582 305.145 279.582H307.503C307.503 279.054 307.425 278.616 307.269 278.268C307.113 277.92 306.879 277.662 306.567 277.494C306.267 277.314 305.883 277.224 305.415 277.224C304.875 277.224 304.413 277.356 304.029 277.62C303.645 277.872 303.405 278.25 303.309 278.754H301.509C301.581 278.118 301.797 277.578 302.157 277.134C302.529 276.678 303.003 276.33 303.579 276.09C304.155 275.838 304.767 275.712 305.415 275.712C306.267 275.712 306.981 275.862 307.557 276.162C308.133 276.462 308.565 276.888 308.853 277.44C309.153 277.98 309.303 278.628 309.303 279.384V285H307.737L307.593 283.47C307.461 283.71 307.305 283.938 307.125 284.154C306.945 284.37 306.729 284.556 306.477 284.712C306.237 284.868 305.955 284.988 305.631 285.072C305.319 285.168 304.971 285.216 304.587 285.216ZM304.929 283.758C305.313 283.758 305.661 283.68 305.973 283.524C306.285 283.368 306.549 283.158 306.765 282.894C306.993 282.618 307.161 282.312 307.269 281.976C307.389 281.628 307.455 281.274 307.467 280.914V280.86H305.325C304.809 280.86 304.389 280.926 304.065 281.058C303.753 281.178 303.525 281.346 303.381 281.562C303.237 281.778 303.165 282.03 303.165 282.318C303.165 282.618 303.231 282.876 303.363 283.092C303.507 283.296 303.711 283.458 303.975 283.578C304.239 283.698 304.557 283.758 304.929 283.758ZM317.307 285L313.131 280.032L316.911 275.928H319.089L314.589 280.734V279.384L319.575 285H317.307ZM311.601 285V272.04H313.401V285H311.601ZM324.111 285.216C323.343 285.216 322.671 285.09 322.095 284.838C321.519 284.586 321.063 284.232 320.727 283.776C320.391 283.32 320.187 282.786 320.115 282.174H321.951C322.011 282.462 322.125 282.726 322.293 282.966C322.473 283.206 322.713 283.398 323.013 283.542C323.325 283.686 323.691 283.758 324.111 283.758C324.507 283.758 324.831 283.704 325.083 283.596C325.347 283.476 325.539 283.32 325.659 283.128C325.779 282.924 325.839 282.708 325.839 282.48C325.839 282.144 325.755 281.892 325.587 281.724C325.431 281.544 325.191 281.406 324.867 281.31C324.555 281.202 324.177 281.106 323.733 281.022C323.313 280.95 322.905 280.854 322.509 280.734C322.125 280.602 321.777 280.44 321.465 280.248C321.165 280.056 320.925 279.816 320.745 279.528C320.565 279.228 320.475 278.862 320.475 278.43C320.475 277.914 320.613 277.452 320.889 277.044C321.165 276.624 321.555 276.3 322.059 276.072C322.575 275.832 323.181 275.712 323.877 275.712C324.885 275.712 325.695 275.952 326.307 276.432C326.919 276.912 327.279 277.59 327.387 278.466H325.641C325.593 278.058 325.413 277.746 325.101 277.53C324.789 277.302 324.375 277.188 323.859 277.188C323.343 277.188 322.947 277.29 322.671 277.494C322.395 277.698 322.257 277.968 322.257 278.304C322.257 278.52 322.335 278.712 322.491 278.88C322.647 279.048 322.875 279.192 323.175 279.312C323.487 279.42 323.865 279.522 324.309 279.618C324.945 279.738 325.515 279.888 326.019 280.068C326.523 280.248 326.925 280.512 327.225 280.86C327.525 281.208 327.675 281.706 327.675 282.354C327.687 282.918 327.543 283.416 327.243 283.848C326.955 284.28 326.541 284.616 326.001 284.856C325.473 285.096 324.843 285.216 324.111 285.216Z" fill="#12110D"/>
</g>
<g filter="url(#filter1_d_124_6968)">
<path d="M373 280C373 262.327 387.327 248 405 248H603C620.121 248 634 261.879 634 279V279C634 296.121 620.121 310 603 310H373V280Z" fill="url(#paint2_linear_124_6968)" shape-rendering="crispEdges"/>
<path d="M405 248.5H603C619.845 248.5 633.5 262.155 633.5 279C633.5 295.845 619.845 309.5 603 309.5H373.5V280C373.5 262.603 387.603 248.5 405 248.5Z" stroke="url(#paint3_linear_124_6968)" shape-rendering="crispEdges"/>
<path fill-rule="evenodd" clip-rule="evenodd" d="M402.845 273.421C403.163 272.653 403.326 271.831 403.326 271H408.814C408.814 272.551 408.509 274.088 407.915 275.521C407.685 276.077 407.412 276.614 407.101 277.126C407.005 277.286 407.211 277.502 407.375 277.414C409.083 276.492 411.024 276.012 413 276.012V281.5C411.322 281.5 409.698 282.151 408.511 283.337C407.518 284.331 406.889 285.621 406.71 287H401.198C401.328 285.11 401.91 283.288 402.883 281.684C402.98 281.525 402.774 281.308 402.61 281.397C402.257 281.587 401.893 281.76 401.521 281.914C400.088 282.508 398.551 282.813 397 282.813L397 277.326C397.831 277.326 398.653 277.162 399.421 276.844C400.189 276.526 400.886 276.06 401.473 275.473C402.061 274.886 402.527 274.188 402.845 273.421Z" fill="#E65C32"/>
<path d="M429.84 285.216C428.604 285.216 427.536 284.946 426.636 284.406C425.748 283.854 425.058 283.092 424.566 282.12C424.086 281.136 423.846 279.996 423.846 278.7C423.846 277.416 424.086 276.282 424.566 275.298C425.058 274.314 425.748 273.552 426.636 273.012C427.536 272.46 428.604 272.184 429.84 272.184C431.316 272.184 432.51 272.538 433.422 273.246C434.346 273.954 434.934 274.95 435.186 276.234H433.206C433.026 275.49 432.654 274.896 432.09 274.452C431.538 274.008 430.788 273.786 429.84 273.786C428.988 273.786 428.25 273.984 427.626 274.38C427.002 274.776 426.522 275.34 426.186 276.072C425.85 276.804 425.682 277.68 425.682 278.7C425.682 279.72 425.85 280.602 426.186 281.346C426.522 282.078 427.002 282.642 427.626 283.038C428.25 283.422 428.988 283.614 429.84 283.614C430.788 283.614 431.538 283.404 432.09 282.984C432.654 282.552 433.026 281.97 433.206 281.238H435.186C434.934 282.486 434.346 283.464 433.422 284.172C432.51 284.868 431.316 285.216 429.84 285.216ZM440.255 285.216C439.511 285.216 438.893 285.09 438.401 284.838C437.909 284.586 437.543 284.25 437.303 283.83C437.063 283.398 436.943 282.936 436.943 282.444C436.943 281.844 437.099 281.334 437.411 280.914C437.723 280.482 438.167 280.152 438.743 279.924C439.319 279.696 440.009 279.582 440.813 279.582H443.171C443.171 279.054 443.093 278.616 442.937 278.268C442.781 277.92 442.547 277.662 442.235 277.494C441.935 277.314 441.551 277.224 441.083 277.224C440.543 277.224 440.081 277.356 439.697 277.62C439.313 277.872 439.073 278.25 438.977 278.754H437.177C437.249 278.118 437.465 277.578 437.825 277.134C438.197 276.678 438.671 276.33 439.247 276.09C439.823 275.838 440.435 275.712 441.083 275.712C441.935 275.712 442.649 275.862 443.225 276.162C443.801 276.462 444.233 276.888 444.521 277.44C444.821 277.98 444.971 278.628 444.971 279.384V285H443.405L443.261 283.47C443.129 283.71 442.973 283.938 442.793 284.154C442.613 284.37 442.397 284.556 442.145 284.712C441.905 284.868 441.623 284.988 441.299 285.072C440.987 285.168 440.639 285.216 440.255 285.216ZM440.597 283.758C440.981 283.758 441.329 283.68 441.641 283.524C441.953 283.368 442.217 283.158 442.433 282.894C442.661 282.618 442.829 282.312 442.937 281.976C443.057 281.628 443.123 281.274 443.135 280.914V280.86H440.993C440.477 280.86 440.057 280.926 439.733 281.058C439.421 281.178 439.193 281.346 439.049 281.562C438.905 281.778 438.833 282.03 438.833 282.318C438.833 282.618 438.899 282.876 439.031 283.092C439.175 283.296 439.379 283.458 439.643 283.578C439.907 283.698 440.225 283.758 440.597 283.758ZM447.269 285V272.04H449.069V285H447.269ZM455.734 285.216C454.858 285.216 454.078 285.018 453.394 284.622C452.71 284.214 452.17 283.656 451.774 282.948C451.39 282.24 451.198 281.418 451.198 280.482C451.198 279.534 451.39 278.706 451.774 277.998C452.17 277.278 452.71 276.72 453.394 276.324C454.078 275.916 454.858 275.712 455.734 275.712C456.838 275.712 457.762 276 458.506 276.576C459.25 277.152 459.724 277.932 459.928 278.916H458.056C457.936 278.388 457.66 277.98 457.228 277.692C456.808 277.404 456.304 277.26 455.716 277.26C455.236 277.26 454.792 277.386 454.384 277.638C453.976 277.878 453.646 278.238 453.394 278.718C453.154 279.186 453.034 279.768 453.034 280.464C453.034 280.98 453.106 281.442 453.25 281.85C453.394 282.246 453.586 282.582 453.826 282.858C454.078 283.134 454.366 283.344 454.69 283.488C455.014 283.62 455.356 283.686 455.716 283.686C456.112 283.686 456.466 283.626 456.778 283.506C457.102 283.374 457.372 283.182 457.588 282.93C457.816 282.678 457.972 282.378 458.056 282.03H459.928C459.724 282.99 459.25 283.764 458.506 284.352C457.762 284.928 456.838 285.216 455.734 285.216ZM465.365 285.216C464.657 285.216 464.039 285.072 463.511 284.784C462.995 284.496 462.593 284.064 462.305 283.488C462.029 282.912 461.891 282.186 461.891 281.31V275.928H463.691V281.112C463.691 281.964 463.877 282.606 464.249 283.038C464.621 283.47 465.155 283.686 465.851 283.686C466.319 283.686 466.739 283.572 467.111 283.344C467.495 283.116 467.795 282.786 468.011 282.354C468.227 281.922 468.335 281.394 468.335 280.77V275.928H470.135V285H468.533L468.407 283.452C468.131 284.004 467.729 284.436 467.201 284.748C466.673 285.06 466.061 285.216 465.365 285.216ZM472.599 285V272.04H474.399V285H472.599ZM479.876 285.216C479.132 285.216 478.514 285.09 478.022 284.838C477.53 284.586 477.164 284.25 476.924 283.83C476.684 283.398 476.564 282.936 476.564 282.444C476.564 281.844 476.72 281.334 477.032 280.914C477.344 280.482 477.788 280.152 478.364 279.924C478.94 279.696 479.63 279.582 480.434 279.582H482.792C482.792 279.054 482.714 278.616 482.558 278.268C482.402 277.92 482.168 277.662 481.856 277.494C481.556 277.314 481.172 277.224 480.704 277.224C480.164 277.224 479.702 277.356 479.318 277.62C478.934 277.872 478.694 278.25 478.598 278.754H476.798C476.87 278.118 477.086 277.578 477.446 277.134C477.818 276.678 478.292 276.33 478.868 276.09C479.444 275.838 480.056 275.712 480.704 275.712C481.556 275.712 482.27 275.862 482.846 276.162C483.422 276.462 483.854 276.888 484.142 277.44C484.442 277.98 484.592 278.628 484.592 279.384V285H483.026L482.882 283.47C482.75 283.71 482.594 283.938 482.414 284.154C482.234 284.37 482.018 284.556 481.766 284.712C481.526 284.868 481.244 284.988 480.92 285.072C480.608 285.168 480.26 285.216 479.876 285.216ZM480.218 283.758C480.602 283.758 480.95 283.68 481.262 283.524C481.574 283.368 481.838 283.158 482.054 282.894C482.282 282.618 482.45 282.312 482.558 281.976C482.678 281.628 482.744 281.274 482.756 280.914V280.86H480.614C480.098 280.86 479.678 280.926 479.354 281.058C479.042 281.178 478.814 281.346 478.67 281.562C478.526 281.778 478.454 282.03 478.454 282.318C478.454 282.618 478.52 282.876 478.652 283.092C478.796 283.296 479 283.458 479.264 283.578C479.528 283.698 479.846 283.758 480.218 283.758ZM490.441 285C489.865 285 489.367 284.91 488.947 284.73C488.527 284.55 488.203 284.25 487.975 283.83C487.747 283.41 487.633 282.84 487.633 282.12V277.458H486.067V275.928H487.633L487.849 273.66H489.433V275.928H492.007V277.458H489.433V282.138C489.433 282.654 489.541 283.008 489.757 283.2C489.973 283.38 490.345 283.47 490.873 283.47H491.917V285H490.441ZM497.849 285.216C496.985 285.216 496.217 285.018 495.545 284.622C494.873 284.226 494.345 283.674 493.961 282.966C493.589 282.258 493.403 281.436 493.403 280.5C493.403 279.54 493.589 278.706 493.961 277.998C494.345 277.278 494.873 276.72 495.545 276.324C496.217 275.916 496.997 275.712 497.885 275.712C498.773 275.712 499.535 275.91 500.171 276.306C500.807 276.702 501.299 277.23 501.647 277.89C501.995 278.538 502.169 279.258 502.169 280.05C502.169 280.17 502.163 280.302 502.151 280.446C502.151 280.578 502.145 280.728 502.133 280.896H494.717V279.618H500.369C500.333 278.862 500.081 278.274 499.613 277.854C499.145 277.422 498.563 277.206 497.867 277.206C497.375 277.206 496.925 277.32 496.517 277.548C496.109 277.764 495.779 278.088 495.527 278.52C495.287 278.94 495.167 279.474 495.167 280.122V280.626C495.167 281.298 495.287 281.868 495.527 282.336C495.779 282.792 496.109 283.14 496.517 283.38C496.925 283.608 497.369 283.722 497.849 283.722C498.425 283.722 498.899 283.596 499.271 283.344C499.643 283.092 499.919 282.75 500.099 282.318H501.899C501.743 282.87 501.479 283.368 501.107 283.812C500.735 284.244 500.273 284.586 499.721 284.838C499.181 285.09 498.557 285.216 497.849 285.216ZM513.725 285.216C513.233 285.216 512.783 285.144 512.375 285C511.979 284.868 511.631 284.682 511.331 284.442C511.031 284.202 510.779 283.926 510.575 283.614L510.395 285H508.775V272.04H510.575V277.35C510.863 276.894 511.265 276.51 511.781 276.198C512.309 275.874 512.957 275.712 513.725 275.712C514.589 275.712 515.351 275.922 516.011 276.342C516.671 276.75 517.181 277.314 517.541 278.034C517.913 278.742 518.099 279.558 518.099 280.482C518.099 281.382 517.913 282.192 517.541 282.912C517.181 283.632 516.671 284.196 516.011 284.604C515.351 285.012 514.589 285.216 513.725 285.216ZM513.437 283.65C513.989 283.65 514.475 283.518 514.895 283.254C515.327 282.99 515.663 282.618 515.903 282.138C516.155 281.658 516.281 281.1 516.281 280.464C516.281 279.828 516.155 279.276 515.903 278.808C515.663 278.328 515.327 277.956 514.895 277.692C514.475 277.416 513.989 277.278 513.437 277.278C512.873 277.278 512.375 277.416 511.943 277.692C511.523 277.956 511.193 278.328 510.953 278.808C510.713 279.276 510.593 279.828 510.593 280.464C510.593 281.1 510.713 281.658 510.953 282.138C511.193 282.618 511.523 282.99 511.943 283.254C512.375 283.518 512.873 283.65 513.437 283.65ZM520.201 285V275.928H521.821L521.983 277.638C522.187 277.23 522.451 276.888 522.775 276.612C523.099 276.324 523.477 276.102 523.909 275.946C524.353 275.79 524.857 275.712 525.421 275.712V277.62H524.773C524.401 277.62 524.047 277.668 523.711 277.764C523.375 277.848 523.075 277.998 522.811 278.214C522.559 278.43 522.361 278.724 522.217 279.096C522.073 279.468 522.001 279.93 522.001 280.482V285H520.201ZM530.914 285.216C530.05 285.216 529.282 285.018 528.61 284.622C527.938 284.226 527.41 283.674 527.026 282.966C526.654 282.258 526.468 281.436 526.468 280.5C526.468 279.54 526.654 278.706 527.026 277.998C527.41 277.278 527.938 276.72 528.61 276.324C529.282 275.916 530.062 275.712 530.95 275.712C531.838 275.712 532.6 275.91 533.236 276.306C533.872 276.702 534.364 277.23 534.712 277.89C535.06 278.538 535.234 279.258 535.234 280.05C535.234 280.17 535.228 280.302 535.216 280.446C535.216 280.578 535.21 280.728 535.198 280.896H527.782V279.618H533.434C533.398 278.862 533.146 278.274 532.678 277.854C532.21 277.422 531.628 277.206 530.932 277.206C530.44 277.206 529.99 277.32 529.582 277.548C529.174 277.764 528.844 278.088 528.592 278.52C528.352 278.94 528.232 279.474 528.232 280.122V280.626C528.232 281.298 528.352 281.868 528.592 282.336C528.844 282.792 529.174 283.14 529.582 283.38C529.99 283.608 530.434 283.722 530.914 283.722C531.49 283.722 531.964 283.596 532.336 283.344C532.708 283.092 532.984 282.75 533.164 282.318H534.964C534.808 282.87 534.544 283.368 534.172 283.812C533.8 284.244 533.338 284.586 532.786 284.838C532.246 285.09 531.622 285.216 530.914 285.216ZM540.24 285.216C539.496 285.216 538.878 285.09 538.386 284.838C537.894 284.586 537.528 284.25 537.288 283.83C537.048 283.398 536.928 282.936 536.928 282.444C536.928 281.844 537.084 281.334 537.396 280.914C537.708 280.482 538.152 280.152 538.728 279.924C539.304 279.696 539.994 279.582 540.798 279.582H543.156C543.156 279.054 543.078 278.616 542.922 278.268C542.766 277.92 542.532 277.662 542.22 277.494C541.92 277.314 541.536 277.224 541.068 277.224C540.528 277.224 540.066 277.356 539.682 277.62C539.298 277.872 539.058 278.25 538.962 278.754H537.162C537.234 278.118 537.45 277.578 537.81 277.134C538.182 276.678 538.656 276.33 539.232 276.09C539.808 275.838 540.42 275.712 541.068 275.712C541.92 275.712 542.634 275.862 543.21 276.162C543.786 276.462 544.218 276.888 544.506 277.44C544.806 277.98 544.956 278.628 544.956 279.384V285H543.39L543.246 283.47C543.114 283.71 542.958 283.938 542.778 284.154C542.598 284.37 542.382 284.556 542.13 284.712C541.89 284.868 541.608 284.988 541.284 285.072C540.972 285.168 540.624 285.216 540.24 285.216ZM540.582 283.758C540.966 283.758 541.314 283.68 541.626 283.524C541.938 283.368 542.202 283.158 542.418 282.894C542.646 282.618 542.814 282.312 542.922 281.976C543.042 281.628 543.108 281.274 543.12 280.914V280.86H540.978C540.462 280.86 540.042 280.926 539.718 281.058C539.406 281.178 539.178 281.346 539.034 281.562C538.89 281.778 538.818 282.03 538.818 282.318C538.818 282.618 538.884 282.876 539.016 283.092C539.16 283.296 539.364 283.458 539.628 283.578C539.892 283.698 540.21 283.758 540.582 283.758ZM551.447 285.216C550.571 285.216 549.791 285.018 549.107 284.622C548.423 284.214 547.883 283.656 547.487 282.948C547.103 282.24 546.911 281.418 546.911 280.482C546.911 279.534 547.103 278.706 547.487 277.998C547.883 277.278 548.423 276.72 549.107 276.324C549.791 275.916 550.571 275.712 551.447 275.712C552.551 275.712 553.475 276 554.219 276.576C554.963 277.152 555.437 277.932 555.641 278.916H553.769C553.649 278.388 553.373 277.98 552.941 277.692C552.521 277.404 552.017 277.26 551.429 277.26C550.949 277.26 550.505 277.386 550.097 277.638C549.689 277.878 549.359 278.238 549.107 278.718C548.867 279.186 548.747 279.768 548.747 280.464C548.747 280.98 548.819 281.442 548.963 281.85C549.107 282.246 549.299 282.582 549.539 282.858C549.791 283.134 550.079 283.344 550.403 283.488C550.727 283.62 551.069 283.686 551.429 283.686C551.825 283.686 552.179 283.626 552.491 283.506C552.815 283.374 553.085 283.182 553.301 282.93C553.529 282.678 553.685 282.378 553.769 282.03H555.641C555.437 282.99 554.963 283.764 554.219 284.352C553.475 284.928 552.551 285.216 551.447 285.216ZM557.747 285V272.04H559.547V277.404C559.847 276.876 560.261 276.462 560.789 276.162C561.329 275.862 561.923 275.712 562.571 275.712C563.291 275.712 563.909 275.862 564.425 276.162C564.941 276.45 565.337 276.888 565.613 277.476C565.889 278.052 566.027 278.778 566.027 279.654V285H564.245V279.834C564.245 278.994 564.065 278.358 563.705 277.926C563.345 277.482 562.811 277.26 562.103 277.26C561.623 277.26 561.191 277.374 560.807 277.602C560.423 277.83 560.117 278.166 559.889 278.61C559.661 279.042 559.547 279.57 559.547 280.194V285H557.747ZM577.129 285.216C576.253 285.216 575.473 285.018 574.789 284.622C574.105 284.214 573.565 283.656 573.169 282.948C572.785 282.24 572.593 281.418 572.593 280.482C572.593 279.534 572.785 278.706 573.169 277.998C573.565 277.278 574.105 276.72 574.789 276.324C575.473 275.916 576.253 275.712 577.129 275.712C578.233 275.712 579.157 276 579.901 276.576C580.645 277.152 581.119 277.932 581.323 278.916H579.451C579.331 278.388 579.055 277.98 578.623 277.692C578.203 277.404 577.699 277.26 577.111 277.26C576.631 277.26 576.187 277.386 575.779 277.638C575.371 277.878 575.041 278.238 574.789 278.718C574.549 279.186 574.429 279.768 574.429 280.464C574.429 280.98 574.501 281.442 574.645 281.85C574.789 282.246 574.981 282.582 575.221 282.858C575.473 283.134 575.761 283.344 576.085 283.488C576.409 283.62 576.751 283.686 577.111 283.686C577.507 283.686 577.861 283.626 578.173 283.506C578.497 283.374 578.767 283.182 578.983 282.93C579.211 282.678 579.367 282.378 579.451 282.03H581.323C581.119 282.99 580.645 283.764 579.901 284.352C579.157 284.928 578.233 285.216 577.129 285.216ZM587.569 285.216C586.717 285.216 585.949 285.018 585.265 284.622C584.593 284.226 584.059 283.674 583.663 282.966C583.279 282.246 583.087 281.418 583.087 280.482C583.087 279.522 583.285 278.688 583.681 277.98C584.077 277.26 584.617 276.702 585.301 276.306C585.985 275.91 586.753 275.712 587.605 275.712C588.469 275.712 589.237 275.91 589.909 276.306C590.581 276.702 591.109 277.254 591.493 277.962C591.889 278.67 592.087 279.504 592.087 280.464C592.087 281.424 591.889 282.258 591.493 282.966C591.109 283.674 590.575 284.226 589.891 284.622C589.207 285.018 588.433 285.216 587.569 285.216ZM587.569 283.668C588.061 283.668 588.505 283.548 588.901 283.308C589.309 283.068 589.633 282.714 589.873 282.246C590.125 281.766 590.251 281.172 590.251 280.464C590.251 279.756 590.131 279.168 589.891 278.7C589.651 278.22 589.327 277.86 588.919 277.62C588.523 277.38 588.085 277.26 587.605 277.26C587.125 277.26 586.681 277.38 586.273 277.62C585.865 277.86 585.535 278.22 585.283 278.7C585.043 279.168 584.923 279.756 584.923 280.464C584.923 281.172 585.043 281.766 585.283 282.246C585.535 282.714 585.859 283.068 586.255 283.308C586.663 283.548 587.101 283.668 587.569 283.668ZM597.714 285.216C596.946 285.216 596.274 285.09 595.698 284.838C595.122 284.586 594.666 284.232 594.33 283.776C593.994 283.32 593.79 282.786 593.718 282.174H595.554C595.614 282.462 595.728 282.726 595.896 282.966C596.076 283.206 596.316 283.398 596.616 283.542C596.928 283.686 597.294 283.758 597.714 283.758C598.11 283.758 598.434 283.704 598.686 283.596C598.95 283.476 599.142 283.32 599.262 283.128C599.382 282.924 599.442 282.708 599.442 282.48C599.442 282.144 599.358 281.892 599.19 281.724C599.034 281.544 598.794 281.406 598.47 281.31C598.158 281.202 597.78 281.106 597.336 281.022C596.916 280.95 596.508 280.854 596.112 280.734C595.728 280.602 595.38 280.44 595.068 280.248C594.768 280.056 594.528 279.816 594.348 279.528C594.168 279.228 594.078 278.862 594.078 278.43C594.078 277.914 594.216 277.452 594.492 277.044C594.768 276.624 595.158 276.3 595.662 276.072C596.178 275.832 596.784 275.712 597.48 275.712C598.488 275.712 599.298 275.952 599.91 276.432C600.522 276.912 600.882 277.59 600.99 278.466H599.244C599.196 278.058 599.016 277.746 598.704 277.53C598.392 277.302 597.978 277.188 597.462 277.188C596.946 277.188 596.55 277.29 596.274 277.494C595.998 277.698 595.86 277.968 595.86 278.304C595.86 278.52 595.938 278.712 596.094 278.88C596.25 279.048 596.478 279.192 596.778 279.312C597.09 279.42 597.468 279.522 597.912 279.618C598.548 279.738 599.118 279.888 599.622 280.068C600.126 280.248 600.528 280.512 600.828 280.86C601.128 281.208 601.278 281.706 601.278 282.354C601.29 282.918 601.146 283.416 600.846 283.848C600.558 284.28 600.144 284.616 599.604 284.856C599.076 285.096 598.446 285.216 597.714 285.216ZM606.773 285C606.197 285 605.699 284.91 605.279 284.73C604.859 284.55 604.535 284.25 604.307 283.83C604.079 283.41 603.965 282.84 603.965 282.12V277.458H602.399V275.928H603.965L604.181 273.66H605.765V275.928H608.339V277.458H605.765V282.138C605.765 282.654 605.873 283.008 606.089 283.2C606.305 283.38 606.677 283.47 607.205 283.47H608.249V285H606.773Z" fill="#12110D"/>
</g>
<g filter="url(#filter2_d_124_6968)">
<path d="M158 362C158 344.327 172.327 330 190 330H445C462.121 330 476 343.879 476 361V361C476 378.121 462.121 392 445 392H158V362Z" fill="url(#paint4_linear_124_6968)" shape-rendering="crispEdges"/>
<path d="M190 330.5H445C461.845 330.5 475.5 344.155 475.5 361C475.5 377.845 461.845 391.5 445 391.5H158.5V362C158.5 344.603 172.603 330.5 190 330.5Z" stroke="url(#paint5_linear_124_6968)" shape-rendering="crispEdges"/>
<path fill-rule="evenodd" clip-rule="evenodd" d="M187.845 355.421C188.163 354.653 188.326 353.831 188.326 353H193.814C193.814 354.551 193.509 356.088 192.915 357.521C192.685 358.077 192.412 358.614 192.101 359.126C192.005 359.286 192.211 359.502 192.375 359.414C194.083 358.492 196.024 358.012 198 358.012V363.5C196.322 363.5 194.698 364.151 193.511 365.337C192.518 366.331 191.889 367.621 191.71 369H186.198C186.328 367.11 186.91 365.288 187.883 363.684C187.98 363.525 187.774 363.308 187.61 363.397C187.257 363.587 186.893 363.76 186.521 363.914C185.088 364.508 183.551 364.813 182 364.813L182 359.326C182.831 359.326 183.653 359.162 184.421 358.844C185.189 358.526 185.886 358.06 186.473 357.473C187.061 356.886 187.527 356.188 187.845 355.421Z" fill="#E65C32"/>
<path d="M208.504 367L213.13 354.4H215.092L219.718 367H217.792L214.102 356.56L210.394 367H208.504ZM210.592 363.886L211.096 362.446H217.018L217.522 363.886H210.592ZM224.577 367.216C223.869 367.216 223.251 367.072 222.723 366.784C222.207 366.496 221.805 366.064 221.517 365.488C221.241 364.912 221.103 364.186 221.103 363.31V357.928H222.903V363.112C222.903 363.964 223.089 364.606 223.461 365.038C223.833 365.47 224.367 365.686 225.063 365.686C225.531 365.686 225.951 365.572 226.323 365.344C226.707 365.116 227.007 364.786 227.223 364.354C227.439 363.922 227.547 363.394 227.547 362.77V357.928H229.347V367H227.745L227.619 365.452C227.343 366.004 226.941 366.436 226.413 366.748C225.885 367.06 225.273 367.216 224.577 367.216ZM235.844 367.216C234.98 367.216 234.218 367.012 233.558 366.604C232.898 366.184 232.382 365.62 232.01 364.912C231.65 364.192 231.47 363.376 231.47 362.464C231.47 361.54 231.65 360.724 232.01 360.016C232.382 359.308 232.898 358.75 233.558 358.342C234.23 357.922 234.998 357.712 235.862 357.712C236.57 357.712 237.194 357.856 237.734 358.144C238.274 358.42 238.694 358.816 238.994 359.332V354.04H240.794V367H239.174L238.994 365.596C238.814 365.872 238.58 366.136 238.292 366.388C238.004 366.628 237.656 366.826 237.248 366.982C236.84 367.138 236.372 367.216 235.844 367.216ZM236.132 365.65C236.696 365.65 237.194 365.518 237.626 365.254C238.058 364.99 238.388 364.618 238.616 364.138C238.856 363.658 238.976 363.1 238.976 362.464C238.976 361.828 238.856 361.276 238.616 360.808C238.388 360.328 238.058 359.956 237.626 359.692C237.194 359.416 236.696 359.278 236.132 359.278C235.592 359.278 235.106 359.416 234.674 359.692C234.242 359.956 233.906 360.328 233.666 360.808C233.426 361.276 233.306 361.828 233.306 362.464C233.306 363.1 233.426 363.658 233.666 364.138C233.906 364.618 234.242 364.99 234.674 365.254C235.106 365.518 235.592 365.65 236.132 365.65ZM243.381 367V357.928H245.181V367H243.381ZM244.299 356.218C243.951 356.218 243.663 356.11 243.435 355.894C243.219 355.678 243.111 355.402 243.111 355.066C243.111 354.742 243.219 354.478 243.435 354.274C243.663 354.058 243.951 353.95 244.299 353.95C244.635 353.95 244.917 354.058 245.145 354.274C245.373 354.478 245.487 354.742 245.487 355.066C245.487 355.402 245.373 355.678 245.145 355.894C244.917 356.11 244.635 356.218 244.299 356.218ZM251.499 367C250.923 367 250.425 366.91 250.005 366.73C249.585 366.55 249.261 366.25 249.033 365.83C248.805 365.41 248.691 364.84 248.691 364.12V359.458H247.125V357.928H248.691L248.907 355.66H250.491V357.928H253.065V359.458H250.491V364.138C250.491 364.654 250.599 365.008 250.815 365.2C251.031 365.38 251.403 365.47 251.931 365.47H252.975V367H251.499ZM262.986 367.216C262.278 367.216 261.66 367.072 261.132 366.784C260.616 366.496 260.214 366.064 259.926 365.488C259.65 364.912 259.512 364.186 259.512 363.31V357.928H261.312V363.112C261.312 363.964 261.498 364.606 261.87 365.038C262.242 365.47 262.776 365.686 263.472 365.686C263.94 365.686 264.36 365.572 264.732 365.344C265.116 365.116 265.416 364.786 265.632 364.354C265.848 363.922 265.956 363.394 265.956 362.77V357.928H267.756V367H266.154L266.028 365.452C265.752 366.004 265.35 366.436 264.822 366.748C264.294 367.06 263.682 367.216 262.986 367.216ZM273.73 367.216C272.962 367.216 272.29 367.09 271.714 366.838C271.138 366.586 270.682 366.232 270.346 365.776C270.01 365.32 269.806 364.786 269.734 364.174H271.57C271.63 364.462 271.744 364.726 271.912 364.966C272.092 365.206 272.332 365.398 272.632 365.542C272.944 365.686 273.31 365.758 273.73 365.758C274.126 365.758 274.45 365.704 274.702 365.596C274.966 365.476 275.158 365.32 275.278 365.128C275.398 364.924 275.458 364.708 275.458 364.48C275.458 364.144 275.374 363.892 275.206 363.724C275.05 363.544 274.81 363.406 274.486 363.31C274.174 363.202 273.796 363.106 273.352 363.022C272.932 362.95 272.524 362.854 272.128 362.734C271.744 362.602 271.396 362.44 271.084 362.248C270.784 362.056 270.544 361.816 270.364 361.528C270.184 361.228 270.094 360.862 270.094 360.43C270.094 359.914 270.232 359.452 270.508 359.044C270.784 358.624 271.174 358.3 271.678 358.072C272.194 357.832 272.8 357.712 273.496 357.712C274.504 357.712 275.314 357.952 275.926 358.432C276.538 358.912 276.898 359.59 277.006 360.466H275.26C275.212 360.058 275.032 359.746 274.72 359.53C274.408 359.302 273.994 359.188 273.478 359.188C272.962 359.188 272.566 359.29 272.29 359.494C272.014 359.698 271.876 359.968 271.876 360.304C271.876 360.52 271.954 360.712 272.11 360.88C272.266 361.048 272.494 361.192 272.794 361.312C273.106 361.42 273.484 361.522 273.928 361.618C274.564 361.738 275.134 361.888 275.638 362.068C276.142 362.248 276.544 362.512 276.844 362.86C277.144 363.208 277.294 363.706 277.294 364.354C277.306 364.918 277.162 365.416 276.862 365.848C276.574 366.28 276.16 366.616 275.62 366.856C275.092 367.096 274.462 367.216 273.73 367.216ZM283.517 367.216C282.653 367.216 281.885 367.018 281.213 366.622C280.541 366.226 280.013 365.674 279.629 364.966C279.257 364.258 279.071 363.436 279.071 362.5C279.071 361.54 279.257 360.706 279.629 359.998C280.013 359.278 280.541 358.72 281.213 358.324C281.885 357.916 282.665 357.712 283.553 357.712C284.441 357.712 285.203 357.91 285.839 358.306C286.475 358.702 286.967 359.23 287.315 359.89C287.663 360.538 287.837 361.258 287.837 362.05C287.837 362.17 287.831 362.302 287.819 362.446C287.819 362.578 287.813 362.728 287.801 362.896H280.385V361.618H286.037C286.001 360.862 285.749 360.274 285.281 359.854C284.813 359.422 284.231 359.206 283.535 359.206C283.043 359.206 282.593 359.32 282.185 359.548C281.777 359.764 281.447 360.088 281.195 360.52C280.955 360.94 280.835 361.474 280.835 362.122V362.626C280.835 363.298 280.955 363.868 281.195 364.336C281.447 364.792 281.777 365.14 282.185 365.38C282.593 365.608 283.037 365.722 283.517 365.722C284.093 365.722 284.567 365.596 284.939 365.344C285.311 365.092 285.587 364.75 285.767 364.318H287.567C287.411 364.87 287.147 365.368 286.775 365.812C286.403 366.244 285.941 366.586 285.389 366.838C284.849 367.09 284.225 367.216 283.517 367.216ZM289.837 367V357.928H291.457L291.619 359.638C291.823 359.23 292.087 358.888 292.411 358.612C292.735 358.324 293.113 358.102 293.545 357.946C293.989 357.79 294.493 357.712 295.057 357.712V359.62H294.409C294.037 359.62 293.683 359.668 293.347 359.764C293.011 359.848 292.711 359.998 292.447 360.214C292.195 360.43 291.997 360.724 291.853 361.096C291.709 361.468 291.637 361.93 291.637 362.482V367H289.837ZM304.826 367.216C304.058 367.216 303.386 367.09 302.81 366.838C302.234 366.586 301.778 366.232 301.442 365.776C301.106 365.32 300.902 364.786 300.83 364.174H302.666C302.726 364.462 302.84 364.726 303.008 364.966C303.188 365.206 303.428 365.398 303.728 365.542C304.04 365.686 304.406 365.758 304.826 365.758C305.222 365.758 305.546 365.704 305.798 365.596C306.062 365.476 306.254 365.32 306.374 365.128C306.494 364.924 306.554 364.708 306.554 364.48C306.554 364.144 306.47 363.892 306.302 363.724C306.146 363.544 305.906 363.406 305.582 363.31C305.27 363.202 304.892 363.106 304.448 363.022C304.028 362.95 303.62 362.854 303.224 362.734C302.84 362.602 302.492 362.44 302.18 362.248C301.88 362.056 301.64 361.816 301.46 361.528C301.28 361.228 301.19 360.862 301.19 360.43C301.19 359.914 301.328 359.452 301.604 359.044C301.88 358.624 302.27 358.3 302.774 358.072C303.29 357.832 303.896 357.712 304.592 357.712C305.6 357.712 306.41 357.952 307.022 358.432C307.634 358.912 307.994 359.59 308.102 360.466H306.356C306.308 360.058 306.128 359.746 305.816 359.53C305.504 359.302 305.09 359.188 304.574 359.188C304.058 359.188 303.662 359.29 303.386 359.494C303.11 359.698 302.972 359.968 302.972 360.304C302.972 360.52 303.05 360.712 303.206 360.88C303.362 361.048 303.59 361.192 303.89 361.312C304.202 361.42 304.58 361.522 305.024 361.618C305.66 361.738 306.23 361.888 306.734 362.068C307.238 362.248 307.64 362.512 307.94 362.86C308.24 363.208 308.39 363.706 308.39 364.354C308.402 364.918 308.258 365.416 307.958 365.848C307.67 366.28 307.256 366.616 306.716 366.856C306.188 367.096 305.558 367.216 304.826 367.216ZM314.613 367.216C313.749 367.216 312.981 367.018 312.309 366.622C311.637 366.226 311.109 365.674 310.725 364.966C310.353 364.258 310.167 363.436 310.167 362.5C310.167 361.54 310.353 360.706 310.725 359.998C311.109 359.278 311.637 358.72 312.309 358.324C312.981 357.916 313.761 357.712 314.649 357.712C315.537 357.712 316.299 357.91 316.935 358.306C317.571 358.702 318.063 359.23 318.411 359.89C318.759 360.538 318.933 361.258 318.933 362.05C318.933 362.17 318.927 362.302 318.915 362.446C318.915 362.578 318.909 362.728 318.897 362.896H311.481V361.618H317.133C317.097 360.862 316.845 360.274 316.377 359.854C315.909 359.422 315.327 359.206 314.631 359.206C314.139 359.206 313.689 359.32 313.281 359.548C312.873 359.764 312.543 360.088 312.291 360.52C312.051 360.94 311.931 361.474 311.931 362.122V362.626C311.931 363.298 312.051 363.868 312.291 364.336C312.543 364.792 312.873 365.14 313.281 365.38C313.689 365.608 314.133 365.722 314.613 365.722C315.189 365.722 315.663 365.596 316.035 365.344C316.407 365.092 316.683 364.75 316.863 364.318H318.663C318.507 364.87 318.243 365.368 317.871 365.812C317.499 366.244 317.037 366.586 316.485 366.838C315.945 367.09 315.321 367.216 314.613 367.216ZM325.127 367.216C324.251 367.216 323.471 367.018 322.787 366.622C322.103 366.214 321.563 365.656 321.167 364.948C320.783 364.24 320.591 363.418 320.591 362.482C320.591 361.534 320.783 360.706 321.167 359.998C321.563 359.278 322.103 358.72 322.787 358.324C323.471 357.916 324.251 357.712 325.127 357.712C326.231 357.712 327.155 358 327.899 358.576C328.643 359.152 329.117 359.932 329.321 360.916H327.449C327.329 360.388 327.053 359.98 326.621 359.692C326.201 359.404 325.697 359.26 325.109 359.26C324.629 359.26 324.185 359.386 323.777 359.638C323.369 359.878 323.039 360.238 322.787 360.718C322.547 361.186 322.427 361.768 322.427 362.464C322.427 362.98 322.499 363.442 322.643 363.85C322.787 364.246 322.979 364.582 323.219 364.858C323.471 365.134 323.759 365.344 324.083 365.488C324.407 365.62 324.749 365.686 325.109 365.686C325.505 365.686 325.859 365.626 326.171 365.506C326.495 365.374 326.765 365.182 326.981 364.93C327.209 364.678 327.365 364.378 327.449 364.03H329.321C329.117 364.99 328.643 365.764 327.899 366.352C327.155 366.928 326.231 367.216 325.127 367.216ZM334.757 367.216C334.049 367.216 333.431 367.072 332.903 366.784C332.387 366.496 331.985 366.064 331.697 365.488C331.421 364.912 331.283 364.186 331.283 363.31V357.928H333.083V363.112C333.083 363.964 333.269 364.606 333.641 365.038C334.013 365.47 334.547 365.686 335.243 365.686C335.711 365.686 336.131 365.572 336.503 365.344C336.887 365.116 337.187 364.786 337.403 364.354C337.619 363.922 337.727 363.394 337.727 362.77V357.928H339.527V367H337.925L337.799 365.452C337.523 366.004 337.121 366.436 336.593 366.748C336.065 367.06 335.453 367.216 334.757 367.216ZM341.992 367V357.928H343.612L343.774 359.638C343.978 359.23 344.242 358.888 344.566 358.612C344.89 358.324 345.268 358.102 345.7 357.946C346.144 357.79 346.648 357.712 347.212 357.712V359.62H346.564C346.192 359.62 345.838 359.668 345.502 359.764C345.166 359.848 344.866 359.998 344.602 360.214C344.35 360.43 344.152 360.724 344.008 361.096C343.864 361.468 343.792 361.93 343.792 362.482V367H341.992ZM348.991 367V357.928H350.791V367H348.991ZM349.909 356.218C349.561 356.218 349.273 356.11 349.045 355.894C348.829 355.678 348.721 355.402 348.721 355.066C348.721 354.742 348.829 354.478 349.045 354.274C349.273 354.058 349.561 353.95 349.909 353.95C350.245 353.95 350.527 354.058 350.755 354.274C350.983 354.478 351.097 354.742 351.097 355.066C351.097 355.402 350.983 355.678 350.755 355.894C350.527 356.11 350.245 356.218 349.909 356.218ZM357.109 367C356.533 367 356.035 366.91 355.615 366.73C355.195 366.55 354.871 366.25 354.643 365.83C354.415 365.41 354.301 364.84 354.301 364.12V359.458H352.735V357.928H354.301L354.517 355.66H356.101V357.928H358.675V359.458H356.101V364.138C356.101 364.654 356.209 365.008 356.425 365.2C356.641 365.38 357.013 365.47 357.541 365.47H358.585V367H357.109ZM361.704 370.96L363.918 365.992H363.396L359.814 357.928H361.758L364.602 364.516L367.464 357.928H369.354L363.594 370.96H361.704ZM385.142 367L378.302 360.07C377.738 359.518 377.336 359.014 377.096 358.558C376.868 358.102 376.754 357.61 376.754 357.082C376.754 356.53 376.886 356.038 377.15 355.606C377.426 355.162 377.816 354.814 378.32 354.562C378.836 354.31 379.448 354.184 380.156 354.184C380.864 354.184 381.464 354.316 381.956 354.58C382.46 354.832 382.844 355.18 383.108 355.624C383.384 356.068 383.516 356.572 383.504 357.136H381.74C381.74 356.632 381.584 356.254 381.272 356.002C380.96 355.738 380.588 355.606 380.156 355.606C379.64 355.606 379.232 355.744 378.932 356.02C378.644 356.284 378.5 356.632 378.5 357.064C378.5 357.412 378.602 357.766 378.806 358.126C379.01 358.474 379.316 358.864 379.724 359.296L387.356 367H385.142ZM379.418 367.216C378.554 367.216 377.792 367.06 377.132 366.748C376.472 366.424 375.962 365.974 375.602 365.398C375.242 364.81 375.062 364.132 375.062 363.364C375.062 362.752 375.188 362.194 375.44 361.69C375.692 361.174 376.064 360.724 376.556 360.34C377.048 359.944 377.654 359.626 378.374 359.386L379.058 359.152L379.94 360.304L379.202 360.556C378.398 360.832 377.804 361.198 377.42 361.654C377.036 362.11 376.844 362.65 376.844 363.274C376.844 363.73 376.952 364.144 377.168 364.516C377.396 364.888 377.708 365.176 378.104 365.38C378.5 365.584 378.962 365.686 379.49 365.686C380.174 365.686 380.786 365.542 381.326 365.254C381.866 364.954 382.4 364.468 382.928 363.796C383.168 363.484 383.414 363.13 383.666 362.734C383.918 362.338 384.182 361.888 384.458 361.384L384.962 360.466H386.834L386.078 361.852C385.766 362.464 385.448 363.022 385.124 363.526C384.812 364.018 384.494 364.456 384.17 364.84C383.486 365.68 382.76 366.286 381.992 366.658C381.236 367.03 380.378 367.216 379.418 367.216ZM393.619 367V354.04H395.419V367H393.619ZM402.03 367.216C401.178 367.216 400.41 367.018 399.726 366.622C399.054 366.226 398.52 365.674 398.124 364.966C397.74 364.246 397.548 363.418 397.548 362.482C397.548 361.522 397.746 360.688 398.142 359.98C398.538 359.26 399.078 358.702 399.762 358.306C400.446 357.91 401.214 357.712 402.066 357.712C402.93 357.712 403.698 357.91 404.37 358.306C405.042 358.702 405.57 359.254 405.954 359.962C406.35 360.67 406.548 361.504 406.548 362.464C406.548 363.424 406.35 364.258 405.954 364.966C405.57 365.674 405.036 366.226 404.352 366.622C403.668 367.018 402.894 367.216 402.03 367.216ZM402.03 365.668C402.522 365.668 402.966 365.548 403.362 365.308C403.77 365.068 404.094 364.714 404.334 364.246C404.586 363.766 404.712 363.172 404.712 362.464C404.712 361.756 404.592 361.168 404.352 360.7C404.112 360.22 403.788 359.86 403.38 359.62C402.984 359.38 402.546 359.26 402.066 359.26C401.586 359.26 401.142 359.38 400.734 359.62C400.326 359.86 399.996 360.22 399.744 360.7C399.504 361.168 399.384 361.756 399.384 362.464C399.384 363.172 399.504 363.766 399.744 364.246C399.996 364.714 400.32 365.068 400.716 365.308C401.124 365.548 401.562 365.668 402.03 365.668ZM411.898 371.176C411.07 371.176 410.338 371.068 409.702 370.852C409.066 370.648 408.574 370.33 408.226 369.898C407.878 369.466 407.704 368.938 407.704 368.314C407.704 367.99 407.776 367.66 407.92 367.324C408.064 367 408.298 366.688 408.622 366.388C408.946 366.088 409.384 365.818 409.936 365.578L410.944 366.388C410.332 366.616 409.918 366.886 409.702 367.198C409.498 367.522 409.396 367.834 409.396 368.134C409.396 368.494 409.504 368.794 409.72 369.034C409.936 369.274 410.23 369.454 410.602 369.574C410.986 369.694 411.418 369.754 411.898 369.754C412.366 369.754 412.774 369.688 413.122 369.556C413.47 369.424 413.74 369.238 413.932 368.998C414.124 368.758 414.22 368.476 414.22 368.152C414.22 367.768 414.076 367.444 413.788 367.18C413.5 366.928 412.948 366.778 412.132 366.73C411.448 366.682 410.866 366.616 410.386 366.532C409.918 366.448 409.516 366.346 409.18 366.226C408.856 366.106 408.58 365.974 408.352 365.83C408.136 365.686 407.95 365.536 407.794 365.38V364.966L409.594 363.112L411.052 363.616L409.09 365.434L409.468 364.624C409.6 364.708 409.726 364.792 409.846 364.876C409.966 364.948 410.128 365.014 410.332 365.074C410.536 365.134 410.812 365.188 411.16 365.236C411.508 365.284 411.964 365.332 412.528 365.38C413.344 365.44 413.998 365.584 414.49 365.812C414.994 366.04 415.36 366.346 415.588 366.73C415.816 367.114 415.93 367.57 415.93 368.098C415.93 368.614 415.786 369.106 415.498 369.574C415.222 370.042 414.784 370.426 414.184 370.726C413.596 371.026 412.834 371.176 411.898 371.176ZM411.898 364.21C411.13 364.21 410.476 364.066 409.936 363.778C409.408 363.49 409 363.1 408.712 362.608C408.436 362.116 408.298 361.57 408.298 360.97C408.298 360.358 408.436 359.812 408.712 359.332C409 358.84 409.414 358.45 409.954 358.162C410.494 357.862 411.142 357.712 411.898 357.712C412.654 357.712 413.296 357.862 413.824 358.162C414.364 358.45 414.772 358.84 415.048 359.332C415.336 359.812 415.48 360.358 415.48 360.97C415.48 361.57 415.336 362.116 415.048 362.608C414.772 363.1 414.364 363.49 413.824 363.778C413.296 364.066 412.654 364.21 411.898 364.21ZM411.898 362.77C412.486 362.77 412.954 362.62 413.302 362.32C413.65 362.008 413.824 361.558 413.824 360.97C413.824 360.382 413.65 359.938 413.302 359.638C412.954 359.326 412.486 359.17 411.898 359.17C411.31 359.17 410.836 359.326 410.476 359.638C410.116 359.938 409.936 360.382 409.936 360.97C409.936 361.558 410.116 362.008 410.476 362.32C410.836 362.62 411.31 362.77 411.898 362.77ZM413.374 359.35L412.942 357.928H416.668V359.17L413.374 359.35ZM418.582 362.446V360.934H425.854V362.446H418.582ZM428.532 367V357.928H430.332V367H428.532ZM429.45 356.218C429.102 356.218 428.814 356.11 428.586 355.894C428.37 355.678 428.262 355.402 428.262 355.066C428.262 354.742 428.37 354.478 428.586 354.274C428.814 354.058 429.102 353.95 429.45 353.95C429.786 353.95 430.068 354.058 430.296 354.274C430.524 354.478 430.638 354.742 430.638 355.066C430.638 355.402 430.524 355.678 430.296 355.894C430.068 356.11 429.786 356.218 429.45 356.218ZM432.906 367V357.928H434.526L434.634 359.476C434.922 358.936 435.33 358.51 435.858 358.198C436.386 357.874 436.992 357.712 437.676 357.712C438.396 357.712 439.014 357.856 439.53 358.144C440.046 358.432 440.448 358.87 440.736 359.458C441.024 360.034 441.168 360.76 441.168 361.636V367H439.368V361.816C439.368 360.976 439.182 360.34 438.81 359.908C438.438 359.476 437.898 359.26 437.19 359.26C436.722 359.26 436.302 359.374 435.93 359.602C435.558 359.818 435.258 360.142 435.03 360.574C434.814 361.006 434.706 361.534 434.706 362.158V367H432.906ZM446.98 367.216C446.212 367.216 445.54 367.09 444.964 366.838C444.388 366.586 443.932 366.232 443.596 365.776C443.26 365.32 443.056 364.786 442.984 364.174H444.82C444.88 364.462 444.994 364.726 445.162 364.966C445.342 365.206 445.582 365.398 445.882 365.542C446.194 365.686 446.56 365.758 446.98 365.758C447.376 365.758 447.7 365.704 447.952 365.596C448.216 365.476 448.408 365.32 448.528 365.128C448.648 364.924 448.708 364.708 448.708 364.48C448.708 364.144 448.624 363.892 448.456 363.724C448.3 363.544 448.06 363.406 447.736 363.31C447.424 363.202 447.046 363.106 446.602 363.022C446.182 362.95 445.774 362.854 445.378 362.734C444.994 362.602 444.646 362.44 444.334 362.248C444.034 362.056 443.794 361.816 443.614 361.528C443.434 361.228 443.344 360.862 443.344 360.43C443.344 359.914 443.482 359.452 443.758 359.044C444.034 358.624 444.424 358.3 444.928 358.072C445.444 357.832 446.05 357.712 446.746 357.712C447.754 357.712 448.564 357.952 449.176 358.432C449.788 358.912 450.148 359.59 450.256 360.466H448.51C448.462 360.058 448.282 359.746 447.97 359.53C447.658 359.302 447.244 359.188 446.728 359.188C446.212 359.188 445.816 359.29 445.54 359.494C445.264 359.698 445.126 359.968 445.126 360.304C445.126 360.52 445.204 360.712 445.36 360.88C445.516 361.048 445.744 361.192 446.044 361.312C446.356 361.42 446.734 361.522 447.178 361.618C447.814 361.738 448.384 361.888 448.888 362.068C449.392 362.248 449.794 362.512 450.094 362.86C450.394 363.208 450.544 363.706 450.544 364.354C450.556 364.918 450.412 365.416 450.112 365.848C449.824 366.28 449.41 366.616 448.87 366.856C448.342 367.096 447.712 367.216 446.98 367.216Z" fill="#12110D"/>
</g>
<defs>
<filter id="filter0_d_124_6968" x="79" y="228" width="298" height="110" filterUnits="userSpaceOnUse" color-interpolation-filters="sRGB">
<feFlood flood-opacity="0" result="BackgroundImageFix"/>
<feColorMatrix in="SourceAlpha" type="matrix" values="0 0 0 0 0 0 0 0 0 0 0 0 0 0 0 0 0 0 127 0" result="hardAlpha"/>
<feOffset dy="4"/>
<feGaussianBlur stdDeviation="12"/>
<feComposite in2="hardAlpha" operator="out"/>
<feColorMatrix type="matrix" values="0 0 0 0 0 0 0 0 0 0 0 0 0 0 0 0 0 0 0.1 0"/>
<feBlend mode="normal" in2="BackgroundImageFix" result="effect1_dropShadow_124_6968"/>
<feBlend mode="normal" in="BackgroundImageFix" in2="effect1_dropShadow_124_6968" result="BackgroundImageFix"/>
<feBlend mode="normal" in="SourceGraphic" in2="BackgroundImageFix" result="shape"/>
</filter>
<filter id="filter1_d_124_6968" x="349" y="228" width="309" height="110" filterUnits="userSpaceOnUse" color-interpolation-filters="sRGB">
<feFlood flood-opacity="0" result="BackgroundImageFix"/>
<feColorMatrix in="SourceAlpha" type="matrix" values="0 0 0 0 0 0 0 0 0 0 0 0 0 0 0 0 0 0 127 0" result="hardAlpha"/>
<feOffset dy="4"/>
<feGaussianBlur stdDeviation="12"/>
<feComposite in2="hardAlpha" operator="out"/>
<feColorMatrix type="matrix" values="0 0 0 0 0 0 0 0 0 0 0 0 0 0 0 0 0 0 0.1 0"/>
<feBlend mode="normal" in2="BackgroundImageFix" result="effect1_dropShadow_124_6968"/>
<feBlend mode="normal" in="BackgroundImageFix" in2="effect1_dropShadow_124_6968" result="BackgroundImageFix"/>
<feBlend mode="normal" in="SourceGraphic" in2="BackgroundImageFix" result="shape"/>
</filter>
<filter id="filter2_d_124_6968" x="134" y="310" width="366" height="110" filterUnits="userSpaceOnUse" color-interpolation-filters="sRGB">
<feFlood flood-opacity="0" result="BackgroundImageFix"/>
<feColorMatrix in="SourceAlpha" type="matrix" values="0 0 0 0 0 0 0 0 0 0 0 0 0 0 0 0 0 0 127 0" result="hardAlpha"/>
<feOffset dy="4"/>
<feGaussianBlur stdDeviation="12"/>
<feComposite in2="hardAlpha" operator="out"/>
<feColorMatrix type="matrix" values="0 0 0 0 0 0 0 0 0 0 0 0 0 0 0 0 0 0 0.1 0"/>
<feBlend mode="normal" in2="BackgroundImageFix" result="effect1_dropShadow_124_6968"/>
<feBlend mode="normal" in="BackgroundImageFix" in2="effect1_dropShadow_124_6968" result="BackgroundImageFix"/>
<feBlend mode="normal" in="SourceGraphic" in2="BackgroundImageFix" result="shape"/>
</filter>
<linearGradient id="paint0_linear_124_6968" x1="228" y1="248" x2="228" y2="310" gradientUnits="userSpaceOnUse">
<stop stop-color="#FFF5EC" stop-opacity="0.4"/>
<stop offset="1" stop-color="white" stop-opacity="0"/>
</linearGradient>
<linearGradient id="paint1_linear_124_6968" x1="228" y1="248" x2="228" y2="310" gradientUnits="userSpaceOnUse">
<stop stop-color="#E65C32"/>
<stop offset="1" stop-color="#FBFAF5"/>
</linearGradient>
<linearGradient id="paint2_linear_124_6968" x1="503.5" y1="248" x2="503.5" y2="310" gradientUnits="userSpaceOnUse">
<stop stop-color="#FFF5EC" stop-opacity="0.4"/>
<stop offset="1" stop-color="white" stop-opacity="0"/>
</linearGradient>
<linearGradient id="paint3_linear_124_6968" x1="503.5" y1="248" x2="503.5" y2="310" gradientUnits="userSpaceOnUse">
<stop stop-color="#E65C32"/>
<stop offset="1" stop-color="#FBFAF5"/>
</linearGradient>
<linearGradient id="paint4_linear_124_6968" x1="317" y1="330" x2="317" y2="392" gradientUnits="userSpaceOnUse">
<stop stop-color="#FFF5EC" stop-opacity="0.4"/>
<stop offset="1" stop-color="white" stop-opacity="0"/>
</linearGradient>
<linearGradient id="paint5_linear_124_6968" x1="317" y1="330" x2="317" y2="392" gradientUnits="userSpaceOnUse">
<stop stop-color="#E65C32"/>
<stop offset="1" stop-color="#FBFAF5"/>
</linearGradient>
</defs>
</svg>
