<svg xmlns="http://www.w3.org/2000/svg" fill="none" viewBox="0 0 1216 567">
  <rect width="344" height="132" x="231" y="48" fill="#260700" rx="24" />
  <path
    fill="#FBFAF5"
    d="M372.344 141v-28.176l-5.856 1.488v-3.6l7.632-3.312h3.12V141zm27.174 0v-6.864H382.67v-3.744l16.08-22.992h5.52v22.56h4.8v4.176h-4.8V141zm-11.616-11.04h11.904v-17.28zm37.445 11.616q-3.312 0-6-1.2-2.64-1.248-4.224-3.456-1.536-2.208-1.536-5.136 0-2.064.768-3.792a9.1 9.1 0 0 1 2.16-3.072 8.3 8.3 0 0 1 3.264-1.872q-2.496-1.008-3.936-2.976t-1.44-4.32q0-2.448 1.296-4.464t3.744-3.216q2.448-1.248 5.904-1.248t5.904 1.248q2.448 1.2 3.696 3.216 1.296 2.016 1.296 4.464 0 2.352-1.441 4.368-1.39 1.968-3.887 2.928a8.3 8.3 0 0 1 3.264 1.872 9.1 9.1 0 0 1 2.16 3.072q.768 1.728.768 3.792 0 2.928-1.584 5.136-1.536 2.208-4.224 3.456-2.64 1.2-5.952 1.2m0-4.128q3.504 0 5.232-1.632 1.776-1.68 1.776-4.368 0-3.024-1.92-4.608-1.872-1.584-5.088-1.584t-5.136 1.584q-1.872 1.584-1.872 4.608 0 2.688 1.728 4.368 1.776 1.632 5.28 1.632m0-15.984q2.832 0 4.464-1.488 1.68-1.488 1.68-3.792 0-2.64-1.632-3.984t-4.512-1.344q-2.832 0-4.464 1.344t-1.632 3.984q0 2.304 1.632 3.792t4.464 1.488m-56.119-29.296q-1.078 0-1.89-.378a3 3 0 0 1-1.26-1.092q-.448-.7-.448-1.638h1.47q.014.532.252.98.252.435.714.7.476.252 1.162.252.588 0 1.008-.196.434-.195.658-.532.224-.35.224-.798 0-.518-.238-.854a1.8 1.8 0 0 0-.644-.546 4.7 4.7 0 0 0-.924-.392 77 77 0 0 1-1.092-.364q-1.162-.378-1.736-.98-.56-.602-.56-1.568 0-.826.392-1.428.392-.615 1.092-.952.714-.35 1.68-.35.952 0 1.666.35t1.12.966.406 1.442h-1.484q0-.379-.196-.742a1.5 1.5 0 0 0-.588-.588q-.392-.238-.966-.238a1.94 1.94 0 0 0-.854.154 1.3 1.3 0 0 0-.588.49q-.21.322-.21.77t.182.728q.196.266.56.462.365.195.84.364.49.155 1.078.35.728.239 1.288.588.574.336.896.882.336.532.336 1.372 0 .728-.378 1.358t-1.12 1.036q-.743.392-1.848.392m5.039-.168v-7.056h1.4V92zm.714-8.386a.94.94 0 0 1-.672-.252.87.87 0 0 1-.252-.644.8.8 0 0 1 .252-.616.94.94 0 0 1 .672-.252q.391 0 .658.252a.79.79 0 0 1 .266.616.85.85 0 0 1-.266.644.92.92 0 0 1-.658.252m5.558 11.634q-.966 0-1.708-.252-.743-.238-1.148-.742-.406-.504-.406-1.232 0-.378.168-.77.168-.378.546-.728.377-.35 1.022-.63l.784.63q-.714.266-.966.63-.238.378-.238.728 0 .42.252.7t.686.42q.447.14 1.008.14.546 0 .952-.154t.63-.434.224-.658a1 1 0 0 0-.336-.756q-.337-.294-1.288-.35a14 14 0 0 1-1.358-.154 6 6 0 0 1-.938-.238 3.5 3.5 0 0 1-.644-.308 3 3 0 0 1-.434-.35v-.322l1.4-1.442 1.134.392-1.526 1.414.294-.63q.153.097.294.196.14.084.378.154.237.07.644.126.405.056 1.064.112.951.07 1.526.336.587.266.854.714.266.448.266 1.064 0 .602-.336 1.148-.323.546-1.022.896-.687.35-1.778.35m0-5.418q-.897 0-1.526-.336a2.4 2.4 0 0 1-.952-.91 2.56 2.56 0 0 1-.322-1.274q0-.713.322-1.274.336-.574.966-.91.63-.35 1.512-.35t1.498.35q.63.336.952.91.336.56.336 1.274 0 .7-.336 1.274a2.3 2.3 0 0 1-.952.91q-.616.336-1.498.336m0-1.12q.685 0 1.092-.35.405-.365.406-1.05 0-.686-.406-1.036-.407-.364-1.092-.364-.687 0-1.106.364-.42.35-.42 1.036 0 .685.42 1.05.42.35 1.106.35m1.148-2.66-.336-1.106h2.898v.966zm3.966 5.95v-7.056h1.26l.084 1.204q.336-.63.952-.994a2.65 2.65 0 0 1 1.414-.378q.84 0 1.442.336.603.336.938 1.022.336.672.336 1.694V92h-1.4v-4.032q0-.98-.434-1.484t-1.26-.504q-.546 0-.98.266-.433.252-.7.756-.252.504-.252 1.232V92zm10.555.168q-.868 0-1.442-.294t-.854-.784a2.2 2.2 0 0 1-.28-1.078q0-.7.364-1.19.364-.504 1.036-.77t1.61-.266h1.834q0-.615-.182-1.022a1.23 1.23 0 0 0-.546-.602q-.35-.21-.896-.21-.63 0-1.078.308-.448.294-.56.882h-1.4q.084-.743.504-1.26a2.8 2.8 0 0 1 1.106-.812 3.5 3.5 0 0 1 1.428-.294q.994 0 1.666.35t1.008.994q.35.63.35 1.512V92h-1.218l-.112-1.19a3.4 3.4 0 0 1-.364.532q-.21.252-.504.434a2.2 2.2 0 0 1-.658.28 2.8 2.8 0 0 1-.812.112m.266-1.134q.448 0 .812-.182t.616-.49q.266-.323.392-.714.14-.405.154-.826v-.042h-1.666q-.602 0-.98.154-.364.14-.532.392a1.03 1.03 0 0 0-.168.588q0 .35.154.602.168.239.476.378.308.14.742.14m5.189.966V81.92h1.4V92zm6.052.168q-.896 0-1.568-.294a2.57 2.57 0 0 1-1.064-.826 2.57 2.57 0 0 1-.476-1.246h1.428q.07.337.266.616.21.28.56.448.365.168.854.168.462 0 .756-.126a1 1 0 0 0 .448-.364.97.97 0 0 0 .14-.504q0-.391-.196-.588-.182-.21-.56-.322a6 6 0 0 0-.882-.224 8 8 0 0 1-.952-.224 4 4 0 0 1-.812-.378 1.8 1.8 0 0 1-.56-.56q-.21-.35-.21-.854 0-.601.322-1.078.322-.49.91-.756.603-.28 1.414-.28 1.176 0 1.89.56t.84 1.582h-1.358a.98.98 0 0 0-.42-.728q-.363-.266-.966-.266-.601 0-.924.238a.75.75 0 0 0-.322.63q0 .252.182.448.183.196.532.336.364.126.882.238.742.14 1.33.35t.938.616.35 1.162q.015.658-.336 1.162-.336.504-.966.784-.615.28-1.47.28m8.073-.168v-9.8h3.318q1.161 0 1.904.392.741.391 1.092 1.05.364.645.364 1.47 0 .784-.364 1.456-.35.658-1.106 1.064-.756.392-1.932.392h-1.876V92zm5.152 0-2.114-4.354h1.54L422.564 92zm-3.752-5.04h1.82q1.035 0 1.526-.504.49-.518.49-1.316 0-.811-.476-1.288-.477-.476-1.54-.476h-1.82zm9.788 5.208q-1.008 0-1.792-.462a3.27 3.27 0 0 1-1.232-1.288q-.434-.825-.434-1.918 0-1.12.434-1.946a3.25 3.25 0 0 1 1.232-1.302q.784-.476 1.82-.476t1.778.462 1.148 1.232a3.5 3.5 0 0 1 .406 1.68q0 .14-.014.308 0 .155-.014.35h-5.768v-.994h4.396q-.042-.882-.588-1.372-.546-.504-1.358-.504-.575 0-1.05.266-.476.252-.77.756-.28.49-.28 1.246v.392q0 .784.28 1.33.294.532.77.812.476.266 1.036.266.672 0 1.106-.294t.644-.798h1.4q-.182.645-.616 1.162a3.1 3.1 0 0 1-1.078.798q-.63.294-1.456.294m8.177 0q-1.022 0-1.82-.462a3.45 3.45 0 0 1-1.26-1.302q-.447-.825-.448-1.918 0-1.105.448-1.932.462-.84 1.26-1.302.798-.476 1.82-.476 1.289 0 2.156.672.869.672 1.106 1.82h-1.456a1.5 1.5 0 0 0-.644-.952q-.489-.336-1.176-.336-.56 0-1.036.294a2.05 2.05 0 0 0-.77.84q-.28.546-.28 1.358 0 .601.168 1.078.168.462.448.784.294.322.672.49.378.154.798.154.462 0 .826-.14a1.6 1.6 0 0 0 .63-.448q.267-.294.364-.7h1.456a3.03 3.03 0 0 1-1.106 1.806q-.867.672-2.156.672m8.093 0q-1.009 0-1.792-.462a3.27 3.27 0 0 1-1.232-1.288q-.435-.825-.434-1.918 0-1.12.434-1.946.447-.84 1.232-1.302.783-.476 1.82-.476 1.035 0 1.778.462.741.462 1.148 1.232.405.756.406 1.68 0 .14-.014.308 0 .155-.014.35h-5.768v-.994h4.396q-.042-.882-.588-1.372-.546-.504-1.358-.504-.575 0-1.05.266-.477.252-.77.756-.28.49-.28 1.246v.392q0 .784.28 1.33.293.532.77.812.475.266 1.036.266.671 0 1.106-.294.434-.294.644-.798h1.4a3.1 3.1 0 0 1-.616 1.162q-.435.504-1.078.798-.63.294-1.456.294m5.013-.168v-7.056h1.4V92zm.714-8.386a.94.94 0 0 1-.672-.252.87.87 0 0 1-.252-.644.8.8 0 0 1 .252-.616.94.94 0 0 1 .672-.252.92.92 0 0 1 .658.252.79.79 0 0 1 .266.616.85.85 0 0 1-.266.644.92.92 0 0 1-.658.252m4.69 8.386-2.646-7.056h1.47l2.002 5.712 2.016-5.712h1.442L455.315 92zm8.395.168q-1.008 0-1.792-.462a3.27 3.27 0 0 1-1.232-1.288q-.434-.825-.434-1.918 0-1.12.434-1.946a3.25 3.25 0 0 1 1.232-1.302q.784-.476 1.82-.476t1.778.462 1.148 1.232a3.5 3.5 0 0 1 .406 1.68q0 .14-.014.308 0 .155-.014.35h-5.768v-.994h4.396q-.042-.882-.588-1.372-.546-.504-1.358-.504-.574 0-1.05.266-.476.252-.77.756-.28.49-.28 1.246v.392q0 .784.28 1.33.294.532.77.812.476.266 1.036.266.672 0 1.106-.294t.644-.798h1.4q-.182.645-.616 1.162a3.1 3.1 0 0 1-1.078.798q-.63.294-1.456.294m8.051 0q-1.007 0-1.778-.476a3.4 3.4 0 0 1-1.204-1.316q-.42-.84-.42-1.904 0-1.078.42-1.904.435-.826 1.204-1.302.784-.49 1.792-.49.826 0 1.456.336.63.322.98.924V81.92h1.4V92h-1.26l-.14-1.092a3 3 0 0 1-.546.616 2.8 2.8 0 0 1-.812.462 3 3 0 0 1-1.092.182m.224-1.218q.658 0 1.162-.308a2 2 0 0 0 .77-.868q.28-.56.28-1.302t-.28-1.288a2 2 0 0 0-.77-.868 2.1 2.1 0 0 0-1.162-.322q-.63 0-1.134.322a2.1 2.1 0 0 0-.784.868q-.28.546-.28 1.288 0 .743.28 1.302.28.56.784.868t1.134.308"
  />
  <circle cx="298" cy="115" r="10" fill="#E65C32" />
  <circle
    cx="298"
    cy="115"
    r="18.375"
    stroke="#E65C32"
    stroke-opacity=".6"
    stroke-width="1.25"
  />
  <circle
    cx="298"
    cy="115"
    r="28.375"
    stroke="#E65C32"
    stroke-opacity=".3"
    stroke-width="1.25"
  />
  <circle
    cx="298"
    cy="115"
    r="38.375"
    stroke="#E65C32"
    stroke-opacity=".1"
    stroke-width="1.25"
  />
  <g filter="url(#a)">
    <rect
      width="490"
      height="348"
      x="325"
      y="167"
      fill="black"
      fill-opacity=".01"
      rx="24"
      shape-rendering="crispEdges"
    />
    <rect
      width="488.597"
      height="346.597"
      x="325.701"
      y="167.701"
      stroke="url(#b)"
      stroke-width="1.403"
      rx="23.299"
      shape-rendering="crispEdges"
    />
    <rect width="105" height="32" x="365" y="267" fill="#F0EBD4" rx="16" />
    <path
      fill="#12110D"
      d="M382.112 287v-8.4h2.868q1.008 0 1.656.336t.96.9.312 1.284q0 .684-.312 1.26-.3.564-.948.912-.648.336-1.668.336h-1.668V287zm1.2-4.368h1.62q.948 0 1.344-.408.408-.42.408-1.104 0-.732-.408-1.128-.396-.396-1.344-.396h-1.62zm7.518 4.512q-.744 0-1.236-.252a1.7 1.7 0 0 1-.732-.672 1.9 1.9 0 0 1-.24-.924q0-.6.312-1.02.312-.432.888-.66t1.38-.228h1.572q0-.528-.156-.876a1.06 1.06 0 0 0-.468-.516q-.3-.18-.768-.18-.54 0-.924.264-.384.252-.48.756h-1.2q.072-.636.432-1.08.372-.456.948-.696a3 3 0 0 1 1.224-.252q.852 0 1.428.3t.864.852q.3.54.3 1.296V287h-1.044l-.096-1.02q-.132.24-.312.456t-.432.372q-.24.156-.564.24-.312.096-.696.096m.228-.972q.384 0 .696-.156t.528-.42q.228-.276.336-.612.12-.348.132-.708v-.036h-1.428q-.516 0-.84.132a.93.93 0 0 0-.456.336.9.9 0 0 0-.144.504q0 .3.132.516a1 1 0 0 0 .408.324q.264.12.636.12m6.787.972q-.768 0-1.344-.252a2.2 2.2 0 0 1-.912-.708 2.2 2.2 0 0 1-.408-1.068h1.224q.06.288.228.528.18.24.48.384.312.144.732.144.396 0 .648-.108a.85.85 0 0 0 .384-.312q.12-.204.12-.432 0-.336-.168-.504-.156-.18-.48-.276a5.4 5.4 0 0 0-.756-.192 7 7 0 0 1-.816-.192 3.5 3.5 0 0 1-.696-.324q-.3-.192-.48-.48-.18-.3-.18-.732 0-.516.276-.924.276-.42.78-.648.516-.24 1.212-.24 1.008 0 1.62.48t.72 1.356h-1.164a.84.84 0 0 0-.36-.624q-.312-.228-.828-.228t-.792.204a.64.64 0 0 0-.276.54q0 .216.156.384t.456.288q.312.108.756.204.636.12 1.14.3t.804.528.3.996a1.64 1.64 0 0 1-.288.996 1.9 1.9 0 0 1-.828.672q-.528.24-1.26.24m6.039-.144q-.576 0-.996-.18a1.3 1.3 0 0 1-.648-.6q-.228-.42-.228-1.14v-3.108h-1.044v-1.02h1.044l.144-1.512h1.056v1.512h1.716v1.02h-1.716v3.12q0 .516.216.708.216.18.744.18h.696V287zm8.162.144a3.7 3.7 0 0 1-1.476-.288q-.66-.3-1.056-.888-.384-.6-.408-1.5h1.2q.012.456.216.828t.588.6q.396.216.936.216t.9-.204q.372-.204.552-.552.192-.348.192-.78 0-.54-.264-.876a1.5 1.5 0 0 0-.696-.504 2.7 2.7 0 0 0-.972-.168h-.624v-1.008h.624q.756 0 1.2-.348.456-.348.456-.984 0-.528-.348-.864t-1.02-.336-1.068.384q-.384.384-.432.972h-1.188q.036-.708.372-1.248.348-.552.936-.84.6-.3 1.38-.3.84 0 1.404.3.576.288.864.78.3.492.3 1.08 0 .444-.168.828a1.85 1.85 0 0 1-1.236 1.044q.48.096.864.372t.6.72q.216.432.216 1.008 0 .684-.324 1.272a2.46 2.46 0 0 1-.96.936q-.624.348-1.56.348m7.737 0q-1.116 0-1.92-.54-.804-.552-1.236-1.524-.432-.984-.432-2.28t.432-2.268q.432-.984 1.236-1.524.804-.552 1.92-.552t1.908.552q.804.54 1.224 1.524.432.972.432 2.268t-.432 2.28q-.42.972-1.224 1.524-.792.54-1.908.54m0-1.068q.672 0 1.2-.396.54-.396.84-1.128t.3-1.752-.3-1.752-.84-1.116a1.95 1.95 0 0 0-1.2-.396q-.684 0-1.224.396-.54.384-.84 1.116t-.3 1.752.3 1.752.84 1.128 1.224.396m10.707 1.068q-.864 0-1.524-.408a2.9 2.9 0 0 1-1.032-1.128q-.36-.72-.36-1.632 0-.924.36-1.632a2.84 2.84 0 0 1 1.032-1.116q.672-.42 1.536-.42.708 0 1.248.288.54.276.84.792v-3.528h1.2V287h-1.08l-.12-.936q-.18.276-.468.528-.288.24-.696.396a2.6 2.6 0 0 1-.936.156m.192-1.044q.564 0 .996-.264t.66-.744q.24-.48.24-1.116t-.24-1.104a1.7 1.7 0 0 0-.66-.744 1.8 1.8 0 0 0-.996-.276q-.54 0-.972.276a1.8 1.8 0 0 0-.672.744q-.24.468-.24 1.104t.24 1.116.672.744.972.264m6.753 1.044q-.744 0-1.236-.252a1.7 1.7 0 0 1-.732-.672 1.9 1.9 0 0 1-.24-.924q0-.6.312-1.02.312-.432.888-.66t1.38-.228h1.572q0-.528-.156-.876a1.06 1.06 0 0 0-.468-.516q-.3-.18-.768-.18-.54 0-.924.264-.384.252-.48.756h-1.2q.072-.636.432-1.08.372-.456.948-.696a3 3 0 0 1 1.224-.252q.852 0 1.428.3t.864.852q.3.54.3 1.296V287h-1.044l-.096-1.02q-.132.24-.312.456t-.432.372q-.24.156-.564.24-.312.096-.696.096m.228-.972q.384 0 .696-.156t.528-.42q.228-.276.336-.612.12-.348.132-.708v-.036h-1.428q-.516 0-.84.132a.93.93 0 0 0-.456.336.9.9 0 0 0-.144.504q0 .3.132.516a1 1 0 0 0 .408.324q.264.12.636.12m4.956 3.468 1.476-3.312h-.348l-2.388-5.376h1.296l1.896 4.392 1.908-4.392h1.26l-3.84 8.688zm8.172-2.496q-.768 0-1.344-.252a2.2 2.2 0 0 1-.912-.708 2.2 2.2 0 0 1-.408-1.068h1.224q.06.288.228.528.18.24.48.384.312.144.732.144.396 0 .648-.108a.85.85 0 0 0 .384-.312q.12-.204.12-.432 0-.336-.168-.504-.156-.18-.48-.276a5.4 5.4 0 0 0-.756-.192 7 7 0 0 1-.816-.192 3.5 3.5 0 0 1-.696-.324q-.3-.192-.48-.48-.18-.3-.18-.732 0-.516.276-.924.276-.42.78-.648.516-.24 1.212-.24 1.008 0 1.62.48t.72 1.356h-1.164a.84.84 0 0 0-.36-.624q-.312-.228-.828-.228t-.792.204a.64.64 0 0 0-.276.54q0 .216.156.384t.456.288q.312.108.756.204.636.12 1.14.3t.804.528.3.996a1.64 1.64 0 0 1-.288.996 1.9 1.9 0 0 1-.828.672q-.528.24-1.26.24"
    />
    <path
      fill="white"
      d="M367.336 240v-22.4h13.92v2.624h-10.72v7.264h8.96v2.56h-8.96V240zm17.408 0v-16.128h3.2V240zm1.632-19.168q-.928 0-1.536-.576-.576-.576-.576-1.472 0-.864.576-1.408.607-.576 1.536-.576.895 0 1.504.576.608.544.608 1.408 0 .896-.608 1.472-.609.576-1.504.576M392.52 240v-16.128h2.88l.192 2.752a5.7 5.7 0 0 1 2.176-2.272q1.407-.864 3.232-.864 1.92 0 3.296.768t2.144 2.336q.768 1.536.768 3.872V240h-3.2v-9.216q0-2.24-.992-3.392-.993-1.152-2.88-1.152-1.248 0-2.24.608-.993.576-1.6 1.728-.576 1.152-.576 2.816V240zm25.949.384q-2.304 0-4.064-1.088a7.8 7.8 0 0 1-2.752-3.008q-.96-1.92-.96-4.352 0-2.464.96-4.352.992-1.888 2.752-2.976 1.792-1.12 4.096-1.12 1.888 0 3.328.768a5.35 5.35 0 0 1 2.24 2.112v-9.408h3.2V240h-2.88l-.32-2.496q-.48.736-1.248 1.408-.768.64-1.856 1.056t-2.496.416m.512-2.784q1.504 0 2.656-.704t1.76-1.984q.64-1.28.64-2.976t-.64-2.944q-.608-1.28-1.76-1.984-1.152-.736-2.656-.736-1.44 0-2.592.736-1.152.704-1.792 1.984-.64 1.248-.64 2.944t.64 2.976 1.792 1.984 2.592.704m12.888 2.4v-16.128h3.2V240zm1.632-19.168q-.928 0-1.536-.576-.576-.576-.576-1.472 0-.864.576-1.408.607-.576 1.536-.576.895 0 1.504.576.608.544.608 1.408 0 .896-.608 1.472-.609.576-1.504.576M439.645 240v-16.128h2.88l.192 2.752a5.7 5.7 0 0 1 2.176-2.272q1.407-.864 3.232-.864 1.92 0 3.296.768t2.144 2.336q.768 1.536.768 3.872V240h-3.2v-9.216q0-2.24-.992-3.392-.993-1.152-2.88-1.152-1.248 0-2.24.608-.993.576-1.6 1.728-.576 1.152-.576 2.816V240zm25.341 7.424q-2.208 0-3.904-.576-1.696-.544-2.624-1.696t-.928-2.816q0-.864.384-1.76.384-.864 1.248-1.664t2.336-1.44l1.792 1.44q-1.632.607-2.208 1.44-.544.864-.544 1.664 0 .96.576 1.6t1.568.96q1.024.32 2.304.32 1.248 0 2.176-.352t1.44-.992.512-1.504q0-1.024-.768-1.728-.768-.672-2.944-.8a31 31 0 0 1-3.104-.352 13.6 13.6 0 0 1-2.144-.544 8 8 0 0 1-1.472-.704 6.5 6.5 0 0 1-.992-.8v-.736l3.2-3.296 2.592.896-3.488 3.232.672-1.44q.353.224.672.448.32.192.864.352t1.472.288 2.432.256q2.176.16 3.488.768 1.344.608 1.952 1.632t.608 2.432q0 1.376-.768 2.624-.736 1.248-2.336 2.048-1.568.8-4.064.8m0-12.384q-2.048 0-3.488-.768-1.408-.768-2.176-2.08-.736-1.312-.736-2.912 0-1.632.736-2.912.768-1.312 2.208-2.08 1.44-.8 3.456-.8t3.424.8q1.44.768 2.176 2.08.768 1.28.768 2.912 0 1.6-.768 2.912-.736 1.312-2.176 2.08-1.408.768-3.424.768m0-2.56q1.567 0 2.496-.8.928-.832.928-2.4t-.928-2.368q-.929-.832-2.496-.832-1.568 0-2.528.832-.96.8-.96 2.368t.96 2.4q.96.8 2.528.8m2.624-6.08-.768-2.528h6.624v2.208zm15.306 13.984q-2.048 0-3.584-.672t-2.432-1.888-1.088-2.848h3.264q.16.768.608 1.408.48.64 1.28 1.024.832.384 1.952.384 1.056 0 1.728-.288.704-.32 1.024-.832.32-.544.32-1.152 0-.895-.448-1.344-.416-.48-1.28-.736a14.5 14.5 0 0 0-2.016-.512 18 18 0 0 1-2.176-.512 9.3 9.3 0 0 1-1.856-.864 4.1 4.1 0 0 1-1.28-1.28q-.48-.8-.48-1.952 0-1.376.736-2.464.736-1.12 2.08-1.728 1.376-.64 3.232-.64 2.688 0 4.32 1.28t1.92 3.616h-3.104q-.127-1.088-.96-1.664-.833-.608-2.208-.608t-2.112.544q-.736.544-.736 1.44 0 .576.416 1.024t1.216.768q.832.288 2.016.544 1.696.32 3.04.8t2.144 1.408.8 2.656q.031 1.504-.768 2.656-.768 1.152-2.208 1.792-1.409.64-3.36.64"
    />
  </g>
  <g filter="url(#c)">
    <rect width="290" height="54" x="565" y="215" fill="white" rx="12" />
    <circle cx="591" cy="242" r="10" fill="#D13415" />
    <path
      fill="#202020"
      d="M617.612 247.168q-1.065 0-1.848-.378a2.97 2.97 0 0 1-1.204-1.036 3.14 3.14 0 0 1-.504-1.498h1.848q.098.546.56.924t1.162.378q.504 0 .882-.252t.588-.672q.21-.434.21-.98 0-.56-.224-.966a1.58 1.58 0 0 0-1.428-.854q-.603 0-1.036.294-.42.28-.602.686h-1.834l.812-5.614h5.502v1.652h-4.102l-.406 2.184q.307-.322.826-.518.517-.21 1.162-.21.798 0 1.386.28.587.266.98.742.391.462.588 1.064.196.588.196 1.246 0 .77-.266 1.414a3.2 3.2 0 0 1-.728 1.12 3.25 3.25 0 0 1-1.106.742 3.8 3.8 0 0 1-1.414.252m17.694 0q-1.428 0-2.478-.63a4.27 4.27 0 0 1-1.596-1.778q-.56-1.148-.56-2.66t.56-2.646q.56-1.148 1.596-1.778 1.05-.644 2.478-.644 1.68 0 2.73.798t1.344 2.254h-1.302q-.224-.91-.91-1.456-.686-.56-1.862-.56-1.05 0-1.82.49-.77.476-1.19 1.386-.42.896-.42 2.156t.42 2.17q.42.896 1.19 1.386.77.476 1.82.476 1.176 0 1.862-.532a2.6 2.6 0 0 0 .91-1.442h1.302q-.294 1.414-1.344 2.212t-2.73.798m5.709-.168v-7.056h1.064l.084 1.344q.238-.476.602-.812.378-.336.896-.518a3.7 3.7 0 0 1 1.204-.182v1.232h-.434q-.448 0-.854.126a1.95 1.95 0 0 0-.728.378 1.8 1.8 0 0 0-.49.728q-.168.448-.168 1.12V247zm5.294 0v-7.056h1.176V247zm.588-8.554a.82.82 0 0 1-.588-.224.82.82 0 0 1-.224-.588.73.73 0 0 1 .224-.56.82.82 0 0 1 .588-.224.8.8 0 0 1 .574.224q.238.21.238.56t-.238.588a.8.8 0 0 1-.574.224m5.435 8.554q-.63 0-1.092-.196a1.44 1.44 0 0 1-.714-.658q-.238-.476-.238-1.274v-3.934h-1.232v-.994h1.232l.154-1.708h1.022v1.708h2.044v.994h-2.044v3.934q0 .658.266.896.266.224.938.224h.756V247zm2.823 0v-7.056h1.176V247zm.588-8.554a.82.82 0 0 1-.588-.224.82.82 0 0 1-.224-.588.73.73 0 0 1 .224-.56.82.82 0 0 1 .588-.224.8.8 0 0 1 .574.224q.238.21.238.56t-.238.588a.8.8 0 0 1-.574.224m5.841 8.722a3.5 3.5 0 0 1-1.792-.462 3.27 3.27 0 0 1-1.232-1.288q-.448-.84-.448-1.932 0-1.12.448-1.946.447-.826 1.232-1.288a3.43 3.43 0 0 1 1.792-.476q1.26 0 2.1.658.84.644 1.064 1.736h-1.204a1.58 1.58 0 0 0-.686-1.022q-.546-.364-1.288-.364-.603 0-1.12.308-.519.294-.826.896-.309.602-.308 1.484 0 .658.182 1.176.181.504.49.84.307.336.714.518.42.168.868.168.504 0 .91-.154.405-.168.686-.49.279-.323.378-.756h1.204a2.9 2.9 0 0 1-1.078 1.736q-.84.658-2.086.658m7.13 0q-.855 0-1.429-.294-.574-.308-.853-.798-.28-.504-.28-1.092 0-.714.364-1.204.378-.504 1.05-.756.686-.266 1.61-.266h1.862q0-.658-.21-1.092a1.4 1.4 0 0 0-.588-.672q-.379-.224-.952-.224-.673 0-1.162.336-.49.336-.602.994h-1.204q.084-.756.504-1.26a2.7 2.7 0 0 1 1.092-.784 3.5 3.5 0 0 1 1.372-.28q.98 0 1.624.364.657.35.98.994.322.63.322 1.498V247h-1.05l-.07-1.246a2.6 2.6 0 0 1-.364.56q-.21.252-.504.448-.294.181-.673.294a2.8 2.8 0 0 1-.839.112m.182-.994q.489 0 .882-.196.405-.21.686-.56.279-.364.42-.798.154-.434.154-.91v-.042h-1.764q-.687 0-1.106.168-.42.154-.602.448a1.15 1.15 0 0 0-.182.644q0 .378.168.658.182.28.518.434.35.154.826.154m5.137.826v-10.08h1.176V247zm6.906 0v-9.8h5.964v.966h-4.788v3.444h4.074v.952h-4.074V247zm7.534 0v-7.056h1.176V247zm.588-8.554a.83.83 0 0 1-.588-.224.83.83 0 0 1-.224-.588q0-.35.224-.56a.83.83 0 0 1 .588-.224.8.8 0 0 1 .574.224.71.71 0 0 1 .238.56.8.8 0 0 1-.238.588.8.8 0 0 1-.574.224m2.663 8.554v-7.056h1.064l.056 1.232q.336-.658.952-1.022.63-.378 1.428-.378.827 0 1.428.336.602.322.938.994.336.659.336 1.68V247h-1.176v-4.088q0-1.064-.476-1.596-.462-.532-1.316-.532-.588 0-1.05.294a2 2 0 0 0-.742.826q-.266.532-.266 1.33V247zm11.147.168q-1.021 0-1.792-.476a3.3 3.3 0 0 1-1.19-1.33q-.42-.84-.42-1.904t.42-1.89q.42-.84 1.19-1.316.785-.476 1.806-.476.869 0 1.512.35.658.35 1.008.98v-4.186h1.176V247h-1.064l-.098-1.162q-.223.35-.574.658a3 3 0 0 1-.84.49 3.3 3.3 0 0 1-1.134.182m.14-1.022q.7 0 1.232-.336t.826-.924q.294-.602.294-1.414 0-.798-.294-1.4a2.25 2.25 0 0 0-.826-.938 2.26 2.26 0 0 0-1.232-.336q-.686 0-1.218.336t-.826.938-.294 1.4q0 .812.294 1.414.294.588.826.924t1.218.336m5.642.854v-7.056h1.176V247zm.588-8.554a.82.82 0 0 1-.588-.224.82.82 0 0 1-.224-.588.73.73 0 0 1 .224-.56.82.82 0 0 1 .588-.224.8.8 0 0 1 .574.224q.238.21.238.56t-.238.588a.8.8 0 0 1-.574.224m2.663 8.554v-7.056h1.064l.056 1.232q.336-.658.952-1.022.63-.378 1.428-.378.825 0 1.428.336.602.322.938.994.336.659.336 1.68V247h-1.176v-4.088q0-1.064-.476-1.596-.462-.532-1.316-.532-.588 0-1.05.294a2 2 0 0 0-.742.826q-.266.532-.266 1.33V247zm10.825 3.248q-.952 0-1.694-.252-.728-.238-1.134-.742t-.406-1.246a2.1 2.1 0 0 1 .126-.686 2.3 2.3 0 0 1 .462-.714q.336-.35.938-.63l.812.476q-.742.308-.966.7-.224.406-.224.742 0 .462.266.77t.742.462 1.078.154 1.036-.168.672-.476.238-.728q0-.49-.364-.826-.365-.322-1.386-.378a14 14 0 0 1-1.386-.154 6 6 0 0 1-.924-.224 3 3 0 0 1-.616-.308 4 4 0 0 1-.434-.35v-.322l1.358-1.344 1.022.364-1.4 1.26.182-.49q.154.112.294.21t.378.168.658.126q.433.056 1.134.112.966.07 1.54.336.588.265.84.714.266.448.266 1.064 0 .602-.336 1.134-.322.546-1.008.896t-1.764.35m-.014-5.46q-.882 0-1.512-.336a2.35 2.35 0 0 1-.938-.896 2.56 2.56 0 0 1-.322-1.274q0-.7.322-1.26a2.45 2.45 0 0 1 .952-.896q.616-.35 1.498-.35t1.498.35q.616.336.938.896t.322 1.26-.322 1.274a2.35 2.35 0 0 1-.938.896q-.616.336-1.498.336m0-.966q.756 0 1.19-.392t.434-1.148q0-.743-.434-1.134-.434-.392-1.19-.392-.742 0-1.204.392-.448.391-.448 1.134 0 .756.448 1.148t1.204.392m1.148-2.884-.35-.994h2.884v.882zm6.547 6.23q-.882 0-1.54-.294a2.65 2.65 0 0 1-1.036-.812 2.65 2.65 0 0 1-.462-1.246h1.204q.069.364.294.672t.602.504q.391.182.952.182.49 0 .812-.14.321-.154.476-.406a.97.97 0 0 0 .168-.546q0-.434-.21-.658-.196-.224-.588-.35a6 6 0 0 0-.952-.238 8 8 0 0 1-.91-.224 3.3 3.3 0 0 1-.798-.364 1.9 1.9 0 0 1-.56-.574q-.196-.336-.196-.826 0-.602.308-1.064.308-.476.882-.742.588-.266 1.358-.266 1.134 0 1.834.546t.826 1.582h-1.162q-.07-.532-.462-.826-.378-.308-1.05-.308-.659 0-1.008.266a.85.85 0 0 0-.336.7q0 .28.182.504.195.21.56.364.378.155.924.252.7.126 1.274.336.573.21.924.63.364.406.364 1.162 0 .658-.336 1.148a2.17 2.17 0 0 1-.924.77q-.603.266-1.414.266"
    />
  </g>
  <g filter="url(#d)">
    <rect width="290" height="54" x="565" y="281" fill="white" rx="12" />
    <circle cx="591" cy="308" r="10" fill="#F2750E" />
    <path
      fill="#202020"
      d="M617.482 313.168a4.3 4.3 0 0 1-1.75-.35 2.9 2.9 0 0 1-1.274-1.064q-.476-.714-.504-1.806h1.848q.015.462.21.84.196.365.574.588.378.21.896.21.49 0 .84-.196t.532-.518.182-.742q0-.49-.252-.812a1.4 1.4 0 0 0-.672-.504 2.6 2.6 0 0 0-.966-.168h-.728v-1.554h.728q.687 0 1.148-.322.476-.322.476-.966 0-.532-.35-.854-.336-.322-.952-.322-.672 0-1.05.392a1.5 1.5 0 0 0-.42.966h-1.848q.042-.924.462-1.582.435-.672 1.162-1.022.728-.35 1.694-.35 1.023 0 1.722.364.715.35 1.078.952.364.601.364 1.302 0 .574-.224 1.022-.21.448-.574.742a2.3 2.3 0 0 1-.798.42q.547.112.952.434.42.307.644.798.238.49.238 1.134 0 .798-.392 1.484-.378.672-1.148 1.078-.756.406-1.848.406m19.826-.168v-9.8h1.176v9.8zm-6.258 0v-9.8h1.176v9.8zm.952-4.508v-.966h5.6v.966zm8.619 4.508v-7.056h1.176V313zm.588-8.554a.83.83 0 0 1-.588-.224.83.83 0 0 1-.224-.588q0-.35.224-.56a.83.83 0 0 1 .588-.224q.337 0 .574.224a.71.71 0 0 1 .238.56.8.8 0 0 1-.238.588.8.8 0 0 1-.574.224m5.45 11.802q-.953 0-1.694-.252-.729-.238-1.134-.742-.406-.504-.406-1.246a2.1 2.1 0 0 1 .126-.686 2.3 2.3 0 0 1 .462-.714q.336-.35.938-.63l.812.476q-.742.308-.966.7-.224.406-.224.742 0 .462.266.77.265.307.742.462.475.154 1.078.154.601 0 1.036-.168.433-.168.672-.476a1.16 1.16 0 0 0 .238-.728q0-.49-.364-.826-.365-.322-1.386-.378a14 14 0 0 1-1.386-.154 6 6 0 0 1-.924-.224 3 3 0 0 1-.616-.308 4 4 0 0 1-.434-.35v-.322l1.358-1.344 1.022.364-1.4 1.26.182-.49q.153.113.294.21t.378.168.658.126q.433.056 1.134.112.966.07 1.54.336.588.266.84.714.266.448.266 1.064 0 .602-.336 1.134-.322.546-1.008.896-.687.35-1.764.35m-.014-5.46q-.882 0-1.512-.336a2.35 2.35 0 0 1-.938-.896 2.56 2.56 0 0 1-.322-1.274q0-.7.322-1.26a2.45 2.45 0 0 1 .952-.896q.615-.35 1.498-.35.882 0 1.498.35.615.336.938.896t.322 1.26-.322 1.274a2.36 2.36 0 0 1-.938.896q-.616.336-1.498.336m0-.966q.755 0 1.19-.392t.434-1.148q0-.743-.434-1.134-.434-.392-1.19-.392-.742 0-1.204.392-.448.392-.448 1.134 0 .756.448 1.148.447.392 1.204.392m1.148-2.884-.35-.994h2.884v.882zm3.886 6.062v-10.08h1.176v4.214q.35-.63.98-.994.644-.364 1.4-.364.813 0 1.414.336.603.322.924.994t.322 1.694v4.2h-1.162v-4.074q0-1.063-.448-1.596-.447-.546-1.302-.546-.601 0-1.092.294a2.1 2.1 0 0 0-.756.84q-.28.546-.28 1.344V313zm11.842 0v-9.8h5.964v.966h-4.788v3.444h4.074v.952h-4.074V313zm7.534 0v-7.056h1.176V313zm.588-8.554a.83.83 0 0 1-.588-.224.83.83 0 0 1-.224-.588q0-.35.224-.56a.83.83 0 0 1 .588-.224.8.8 0 0 1 .574.224.71.71 0 0 1 .238.56.8.8 0 0 1-.238.588.8.8 0 0 1-.574.224m2.663 8.554v-7.056h1.064l.056 1.232q.337-.658.952-1.022.63-.378 1.428-.378.827 0 1.428.336.603.322.938.994.336.659.336 1.68V313h-1.176v-4.088q0-1.064-.476-1.596-.462-.532-1.316-.532-.588 0-1.05.294a2 2 0 0 0-.742.826q-.266.532-.266 1.33V313zm11.147.168q-1.021 0-1.792-.476a3.3 3.3 0 0 1-1.19-1.33q-.42-.84-.42-1.904t.42-1.89q.42-.84 1.19-1.316.784-.476 1.806-.476.868 0 1.512.35.659.35 1.008.98v-4.186h1.176V313h-1.064l-.098-1.162q-.223.35-.574.658a3 3 0 0 1-.84.49 3.3 3.3 0 0 1-1.134.182m.14-1.022q.7 0 1.232-.336t.826-.924q.294-.602.294-1.414 0-.798-.294-1.4a2.25 2.25 0 0 0-.826-.938 2.26 2.26 0 0 0-1.232-.336q-.686 0-1.218.336t-.826.938-.294 1.4q0 .812.294 1.414.295.588.826.924.533.336 1.218.336m5.642.854v-7.056h1.176V313zm.588-8.554a.82.82 0 0 1-.588-.224.82.82 0 0 1-.224-.588.73.73 0 0 1 .224-.56.82.82 0 0 1 .588-.224.8.8 0 0 1 .574.224q.237.21.238.56 0 .35-.238.588a.8.8 0 0 1-.574.224m2.663 8.554v-7.056h1.064l.056 1.232q.336-.658.952-1.022.63-.378 1.428-.378.827 0 1.428.336.602.322.938.994.336.659.336 1.68V313h-1.176v-4.088q0-1.064-.476-1.596-.462-.532-1.316-.532-.588 0-1.05.294a2 2 0 0 0-.742.826q-.266.532-.266 1.33V313zm10.825 3.248q-.952 0-1.694-.252-.728-.238-1.134-.742t-.406-1.246a2.1 2.1 0 0 1 .126-.686 2.3 2.3 0 0 1 .462-.714q.336-.35.938-.63l.812.476q-.743.308-.966.7-.224.406-.224.742 0 .462.266.77.266.307.742.462.476.154 1.078.154t1.036-.168.672-.476.238-.728q0-.49-.364-.826-.365-.322-1.386-.378a14 14 0 0 1-1.386-.154 6 6 0 0 1-.924-.224 3 3 0 0 1-.616-.308 4 4 0 0 1-.434-.35v-.322l1.358-1.344 1.022.364-1.4 1.26.182-.49q.154.113.294.21t.378.168.658.126q.433.056 1.134.112.966.07 1.54.336.588.266.84.714.266.448.266 1.064 0 .602-.336 1.134-.323.546-1.008.896-.686.35-1.764.35m-.014-5.46q-.882 0-1.512-.336a2.35 2.35 0 0 1-.938-.896 2.56 2.56 0 0 1-.322-1.274q0-.7.322-1.26a2.45 2.45 0 0 1 .952-.896q.616-.35 1.498-.35t1.498.35q.616.336.938.896t.322 1.26-.322 1.274a2.35 2.35 0 0 1-.938.896q-.616.336-1.498.336m0-.966q.756 0 1.19-.392t.434-1.148q0-.743-.434-1.134-.434-.392-1.19-.392-.742 0-1.204.392-.448.392-.448 1.134 0 .756.448 1.148t1.204.392m1.148-2.884-.35-.994h2.884v.882zm6.547 6.23q-.882 0-1.54-.294a2.65 2.65 0 0 1-1.036-.812 2.65 2.65 0 0 1-.462-1.246h1.204q.069.364.294.672.224.307.602.504.391.182.952.182.49 0 .812-.14.321-.154.476-.406a.97.97 0 0 0 .168-.546q0-.434-.21-.658-.197-.224-.588-.35a6 6 0 0 0-.952-.238 8 8 0 0 1-.91-.224 3.3 3.3 0 0 1-.798-.364 1.9 1.9 0 0 1-.56-.574q-.196-.336-.196-.826 0-.602.308-1.064.308-.476.882-.742.588-.266 1.358-.266 1.134 0 1.834.546t.826 1.582h-1.162q-.07-.532-.462-.826-.378-.308-1.05-.308-.658 0-1.008.266a.85.85 0 0 0-.336.7q0 .28.182.504.195.21.56.364.378.155.924.252.7.126 1.274.336.573.21.924.63.363.406.364 1.162 0 .658-.336 1.148a2.17 2.17 0 0 1-.924.77q-.603.266-1.414.266"
    />
  </g>
  <g filter="url(#e)">
    <rect width="290" height="54" x="565" y="347" fill="white" rx="12" />
    <circle cx="591" cy="374" r="10" fill="#FFDB4E" />
    <path
      fill="#202020"
      d="M617.494 379.168a4.5 4.5 0 0 1-1.82-.364 3.14 3.14 0 0 1-1.288-1.022 2.54 2.54 0 0 1-.476-1.526q0-.601.196-1.092.21-.49.574-.868a2.4 2.4 0 0 1 .868-.574 2.6 2.6 0 0 1-1.022-.84 2.1 2.1 0 0 1-.378-1.232q0-.686.378-1.288t1.12-.966 1.848-.364 1.848.364 1.12.966.378 1.288q0 .672-.392 1.232a2.47 2.47 0 0 1-1.008.84q.505.21.868.588.378.364.574.854.21.49.21 1.092 0 .868-.49 1.526a3.1 3.1 0 0 1-1.288 1.022q-.812.364-1.82.364m0-1.582q.868 0 1.302-.42t.434-1.064q0-.714-.462-1.12-.447-.42-1.274-.42-.811 0-1.288.42-.462.406-.462 1.12 0 .644.448 1.064t1.302.42m0-4.41q.714 0 1.092-.364.392-.364.392-.938 0-.616-.392-.952-.378-.35-1.092-.35-.699 0-1.092.35-.392.336-.392.966 0 .56.392.924.393.364 1.092.364M631.05 379v-9.8h1.372l3.458 6.846 3.472-6.846h1.386v9.8h-1.176v-7.7l-3.234 6.328h-.882l-3.22-6.3V379zm14.795.168q-.993 0-1.764-.462a3.24 3.24 0 0 1-1.19-1.288q-.434-.84-.434-1.946 0-1.12.42-1.946.435-.826 1.204-1.288.784-.462 1.792-.462 1.036 0 1.75.462.729.462 1.106 1.218.392.742.392 1.638v.294q0 .154-.014.35h-5.768v-.91h4.634q-.042-.966-.644-1.512-.588-.546-1.484-.546-.601 0-1.12.28a2 2 0 0 0-.812.798q-.308.518-.308 1.302v.392q0 .868.308 1.456.322.588.826.882.519.294 1.106.294.742 0 1.218-.322.49-.336.7-.896h1.162q-.168.63-.588 1.134t-1.05.798q-.615.28-1.442.28m7.972 0q-1.023 0-1.792-.476a3.3 3.3 0 0 1-1.19-1.33q-.42-.84-.42-1.904t.42-1.89a3.2 3.2 0 0 1 1.19-1.316q.783-.476 1.806-.476.867 0 1.512.35.657.35 1.008.98v-4.186h1.176V379h-1.064l-.098-1.162q-.225.35-.574.658a3.1 3.1 0 0 1-.84.49 3.3 3.3 0 0 1-1.134.182m.14-1.022a2.26 2.26 0 0 0 1.232-.336q.532-.336.826-.924.294-.602.294-1.414 0-.798-.294-1.4a2.25 2.25 0 0 0-.826-.938 2.26 2.26 0 0 0-1.232-.336q-.687 0-1.218.336-.532.336-.826.938t-.294 1.4q0 .812.294 1.414.294.588.826.924.531.336 1.218.336m5.641.854v-7.056h1.176V379zm.588-8.554a.83.83 0 0 1-.588-.224.83.83 0 0 1-.224-.588q0-.35.224-.56a.83.83 0 0 1 .588-.224.8.8 0 0 1 .574.224.71.71 0 0 1 .238.56.8.8 0 0 1-.238.588.8.8 0 0 1-.574.224m5.225 8.722q-.812 0-1.428-.322-.602-.322-.938-.994-.322-.672-.322-1.68v-4.228h1.176v4.102q0 1.05.462 1.582t1.302.532q.588 0 1.064-.28.476-.294.742-.826.28-.546.28-1.33v-3.78h1.176V379h-1.064l-.07-1.232a2.43 2.43 0 0 1-.952 1.036q-.63.364-1.428.364m5.464-.168v-7.056h1.064l.07 1.008q.336-.546.896-.854a2.5 2.5 0 0 1 1.246-.322q.546 0 .98.154.447.14.784.448.336.294.546.756a2.54 2.54 0 0 1 .994-.994 2.74 2.74 0 0 1 1.372-.364q.811 0 1.414.336.615.322.938.994.336.659.336 1.68V379h-1.162v-4.088q0-1.064-.434-1.596-.435-.532-1.218-.532-.546 0-.98.294-.434.28-.686.826t-.252 1.344V379h-1.176v-4.088q0-1.064-.434-1.596-.435-.532-1.232-.532-.533 0-.966.294-.42.28-.672.826t-.252 1.344V379zm16.257 0v-9.8h5.964v.966h-4.788v3.444h4.074v.952h-4.074V379zm7.534 0v-7.056h1.176V379zm.588-8.554a.83.83 0 0 1-.588-.224.83.83 0 0 1-.224-.588q0-.35.224-.56a.83.83 0 0 1 .588-.224q.337 0 .574.224a.71.71 0 0 1 .238.56.8.8 0 0 1-.238.588.8.8 0 0 1-.574.224m2.664 8.554v-7.056h1.064l.056 1.232q.336-.658.952-1.022.63-.378 1.428-.378.825 0 1.428.336.602.322.938.994.336.659.336 1.68V379h-1.176v-4.088q0-1.064-.476-1.596-.462-.532-1.316-.532-.588 0-1.05.294a2 2 0 0 0-.742.826q-.266.532-.266 1.33V379zm11.147.168q-1.023 0-1.792-.476a3.3 3.3 0 0 1-1.19-1.33q-.42-.84-.42-1.904t.42-1.89a3.2 3.2 0 0 1 1.19-1.316q.783-.476 1.806-.476.867 0 1.512.35.657.35 1.008.98v-4.186h1.176V379h-1.064l-.098-1.162q-.225.35-.574.658a3.1 3.1 0 0 1-.84.49 3.3 3.3 0 0 1-1.134.182m.14-1.022a2.26 2.26 0 0 0 1.232-.336q.532-.336.826-.924.294-.602.294-1.414 0-.798-.294-1.4a2.25 2.25 0 0 0-.826-.938 2.26 2.26 0 0 0-1.232-.336q-.687 0-1.218.336-.532.336-.826.938t-.294 1.4q0 .812.294 1.414.294.588.826.924.531.336 1.218.336m5.641.854v-7.056h1.176V379zm.588-8.554a.83.83 0 0 1-.588-.224.83.83 0 0 1-.224-.588q0-.35.224-.56a.83.83 0 0 1 .588-.224.8.8 0 0 1 .574.224.71.71 0 0 1 .238.56.8.8 0 0 1-.238.588.8.8 0 0 1-.574.224m2.663 8.554v-7.056h1.064l.056 1.232q.337-.658.952-1.022.63-.378 1.428-.378.827 0 1.428.336.603.322.938.994.336.659.336 1.68V379h-1.176v-4.088q0-1.064-.476-1.596-.461-.532-1.316-.532-.588 0-1.05.294a2 2 0 0 0-.742.826q-.266.532-.266 1.33V379zm10.825 3.248q-.951 0-1.694-.252-.728-.238-1.134-.742t-.406-1.246a2.1 2.1 0 0 1 .126-.686q.141-.364.462-.714.336-.35.938-.63l.812.476q-.741.308-.966.7-.224.406-.224.742 0 .462.266.77.267.307.742.462a3.5 3.5 0 0 0 1.078.154q.603 0 1.036-.168a1.5 1.5 0 0 0 .672-.476q.238-.308.238-.728 0-.49-.364-.826-.363-.323-1.386-.378a14 14 0 0 1-1.386-.154 6 6 0 0 1-.924-.224 3 3 0 0 1-.616-.308 4 4 0 0 1-.434-.35v-.322l1.358-1.344 1.022.364-1.4 1.26.182-.49q.154.113.294.21.141.097.378.168.238.07.658.126.435.056 1.134.112.966.07 1.54.336.588.266.84.714.267.448.266 1.064 0 .602-.336 1.134-.321.546-1.008.896-.686.35-1.764.35m-.014-5.46q-.882 0-1.512-.336a2.36 2.36 0 0 1-.938-.896 2.57 2.57 0 0 1-.322-1.274q0-.7.322-1.26.337-.56.952-.896.616-.35 1.498-.35t1.498.35q.617.336.938.896.322.56.322 1.26t-.322 1.274a2.35 2.35 0 0 1-.938.896q-.615.336-1.498.336m0-.966q.756 0 1.19-.392t.434-1.148q0-.743-.434-1.134-.434-.392-1.19-.392-.741 0-1.204.392-.447.392-.448 1.134 0 .756.448 1.148t1.204.392m1.148-2.884-.35-.994h2.884v.882zm6.547 6.23q-.882 0-1.54-.294a2.66 2.66 0 0 1-1.036-.812 2.65 2.65 0 0 1-.462-1.246h1.204q.07.364.294.672t.602.504q.392.182.952.182.49 0 .812-.14.322-.154.476-.406a.97.97 0 0 0 .168-.546q0-.434-.21-.658-.197-.224-.588-.35a6 6 0 0 0-.952-.238 8 8 0 0 1-.91-.224 3.3 3.3 0 0 1-.798-.364 1.9 1.9 0 0 1-.56-.574q-.196-.336-.196-.826 0-.602.308-1.064.308-.476.882-.742.588-.266 1.358-.266 1.134 0 1.834.546t.826 1.582h-1.162q-.07-.532-.462-.826-.378-.308-1.05-.308-.659 0-1.008.266a.85.85 0 0 0-.336.7.78.78 0 0 0 .182.504q.196.21.56.364.378.155.924.252a7.7 7.7 0 0 1 1.274.336q.574.21.924.63.364.406.364 1.162 0 .658-.336 1.148a2.17 2.17 0 0 1-.924.77q-.602.266-1.414.266"
    />
  </g>
  <g filter="url(#f)">
    <rect width="290" height="54" x="565" y="413" fill="white" rx="12" />
    <circle cx="591" cy="440" r="10" fill="#218358" />
    <path
      fill="#202020"
      d="M617.341 445.168q-1.023 0-1.736-.392a3 3 0 0 1-1.106-1.05 3.5 3.5 0 0 1-.462-1.386h1.764q.125.616.518.952.405.322 1.05.322.601 0 1.036-.35.447-.364.7-1.078.252-.728.28-1.792v-.154a2.3 2.3 0 0 1-.574.672 3 3 0 0 1-1.848.63 3.1 3.1 0 0 1-1.512-.392 3.03 3.03 0 0 1-1.148-1.106q-.434-.714-.434-1.694 0-.896.434-1.652.433-.756 1.204-1.204.77-.462 1.778-.462 1.12 0 1.876.406t1.204 1.092q.462.686.658 1.54.21.84.21 1.708 0 1.638-.462 2.856-.449 1.204-1.316 1.876-.869.658-2.114.658m.07-5.222q.504 0 .882-.21a1.59 1.59 0 0 0 .854-1.428 1.6 1.6 0 0 0-.238-.868 1.47 1.47 0 0 0-.616-.574 1.9 1.9 0 0 0-.896-.21q-.49 0-.882.21a1.6 1.6 0 0 0-.616.574 1.7 1.7 0 0 0-.21.854q0 .49.21.868.223.364.616.574.392.21.896.21M631.05 445v-9.8h1.176v8.862h4.564V445zm10.162.168a3.5 3.5 0 0 1-1.764-.448 3.27 3.27 0 0 1-1.232-1.288q-.448-.84-.448-1.946 0-1.134.448-1.96.462-.84 1.246-1.288a3.5 3.5 0 0 1 1.778-.462q1.008 0 1.778.462.784.448 1.232 1.288.462.826.462 1.946t-.462 1.96a3.37 3.37 0 0 1-1.246 1.288q-.784.448-1.792.448m.014-1.008q.602 0 1.12-.294.517-.308.84-.91t.322-1.484q0-.896-.322-1.484-.308-.602-.826-.896a2.1 2.1 0 0 0-1.12-.308q-.588 0-1.12.308-.518.294-.84.896-.308.588-.308 1.484 0 .882.308 1.484.322.602.826.91.518.294 1.12.294m6.303.84-2.072-7.056h1.176l1.61 5.95h-.21l1.75-5.95h1.33l1.778 5.936-.224.014 1.596-5.95h1.19L653.395 445h-1.204l-1.848-6.216h.238L648.733 445zm13.039 0v-9.8h5.964v.966h-4.788v3.444h4.074v.952h-4.074V445zm7.534 0v-7.056h1.176V445zm.588-8.554a.82.82 0 0 1-.588-.224.82.82 0 0 1-.224-.588.73.73 0 0 1 .224-.56.82.82 0 0 1 .588-.224.8.8 0 0 1 .574.224q.238.21.238.56t-.238.588a.8.8 0 0 1-.574.224m2.663 8.554v-7.056h1.064l.056 1.232q.336-.658.952-1.022.63-.378 1.428-.378.827 0 1.428.336.602.322.938.994.336.659.336 1.68V445h-1.176v-4.088q0-1.064-.476-1.596-.462-.532-1.316-.532-.588 0-1.05.294a2 2 0 0 0-.742.826q-.266.532-.266 1.33V445zm11.147.168q-1.022 0-1.792-.476a3.3 3.3 0 0 1-1.19-1.33q-.42-.84-.42-1.904t.42-1.89q.42-.84 1.19-1.316.784-.476 1.806-.476.869 0 1.512.35.658.35 1.008.98v-4.186h1.176V445h-1.064l-.098-1.162a3.1 3.1 0 0 1-.574.658 3 3 0 0 1-.84.49 3.3 3.3 0 0 1-1.134.182m.14-1.022q.7 0 1.232-.336t.826-.924q.294-.602.294-1.414 0-.798-.294-1.4a2.25 2.25 0 0 0-.826-.938 2.26 2.26 0 0 0-1.232-.336q-.686 0-1.218.336t-.826.938-.294 1.4q0 .812.294 1.414.294.588.826.924.533.336 1.218.336m5.641.854v-7.056h1.176V445zm.588-8.554a.83.83 0 0 1-.588-.224.83.83 0 0 1-.224-.588q0-.35.224-.56a.83.83 0 0 1 .588-.224q.337 0 .574.224a.71.71 0 0 1 .238.56.8.8 0 0 1-.238.588.8.8 0 0 1-.574.224m2.664 8.554v-7.056h1.064l.056 1.232q.336-.658.952-1.022.63-.378 1.428-.378.825 0 1.428.336.602.322.938.994.336.659.336 1.68V445h-1.176v-4.088q0-1.064-.476-1.596-.462-.532-1.316-.532-.588 0-1.05.294a2 2 0 0 0-.742.826q-.266.532-.266 1.33V445zm10.825 3.248q-.953 0-1.694-.252-.729-.238-1.134-.742-.406-.504-.406-1.246a2.1 2.1 0 0 1 .126-.686 2.3 2.3 0 0 1 .462-.714q.335-.35.938-.63l.812.476q-.743.308-.966.7-.225.406-.224.742 0 .462.266.77.265.307.742.462.475.154 1.078.154.601 0 1.036-.168.433-.168.672-.476a1.16 1.16 0 0 0 .238-.728q0-.49-.364-.826-.365-.323-1.386-.378a14 14 0 0 1-1.386-.154 6 6 0 0 1-.924-.224 3 3 0 0 1-.616-.308 4 4 0 0 1-.434-.35v-.322l1.358-1.344 1.022.364-1.4 1.26.182-.49q.153.113.294.21t.378.168.658.126q.433.056 1.134.112.966.07 1.54.336.588.266.84.714.266.448.266 1.064 0 .602-.336 1.134-.322.546-1.008.896-.687.35-1.764.35m-.014-5.46q-.882 0-1.512-.336a2.35 2.35 0 0 1-.938-.896 2.56 2.56 0 0 1-.322-1.274q0-.7.322-1.26a2.45 2.45 0 0 1 .952-.896q.615-.35 1.498-.35.882 0 1.498.35.615.336.938.896t.322 1.26-.322 1.274a2.36 2.36 0 0 1-.938.896q-.616.336-1.498.336m0-.966q.755 0 1.19-.392t.434-1.148q0-.743-.434-1.134-.435-.392-1.19-.392-.742 0-1.204.392-.448.392-.448 1.134 0 .756.448 1.148.447.392 1.204.392m1.148-2.884-.35-.994h2.884v.882zm6.546 6.23q-.882 0-1.54-.294a2.66 2.66 0 0 1-1.036-.812 2.65 2.65 0 0 1-.462-1.246h1.204q.07.364.294.672.225.308.602.504.393.182.952.182.49 0 .812-.14.323-.154.476-.406a.97.97 0 0 0 .168-.546q0-.434-.21-.658-.195-.224-.588-.35a6 6 0 0 0-.952-.238 8 8 0 0 1-.91-.224 3.3 3.3 0 0 1-.798-.364 1.9 1.9 0 0 1-.56-.574q-.196-.336-.196-.826 0-.602.308-1.064.309-.476.882-.742.588-.266 1.358-.266 1.135 0 1.834.546t.826 1.582h-1.162q-.069-.532-.462-.826-.378-.308-1.05-.308-.657 0-1.008.266a.85.85 0 0 0-.336.7.78.78 0 0 0 .182.504q.197.21.56.364.378.155.924.252.7.126 1.274.336t.924.63q.364.406.364 1.162 0 .658-.336 1.148-.321.49-.924.77-.601.266-1.414.266"
    />
  </g>
  <rect
    width="78.5"
    height="32.5"
    x="799.75"
    y="225.75"
    fill="#FEEBE7"
    rx="16.25"
  />
  <rect
    width="78.5"
    height="32.5"
    x="799.75"
    y="225.75"
    stroke="#FDBDAF"
    stroke-width="1.5"
    rx="16.25"
  />
  <path
    stroke="#D13415"
    stroke-linecap="round"
    stroke-linejoin="round"
    stroke-width="1.75"
    d="m814.167 242 5.833-5.833m0 0 5.834 5.833M820 236.167v11.666"
  />
  <path
    fill="#D13415"
    d="M836.872 248.5v-10.566l-2.196.558v-1.35l2.862-1.242h1.17v12.6zm8.804.216q-1.314 0-2.286-.468-.972-.486-1.53-1.314a4 4 0 0 1-.666-1.854h1.746q.198.918.918 1.512t1.836.594q.81 0 1.404-.396t.918-1.062q.342-.666.342-1.494 0-.864-.342-1.494a2.4 2.4 0 0 0-.918-1.008 2.6 2.6 0 0 0-1.368-.36q-.936 0-1.62.432a2.42 2.42 0 0 0-.99 1.098h-1.728l1.062-7.002h6.768v1.566h-5.4l-.666 3.528q.432-.486 1.152-.792.738-.324 1.674-.324.954 0 1.71.342.756.324 1.296.918t.81 1.386q.288.792.288 1.692 0 .936-.306 1.764a4.4 4.4 0 0 1-.882 1.44 4 4 0 0 1-1.386.954q-.81.342-1.836.342m8.249-.216 7.236-12.6h1.782l-7.236 12.6zm8.28.216a3 3 0 0 1-1.512-.378 2.8 2.8 0 0 1-1.062-1.062q-.396-.702-.396-1.638 0-.972.396-1.656a2.8 2.8 0 0 1 1.062-1.062 3 3 0 0 1 1.494-.378q.864 0 1.512.378.666.378 1.044 1.062.396.684.396 1.656 0 .936-.396 1.638-.378.684-1.044 1.062a3 3 0 0 1-1.494.378m-.036-1.332q.414 0 .738-.198.342-.198.54-.576.216-.396.216-.99t-.198-.972a1.39 1.39 0 0 0-1.278-.792q-.378 0-.72.198t-.558.594q-.198.378-.198.972t.198.99q.216.378.54.576.342.198.72.198m-7.38-5.508q-.828 0-1.494-.378a2.95 2.95 0 0 1-1.08-1.062q-.396-.702-.396-1.656t.396-1.638q.414-.684 1.08-1.062.684-.378 1.512-.378t1.494.378 1.044 1.062q.396.684.396 1.638t-.396 1.656a2.66 2.66 0 0 1-1.062 1.062 3 3 0 0 1-1.494.378m0-1.332q.396 0 .72-.198.342-.198.54-.576.198-.396.198-.99t-.198-.99a1.37 1.37 0 0 0-.54-.594 1.3 1.3 0 0 0-.702-.198q-.396 0-.756.198-.342.198-.558.594-.198.396-.198.99 0 .576.198.972.216.396.558.594t.738.198"
  />
  <rect
    width="78.5"
    height="32.5"
    x="799.75"
    y="291.75"
    fill="#E6F6EB"
    rx="16.25"
  />
  <rect
    width="78.5"
    height="32.5"
    x="799.75"
    y="291.75"
    stroke="#ADDDC0"
    stroke-width="1.5"
    rx="16.25"
  />
  <path
    stroke="#218358"
    stroke-linecap="round"
    stroke-linejoin="round"
    stroke-width="1.75"
    d="M828.833 308 823 313.833m0 0L817.166 308m5.834 5.833v-11.666"
  />
  <path
    fill="#218358"
    d="M842.598 314.716q-1.242 0-2.25-.45a4 4 0 0 1-1.584-1.296q-.576-.828-.576-1.926 0-.774.288-1.422.288-.666.81-1.152a3.1 3.1 0 0 1 1.224-.702q-.936-.378-1.476-1.116a2.7 2.7 0 0 1-.54-1.62q0-.918.486-1.674t1.404-1.206q.918-.468 2.214-.468t2.214.468q.918.45 1.386 1.206.486.756.486 1.674 0 .882-.54 1.638-.522.738-1.458 1.098.702.216 1.224.702t.81 1.152q.288.648.288 1.422 0 1.098-.594 1.926-.576.828-1.584 1.296-.99.45-2.232.45m0-1.548q1.314 0 1.962-.612.666-.63.666-1.638 0-1.134-.72-1.728-.702-.594-1.908-.594t-1.926.594q-.702.594-.702 1.728 0 1.008.648 1.638.666.612 1.98.612m0-5.994q1.062 0 1.674-.558.63-.558.63-1.422 0-.99-.612-1.494t-1.692-.504q-1.062 0-1.674.504t-.612 1.494q0 .864.612 1.422t1.674.558m8.392 7.326 7.236-12.6h1.782l-7.236 12.6zm8.28.216a3 3 0 0 1-1.512-.378 2.8 2.8 0 0 1-1.062-1.062q-.396-.702-.396-1.638 0-.972.396-1.656a2.8 2.8 0 0 1 1.062-1.062 3 3 0 0 1 1.494-.378q.864 0 1.512.378.666.378 1.044 1.062.396.684.396 1.656 0 .936-.396 1.638-.378.684-1.044 1.062a3 3 0 0 1-1.494.378m-.036-1.332q.414 0 .738-.198.342-.198.54-.576.216-.396.216-.99t-.198-.972a1.39 1.39 0 0 0-1.278-.792q-.378 0-.72.198t-.558.594q-.198.378-.198.972t.198.99q.216.378.54.576.342.198.72.198m-7.38-5.508q-.828 0-1.494-.378a2.95 2.95 0 0 1-1.08-1.062q-.396-.702-.396-1.656t.396-1.638q.414-.684 1.08-1.062.684-.378 1.512-.378t1.494.378 1.044 1.062q.396.684.396 1.638t-.396 1.656a2.66 2.66 0 0 1-1.062 1.062 3 3 0 0 1-1.494.378m0-1.332q.396 0 .72-.198.342-.198.54-.576.198-.396.198-.99t-.198-.99a1.37 1.37 0 0 0-.54-.594 1.3 1.3 0 0 0-.702-.198q-.396 0-.756.198-.342.198-.558.594-.198.396-.198.99 0 .576.198.972.216.396.558.594t.738.198"
  />
  <rect
    width="78.5"
    height="32.5"
    x="799.75"
    y="357.75"
    fill="#E6F6EB"
    rx="16.25"
  />
  <rect
    width="78.5"
    height="32.5"
    x="799.75"
    y="357.75"
    stroke="#ADDDC0"
    stroke-width="1.5"
    rx="16.25"
  />
  <path
    stroke="#218358"
    stroke-linecap="round"
    stroke-linejoin="round"
    stroke-width="1.75"
    d="M828.833 374 823 379.833m0 0L817.166 374m5.834 5.833v-11.666"
  />
  <path
    fill="#218358"
    d="M844.127 380.5v-2.574h-6.318v-1.404l6.03-8.622h2.07v8.46h1.8v1.566h-1.8v2.574zm-4.356-4.14h4.464v-6.48zm11.183 4.14 7.236-12.6h1.782l-7.236 12.6zm8.28.216a3 3 0 0 1-1.512-.378 2.8 2.8 0 0 1-1.062-1.062q-.396-.702-.396-1.638 0-.972.396-1.656a2.8 2.8 0 0 1 1.062-1.062 3 3 0 0 1 1.494-.378q.864 0 1.512.378.666.378 1.044 1.062.396.684.396 1.656 0 .936-.396 1.638-.378.684-1.044 1.062a3 3 0 0 1-1.494.378m-.036-1.332q.414 0 .738-.198.342-.198.54-.576.216-.396.216-.99t-.198-.972a1.39 1.39 0 0 0-1.278-.792q-.378 0-.72.198t-.558.594q-.198.378-.198.972t.198.99q.216.378.54.576.342.198.72.198m-7.38-5.508q-.828 0-1.494-.378a2.95 2.95 0 0 1-1.08-1.062q-.396-.702-.396-1.656t.396-1.638q.414-.684 1.08-1.062.684-.378 1.512-.378t1.494.378 1.044 1.062q.396.684.396 1.638t-.396 1.656a2.66 2.66 0 0 1-1.062 1.062 3 3 0 0 1-1.494.378m0-1.332q.396 0 .72-.198.342-.198.54-.576.198-.396.198-.99t-.198-.99a1.37 1.37 0 0 0-.54-.594 1.3 1.3 0 0 0-.702-.198q-.396 0-.756.198-.342.198-.558.594-.198.396-.198.99 0 .576.198.972.216.396.558.594t.738.198"
  />
  <rect
    width="78.5"
    height="32.5"
    x="799.75"
    y="423.75"
    fill="#F0F0F0"
    rx="16.25"
  />
  <rect
    width="78.5"
    height="32.5"
    x="799.75"
    y="423.75"
    stroke="#E0E0E0"
    stroke-width="1.5"
    rx="16.25"
  />
  <path
    stroke="#646464"
    stroke-linecap="round"
    stroke-linejoin="round"
    stroke-width="1.75"
    d="M816.167 440h11.667"
  />
  <path
    fill="#646464"
    d="M842.614 446.716q-1.674 0-2.88-.81-1.206-.828-1.854-2.286-.648-1.476-.648-3.42t.648-3.402q.648-1.476 1.854-2.286 1.206-.828 2.88-.828t2.862.828q1.206.81 1.836 2.286.648 1.458.648 3.402t-.648 3.42q-.63 1.458-1.836 2.286-1.188.81-2.862.81m0-1.602q1.008 0 1.8-.594.81-.594 1.26-1.692t.45-2.628-.45-2.628-1.26-1.674a2.92 2.92 0 0 0-1.8-.594q-1.026 0-1.836.594-.81.576-1.26 1.674t-.45 2.628.45 2.628 1.26 1.692 1.836.594m9.043 1.386 7.236-12.6h1.782l-7.236 12.6zm8.28.216a3 3 0 0 1-1.512-.378 2.8 2.8 0 0 1-1.062-1.062q-.396-.702-.396-1.638 0-.972.396-1.656a2.8 2.8 0 0 1 1.062-1.062 3 3 0 0 1 1.494-.378q.864 0 1.512.378.666.378 1.044 1.062.396.684.396 1.656 0 .936-.396 1.638-.378.684-1.044 1.062a3 3 0 0 1-1.494.378m-.036-1.332q.414 0 .738-.198.342-.198.54-.576.216-.396.216-.99t-.198-.972a1.39 1.39 0 0 0-1.278-.792q-.378 0-.72.198t-.558.594q-.198.378-.198.972t.198.99q.216.378.54.576.342.198.72.198m-7.38-5.508q-.828 0-1.494-.378a2.95 2.95 0 0 1-1.08-1.062q-.396-.702-.396-1.656t.396-1.638q.414-.684 1.08-1.062.684-.378 1.512-.378t1.494.378 1.044 1.062q.396.684.396 1.638t-.396 1.656a2.66 2.66 0 0 1-1.062 1.062 3 3 0 0 1-1.494.378m0-1.332q.396 0 .72-.198.342-.198.54-.576.198-.396.198-.99t-.198-.99a1.37 1.37 0 0 0-.54-.594 1.3 1.3 0 0 0-.702-.198q-.396 0-.756.198-.342.198-.558.594-.198.396-.198.99 0 .576.198.972.216.396.558.594t.738.198"
  />
  <g filter="url(#g)">
    <rect
      width="285"
      height="64"
      x="883"
      y="96"
      fill="black"
      fill-opacity=".01"
      rx="32"
      shape-rendering="crispEdges"
    />
    <rect
      width="283.622"
      height="62.622"
      x="883.689"
      y="96.689"
      stroke="url(#h)"
      stroke-width="1.378"
      rx="31.311"
      shape-rendering="crispEdges"
    />
    <path
      fill="#FBFAF5"
      d="M974.46 135v-14h8.84v1.64h-6.84v4.48h6.24v1.6h-6.24v4.64h6.84V135zm10.366 0 3.48-5.04-3.48-5.04h2.16l2.64 3.92 2.66-3.92h2.14l-3.48 5.04 3.48 5.04h-2.14l-2.66-3.94-2.64 3.94zm11.35 4.4v-14.48h1.8l.2 1.56q.32-.46.8-.86.479-.42 1.144-.68c.45-.173.98-.26 1.58-.26q1.44 0 2.52.7c.73.467 1.3 1.1 1.7 1.9.41.787.62 1.687.62 2.7s-.21 1.92-.62 2.72a4.8 4.8 0 0 1-1.72 1.86q-1.08.68-2.52.68c-.79 0-1.48-.153-2.084-.46q-.9-.48-1.42-1.32v5.94zm5.184-5.9q.915 0 1.62-.44c.48-.293.85-.707 1.12-1.24q.42-.8.42-1.86t-.42-1.84a3 3 0 0 0-1.12-1.24q-.705-.46-1.62-.46c-.63 0-1.18.153-1.664.46a3.03 3.03 0 0 0-1.1 1.24q-.4.78-.4 1.84t.4 1.86 1.1 1.24c.484.293 1.034.44 1.664.44m7.51 1.5v-14.4h2V135zm9.35.24c-.95 0-1.8-.22-2.56-.66a4.8 4.8 0 0 1-1.78-1.84c-.43-.8-.64-1.72-.64-2.76q0-1.6.66-2.78a4.74 4.74 0 0 1 1.8-1.86c.76-.44 1.61-.66 2.56-.66.96 0 1.81.22 2.56.66.74.44 1.33 1.053 1.76 1.84q.66 1.18.66 2.78t-.66 2.78c-.43.787-1.02 1.4-1.78 1.84q-1.14.66-2.58.66m0-1.72c.54 0 1.04-.133 1.48-.4q.675-.4 1.08-1.18.42-.8.42-1.98c0-.787-.14-1.44-.4-1.96q-.405-.8-1.08-1.2c-.44-.267-.93-.4-1.46-.4-.54 0-1.03.133-1.48.4-.46.267-.82.667-1.1 1.2-.27.52-.4 1.173-.4 1.96s.13 1.447.4 1.98q.42.78 1.08 1.18c.45.267.94.4 1.46.4m7.37 1.48v-10.08h1.8l.18 1.9c.23-.453.52-.833.88-1.14q.54-.48 1.26-.74.735-.26 1.68-.26v2.12h-.72c-.41 0-.81.053-1.18.16-.37.093-.71.26-1 .5q-.42.36-.66.98t-.24 1.54V135zm11.9.24c-.96 0-1.81-.22-2.56-.66a4.75 4.75 0 0 1-1.76-1.84c-.41-.787-.62-1.7-.62-2.74 0-1.067.21-1.993.62-2.78.43-.8 1.02-1.42 1.76-1.86.75-.453 1.62-.68 2.6-.68.99 0 1.84.22 2.54.66.71.44 1.26 1.027 1.64 1.76.39.72.58 1.52.58 2.4 0 .133 0 .28-.02.44 0 .147 0 .313-.02.5h-8.24v-1.42h6.28q-.06-1.26-.84-1.96c-.52-.48-1.16-.72-1.94-.72q-.81 0-1.5.38c-.45.24-.82.6-1.1 1.08-.26.467-.4 1.06-.4 1.78v.56c0 .747.14 1.38.4 1.9.28.507.65.893 1.1 1.16.46.253.95.38 1.48.38.64 0 1.17-.14 1.58-.42.42-.28.72-.66.92-1.14h2a4.3 4.3 0 0 1-.88 1.66c-.41.48-.92.86-1.54 1.14-.6.28-1.29.42-2.08.42m15.5-.24v-12.36h-4.14V121h10.3v1.64h-4.16V135zm10.85.24c-.96 0-1.81-.22-2.56-.66a4.75 4.75 0 0 1-1.76-1.84c-.41-.787-.62-1.7-.62-2.74 0-1.067.21-1.993.62-2.78.43-.8 1.02-1.42 1.76-1.86.75-.453 1.62-.68 2.6-.68.99 0 1.84.22 2.54.66.71.44 1.26 1.027 1.64 1.76.39.72.58 1.52.58 2.4 0 .133 0 .28-.02.44 0 .147 0 .313-.02.5h-8.24v-1.42h6.28q-.06-1.26-.84-1.96c-.52-.48-1.16-.72-1.94-.72q-.81 0-1.5.38c-.45.24-.82.6-1.1 1.08-.26.467-.4 1.06-.4 1.78v.56c0 .747.14 1.38.4 1.9.28.507.65.893 1.1 1.16.46.253.95.38 1.48.38.64 0 1.17-.14 1.58-.42.42-.28.72-.66.92-1.14h2a4.3 4.3 0 0 1-.88 1.66c-.41.48-.92.86-1.54 1.14-.6.28-1.29.42-2.08.42m7.02-.24v-10.08h1.8l.18 1.9c.23-.453.52-.833.88-1.14q.54-.48 1.26-.74.75-.26 1.68-.26v2.12h-.72c-.41 0-.8.053-1.18.16-.37.093-.7.26-1 .5q-.42.36-.66.98t-.24 1.54V135zm7.64 0v-10.08h1.8l.18 1.9c.23-.453.52-.833.88-1.14q.54-.48 1.26-.74.735-.26 1.68-.26v2.12h-.72c-.41 0-.81.053-1.18.16-.37.093-.71.26-1 .5q-.42.36-.66.98t-.24 1.54V135zm10.98.24c-.83 0-1.52-.14-2.06-.42-.55-.28-.96-.653-1.22-1.12-.27-.48-.4-.993-.4-1.54 0-.667.17-1.233.52-1.7.34-.48.84-.847 1.48-1.1s1.4-.38 2.3-.38h2.62c0-.587-.09-1.073-.26-1.46a1.82 1.82 0 0 0-.78-.86c-.34-.2-.76-.3-1.28-.3-.6 0-1.12.147-1.54.44-.43.28-.7.7-.8 1.26h-2q.12-1.06.72-1.8c.41-.507.94-.893 1.58-1.16q.96-.42 2.04-.42c.94 0 1.74.167 2.38.5q.96.5 1.44 1.42c.33.6.5 1.32.5 2.16V135h-1.74l-.16-1.7c-.15.267-.32.52-.52.76q-.3.36-.72.62c-.27.173-.58.307-.94.4-.35.107-.74.16-1.16.16m.38-1.62c.42 0 .81-.087 1.16-.26.34-.173.64-.407.88-.7.25-.307.44-.647.56-1.02.13-.387.2-.78.22-1.18v-.06h-2.38c-.58 0-1.04.073-1.4.22-.35.133-.6.32-.76.56q-.24.36-.24.84c0 .333.07.62.22.86.16.227.38.407.68.54.29.133.64.2 1.06.2m7.55 1.38v-10.08h2V135zm1.02-11.98q-.585 0-.96-.36-.36-.36-.36-.92 0-.54.36-.88.375-.36.96-.36c.37 0 .69.12.94.36.25.227.38.52.38.88 0 .373-.13.68-.38.92s-.57.36-.94.36m3.84 11.98v-10.08h1.8l.12 1.72c.32-.6.77-1.073 1.36-1.42.59-.36 1.26-.54 2.02-.54.8 0 1.49.16 2.06.48s1.02.807 1.34 1.46q.48.96.48 2.42V135h-2v-5.76c0-.933-.21-1.64-.62-2.12q-.615-.72-1.8-.72c-.52 0-.99.127-1.4.38-.41.24-.75.6-1 1.08q-.36.72-.36 1.76V135z"
    />
    <rect width="42" height="42" x="894" y="107" fill="#E65C32" rx="21" />
    <path
      fill="white"
      fill-rule="evenodd"
      d="M912.037 120.329a8.7 8.7 0 0 0 .662-3.329h7.546a16.23 16.23 0 0 1-2.356 8.424c-.133.219.151.517.376.395 2.349-1.267 5.018-1.927 7.735-1.927v7.545c-2.307 0-4.541.896-6.172 2.527a8.7 8.7 0 0 0-2.476 5.036h-7.579a16.24 16.24 0 0 1 2.316-7.309c.133-.22-.15-.517-.376-.396q-.729.394-1.496.712a16.3 16.3 0 0 1-6.217 1.236v-7.545a8.7 8.7 0 0 0 6.151-2.548 8.7 8.7 0 0 0 1.886-2.821"
      clip-rule="evenodd"
    />
  </g>
  <defs>
    <filter
      id="a"
      width="586"
      height="444"
      x="277"
      y="123"
      color-interpolation-filters="sRGB"
      filterUnits="userSpaceOnUse"
    >
      <feFlood flood-opacity="0" result="BackgroundImageFix" />
      <feColorMatrix
        in="SourceAlpha"
        result="hardAlpha"
        values="0 0 0 0 0 0 0 0 0 0 0 0 0 0 0 0 0 0 127 0"
      />
      <feOffset dy="4" />
      <feGaussianBlur stdDeviation="24" />
      <feComposite in2="hardAlpha" operator="out" />
      <feColorMatrix values="0 0 0 0 0 0 0 0 0 0 0 0 0 0 0 0 0 0 0.25 0" />
      <feBlend in2="BackgroundImageFix" result="effect1_dropShadow_124_6987" />
      <feBlend
        in="BackgroundImageFix"
        in2="effect1_dropShadow_124_6987"
        result="BackgroundImageFix"
      />
      <feBlend in="SourceGraphic" in2="BackgroundImageFix" result="shape" />
    </filter>
    <filter
      id="c"
      width="398"
      height="162"
      x="511"
      y="165"
      color-interpolation-filters="sRGB"
      filterUnits="userSpaceOnUse"
    >
      <feFlood flood-opacity="0" result="BackgroundImageFix" />
      <feColorMatrix
        in="SourceAlpha"
        result="hardAlpha"
        values="0 0 0 0 0 0 0 0 0 0 0 0 0 0 0 0 0 0 127 0"
      />
      <feOffset dy="4" />
      <feGaussianBlur stdDeviation="27" />
      <feComposite in2="hardAlpha" operator="out" />
      <feColorMatrix values="0 0 0 0 0 0 0 0 0 0 0 0 0 0 0 0 0 0 0.1 0" />
      <feBlend in2="BackgroundImageFix" result="effect1_dropShadow_124_6987" />
      <feBlend
        in="SourceGraphic"
        in2="effect1_dropShadow_124_6987"
        result="shape"
      />
    </filter>
    <filter
      id="d"
      width="398"
      height="162"
      x="511"
      y="231"
      color-interpolation-filters="sRGB"
      filterUnits="userSpaceOnUse"
    >
      <feFlood flood-opacity="0" result="BackgroundImageFix" />
      <feColorMatrix
        in="SourceAlpha"
        result="hardAlpha"
        values="0 0 0 0 0 0 0 0 0 0 0 0 0 0 0 0 0 0 127 0"
      />
      <feOffset dy="4" />
      <feGaussianBlur stdDeviation="27" />
      <feComposite in2="hardAlpha" operator="out" />
      <feColorMatrix values="0 0 0 0 0 0 0 0 0 0 0 0 0 0 0 0 0 0 0.1 0" />
      <feBlend in2="BackgroundImageFix" result="effect1_dropShadow_124_6987" />
      <feBlend
        in="SourceGraphic"
        in2="effect1_dropShadow_124_6987"
        result="shape"
      />
    </filter>
    <filter
      id="e"
      width="398"
      height="162"
      x="511"
      y="297"
      color-interpolation-filters="sRGB"
      filterUnits="userSpaceOnUse"
    >
      <feFlood flood-opacity="0" result="BackgroundImageFix" />
      <feColorMatrix
        in="SourceAlpha"
        result="hardAlpha"
        values="0 0 0 0 0 0 0 0 0 0 0 0 0 0 0 0 0 0 127 0"
      />
      <feOffset dy="4" />
      <feGaussianBlur stdDeviation="27" />
      <feComposite in2="hardAlpha" operator="out" />
      <feColorMatrix values="0 0 0 0 0 0 0 0 0 0 0 0 0 0 0 0 0 0 0.1 0" />
      <feBlend in2="BackgroundImageFix" result="effect1_dropShadow_124_6987" />
      <feBlend
        in="SourceGraphic"
        in2="effect1_dropShadow_124_6987"
        result="shape"
      />
    </filter>
    <filter
      id="f"
      width="398"
      height="162"
      x="511"
      y="363"
      color-interpolation-filters="sRGB"
      filterUnits="userSpaceOnUse"
    >
      <feFlood flood-opacity="0" result="BackgroundImageFix" />
      <feColorMatrix
        in="SourceAlpha"
        result="hardAlpha"
        values="0 0 0 0 0 0 0 0 0 0 0 0 0 0 0 0 0 0 127 0"
      />
      <feOffset dy="4" />
      <feGaussianBlur stdDeviation="27" />
      <feComposite in2="hardAlpha" operator="out" />
      <feColorMatrix values="0 0 0 0 0 0 0 0 0 0 0 0 0 0 0 0 0 0 0.1 0" />
      <feBlend in2="BackgroundImageFix" result="effect1_dropShadow_124_6987" />
      <feBlend
        in="SourceGraphic"
        in2="effect1_dropShadow_124_6987"
        result="shape"
      />
    </filter>
    <filter
      id="g"
      width="381"
      height="160"
      x="835"
      y="52"
      color-interpolation-filters="sRGB"
      filterUnits="userSpaceOnUse"
    >
      <feFlood flood-opacity="0" result="BackgroundImageFix" />
      <feColorMatrix
        in="SourceAlpha"
        result="hardAlpha"
        values="0 0 0 0 0 0 0 0 0 0 0 0 0 0 0 0 0 0 127 0"
      />
      <feOffset dy="4" />
      <feGaussianBlur stdDeviation="24" />
      <feComposite in2="hardAlpha" operator="out" />
      <feColorMatrix values="0 0 0 0 0 0 0 0 0 0 0 0 0 0 0 0 0 0 0.25 0" />
      <feBlend in2="BackgroundImageFix" result="effect1_dropShadow_124_6987" />
      <feBlend
        in="BackgroundImageFix"
        in2="effect1_dropShadow_124_6987"
        result="BackgroundImageFix"
      />
      <feBlend in="SourceGraphic" in2="BackgroundImageFix" result="shape" />
    </filter>
    <linearGradient
      id="b"
      x1="821.007"
      x2="338.656"
      y1="217.321"
      y2="507.859"
      gradientUnits="userSpaceOnUse"
    >
      <stop stop-color="#E65C32" />
      <stop offset="1" stop-color="#FBFAF5" />
    </linearGradient>
    <linearGradient
      id="h"
      x1="898.022"
      x2="1089.98"
      y1="162.863"
      y2="7.313"
      gradientUnits="userSpaceOnUse"
    >
      <stop stop-color="#F2F5EA" />
      <stop offset="1" stop-color="#E65C32" />
    </linearGradient>
  </defs>
</svg>
