<svg width="150" height="89" viewBox="0 0 150 89" fill="none" xmlns="http://www.w3.org/2000/svg">
<path d="M61.5804 29.251V33.7723C61.5804 34.2808 61.7824 34.7686 62.142 35.1282C62.5016 35.4878 62.9893 35.6898 63.4979 35.6898C64.0064 35.6898 64.4942 35.4878 64.8538 35.1282C65.2134 34.7686 65.4154 34.2808 65.4154 33.7723V29.251C65.4154 28.7424 65.2134 28.2547 64.8538 27.8951C64.4942 27.5355 64.0064 27.3335 63.4979 27.3335C62.9893 27.3335 62.5016 27.5355 62.142 27.8951C61.7824 28.2547 61.5804 28.7424 61.5804 29.251ZM62.9529 33.7723V29.251C62.9521 29.1784 62.9665 29.1064 62.9951 29.0396C63.0238 28.9729 63.0661 28.9129 63.1193 28.8635C63.1725 28.814 63.2355 28.7763 63.3042 28.7527C63.3728 28.729 63.4457 28.72 63.5181 28.7262C63.5876 28.724 63.6568 28.736 63.7215 28.7616C63.7862 28.7872 63.845 28.8257 63.8941 28.8749C63.9433 28.9241 63.9819 28.9829 64.0075 29.0475C64.0331 29.1122 64.0451 29.1815 64.0429 29.251V33.7723C64.0408 33.9108 63.9848 34.0431 63.8868 34.1411C63.7889 34.239 63.6566 34.295 63.5181 34.2971C63.4465 34.2998 63.3751 34.2883 63.3079 34.2634C63.2408 34.2385 63.1792 34.2006 63.1267 34.1518C63.0742 34.1031 63.0318 34.0445 63.002 33.9794C62.9722 33.9142 62.9555 33.8439 62.9529 33.7723ZM76.4764 27.4344H72.601V28.8069H73.8524V35.5485H75.225V28.8069H76.4764V27.4344ZM80.5132 27.4344V33.7723C80.5132 33.9115 80.458 34.045 80.3595 34.1434C80.2611 34.2418 80.1276 34.2971 79.9884 34.2971C79.8493 34.2971 79.7158 34.2418 79.6174 34.1434C79.5189 34.045 79.4637 33.9115 79.4637 33.7723V27.4344H78.0508V33.7723C78.0508 34.2862 78.2549 34.7791 78.6183 35.1424C78.9817 35.5058 79.4745 35.71 79.9884 35.71C80.5024 35.71 80.9952 35.5058 81.3586 35.1424C81.722 34.7791 81.9261 34.2862 81.9261 33.7723V27.4344H80.5132ZM93.0679 28.8069V27.4344H89.6769V35.5485H93.0679V34.176H91.0494V32.0768H92.3412V30.7043H91.0494V28.8069H93.0679ZM71.3092 35.5485H69.8559L68.8467 31.7135C69.0985 31.6637 69.325 31.5275 69.4872 31.3285C69.6493 31.1295 69.7369 30.8802 69.7348 30.6235V29.3721C69.7365 29.2974 69.723 29.2232 69.6952 29.1539C69.6674 29.0846 69.6258 29.0216 69.573 28.9688C69.5202 28.916 69.4572 28.8744 69.3879 28.8466C69.3186 28.8188 69.2443 28.8053 69.1697 28.8069H68.6449V35.5485H67.2723V27.4344H69.1697C69.6711 27.4299 70.1544 27.6216 70.5164 27.9686C70.8785 28.3155 71.0905 28.7902 71.1074 29.2914V30.5832C71.1258 30.9184 71.0661 31.2534 70.933 31.5616C70.7999 31.8698 70.597 32.1429 70.3404 32.3594L71.3092 35.5485ZM86.6089 27.4344V31.875L85.196 27.4344H83.7831V35.5485H85.196V31.5924L86.4878 35.5485H88.0218V27.4344H86.6089ZM56.938 27.5555V35.6696H58.3913V32.1979H59.7234V30.8254H58.3913V28.9281H60.4904V27.5555H56.938Z" fill="black"/>
<path d="M62.7872 37.8491H56.9385V40.9824H59.654V61.6619H62.7872V37.8491Z" fill="black"/>
<path d="M75.0007 37.8491C76.561 37.8493 77.8256 39.114 77.8259 40.6743V58.8403C77.8259 60.4009 76.5611 61.6663 75.0007 61.6665H71.029C69.2455 61.6664 67.7996 60.2205 67.7995 58.437V41.0786C67.7995 39.2951 69.2455 37.8492 71.029 37.8491H75.0007ZM71.9499 40.8267C71.5041 40.8267 71.1424 41.1875 71.1423 41.6333V57.8823C71.1425 58.328 71.5041 58.689 71.9499 58.689H74.0954C74.541 58.6888 74.9018 58.3279 74.902 57.8823V41.6333C74.9019 41.1876 74.541 40.8269 74.0954 40.8267H71.9499Z" fill="black"/>
<path d="M90.0755 37.6548C91.6359 37.655 92.9005 38.9196 92.9007 40.48V58.646C92.9007 60.2065 91.636 61.472 90.0755 61.4722H86.0384C84.2549 61.4722 82.809 60.0262 82.8089 58.2427V40.8843C82.8089 39.1007 84.2548 37.6548 86.0384 37.6548H90.0755ZM86.9916 40.9829C86.5458 40.9829 86.1841 41.3438 86.1839 41.7896V57.7212C86.1839 58.1671 86.5457 58.5288 86.9916 58.5288H89.1371C89.5828 58.5286 89.9437 58.167 89.9437 57.7212V41.7896C89.9435 41.3439 89.5827 40.9831 89.1371 40.9829H86.9916Z" fill="black"/>
</svg>
