<svg xmlns="http://www.w3.org/2000/svg" fill="none" viewBox="0 0 150 89">
  <path fill="black" d="M61.626 28.899v4.477c0 .504.201.987.56 1.343a1.917 1.917 0 0 0 2.701 0 1.9 1.9 0 0 0 .56-1.343V28.9a1.9 1.9 0 0 0-.56-1.343 1.917 1.917 0 0 0-2.702 0c-.358.356-.56.84-.56 1.343m1.367 4.477V28.9a.514.514 0 0 1 .563-.52.51.51 0 0 1 .488.318.5.5 0 0 1 .035.202v4.477a.526.526 0 0 1-.523.52.55.55 0 0 1-.514-.315.5.5 0 0 1-.049-.205M76.468 27.1h-3.861v1.36h1.247v6.675h1.367V28.46h1.247zm4.022 0v6.276a.52.52 0 0 1-.522.52.525.525 0 0 1-.523-.52V27.1h-1.408v6.276c0 .51.203.997.565 1.357a1.937 1.937 0 0 0 2.73 0 1.9 1.9 0 0 0 .566-1.357V27.1zM93 28.46V27.1h-3.379v8.035H93v-1.359h-2.011v-2.079h1.287v-1.359h-1.287V28.46zm-21.68 6.675h-1.448l-1.006-3.797a1.1 1.1 0 0 0 .638-.382c.162-.197.249-.444.247-.698v-1.24a.545.545 0 0 0-.346-.52.6.6 0 0 0-.217-.039h-.523v6.676h-1.368V27.1h1.89c.5-.005.982.185 1.343.529.36.343.572.814.588 1.31v1.28a2.13 2.13 0 0 1-.764 1.758zM86.564 27.1v4.397L85.156 27.1H83.75v8.035h1.407v-3.917l1.288 3.917h1.528V27.1zM57 27.22v8.035h1.448v-3.438h1.327v-1.359h-1.327v-1.879h2.092v-1.36zm5.828 10.194H57v3.102h2.706v20.48h3.122zm12.17 0a2.807 2.807 0 0 1 2.815 2.797v17.99A2.807 2.807 0 0 1 74.998 61H71.04a3.21 3.21 0 0 1-3.218-3.198v-17.19a3.21 3.21 0 0 1 3.218-3.199zm-3.04 2.948a.8.8 0 0 0-.804.799v16.091c0 .442.36.8.805.8h2.137a.8.8 0 0 0 .804-.8v-16.09a.8.8 0 0 0-.804-.799zm17.06-3.141a2.807 2.807 0 0 1 2.816 2.798v17.99a2.807 2.807 0 0 1-2.816 2.799h-4.022a3.21 3.21 0 0 1-3.218-3.199V40.42a3.21 3.21 0 0 1 3.218-3.198zm-3.073 3.296a.8.8 0 0 0-.804.799v15.777c0 .442.36.8.804.8h2.137a.803.803 0 0 0 .805-.8V41.316a.8.8 0 0 0-.805-.799z"/>
</svg>
