<svg width="89" height="89" viewBox="0 0 89 89" fill="none" xmlns="http://www.w3.org/2000/svg">
<path fill-rule="evenodd" clip-rule="evenodd" d="M32.5118 13.4657C34.2803 9.19654 35.1905 4.6209 35.1905 0H65.7173C65.7173 8.62938 64.0174 17.1743 60.7148 25.1468C59.4328 28.2417 57.9189 31.2268 56.1895 34.0779C55.651 34.9657 56.7964 36.1703 57.7103 35.6773C67.2128 30.5512 78.007 27.8821 89 27.8821V58.4063C79.6669 58.4063 70.631 62.0284 64.0314 68.6273C58.5039 74.1545 55.0051 81.331 54.0143 89H23.3524C24.0752 78.485 27.3139 68.3524 32.7251 59.4311C33.2636 58.5432 32.1182 57.3385 31.2043 57.8315C29.2397 58.8913 27.2189 59.8523 25.1489 60.7097C17.1757 64.012 8.63011 65.7117 0 65.7117L4.58792e-06 35.1875C4.62129 35.1875 9.19733 34.2774 13.4668 32.5091C17.7364 30.7407 21.6157 28.1488 24.8835 24.8814C28.1512 21.6139 30.7433 17.7348 32.5118 13.4657Z" fill="#E65C32"/>
</svg>
