<svg xmlns="http://www.w3.org/2000/svg" fill="none" viewBox="0 0 150 89">
  <path
    fill="black"
    d="M69.148 48.32q-.026 2.271-.767 4.112-.743 1.84-2.487 3.704l-2.53-1.612q1.072-1.443 1.495-2.832t.424-3.35v-14.19h3.864zm14.012-9.526h3.403v2.898H83.16v5.064q0 .877.212 1.383.211.505.673.721.462.217 1.234.216.511 0 1.359-.132v2.971q-.511.132-1.14.204-.63.072-1.229.072-2.417 0-3.67-1.196t-1.253-3.759v-5.544h-2.082v-2.898h2.082l.697-4.642h3.117zm-7.33 13.154h-3.828V38.791h3.827zm-1.906-19.085q1.184 0 1.776.53.592.529.592 1.49 0 .963-.592 1.486-.593.523-1.776.523-1.197 0-1.79-.523-.591-.523-.591-1.485 0-.974.592-1.497t1.789-.524"
  />
</svg>
