<svg xmlns="http://www.w3.org/2000/svg" fill="none" viewBox="0 0 150 89">
  <path fill="#12110D" d="M81.83 37.168a1.364 1.364 0 0 1 1.329-1.371 1.39 1.39 0 0 1 1.371 1.37 1.36 1.36 0 0 1-1.371 1.33 1.343 1.343 0 0 1-1.33-1.33m10.639 2.893c.651 0 1.069.361 1.069 1.15a7.6 7.6 0 0 1-.564 2.234 112 112 0 0 0-1.655 4.858c-.26-.887-.766-2.28-1.391-3.91l-.544-1.492a6.3 6.3 0 0 1-.463-1.892.858.858 0 0 1 .828-.978v-.263h-4.56v.263c.621.06 1.126.652 1.79 2.418l2.903 7.678a3.1 3.1 0 0 1-.12 2.74c-.326.726-.808 1.087-1.372 1.087-.703 0-1.068-.303-1.068-.925 0-.244.466-.726.466-1.189 0-.651-.505-.948-1.069-.948a1.264 1.264 0 0 0-1.303 1.372 2.336 2.336 0 0 0 2.417 2.234 2.28 2.28 0 0 0 1.639-.615c.241-.18.544-.805.707-1.108q.181-.361.303-.746c.14-.342.221-.622.28-.804s.182-.486.326-.948l.326-1.026c.866-2.701 1.693-5.06 2.479-7.053.462-1.15 1.068-1.834 1.371-1.974q.246-.134.521-.183v-.264H92.47zm-31.814 9.532c-.586-.102-1.088-.626-1.088-1.734V34.503l-3.323.72v.284c.564-.062 1.13.443 1.13 1.511V47.86c0 1.05-.566 1.652-1.13 1.733l-.16.02a1.74 1.74 0 0 1-.84-.15 2.5 2.5 0 0 1-1.137-1.046l-1.54-2.475a2.83 2.83 0 0 0-3.164-1.225l1.733-1.916c1.303-1.45 2.522-2.378 3.668-2.759v-.264h-3.801v.264c.977.381.928 1.228-.202 2.557l-2.437 2.844V34.5l-3.326.723v.284c.564 0 1.13.563 1.13 1.55V47.86c0 1.19-.544 1.652-1.13 1.733v.261h4.414v-.26c-.726-.102-1.088-.652-1.088-1.734v-1.993l.948-1.033 2.297 3.77c.544.905 1.045 1.266 1.853 1.266h7.669v-.205s-.222-.03-.476-.072m10.229.029v.264s-2.26.81-2.945-.567a2.8 2.8 0 0 1-.293-1.17 3.65 3.65 0 0 1-3.284 1.974c-1.628 0-2.801-.765-2.801-2.44a2.1 2.1 0 0 1 .365-1.188c.482-.724 1.045-1.108 2.094-1.512a22 22 0 0 1 1.303-.443c.326-.101.785-.202 1.303-.3l1.02-.244v-1.209c0-2.013-.867-2.931-2.075-2.931-.948 0-1.492.625-1.492 1.351 0 .401.283.978.283 1.411 0 .564-.505.977-1.208.977-.704 0-1.046-.544-1.046-1.27 0-.727.362-1.391 1.108-1.955a4.04 4.04 0 0 1 2.475-.847c2.831 0 4.066 1.342 4.111 4.29v4.5c.01.29.092 1.468 1.082 1.309m-3.238-5.323c-.12.062-.4.163-.867.326l-.925.342c-.234.11-.404.202-.746.384a2.5 2.5 0 0 0-.707.505 2.25 2.25 0 0 0-.563 1.388c0 1.189.651 1.834 1.629 1.834a2.28 2.28 0 0 0 1.453-.583 1.95 1.95 0 0 0 .726-1.577zm37.316.534a5.26 5.26 0 0 1-1.512 3.756 4.95 4.95 0 0 1-3.603 1.554 4.95 4.95 0 0 1-3.602-1.554 5.3 5.3 0 0 1-1.496-3.756 5.2 5.2 0 0 1 1.496-3.733 4.91 4.91 0 0 1 7.205 0 5.16 5.16 0 0 1 1.512 3.733m-3.294-3.583c-.4-.782-.925-1.238-1.537-1.362-1.248-.25-2.349 1.03-2.76 3.069a9.6 9.6 0 0 0-.126 2.775c.088.934.345 1.843.759 2.685.4.778.925 1.234 1.54 1.358 1.245.25 2.379-1.085 2.792-3.144.349-1.736.166-3.83-.668-5.381m-17.34 6.61v-8.083h-7.092v.245c.948.14 1.398.853.978 2.013-2.228 6.026-2.098 5.756-2.228 6.238-.14-.463-.463-1.603-.978-3.033s-.866-2.378-1.006-2.801c-.544-1.672-.362-2.28.524-2.398v-.264h-4.6v.264c.688.14 1.303.925 1.795 2.336l.704 1.834c.775 1.98 1.687 4.717 1.99 5.642h1.528c.492-1.43 2.466-7.167 2.73-7.737a4.5 4.5 0 0 1 .977-1.511 2.05 2.05 0 0 1 1.368-.57 1.033 1.033 0 0 1 1.108 1.068v6.756c0 1.127-.544 1.652-1.11 1.733v.261h4.394v-.26c-.6-.082-1.082-.607-1.082-1.734"/>
</svg>
