<svg xmlns="http://www.w3.org/2000/svg" fill="none" viewBox="0 0 149 89">
  <path fill="#12110D" d="M37.943 42.72c2.02-2.455 2.125-5.71.23-7.27s-5.07-.834-7.09 1.62c-2.024 2.455-2.124 5.71-.23 7.27 1.896 1.56 5.07.834 7.09-1.62m.565 11.299c.885-1.075-.415-3.6-2.895-5.645-2.484-2.045-5.21-2.83-6.094-1.755s.415 3.6 2.895 5.645c2.484 2.044 5.21 2.83 6.094 1.755m9.464-2.09c2.02-2.455 2.125-5.71.23-7.27s-5.07-.834-7.09 1.62-2.124 5.71-.23 7.27c1.896 1.56 5.07.834 7.09-1.62m1.565-9.549c.885-1.075-.415-3.6-2.895-5.645-2.485-2.04-5.214-2.83-6.094-1.754-.88 1.074.415 3.6 2.895 5.644 2.484 2.045 5.209 2.83 6.094 1.755"/>
  <path fill="#12110D" fill-rule="evenodd" d="M95.342 51.084c-4.31 0-6.4-2.755-5.275-7.28.99-3.944 3.5-5.889 7.04-5.889 4.299 0 6.399 2.76 5.274 7.28-.99 3.944-3.5 5.889-7.04 5.889m.32-3.06c1.42 0 2.274-1.185 2.794-3.264.56-2.25.295-3.785-1.67-3.785-1.42 0-2.274 1.185-2.794 3.264-.56 2.25-.305 3.785 1.67 3.785M61.57 38.11c2.205 0 3.445 1.135 2.855 3.525l-.445 1.76c-.52 2.044-1.84 2.74-3.755 2.74h-1.41l-1.184 4.754H54.3l3.195-12.779h4.08zm-.16 3.15c.1-.41.025-.65-.355-.65H60.2l-.76 3.045h.885c.355 0 .545-.18.635-.545l.455-1.845zm10.674-.445h-3.09l-.56 2.275h2.89l-.67 2.684h-2.9l-.6 2.41h3.115l-.67 2.705h-6.424L66.37 38.11h6.389l-.68 2.705zm18.078-2.705h-3.925l-3.193 12.78h3.924zm29.597 0h-4.215l-1.795 7.164-3.489-7.164h-4.97l-3.194 12.779h4.219l1.92-7.684 3.75 7.684h4.579zm-39.42-.045c1.374 0 2.404.39 2.979 1.135.51.665.64 1.595.37 2.695-.35 1.45-1.225 2.28-2.605 2.474l-.395.056.375.13c1.255.43 1.7 1.434 1.315 2.994l-.83 3.345h-3.76l.8-3.235c.14-.56.105-.97-.11-1.245q-.294-.384-1.03-.385h-1.304l-.015.07-1.19 4.79h-3.76l3.175-12.829h5.974zm-1.86 5.385c.72 0 1.124-.345 1.314-1.115.125-.505.09-.875-.105-1.125s-.545-.375-1.065-.375h-1.19l-.015.07-.605 2.43-.03.115z" clip-rule="evenodd"/>
</svg>
