<svg width="149" height="89" viewBox="0 0 149 89" fill="none" xmlns="http://www.w3.org/2000/svg">
<g clip-path="url(#clip0_129_6806)">
<path d="M85.4944 39.2202C82.463 39.2202 79.9996 41.6508 79.9996 44.6336C79.9996 47.6163 82.4667 50.0468 85.4944 50.0468C88.5221 50.0468 90.9892 47.6163 90.9892 44.6336C90.9892 41.6508 88.5221 39.2202 85.4944 39.2202ZM85.4944 47.7507C83.7501 47.7507 82.3303 46.3519 82.3303 44.6336C82.3303 42.9151 83.7501 41.5163 85.4944 41.5163C87.2387 41.5163 88.6585 42.9151 88.6585 44.6336C88.6585 46.3519 87.2387 47.7507 85.4944 47.7507Z" fill="black"/>
<path d="M111.704 39.2202C108.673 39.2202 106.209 41.6508 106.209 44.6336C106.209 47.6163 108.676 50.0468 111.704 50.0468C114.732 50.0468 117.199 47.6163 117.199 44.6336C117.199 41.6508 114.732 39.2202 111.704 39.2202ZM111.704 47.7507C109.96 47.7507 108.54 46.3519 108.54 44.6336C108.54 42.9151 109.96 41.5163 111.704 41.5163C113.448 41.5163 114.868 42.9151 114.868 44.6336C114.868 46.3519 113.448 47.7507 111.704 47.7507Z" fill="black"/>
<path d="M75.5495 40.2125C74.6533 39.5876 73.5655 39.217 72.3854 39.217C69.3541 39.217 66.8906 41.6476 66.8906 44.6303C66.8906 47.6131 69.3577 50.0436 72.3854 50.0436C73.5618 50.0436 74.6533 49.673 75.5495 49.0481V54.7666H77.8838V38.1162H75.5495V40.2125ZM72.3854 47.7511C70.6411 47.7511 69.2212 46.3524 69.2212 44.6339C69.2212 42.9155 70.6411 41.5168 72.3854 41.5168C74.1297 41.5168 75.5495 42.9155 75.5495 44.6339C75.5495 46.3524 74.1297 47.7511 72.3854 47.7511Z" fill="black"/>
<path d="M101.762 40.2123C100.866 39.5874 99.7782 39.2168 98.5985 39.2168C95.5671 39.2168 93.1035 41.6474 93.1035 44.6302C93.1035 47.6129 95.5709 50.0434 98.5985 50.0434C99.7744 50.0434 100.866 49.6728 101.762 49.0479V51.0752H104.096V34.4248H101.762V40.2123ZM98.6023 47.7509C96.8578 47.7509 95.4378 46.3522 95.4378 44.6338C95.4378 42.9153 96.8578 41.5166 98.6023 41.5166C100.346 41.5166 101.766 42.9153 101.766 44.6338C101.766 46.3522 100.346 47.7509 98.6023 47.7509Z" fill="black"/>
<path d="M46.1618 57.8664C53.7916 57.8664 59.9767 51.8158 59.9767 44.3519C59.9767 36.8881 53.7916 30.8374 46.1618 30.8374C38.5321 30.8374 32.347 36.8881 32.347 44.3519C32.347 51.8158 38.5321 57.8664 46.1618 57.8664Z" fill="black"/>
<mask id="mask0_129_6806" style="mask-type:alpha" maskUnits="userSpaceOnUse" x="32" y="30" width="34" height="29">
<path d="M65.2706 49.2318C65.2706 56.9237 54.445 58.0913 46.5821 58.0913C38.7193 58.0913 32.3452 51.8558 32.3452 44.1638C32.3452 36.4719 38.7193 30.2363 46.5821 30.2363C54.445 30.2363 65.2706 41.5398 65.2706 49.2318Z" fill="#D9D9D9"/>
</mask>
<g mask="url(#mask0_129_6806)">
<path d="M45.6813 39.5325L45.9691 37.1697C45.9691 37.1697 46.2049 36.1929 47.2796 36.3632C48.3542 36.5334 48.1951 37.4386 48.1951 37.4386C48.1951 38.2451 47.0652 39.8761 47.0652 39.8761" fill="white"/>
<path d="M45.6813 39.5325L45.9691 37.1697C45.9691 37.1697 46.2049 36.1929 47.2796 36.3632C48.3542 36.5334 48.1951 37.4386 48.1951 37.4386C48.1951 38.2451 47.0652 39.8761 47.0652 39.8761" stroke="black" stroke-width="0.574095" stroke-linecap="round" stroke-linejoin="round"/>
<path d="M63.659 51.2429L61.4453 52.5752C61.4974 52.6648 56.4851 50.4393 51.6352 49.3012C48.9745 48.6769 46.3627 48.1751 44.6022 49.2534C39.8196 52.1838 39.0725 68.1173 34.642 74.4201C34.642 74.4201 35.2911 78.638 34.7063 82.8798C33.9102 88.6509 29.1521 91.1751 28.748 91.187C37.0241 90.73 36.7363 93.6005 36.7363 93.6005C36.7363 93.6005 31.9261 93.6067 26.7272 93.6098C25.4167 93.6098 24.5471 93.6067 24.3848 93.6005C23.5 93.5769 24.4645 90.9988 24.4645 90.9988C23.3561 90.4223 22.4589 89.1617 22.1038 88.1969L17.609 90.9511L19.0205 93.6129C16.2648 93.6129 14.2318 93.6098 13.9746 93.6005C13.0898 93.5769 14.0542 90.6553 14.0542 90.6553C11.3138 89.0841 10.5943 84.8363 10.5943 84.8363C10.5943 84.8363 8.30103 75.2715 13.5949 62.8479C15.7964 57.6802 19.0174 51.912 24.7676 46.3439C32.4038 38.9508 39.988 37.0121 46.2525 38.5415C57.1679 41.2031 63.1906 49.7493 63.659 51.2429Z" fill="white" stroke="black" stroke-width="0.574095" stroke-linecap="round" stroke-linejoin="round"/>
<path d="M39.1559 40.3154L37.8608 38.6008C37.8608 38.6008 37.0984 37.1759 38.3599 36.7219C39.6214 36.2678 40.1174 37.5314 40.1847 37.854C40.2521 38.1766 40.7144 39.7628 40.7144 39.7628" fill="white"/>
<path d="M39.1559 40.3154L37.8608 38.6008C37.8608 38.6008 37.0984 37.1759 38.3599 36.7219C39.6214 36.2678 40.1174 37.5314 40.1847 37.854C40.2521 38.1766 40.7144 39.7628 40.7144 39.7628" stroke="black" stroke-width="0.574095" stroke-linecap="round" stroke-linejoin="round"/>
<path d="M59.4763 51.6661L62.6514 49.6587L63.6159 51.1105L61.4451 52.5742L59.4763 51.6661Z" fill="white" stroke="black" stroke-width="0.574095" stroke-linecap="round" stroke-linejoin="round"/>
<path d="M44.2549 41.9966C44.2549 41.9966 44.5979 42.2057 44.5979 42.6627C44.5979 43.1198 44.5336 44.6791 46.6218 44.6791C48.7099 44.6791 48.667 43.2243 48.667 42.0175" fill="black"/>
<path d="M44.2549 41.9966C44.2549 41.9966 44.5979 42.2057 44.5979 42.6627C44.5979 43.1198 44.5336 44.6791 46.6218 44.6791C48.7099 44.6791 48.667 43.2243 48.667 42.0175" stroke="black" stroke-width="0.574095" stroke-linecap="round" stroke-linejoin="round"/>
<path d="M54.8888 41.9966C54.8888 41.9966 54.5459 42.2057 54.5459 42.6627C54.5459 43.1198 54.6102 44.6791 52.522 44.6791C50.4338 44.6791 50.4767 43.2243 50.4767 42.0175" fill="black"/>
<path d="M54.8888 41.9966C54.8888 41.9966 54.5459 42.2057 54.5459 42.6627C54.5459 43.1198 54.6102 44.6791 52.522 44.6791C50.4338 44.6791 50.4767 43.2243 50.4767 42.0175" stroke="black" stroke-width="0.574095" stroke-linecap="round" stroke-linejoin="round"/>
<path d="M43.7319 41.9375H55.4097" stroke="black" stroke-width="0.574095" stroke-linecap="round" stroke-linejoin="round"/>
<path d="M50.5997 42.5828C50.5997 42.3169 50.3119 41.9854 49.5985 41.9854C48.8851 41.9854 48.5391 42.3229 48.5391 42.5828" stroke="black" stroke-width="0.574095" stroke-linecap="round" stroke-linejoin="round"/>
</g>
<path d="M59.855 46.3043C59.9353 45.7148 59.9767 45.1133 59.9767 44.5023C59.9767 37.0385 53.7916 30.9878 46.1618 30.9878C38.5321 30.9878 32.347 37.0385 32.347 44.5023C32.347 51.9662 38.5321 58.0169 46.1618 58.0169C51.2117 58.0169 55.6287 55.3663 58.0384 51.4098" stroke="black" stroke-width="0.575619"/>
</g>
<defs>
<clipPath id="clip0_129_6806">
<rect width="85.5785" height="28.5262" fill="white" transform="translate(31.7106 30.2368)"/>
</clipPath>
</defs>
</svg>
