<svg viewBox="0 0 149 89" fill="none" xmlns="http://www.w3.org/2000/svg">
  <mask
    id="mask0_8_307"
    style="mask-type: luminance"
    maskUnits="userSpaceOnUse"
    x="31"
    y="30"
    width="87"
    height="29"
  >
    <path d="M117.289 30.2363H31.7109V58.7625H117.289V30.2363Z" fill="white" />
  </mask>
  <g mask="url(#mask0_8_307)">
    <path
      d="M85.4948 39.2207C82.4634 39.2207 80 41.6513 80 44.634C80 47.6168 82.4671 50.0473 85.4948 50.0473C88.5224 50.0473 90.9896 47.6168 90.9896 44.634C90.9896 41.6513 88.5224 39.2207 85.4948 39.2207ZM85.4948 47.7512C83.7504 47.7512 82.3307 46.3524 82.3307 44.634C82.3307 42.9156 83.7504 41.5168 85.4948 41.5168C87.2391 41.5168 88.6588 42.9156 88.6588 44.634C88.6588 46.3524 87.2391 47.7512 85.4948 47.7512Z"
      fill="black"
    />
    <path
      d="M111.704 39.2207C108.673 39.2207 106.209 41.6513 106.209 44.634C106.209 47.6168 108.676 50.0473 111.704 50.0473C114.732 50.0473 117.199 47.6168 117.199 44.634C117.199 41.6513 114.732 39.2207 111.704 39.2207ZM111.704 47.7512C109.96 47.7512 108.54 46.3524 108.54 44.634C108.54 42.9156 109.96 41.5168 111.704 41.5168C113.448 41.5168 114.868 42.9156 114.868 44.634C114.868 46.3524 113.448 47.7512 111.704 47.7512Z"
      fill="black"
    />
    <path
      d="M75.5495 40.2115C74.6534 39.5866 73.5655 39.216 72.3854 39.216C69.3541 39.216 66.8906 41.6466 66.8906 44.6294C66.8906 47.6121 69.3578 50.0426 72.3854 50.0426C73.5618 50.0426 74.6534 49.6721 75.5495 49.0471V54.7656H77.8838V38.1152H75.5495V40.2115ZM72.3854 47.7501C70.6411 47.7501 69.2213 46.3514 69.2213 44.633C69.2213 42.9145 70.6411 41.5158 72.3854 41.5158C74.1297 41.5158 75.5495 42.9145 75.5495 44.633C75.5495 46.3514 74.1297 47.7501 72.3854 47.7501Z"
      fill="black"
    />
    <path
      d="M101.762 40.2113C100.866 39.5864 99.7782 39.2158 98.5985 39.2158C95.5671 39.2158 93.1035 41.6464 93.1035 44.6292C93.1035 47.6119 95.5709 50.0425 98.5985 50.0425C99.7744 50.0425 100.866 49.6719 101.762 49.047V51.0742H104.096V34.4238H101.762V40.2113ZM98.6023 47.7499C96.8577 47.7499 95.4378 46.3512 95.4378 44.6328C95.4378 42.9143 96.8577 41.5156 98.6023 41.5156C100.346 41.5156 101.766 42.9143 101.766 44.6328C101.766 46.3512 100.346 47.7499 98.6023 47.7499Z"
      fill="black"
    />
    <path
      d="M46.1625 57.865C53.7922 57.865 59.9773 51.8143 59.9773 44.3505C59.9773 36.8866 53.7922 30.8359 46.1625 30.8359C38.5328 30.8359 32.3477 36.8866 32.3477 44.3505C32.3477 51.8143 38.5328 57.865 46.1625 57.865Z"
      fill="black"
    />
    <mask
      id="mask1_8_307"
      style="mask-type: alpha"
      maskUnits="userSpaceOnUse"
      x="32"
      y="30"
      width="34"
      height="29"
    >
      <path
        d="M65.2711 49.2318C65.2711 56.9237 54.4456 58.0913 46.5827 58.0913C38.7198 58.0913 32.3457 51.8558 32.3457 44.1638C32.3457 36.4719 38.7198 30.2363 46.5827 30.2363C54.4456 30.2363 65.2711 41.5398 65.2711 49.2318Z"
        fill="#D9D9D9"
      />
    </mask>
    <g mask="url(#mask1_8_307)">
      <path
        d="M45.6816 39.533L45.9694 37.1702C45.9694 37.1702 46.2053 36.1934 47.2799 36.3637C48.3546 36.5339 48.1954 37.4391 48.1954 37.4391C48.1954 38.2456 47.0656 39.8766 47.0656 39.8766"
        fill="white"
      />
      <path
        d="M45.6816 39.533L45.9694 37.1702C45.9694 37.1702 46.2053 36.1934 47.2799 36.3637C48.3546 36.5339 48.1954 37.4391 48.1954 37.4391C48.1954 38.2456 47.0656 39.8766 47.0656 39.8766"
        stroke="black"
        stroke-width="0.574095"
        stroke-linecap="round"
        stroke-linejoin="round"
      />
      <path
        d="M63.6604 51.2424L61.4467 52.5747C61.4988 52.6643 56.4865 50.4388 51.6366 49.3007C48.9759 48.6764 46.3641 48.1746 44.6036 49.2529C39.821 52.1833 39.0739 68.1168 34.6434 74.4197C34.6434 74.4197 35.2925 78.6376 34.7077 82.8793C33.9116 88.6504 29.1535 91.1746 28.7494 91.1865C37.0255 90.7295 36.7377 93.6 36.7377 93.6C36.7377 93.6 31.9276 93.6062 26.7286 93.6093C25.4181 93.6093 24.5485 93.6062 24.3862 93.6C23.5014 93.5764 24.4659 90.9983 24.4659 90.9983C23.3575 90.4218 22.4604 89.1612 22.1052 88.1964L17.6104 90.9506L19.0219 93.6124C16.2662 93.6124 14.2332 93.6093 13.976 93.6C13.0912 93.5764 14.0556 90.6548 14.0556 90.6548C11.3152 89.0836 10.5957 84.8359 10.5957 84.8359C10.5957 84.8359 8.30247 75.271 13.5963 62.8475C15.7978 57.6797 19.0188 51.9115 24.769 46.3435C32.4052 38.9503 39.9894 37.0116 46.2539 38.541C57.1693 41.2026 63.192 49.7488 63.6604 51.2424Z"
        fill="white"
        stroke="black"
        stroke-width="0.574095"
        stroke-linecap="round"
        stroke-linejoin="round"
      />
      <path
        d="M39.1563 40.3159L37.8611 38.6013C37.8611 38.6013 37.0987 37.1764 38.3602 36.7224C39.6217 36.2683 40.1177 37.5319 40.1851 37.8545C40.2524 38.1771 40.7148 39.7633 40.7148 39.7633"
        fill="white"
      />
      <path
        d="M39.1563 40.3159L37.8611 38.6013C37.8611 38.6013 37.0987 37.1764 38.3602 36.7224C39.6217 36.2683 40.1177 37.5319 40.1851 37.8545C40.2524 38.1771 40.7148 39.7633 40.7148 39.7633"
        stroke="black"
        stroke-width="0.574095"
        stroke-linecap="round"
        stroke-linejoin="round"
      />
      <path
        d="M59.4766 51.6656L62.6517 49.6582L63.6162 51.11L61.4453 52.5737L59.4766 51.6656Z"
        fill="white"
        stroke="black"
        stroke-width="0.574095"
        stroke-linecap="round"
        stroke-linejoin="round"
      />
      <path
        d="M44.2559 41.998C44.2559 41.998 44.5988 42.2072 44.5988 42.6642C44.5988 43.1212 44.5345 44.6806 46.6227 44.6806C48.7108 44.6806 48.668 43.2258 48.668 42.019"
        fill="black"
      />
      <path
        d="M44.2559 41.998C44.2559 41.998 44.5988 42.2072 44.5988 42.6642C44.5988 43.1212 44.5345 44.6806 46.6227 44.6806C48.7108 44.6806 48.668 43.2258 48.668 42.019"
        stroke="black"
        stroke-width="0.574095"
        stroke-linecap="round"
        stroke-linejoin="round"
      />
      <path
        d="M54.8887 41.9961C54.8887 41.9961 54.5458 42.2052 54.5458 42.6622C54.5458 43.1193 54.6101 44.6786 52.522 44.6786C50.4338 44.6786 50.4766 43.2238 50.4766 42.0171"
        fill="black"
      />
      <path
        d="M54.8887 41.9961C54.8887 41.9961 54.5458 42.2052 54.5458 42.6622C54.5458 43.1193 54.6101 44.6786 52.522 44.6786C50.4338 44.6786 50.4766 43.2238 50.4766 42.0171"
        stroke="black"
        stroke-width="0.574095"
        stroke-linecap="round"
        stroke-linejoin="round"
      />
      <path
        d="M43.7324 41.9375H55.4102"
        stroke="black"
        stroke-width="0.574095"
        stroke-linecap="round"
        stroke-linejoin="round"
      />
      <path
        d="M50.5997 42.5838C50.5997 42.3179 50.3119 41.9863 49.5985 41.9863C48.8851 41.9863 48.5391 42.3239 48.5391 42.5838"
        stroke="black"
        stroke-width="0.574095"
        stroke-linecap="round"
        stroke-linejoin="round"
      />
    </g>
    <path
      d="M59.8557 46.3028C59.936 45.7134 59.9774 45.1118 59.9774 44.5009C59.9774 37.037 53.7923 30.9863 46.1625 30.9863C38.5328 30.9863 32.3477 37.037 32.3477 44.5009C32.3477 51.9647 38.5328 58.0154 46.1625 58.0154C51.2123 58.0154 55.6294 55.3649 58.0391 51.4083"
      stroke="black"
      stroke-width="0.575619"
    />
  </g>
</svg>
