<svg xmlns="http://www.w3.org/2000/svg" fill="none" viewBox="0 0 149 89">
  <g fill="black" clip-path="url(#a)">
    <path d="M71.314 38.014q-2.502 0-3.88 1.404-1.38 1.403-1.38 3.946v10.115h2.325v-9.91q0-1.725.842-2.587.843-.863 2.354-.863.581 0 1.221.146V38.19q-.524-.175-1.482-.175m16.08 2.265q-2.251-2.265-5.623-2.265-3.371 0-5.623 2.265-2.25 2.267-2.25 5.687-.001 3.42 2.237 5.7t5.636 2.28q3.399 0 5.638-2.28 2.237-2.28 2.237-5.7t-2.252-5.687m-1.67 9.882q-1.57 1.68-3.953 1.681-2.382 0-3.937-1.666-1.554-1.667-1.554-4.21t1.554-4.21q1.555-1.665 3.937-1.666 2.384 0 3.953 1.666 1.57 1.666 1.57 4.21c0 1.695-.523 3.074-1.57 4.195m19.89-9.882q-2.252-2.265-5.623-2.265-3.373 0-5.623 2.265-2.25 2.267-2.25 5.687-.002 3.42 2.236 5.7t5.637 2.28 5.637-2.28 2.237-5.7q0-3.42-2.251-5.687m-1.67 9.882q-1.572 1.68-3.953 1.681-2.382 0-3.938-1.666-1.553-1.667-1.553-4.21t1.553-4.21q1.556-1.665 3.938-1.666 2.381 0 3.953 1.666 1.569 1.666 1.568 4.21c0 1.695-.522 3.074-1.568 4.195m8.517-11.679-1.006 2.047h6.547v-2.047zm1.276 12.292q-.872-.862-.872-2.558v-13.74h-2.324V48.45q0 2.572 1.38 3.946 1.38 1.373 3.908 1.373.958 0 1.685-.292v-2.046q-.523.204-1.337.205-1.567.001-2.44-.862M50.205 34.477c-5.798 0-10.515 4.745-10.515 10.577v8.512h6.42v-8.512c0-2.27 1.837-4.119 4.095-4.119H54.8v-6.458z"/>
    <path d="M31 39.569v6.459h4.596c2.258 0 4.094 1.848 4.094 4.119v3.42h6.42v-3.42c0-5.833-4.716-10.578-10.514-10.578z"/>
  </g>
  <defs>
    <clipPath id="a">
      <path fill="white" d="M31 34.143h87v20.714H31z"/>
    </clipPath>
  </defs>
</svg>
