<svg width="772" height="524" viewBox="0 0 772 524" fill="none" xmlns="http://www.w3.org/2000/svg">
<g filter="url(#filter0_d_124_6964)">
<rect x="36" y="32" width="700" height="432" rx="32" fill="white"/>
<path d="M102.79 187.966V174.454L99.8143 175.222V172.99L103.942 171.166H105.742V187.966H102.79ZM107.822 190.918L109.19 185.062H111.998L109.718 190.918H107.822ZM121.252 188.254C119.732 188.254 118.428 187.894 117.34 187.174C116.252 186.438 115.412 185.422 114.82 184.126C114.244 182.814 113.956 181.294 113.956 179.566C113.956 177.838 114.244 176.326 114.82 175.03C115.412 173.718 116.252 172.702 117.34 171.982C118.428 171.246 119.732 170.878 121.252 170.878C122.756 170.878 124.044 171.246 125.116 171.982C126.204 172.702 127.036 173.718 127.612 175.03C128.204 176.326 128.5 177.838 128.5 179.566C128.5 181.294 128.204 182.814 127.612 184.126C127.036 185.422 126.204 186.438 125.116 187.174C124.044 187.894 122.756 188.254 121.252 188.254ZM121.228 185.662C122.076 185.662 122.828 185.422 123.484 184.942C124.14 184.446 124.644 183.742 124.996 182.83C125.364 181.918 125.548 180.83 125.548 179.566C125.548 178.302 125.364 177.214 124.996 176.302C124.644 175.39 124.14 174.694 123.484 174.214C122.828 173.718 122.076 173.47 121.228 173.47C120.38 173.47 119.628 173.718 118.972 174.214C118.316 174.694 117.804 175.39 117.436 176.302C117.084 177.214 116.908 178.302 116.908 179.566C116.908 180.83 117.084 181.918 117.436 182.83C117.804 183.742 118.316 184.446 118.972 184.942C119.628 185.422 120.38 185.662 121.228 185.662ZM138.009 188.254C136.489 188.254 135.185 187.894 134.097 187.174C133.009 186.438 132.169 185.422 131.577 184.126C131.001 182.814 130.713 181.294 130.713 179.566C130.713 177.838 131.001 176.326 131.577 175.03C132.169 173.718 133.009 172.702 134.097 171.982C135.185 171.246 136.489 170.878 138.009 170.878C139.513 170.878 140.801 171.246 141.873 171.982C142.961 172.702 143.793 173.718 144.369 175.03C144.961 176.326 145.257 177.838 145.257 179.566C145.257 181.294 144.961 182.814 144.369 184.126C143.793 185.422 142.961 186.438 141.873 187.174C140.801 187.894 139.513 188.254 138.009 188.254ZM137.985 185.662C138.833 185.662 139.585 185.422 140.241 184.942C140.897 184.446 141.401 183.742 141.753 182.83C142.121 181.918 142.305 180.83 142.305 179.566C142.305 178.302 142.121 177.214 141.753 176.302C141.401 175.39 140.897 174.694 140.241 174.214C139.585 173.718 138.833 173.47 137.985 173.47C137.137 173.47 136.385 173.718 135.729 174.214C135.073 174.694 134.561 175.39 134.193 176.302C133.841 177.214 133.665 178.302 133.665 179.566C133.665 180.83 133.841 181.918 134.193 182.83C134.561 183.742 135.073 184.446 135.729 184.942C136.385 185.422 137.137 185.662 137.985 185.662ZM154.767 188.254C153.247 188.254 151.943 187.894 150.855 187.174C149.767 186.438 148.927 185.422 148.335 184.126C147.759 182.814 147.471 181.294 147.471 179.566C147.471 177.838 147.759 176.326 148.335 175.03C148.927 173.718 149.767 172.702 150.855 171.982C151.943 171.246 153.247 170.878 154.767 170.878C156.271 170.878 157.559 171.246 158.631 171.982C159.719 172.702 160.551 173.718 161.127 175.03C161.719 176.326 162.015 177.838 162.015 179.566C162.015 181.294 161.719 182.814 161.127 184.126C160.551 185.422 159.719 186.438 158.631 187.174C157.559 187.894 156.271 188.254 154.767 188.254ZM154.743 185.662C155.591 185.662 156.343 185.422 156.999 184.942C157.655 184.446 158.159 183.742 158.511 182.83C158.879 181.918 159.063 180.83 159.063 179.566C159.063 178.302 158.879 177.214 158.511 176.302C158.159 175.39 157.655 174.694 156.999 174.214C156.343 173.718 155.591 173.47 154.743 173.47C153.895 173.47 153.143 173.718 152.487 174.214C151.831 174.694 151.319 175.39 150.951 176.302C150.599 177.214 150.423 178.302 150.423 179.566C150.423 180.83 150.599 181.918 150.951 182.83C151.319 183.742 151.831 184.446 152.487 184.942C153.143 185.422 153.895 185.662 154.743 185.662Z" fill="#9B9B9B"/>
<path d="M282.003 188.254C280.803 188.254 279.763 188.046 278.883 187.63C278.019 187.198 277.339 186.614 276.843 185.878C276.347 185.126 276.051 184.278 275.955 183.334H278.763C278.907 184.038 279.267 184.63 279.843 185.11C280.419 185.574 281.139 185.806 282.003 185.806C282.659 185.806 283.219 185.654 283.683 185.35C284.147 185.03 284.507 184.606 284.763 184.078C285.035 183.534 285.171 182.926 285.171 182.254C285.171 181.566 285.035 180.966 284.763 180.454C284.507 179.942 284.147 179.55 283.683 179.278C283.219 178.99 282.683 178.846 282.075 178.846C281.323 178.846 280.675 179.022 280.131 179.374C279.603 179.71 279.219 180.134 278.979 180.646H276.195L277.587 171.166H286.851V173.686H279.747L278.979 177.838C279.347 177.438 279.835 177.118 280.443 176.878C281.051 176.622 281.747 176.494 282.531 176.494C283.411 176.494 284.187 176.646 284.859 176.95C285.531 177.254 286.099 177.67 286.563 178.198C287.027 178.726 287.371 179.342 287.595 180.046C287.835 180.734 287.955 181.462 287.955 182.23C287.955 183.094 287.811 183.894 287.523 184.63C287.235 185.35 286.827 185.982 286.299 186.526C285.787 187.07 285.163 187.494 284.427 187.798C283.707 188.102 282.899 188.254 282.003 188.254ZM297.63 188.254C296.11 188.254 294.806 187.894 293.718 187.174C292.63 186.438 291.79 185.422 291.198 184.126C290.622 182.814 290.334 181.294 290.334 179.566C290.334 177.838 290.622 176.326 291.198 175.03C291.79 173.718 292.63 172.702 293.718 171.982C294.806 171.246 296.11 170.878 297.63 170.878C299.134 170.878 300.422 171.246 301.494 171.982C302.582 172.702 303.414 173.718 303.99 175.03C304.582 176.326 304.878 177.838 304.878 179.566C304.878 181.294 304.582 182.814 303.99 184.126C303.414 185.422 302.582 186.438 301.494 187.174C300.422 187.894 299.134 188.254 297.63 188.254ZM297.606 185.662C298.454 185.662 299.206 185.422 299.862 184.942C300.518 184.446 301.022 183.742 301.374 182.83C301.742 181.918 301.926 180.83 301.926 179.566C301.926 178.302 301.742 177.214 301.374 176.302C301.022 175.39 300.518 174.694 299.862 174.214C299.206 173.718 298.454 173.47 297.606 173.47C296.758 173.47 296.006 173.718 295.35 174.214C294.694 174.694 294.182 175.39 293.814 176.302C293.462 177.214 293.286 178.302 293.286 179.566C293.286 180.83 293.462 181.918 293.814 182.83C294.182 183.742 294.694 184.446 295.35 184.942C296.006 185.422 296.758 185.662 297.606 185.662ZM314.388 188.254C312.868 188.254 311.564 187.894 310.476 187.174C309.388 186.438 308.548 185.422 307.956 184.126C307.38 182.814 307.092 181.294 307.092 179.566C307.092 177.838 307.38 176.326 307.956 175.03C308.548 173.718 309.388 172.702 310.476 171.982C311.564 171.246 312.868 170.878 314.388 170.878C315.892 170.878 317.18 171.246 318.252 171.982C319.34 172.702 320.172 173.718 320.748 175.03C321.34 176.326 321.636 177.838 321.636 179.566C321.636 181.294 321.34 182.814 320.748 184.126C320.172 185.422 319.34 186.438 318.252 187.174C317.18 187.894 315.892 188.254 314.388 188.254ZM314.364 185.662C315.212 185.662 315.964 185.422 316.62 184.942C317.276 184.446 317.78 183.742 318.132 182.83C318.5 181.918 318.684 180.83 318.684 179.566C318.684 178.302 318.5 177.214 318.132 176.302C317.78 175.39 317.276 174.694 316.62 174.214C315.964 173.718 315.212 173.47 314.364 173.47C313.516 173.47 312.764 173.718 312.108 174.214C311.452 174.694 310.94 175.39 310.572 176.302C310.22 177.214 310.044 178.302 310.044 179.566C310.044 180.83 310.22 181.918 310.572 182.83C310.94 183.742 311.452 184.446 312.108 184.942C312.764 185.422 313.516 185.662 314.364 185.662Z" fill="#F3822D"/>
<path d="M456.429 188.254C455.341 188.254 454.349 188.062 453.453 187.678C452.557 187.278 451.837 186.678 451.293 185.878C450.765 185.062 450.485 184.038 450.453 182.806H453.285C453.301 183.366 453.429 183.878 453.669 184.342C453.925 184.79 454.285 185.15 454.749 185.422C455.213 185.678 455.773 185.806 456.429 185.806C457.053 185.806 457.581 185.686 458.013 185.446C458.461 185.206 458.797 184.878 459.021 184.462C459.245 184.046 459.357 183.582 459.357 183.07C459.357 182.446 459.205 181.934 458.901 181.534C458.597 181.118 458.181 180.806 457.653 180.598C457.125 180.39 456.525 180.286 455.853 180.286H454.605V177.91H455.853C456.733 177.91 457.453 177.71 458.013 177.31C458.573 176.894 458.853 176.294 458.853 175.51C458.853 174.854 458.637 174.326 458.205 173.926C457.789 173.526 457.189 173.326 456.405 173.326C455.589 173.326 454.941 173.566 454.461 174.046C453.997 174.526 453.741 175.118 453.693 175.822H450.861C450.909 174.814 451.165 173.942 451.629 173.206C452.109 172.454 452.757 171.878 453.573 171.478C454.389 171.078 455.341 170.878 456.429 170.878C457.565 170.878 458.525 171.078 459.309 171.478C460.093 171.878 460.685 172.414 461.085 173.086C461.501 173.758 461.709 174.494 461.709 175.294C461.709 175.918 461.589 176.486 461.349 176.998C461.109 177.51 460.781 177.942 460.365 178.294C459.965 178.63 459.493 178.878 458.949 179.038C459.573 179.166 460.125 179.414 460.605 179.782C461.101 180.15 461.485 180.622 461.757 181.198C462.045 181.758 462.189 182.414 462.189 183.166C462.189 184.078 461.965 184.926 461.517 185.71C461.085 186.478 460.437 187.094 459.573 187.558C458.725 188.022 457.677 188.254 456.429 188.254ZM472.045 188.254C470.525 188.254 469.221 187.894 468.133 187.174C467.045 186.438 466.205 185.422 465.613 184.126C465.037 182.814 464.749 181.294 464.749 179.566C464.749 177.838 465.037 176.326 465.613 175.03C466.205 173.718 467.045 172.702 468.133 171.982C469.221 171.246 470.525 170.878 472.045 170.878C473.549 170.878 474.837 171.246 475.909 171.982C476.997 172.702 477.829 173.718 478.405 175.03C478.997 176.326 479.293 177.838 479.293 179.566C479.293 181.294 478.997 182.814 478.405 184.126C477.829 185.422 476.997 186.438 475.909 187.174C474.837 187.894 473.549 188.254 472.045 188.254ZM472.021 185.662C472.869 185.662 473.621 185.422 474.277 184.942C474.933 184.446 475.437 183.742 475.789 182.83C476.157 181.918 476.341 180.83 476.341 179.566C476.341 178.302 476.157 177.214 475.789 176.302C475.437 175.39 474.933 174.694 474.277 174.214C473.621 173.718 472.869 173.47 472.021 173.47C471.173 173.47 470.421 173.718 469.765 174.214C469.109 174.694 468.597 175.39 468.229 176.302C467.877 177.214 467.701 178.302 467.701 179.566C467.701 180.83 467.877 181.918 468.229 182.83C468.597 183.742 469.109 184.446 469.765 184.942C470.421 185.422 471.173 185.662 472.021 185.662ZM488.802 188.254C487.282 188.254 485.978 187.894 484.89 187.174C483.802 186.438 482.962 185.422 482.37 184.126C481.794 182.814 481.506 181.294 481.506 179.566C481.506 177.838 481.794 176.326 482.37 175.03C482.962 173.718 483.802 172.702 484.89 171.982C485.978 171.246 487.282 170.878 488.802 170.878C490.306 170.878 491.594 171.246 492.666 171.982C493.754 172.702 494.586 173.718 495.162 175.03C495.754 176.326 496.05 177.838 496.05 179.566C496.05 181.294 495.754 182.814 495.162 184.126C494.586 185.422 493.754 186.438 492.666 187.174C491.594 187.894 490.306 188.254 488.802 188.254ZM488.778 185.662C489.626 185.662 490.378 185.422 491.034 184.942C491.69 184.446 492.194 183.742 492.546 182.83C492.914 181.918 493.098 180.83 493.098 179.566C493.098 178.302 492.914 177.214 492.546 176.302C492.194 175.39 491.69 174.694 491.034 174.214C490.378 173.718 489.626 173.47 488.778 173.47C487.93 173.47 487.178 173.718 486.522 174.214C485.866 174.694 485.354 175.39 484.986 176.302C484.634 177.214 484.458 178.302 484.458 179.566C484.458 180.83 484.634 181.918 484.986 182.83C485.354 183.742 485.866 184.446 486.522 184.942C487.178 185.422 487.93 185.662 488.778 185.662Z" fill="#F25917"/>
<path d="M630.846 188.254C629.646 188.254 628.606 188.046 627.726 187.63C626.862 187.198 626.182 186.614 625.686 185.878C625.19 185.126 624.894 184.278 624.798 183.334H627.606C627.75 184.038 628.11 184.63 628.686 185.11C629.262 185.574 629.982 185.806 630.846 185.806C631.502 185.806 632.062 185.654 632.526 185.35C632.99 185.03 633.35 184.606 633.606 184.078C633.878 183.534 634.014 182.926 634.014 182.254C634.014 181.566 633.878 180.966 633.606 180.454C633.35 179.942 632.99 179.55 632.526 179.278C632.062 178.99 631.526 178.846 630.918 178.846C630.166 178.846 629.518 179.022 628.974 179.374C628.446 179.71 628.062 180.134 627.822 180.646H625.038L626.43 171.166H635.694V173.686H628.59L627.822 177.838C628.19 177.438 628.678 177.118 629.286 176.878C629.894 176.622 630.59 176.494 631.374 176.494C632.254 176.494 633.03 176.646 633.702 176.95C634.374 177.254 634.942 177.67 635.406 178.198C635.87 178.726 636.214 179.342 636.438 180.046C636.678 180.734 636.798 181.462 636.798 182.23C636.798 183.094 636.654 183.894 636.366 184.63C636.078 185.35 635.67 185.982 635.142 186.526C634.63 187.07 634.006 187.494 633.27 187.798C632.55 188.102 631.742 188.254 630.846 188.254ZM646.474 188.254C644.954 188.254 643.65 187.894 642.562 187.174C641.474 186.438 640.634 185.422 640.042 184.126C639.466 182.814 639.178 181.294 639.178 179.566C639.178 177.838 639.466 176.326 640.042 175.03C640.634 173.718 641.474 172.702 642.562 171.982C643.65 171.246 644.954 170.878 646.474 170.878C647.978 170.878 649.266 171.246 650.338 171.982C651.426 172.702 652.258 173.718 652.834 175.03C653.426 176.326 653.722 177.838 653.722 179.566C653.722 181.294 653.426 182.814 652.834 184.126C652.258 185.422 651.426 186.438 650.338 187.174C649.266 187.894 647.978 188.254 646.474 188.254ZM646.45 185.662C647.298 185.662 648.05 185.422 648.706 184.942C649.362 184.446 649.866 183.742 650.218 182.83C650.586 181.918 650.77 180.83 650.77 179.566C650.77 178.302 650.586 177.214 650.218 176.302C649.866 175.39 649.362 174.694 648.706 174.214C648.05 173.718 647.298 173.47 646.45 173.47C645.602 173.47 644.85 173.718 644.194 174.214C643.538 174.694 643.026 175.39 642.658 176.302C642.306 177.214 642.13 178.302 642.13 179.566C642.13 180.83 642.306 181.918 642.658 182.83C643.026 183.742 643.538 184.446 644.194 184.942C644.85 185.422 645.602 185.662 646.45 185.662Z" fill="#E51700"/>
<path d="M102.09 204.154C101.577 204.154 101.127 204.064 100.74 203.884C100.354 203.698 100.054 203.438 99.8403 203.104C99.627 202.771 99.5203 202.381 99.5203 201.934H100.57C100.577 202.188 100.637 202.421 100.75 202.634C100.87 202.841 101.04 203.008 101.26 203.134C101.487 203.254 101.764 203.314 102.09 203.314C102.37 203.314 102.61 203.268 102.81 203.174C103.017 203.081 103.174 202.954 103.28 202.794C103.387 202.628 103.44 202.438 103.44 202.224C103.44 201.978 103.384 201.774 103.27 201.614C103.157 201.454 103.004 201.324 102.81 201.224C102.624 201.118 102.404 201.024 102.15 200.944C101.904 200.864 101.644 200.778 101.37 200.684C100.817 200.504 100.404 200.271 100.13 199.984C99.8636 199.698 99.7303 199.324 99.7303 198.864C99.7303 198.471 99.8236 198.131 100.01 197.844C100.197 197.551 100.457 197.324 100.79 197.164C101.13 196.998 101.53 196.914 101.99 196.914C102.444 196.914 102.84 196.998 103.18 197.164C103.52 197.331 103.787 197.561 103.98 197.854C104.174 198.148 104.27 198.491 104.27 198.884H103.21C103.21 198.704 103.164 198.528 103.07 198.354C102.977 198.181 102.837 198.041 102.65 197.934C102.464 197.821 102.234 197.764 101.96 197.764C101.734 197.758 101.53 197.794 101.35 197.874C101.17 197.954 101.03 198.071 100.93 198.224C100.83 198.378 100.78 198.561 100.78 198.774C100.78 198.988 100.824 199.161 100.91 199.294C101.004 199.421 101.137 199.531 101.31 199.624C101.484 199.718 101.684 199.804 101.91 199.884C102.144 199.958 102.4 200.041 102.68 200.134C103.027 200.248 103.334 200.388 103.6 200.554C103.874 200.714 104.087 200.924 104.24 201.184C104.4 201.438 104.48 201.764 104.48 202.164C104.48 202.511 104.39 202.834 104.21 203.134C104.03 203.434 103.764 203.681 103.41 203.874C103.057 204.061 102.617 204.154 102.09 204.154ZM105.689 204.034V198.994H106.689V204.034H105.689ZM106.199 198.044C106.006 198.044 105.846 197.984 105.719 197.864C105.599 197.744 105.539 197.591 105.539 197.404C105.539 197.224 105.599 197.078 105.719 196.964C105.846 196.844 106.006 196.784 106.199 196.784C106.386 196.784 106.543 196.844 106.669 196.964C106.796 197.078 106.859 197.224 106.859 197.404C106.859 197.591 106.796 197.744 106.669 197.864C106.543 197.984 106.386 198.044 106.199 198.044ZM110.169 206.354C109.709 206.354 109.303 206.294 108.949 206.174C108.596 206.061 108.323 205.884 108.129 205.644C107.936 205.404 107.839 205.111 107.839 204.764C107.839 204.584 107.879 204.401 107.959 204.214C108.039 204.034 108.169 203.861 108.349 203.694C108.529 203.528 108.773 203.378 109.079 203.244L109.639 203.694C109.299 203.821 109.069 203.971 108.949 204.144C108.836 204.324 108.779 204.498 108.779 204.664C108.779 204.864 108.839 205.031 108.959 205.164C109.079 205.298 109.243 205.398 109.449 205.464C109.663 205.531 109.903 205.564 110.169 205.564C110.429 205.564 110.656 205.528 110.849 205.454C111.043 205.381 111.193 205.278 111.299 205.144C111.406 205.011 111.459 204.854 111.459 204.674C111.459 204.461 111.379 204.281 111.219 204.134C111.059 203.994 110.753 203.911 110.299 203.884C109.919 203.858 109.596 203.821 109.329 203.774C109.069 203.728 108.846 203.671 108.659 203.604C108.479 203.538 108.326 203.464 108.199 203.384C108.079 203.304 107.976 203.221 107.889 203.134V202.904L108.889 201.874L109.699 202.154L108.609 203.164L108.819 202.714C108.893 202.761 108.963 202.808 109.029 202.854C109.096 202.894 109.186 202.931 109.299 202.964C109.413 202.998 109.566 203.028 109.759 203.054C109.953 203.081 110.206 203.108 110.519 203.134C110.973 203.168 111.336 203.248 111.609 203.374C111.889 203.501 112.093 203.671 112.219 203.884C112.346 204.098 112.409 204.351 112.409 204.644C112.409 204.931 112.329 205.204 112.169 205.464C112.016 205.724 111.773 205.938 111.439 206.104C111.113 206.271 110.689 206.354 110.169 206.354ZM110.169 202.484C109.743 202.484 109.379 202.404 109.079 202.244C108.786 202.084 108.559 201.868 108.399 201.594C108.246 201.321 108.169 201.018 108.169 200.684C108.169 200.344 108.246 200.041 108.399 199.774C108.559 199.501 108.789 199.284 109.089 199.124C109.389 198.958 109.749 198.874 110.169 198.874C110.589 198.874 110.946 198.958 111.239 199.124C111.539 199.284 111.766 199.501 111.919 199.774C112.079 200.041 112.159 200.344 112.159 200.684C112.159 201.018 112.079 201.321 111.919 201.594C111.766 201.868 111.539 202.084 111.239 202.244C110.946 202.404 110.589 202.484 110.169 202.484ZM110.169 201.684C110.496 201.684 110.756 201.601 110.949 201.434C111.143 201.261 111.239 201.011 111.239 200.684C111.239 200.358 111.143 200.111 110.949 199.944C110.756 199.771 110.496 199.684 110.169 199.684C109.843 199.684 109.579 199.771 109.379 199.944C109.179 200.111 109.079 200.358 109.079 200.684C109.079 201.011 109.179 201.261 109.379 201.434C109.579 201.601 109.843 201.684 110.169 201.684ZM110.989 199.784L110.749 198.994H112.819V199.684L110.989 199.784ZM113.823 204.034V198.994H114.723L114.783 199.854C114.943 199.554 115.169 199.318 115.463 199.144C115.756 198.964 116.093 198.874 116.473 198.874C116.873 198.874 117.216 198.954 117.503 199.114C117.789 199.274 118.013 199.518 118.173 199.844C118.333 200.164 118.413 200.568 118.413 201.054V204.034H117.413V201.154C117.413 200.688 117.309 200.334 117.103 200.094C116.896 199.854 116.596 199.734 116.203 199.734C115.943 199.734 115.709 199.798 115.503 199.924C115.296 200.044 115.129 200.224 115.003 200.464C114.883 200.704 114.823 200.998 114.823 201.344V204.034H113.823ZM121.362 204.154C120.948 204.154 120.605 204.084 120.332 203.944C120.058 203.804 119.855 203.618 119.722 203.384C119.588 203.144 119.522 202.888 119.522 202.614C119.522 202.281 119.608 201.998 119.782 201.764C119.955 201.524 120.202 201.341 120.522 201.214C120.842 201.088 121.225 201.024 121.672 201.024H122.982C122.982 200.731 122.938 200.488 122.852 200.294C122.765 200.101 122.635 199.958 122.462 199.864C122.295 199.764 122.082 199.714 121.822 199.714C121.522 199.714 121.265 199.788 121.052 199.934C120.838 200.074 120.705 200.284 120.652 200.564H119.652C119.692 200.211 119.812 199.911 120.012 199.664C120.218 199.411 120.482 199.218 120.802 199.084C121.122 198.944 121.462 198.874 121.822 198.874C122.295 198.874 122.692 198.958 123.012 199.124C123.332 199.291 123.572 199.528 123.732 199.834C123.898 200.134 123.982 200.494 123.982 200.914V204.034H123.112L123.032 203.184C122.958 203.318 122.872 203.444 122.772 203.564C122.672 203.684 122.552 203.788 122.412 203.874C122.278 203.961 122.122 204.028 121.942 204.074C121.768 204.128 121.575 204.154 121.362 204.154ZM121.552 203.344C121.765 203.344 121.958 203.301 122.132 203.214C122.305 203.128 122.452 203.011 122.572 202.864C122.698 202.711 122.792 202.541 122.852 202.354C122.918 202.161 122.955 201.964 122.962 201.764V201.734H121.772C121.485 201.734 121.252 201.771 121.072 201.844C120.898 201.911 120.772 202.004 120.692 202.124C120.612 202.244 120.572 202.384 120.572 202.544C120.572 202.711 120.608 202.854 120.682 202.974C120.762 203.088 120.875 203.178 121.022 203.244C121.168 203.311 121.345 203.344 121.552 203.344ZM125.258 204.034V196.834H126.258V204.034H125.258ZM129.581 204.154C129.155 204.154 128.781 204.084 128.461 203.944C128.141 203.804 127.888 203.608 127.701 203.354C127.515 203.101 127.401 202.804 127.361 202.464H128.381C128.415 202.624 128.478 202.771 128.571 202.904C128.671 203.038 128.805 203.144 128.971 203.224C129.145 203.304 129.348 203.344 129.581 203.344C129.801 203.344 129.981 203.314 130.121 203.254C130.268 203.188 130.375 203.101 130.441 202.994C130.508 202.881 130.541 202.761 130.541 202.634C130.541 202.448 130.495 202.308 130.401 202.214C130.315 202.114 130.181 202.038 130.001 201.984C129.828 201.924 129.618 201.871 129.371 201.824C129.138 201.784 128.911 201.731 128.691 201.664C128.478 201.591 128.285 201.501 128.111 201.394C127.945 201.288 127.811 201.154 127.711 200.994C127.611 200.828 127.561 200.624 127.561 200.384C127.561 200.098 127.638 199.841 127.791 199.614C127.945 199.381 128.161 199.201 128.441 199.074C128.728 198.941 129.065 198.874 129.451 198.874C130.011 198.874 130.461 199.008 130.801 199.274C131.141 199.541 131.341 199.918 131.401 200.404H130.431C130.405 200.178 130.305 200.004 130.131 199.884C129.958 199.758 129.728 199.694 129.441 199.694C129.155 199.694 128.935 199.751 128.781 199.864C128.628 199.978 128.551 200.128 128.551 200.314C128.551 200.434 128.595 200.541 128.681 200.634C128.768 200.728 128.895 200.808 129.061 200.874C129.235 200.934 129.445 200.991 129.691 201.044C130.045 201.111 130.361 201.194 130.641 201.294C130.921 201.394 131.145 201.541 131.311 201.734C131.478 201.928 131.561 202.204 131.561 202.564C131.568 202.878 131.488 203.154 131.321 203.394C131.161 203.634 130.931 203.821 130.631 203.954C130.338 204.088 129.988 204.154 129.581 204.154Z" fill="#404040"/>
<path d="M274.675 204.034L277.245 197.034H278.335L280.905 204.034H279.835L277.785 198.234L275.725 204.034H274.675ZM275.835 202.304L276.115 201.504H279.405L279.685 202.304H275.835ZM281.852 204.034V198.994H282.752L282.812 199.854C282.972 199.554 283.199 199.318 283.492 199.144C283.785 198.964 284.122 198.874 284.502 198.874C284.902 198.874 285.245 198.954 285.532 199.114C285.819 199.274 286.042 199.518 286.202 199.844C286.362 200.164 286.442 200.568 286.442 201.054V204.034H285.442V201.154C285.442 200.688 285.339 200.334 285.132 200.094C284.925 199.854 284.625 199.734 284.232 199.734C283.972 199.734 283.739 199.798 283.532 199.924C283.325 200.044 283.159 200.224 283.032 200.464C282.912 200.704 282.852 200.998 282.852 201.344V204.034H281.852ZM289.391 204.154C288.978 204.154 288.634 204.084 288.361 203.944C288.088 203.804 287.884 203.618 287.751 203.384C287.618 203.144 287.551 202.888 287.551 202.614C287.551 202.281 287.638 201.998 287.811 201.764C287.984 201.524 288.231 201.341 288.551 201.214C288.871 201.088 289.254 201.024 289.701 201.024H291.011C291.011 200.731 290.968 200.488 290.881 200.294C290.794 200.101 290.664 199.958 290.491 199.864C290.324 199.764 290.111 199.714 289.851 199.714C289.551 199.714 289.294 199.788 289.081 199.934C288.868 200.074 288.734 200.284 288.681 200.564H287.681C287.721 200.211 287.841 199.911 288.041 199.664C288.248 199.411 288.511 199.218 288.831 199.084C289.151 198.944 289.491 198.874 289.851 198.874C290.324 198.874 290.721 198.958 291.041 199.124C291.361 199.291 291.601 199.528 291.761 199.834C291.928 200.134 292.011 200.494 292.011 200.914V204.034H291.141L291.061 203.184C290.988 203.318 290.901 203.444 290.801 203.564C290.701 203.684 290.581 203.788 290.441 203.874C290.308 203.961 290.151 204.028 289.971 204.074C289.798 204.128 289.604 204.154 289.391 204.154ZM289.581 203.344C289.794 203.344 289.988 203.301 290.161 203.214C290.334 203.128 290.481 203.011 290.601 202.864C290.728 202.711 290.821 202.541 290.881 202.354C290.948 202.161 290.984 201.964 290.991 201.764V201.734H289.801C289.514 201.734 289.281 201.771 289.101 201.844C288.928 201.911 288.801 202.004 288.721 202.124C288.641 202.244 288.601 202.384 288.601 202.544C288.601 202.711 288.638 202.854 288.711 202.974C288.791 203.088 288.904 203.178 289.051 203.244C289.198 203.311 289.374 203.344 289.581 203.344ZM293.287 204.034V196.834H294.287V204.034H293.287ZM296.24 206.234L297.47 203.474H297.18L295.19 198.994H296.27L297.85 202.654L299.44 198.994H300.49L297.29 206.234H296.24ZM301.043 204.034V203.224L303.753 199.834H301.083V198.994H304.893V199.814L302.173 203.204H304.943V204.034H301.043ZM308.331 204.154C307.851 204.154 307.424 204.044 307.051 203.824C306.678 203.604 306.384 203.298 306.171 202.904C305.964 202.511 305.861 202.054 305.861 201.534C305.861 201.001 305.964 200.538 306.171 200.144C306.384 199.744 306.678 199.434 307.051 199.214C307.424 198.988 307.858 198.874 308.351 198.874C308.844 198.874 309.268 198.984 309.621 199.204C309.974 199.424 310.248 199.718 310.441 200.084C310.634 200.444 310.731 200.844 310.731 201.284C310.731 201.351 310.728 201.424 310.721 201.504C310.721 201.578 310.718 201.661 310.711 201.754H306.591V201.044H309.731C309.711 200.624 309.571 200.298 309.311 200.064C309.051 199.824 308.728 199.704 308.341 199.704C308.068 199.704 307.818 199.768 307.591 199.894C307.364 200.014 307.181 200.194 307.041 200.434C306.908 200.668 306.841 200.964 306.841 201.324V201.604C306.841 201.978 306.908 202.294 307.041 202.554C307.181 202.808 307.364 203.001 307.591 203.134C307.818 203.261 308.064 203.324 308.331 203.324C308.651 203.324 308.914 203.254 309.121 203.114C309.328 202.974 309.481 202.784 309.581 202.544H310.581C310.494 202.851 310.348 203.128 310.141 203.374C309.934 203.614 309.678 203.804 309.371 203.944C309.071 204.084 308.724 204.154 308.331 204.154ZM314.082 204.154C313.602 204.154 313.179 204.041 312.812 203.814C312.445 203.581 312.159 203.268 311.952 202.874C311.752 202.474 311.652 202.021 311.652 201.514C311.652 201.001 311.752 200.548 311.952 200.154C312.159 199.761 312.445 199.451 312.812 199.224C313.185 198.991 313.612 198.874 314.092 198.874C314.485 198.874 314.832 198.954 315.132 199.114C315.432 199.268 315.665 199.488 315.832 199.774V196.834H316.832V204.034H315.932L315.832 203.254C315.732 203.408 315.602 203.554 315.442 203.694C315.282 203.828 315.089 203.938 314.862 204.024C314.635 204.111 314.375 204.154 314.082 204.154ZM314.242 203.284C314.555 203.284 314.832 203.211 315.072 203.064C315.312 202.918 315.495 202.711 315.622 202.444C315.755 202.178 315.822 201.868 315.822 201.514C315.822 201.161 315.755 200.854 315.622 200.594C315.495 200.328 315.312 200.121 315.072 199.974C314.832 199.821 314.555 199.744 314.242 199.744C313.942 199.744 313.672 199.821 313.432 199.974C313.192 200.121 313.005 200.328 312.872 200.594C312.739 200.854 312.672 201.161 312.672 201.514C312.672 201.868 312.739 202.178 312.872 202.444C313.005 202.711 313.192 202.918 313.432 203.064C313.672 203.211 313.942 203.284 314.242 203.284Z" fill="#404040"/>
<path d="M449.773 204.034V197.034H454.123V197.854H450.773V200.124H453.573V200.924H450.773V204.034H449.773ZM455.143 204.034V196.834H456.143V204.034H455.143ZM459.186 204.154C458.773 204.154 458.429 204.084 458.156 203.944C457.883 203.804 457.679 203.618 457.546 203.384C457.413 203.144 457.346 202.888 457.346 202.614C457.346 202.281 457.433 201.998 457.606 201.764C457.779 201.524 458.026 201.341 458.346 201.214C458.666 201.088 459.049 201.024 459.496 201.024H460.806C460.806 200.731 460.763 200.488 460.676 200.294C460.589 200.101 460.459 199.958 460.286 199.864C460.119 199.764 459.906 199.714 459.646 199.714C459.346 199.714 459.089 199.788 458.876 199.934C458.663 200.074 458.529 200.284 458.476 200.564H457.476C457.516 200.211 457.636 199.911 457.836 199.664C458.043 199.411 458.306 199.218 458.626 199.084C458.946 198.944 459.286 198.874 459.646 198.874C460.119 198.874 460.516 198.958 460.836 199.124C461.156 199.291 461.396 199.528 461.556 199.834C461.723 200.134 461.806 200.494 461.806 200.914V204.034H460.936L460.856 203.184C460.783 203.318 460.696 203.444 460.596 203.564C460.496 203.684 460.376 203.788 460.236 203.874C460.103 203.961 459.946 204.028 459.766 204.074C459.593 204.128 459.399 204.154 459.186 204.154ZM459.376 203.344C459.589 203.344 459.783 203.301 459.956 203.214C460.129 203.128 460.276 203.011 460.396 202.864C460.523 202.711 460.616 202.541 460.676 202.354C460.743 202.161 460.779 201.964 460.786 201.764V201.734H459.596C459.309 201.734 459.076 201.771 458.896 201.844C458.723 201.911 458.596 202.004 458.516 202.124C458.436 202.244 458.396 202.384 458.396 202.544C458.396 202.711 458.433 202.854 458.506 202.974C458.586 203.088 458.699 203.178 458.846 203.244C458.993 203.311 459.169 203.344 459.376 203.344ZM465.132 206.354C464.672 206.354 464.266 206.294 463.912 206.174C463.559 206.061 463.286 205.884 463.092 205.644C462.899 205.404 462.802 205.111 462.802 204.764C462.802 204.584 462.842 204.401 462.922 204.214C463.002 204.034 463.132 203.861 463.312 203.694C463.492 203.528 463.736 203.378 464.042 203.244L464.602 203.694C464.262 203.821 464.032 203.971 463.912 204.144C463.799 204.324 463.742 204.498 463.742 204.664C463.742 204.864 463.802 205.031 463.922 205.164C464.042 205.298 464.206 205.398 464.412 205.464C464.626 205.531 464.866 205.564 465.132 205.564C465.392 205.564 465.619 205.528 465.812 205.454C466.006 205.381 466.156 205.278 466.262 205.144C466.369 205.011 466.422 204.854 466.422 204.674C466.422 204.461 466.342 204.281 466.182 204.134C466.022 203.994 465.716 203.911 465.262 203.884C464.882 203.858 464.559 203.821 464.292 203.774C464.032 203.728 463.809 203.671 463.622 203.604C463.442 203.538 463.289 203.464 463.162 203.384C463.042 203.304 462.939 203.221 462.852 203.134V202.904L463.852 201.874L464.662 202.154L463.572 203.164L463.782 202.714C463.856 202.761 463.926 202.808 463.992 202.854C464.059 202.894 464.149 202.931 464.262 202.964C464.376 202.998 464.529 203.028 464.722 203.054C464.916 203.081 465.169 203.108 465.482 203.134C465.936 203.168 466.299 203.248 466.572 203.374C466.852 203.501 467.056 203.671 467.182 203.884C467.309 204.098 467.372 204.351 467.372 204.644C467.372 204.931 467.292 205.204 467.132 205.464C466.979 205.724 466.736 205.938 466.402 206.104C466.076 206.271 465.652 206.354 465.132 206.354ZM465.132 202.484C464.706 202.484 464.342 202.404 464.042 202.244C463.749 202.084 463.522 201.868 463.362 201.594C463.209 201.321 463.132 201.018 463.132 200.684C463.132 200.344 463.209 200.041 463.362 199.774C463.522 199.501 463.752 199.284 464.052 199.124C464.352 198.958 464.712 198.874 465.132 198.874C465.552 198.874 465.909 198.958 466.202 199.124C466.502 199.284 466.729 199.501 466.882 199.774C467.042 200.041 467.122 200.344 467.122 200.684C467.122 201.018 467.042 201.321 466.882 201.594C466.729 201.868 466.502 202.084 466.202 202.244C465.909 202.404 465.552 202.484 465.132 202.484ZM465.132 201.684C465.459 201.684 465.719 201.601 465.912 201.434C466.106 201.261 466.202 201.011 466.202 200.684C466.202 200.358 466.106 200.111 465.912 199.944C465.719 199.771 465.459 199.684 465.132 199.684C464.806 199.684 464.542 199.771 464.342 199.944C464.142 200.111 464.042 200.358 464.042 200.684C464.042 201.011 464.142 201.261 464.342 201.434C464.542 201.601 464.806 201.684 465.132 201.684ZM465.952 199.784L465.712 198.994H467.782V199.684L465.952 199.784ZM470.835 206.354C470.375 206.354 469.969 206.294 469.615 206.174C469.262 206.061 468.989 205.884 468.795 205.644C468.602 205.404 468.505 205.111 468.505 204.764C468.505 204.584 468.545 204.401 468.625 204.214C468.705 204.034 468.835 203.861 469.015 203.694C469.195 203.528 469.439 203.378 469.745 203.244L470.305 203.694C469.965 203.821 469.735 203.971 469.615 204.144C469.502 204.324 469.445 204.498 469.445 204.664C469.445 204.864 469.505 205.031 469.625 205.164C469.745 205.298 469.909 205.398 470.115 205.464C470.329 205.531 470.569 205.564 470.835 205.564C471.095 205.564 471.322 205.528 471.515 205.454C471.709 205.381 471.859 205.278 471.965 205.144C472.072 205.011 472.125 204.854 472.125 204.674C472.125 204.461 472.045 204.281 471.885 204.134C471.725 203.994 471.419 203.911 470.965 203.884C470.585 203.858 470.262 203.821 469.995 203.774C469.735 203.728 469.512 203.671 469.325 203.604C469.145 203.538 468.992 203.464 468.865 203.384C468.745 203.304 468.642 203.221 468.555 203.134V202.904L469.555 201.874L470.365 202.154L469.275 203.164L469.485 202.714C469.559 202.761 469.629 202.808 469.695 202.854C469.762 202.894 469.852 202.931 469.965 202.964C470.079 202.998 470.232 203.028 470.425 203.054C470.619 203.081 470.872 203.108 471.185 203.134C471.639 203.168 472.002 203.248 472.275 203.374C472.555 203.501 472.759 203.671 472.885 203.884C473.012 204.098 473.075 204.351 473.075 204.644C473.075 204.931 472.995 205.204 472.835 205.464C472.682 205.724 472.439 205.938 472.105 206.104C471.779 206.271 471.355 206.354 470.835 206.354ZM470.835 202.484C470.409 202.484 470.045 202.404 469.745 202.244C469.452 202.084 469.225 201.868 469.065 201.594C468.912 201.321 468.835 201.018 468.835 200.684C468.835 200.344 468.912 200.041 469.065 199.774C469.225 199.501 469.455 199.284 469.755 199.124C470.055 198.958 470.415 198.874 470.835 198.874C471.255 198.874 471.612 198.958 471.905 199.124C472.205 199.284 472.432 199.501 472.585 199.774C472.745 200.041 472.825 200.344 472.825 200.684C472.825 201.018 472.745 201.321 472.585 201.594C472.432 201.868 472.205 202.084 471.905 202.244C471.612 202.404 471.255 202.484 470.835 202.484ZM470.835 201.684C471.162 201.684 471.422 201.601 471.615 201.434C471.809 201.261 471.905 201.011 471.905 200.684C471.905 200.358 471.809 200.111 471.615 199.944C471.422 199.771 471.162 199.684 470.835 199.684C470.509 199.684 470.245 199.771 470.045 199.944C469.845 200.111 469.745 200.358 469.745 200.684C469.745 201.011 469.845 201.261 470.045 201.434C470.245 201.601 470.509 201.684 470.835 201.684ZM471.655 199.784L471.415 198.994H473.485V199.684L471.655 199.784ZM476.573 204.154C476.093 204.154 475.667 204.044 475.293 203.824C474.92 203.604 474.627 203.298 474.413 202.904C474.207 202.511 474.103 202.054 474.103 201.534C474.103 201.001 474.207 200.538 474.413 200.144C474.627 199.744 474.92 199.434 475.293 199.214C475.667 198.988 476.1 198.874 476.593 198.874C477.087 198.874 477.51 198.984 477.863 199.204C478.217 199.424 478.49 199.718 478.683 200.084C478.877 200.444 478.973 200.844 478.973 201.284C478.973 201.351 478.97 201.424 478.963 201.504C478.963 201.578 478.96 201.661 478.953 201.754H474.833V201.044H477.973C477.953 200.624 477.813 200.298 477.553 200.064C477.293 199.824 476.97 199.704 476.583 199.704C476.31 199.704 476.06 199.768 475.833 199.894C475.607 200.014 475.423 200.194 475.283 200.434C475.15 200.668 475.083 200.964 475.083 201.324V201.604C475.083 201.978 475.15 202.294 475.283 202.554C475.423 202.808 475.607 203.001 475.833 203.134C476.06 203.261 476.307 203.324 476.573 203.324C476.893 203.324 477.157 203.254 477.363 203.114C477.57 202.974 477.723 202.784 477.823 202.544H478.823C478.737 202.851 478.59 203.128 478.383 203.374C478.177 203.614 477.92 203.804 477.613 203.944C477.313 204.084 476.967 204.154 476.573 204.154ZM482.324 204.154C481.844 204.154 481.421 204.041 481.054 203.814C480.688 203.581 480.401 203.268 480.194 202.874C479.994 202.474 479.894 202.021 479.894 201.514C479.894 201.001 479.994 200.548 480.194 200.154C480.401 199.761 480.688 199.451 481.054 199.224C481.428 198.991 481.854 198.874 482.334 198.874C482.728 198.874 483.074 198.954 483.374 199.114C483.674 199.268 483.908 199.488 484.074 199.774V196.834H485.074V204.034H484.174L484.074 203.254C483.974 203.408 483.844 203.554 483.684 203.694C483.524 203.828 483.331 203.938 483.104 204.024C482.878 204.111 482.618 204.154 482.324 204.154ZM482.484 203.284C482.798 203.284 483.074 203.211 483.314 203.064C483.554 202.918 483.738 202.711 483.864 202.444C483.998 202.178 484.064 201.868 484.064 201.514C484.064 201.161 483.998 200.854 483.864 200.594C483.738 200.328 483.554 200.121 483.314 199.974C483.074 199.821 482.798 199.744 482.484 199.744C482.184 199.744 481.914 199.821 481.674 199.974C481.434 200.121 481.248 200.328 481.114 200.594C480.981 200.854 480.914 201.161 480.914 201.514C480.914 201.868 480.981 202.178 481.114 202.444C481.248 202.711 481.434 202.918 481.674 203.064C481.914 203.211 482.184 203.284 482.484 203.284Z" fill="#404040"/>
<path d="M627.038 204.154C626.352 204.154 625.758 204.004 625.258 203.704C624.765 203.398 624.382 202.974 624.108 202.434C623.842 201.888 623.708 201.254 623.708 200.534C623.708 199.821 623.842 199.191 624.108 198.644C624.382 198.098 624.765 197.674 625.258 197.374C625.758 197.068 626.352 196.914 627.038 196.914C627.858 196.914 628.522 197.111 629.028 197.504C629.542 197.898 629.868 198.451 630.008 199.164H628.908C628.808 198.751 628.602 198.421 628.288 198.174C627.982 197.928 627.565 197.804 627.038 197.804C626.565 197.804 626.155 197.914 625.808 198.134C625.462 198.354 625.195 198.668 625.008 199.074C624.822 199.481 624.728 199.968 624.728 200.534C624.728 201.101 624.822 201.591 625.008 202.004C625.195 202.411 625.462 202.724 625.808 202.944C626.155 203.158 626.565 203.264 627.038 203.264C627.565 203.264 627.982 203.148 628.288 202.914C628.602 202.674 628.808 202.351 628.908 201.944H630.008C629.868 202.638 629.542 203.181 629.028 203.574C628.522 203.961 627.858 204.154 627.038 204.154ZM633.455 204.154C632.981 204.154 632.555 204.044 632.175 203.824C631.801 203.604 631.505 203.298 631.285 202.904C631.071 202.504 630.965 202.044 630.965 201.524C630.965 200.991 631.075 200.528 631.295 200.134C631.515 199.734 631.815 199.424 632.195 199.204C632.575 198.984 633.001 198.874 633.475 198.874C633.955 198.874 634.381 198.984 634.755 199.204C635.128 199.424 635.421 199.731 635.635 200.124C635.855 200.518 635.965 200.981 635.965 201.514C635.965 202.048 635.855 202.511 635.635 202.904C635.421 203.298 635.125 203.604 634.745 203.824C634.365 204.044 633.935 204.154 633.455 204.154ZM633.455 203.294C633.728 203.294 633.975 203.228 634.195 203.094C634.421 202.961 634.601 202.764 634.735 202.504C634.875 202.238 634.945 201.908 634.945 201.514C634.945 201.121 634.878 200.794 634.745 200.534C634.611 200.268 634.431 200.068 634.205 199.934C633.985 199.801 633.741 199.734 633.475 199.734C633.208 199.734 632.961 199.801 632.735 199.934C632.508 200.068 632.325 200.268 632.185 200.534C632.051 200.794 631.985 201.121 631.985 201.514C631.985 201.908 632.051 202.238 632.185 202.504C632.325 202.764 632.505 202.961 632.725 203.094C632.951 203.228 633.195 203.294 633.455 203.294ZM637.141 204.034V198.994H638.041L638.101 199.854C638.261 199.554 638.488 199.318 638.781 199.144C639.074 198.964 639.411 198.874 639.791 198.874C640.191 198.874 640.534 198.954 640.821 199.114C641.108 199.274 641.331 199.518 641.491 199.844C641.651 200.164 641.731 200.568 641.731 201.054V204.034H640.731V201.154C640.731 200.688 640.628 200.334 640.421 200.094C640.214 199.854 639.914 199.734 639.521 199.734C639.261 199.734 639.028 199.798 638.821 199.924C638.614 200.044 638.448 200.224 638.321 200.464C638.201 200.704 638.141 200.998 638.141 201.344V204.034H637.141ZM643.28 204.034V198.314C643.28 197.968 643.337 197.684 643.45 197.464C643.57 197.244 643.743 197.084 643.97 196.984C644.197 196.884 644.47 196.834 644.79 196.834H645.38V197.684H644.95C644.71 197.684 644.537 197.734 644.43 197.834C644.33 197.928 644.28 198.094 644.28 198.334V204.034H643.28ZM642.54 199.844V198.994H645.49V199.844H642.54ZM646.576 204.034V198.994H647.576V204.034H646.576ZM647.086 198.044C646.893 198.044 646.733 197.984 646.606 197.864C646.486 197.744 646.426 197.591 646.426 197.404C646.426 197.224 646.486 197.078 646.606 196.964C646.733 196.844 646.893 196.784 647.086 196.784C647.273 196.784 647.43 196.844 647.556 196.964C647.683 197.078 647.746 197.224 647.746 197.404C647.746 197.591 647.683 197.744 647.556 197.864C647.43 197.984 647.273 198.044 647.086 198.044ZM649.006 204.034V198.994H649.906L649.996 199.944C650.11 199.718 650.256 199.528 650.436 199.374C650.616 199.214 650.826 199.091 651.066 199.004C651.313 198.918 651.593 198.874 651.906 198.874V199.934H651.546C651.34 199.934 651.143 199.961 650.956 200.014C650.77 200.061 650.603 200.144 650.456 200.264C650.316 200.384 650.206 200.548 650.126 200.754C650.046 200.961 650.006 201.218 650.006 201.524V204.034H649.006ZM652.825 204.034V198.994H653.725L653.795 199.704C653.955 199.444 654.168 199.241 654.435 199.094C654.701 198.948 655.001 198.874 655.335 198.874C655.588 198.874 655.818 198.911 656.025 198.984C656.231 199.051 656.415 199.154 656.575 199.294C656.735 199.434 656.865 199.608 656.965 199.814C657.145 199.521 657.385 199.291 657.685 199.124C657.991 198.958 658.315 198.874 658.655 198.874C659.061 198.874 659.411 198.958 659.705 199.124C659.998 199.284 660.221 199.528 660.375 199.854C660.528 200.174 660.605 200.574 660.605 201.054V204.034H659.615V201.154C659.615 200.688 659.518 200.334 659.325 200.094C659.138 199.854 658.861 199.734 658.495 199.734C658.248 199.734 658.028 199.798 657.835 199.924C657.641 200.051 657.488 200.234 657.375 200.474C657.268 200.714 657.215 201.008 657.215 201.354V204.034H656.215V201.154C656.215 200.688 656.118 200.334 655.925 200.094C655.738 199.854 655.461 199.734 655.095 199.734C654.861 199.734 654.648 199.798 654.455 199.924C654.261 200.051 654.108 200.234 653.995 200.474C653.881 200.714 653.825 201.008 653.825 201.354V204.034H652.825ZM664.177 204.154C663.697 204.154 663.27 204.044 662.897 203.824C662.523 203.604 662.23 203.298 662.017 202.904C661.81 202.511 661.707 202.054 661.707 201.534C661.707 201.001 661.81 200.538 662.017 200.144C662.23 199.744 662.523 199.434 662.897 199.214C663.27 198.988 663.703 198.874 664.197 198.874C664.69 198.874 665.113 198.984 665.467 199.204C665.82 199.424 666.093 199.718 666.287 200.084C666.48 200.444 666.577 200.844 666.577 201.284C666.577 201.351 666.573 201.424 666.567 201.504C666.567 201.578 666.563 201.661 666.557 201.754H662.437V201.044H665.577C665.557 200.624 665.417 200.298 665.157 200.064C664.897 199.824 664.573 199.704 664.187 199.704C663.913 199.704 663.663 199.768 663.437 199.894C663.21 200.014 663.027 200.194 662.887 200.434C662.753 200.668 662.687 200.964 662.687 201.324V201.604C662.687 201.978 662.753 202.294 662.887 202.554C663.027 202.808 663.21 203.001 663.437 203.134C663.663 203.261 663.91 203.324 664.177 203.324C664.497 203.324 664.76 203.254 664.967 203.114C665.173 202.974 665.327 202.784 665.427 202.544H666.427C666.34 202.851 666.193 203.128 665.987 203.374C665.78 203.614 665.523 203.804 665.217 203.944C664.917 204.084 664.57 204.154 664.177 204.154ZM669.928 204.154C669.448 204.154 669.024 204.041 668.658 203.814C668.291 203.581 668.004 203.268 667.798 202.874C667.598 202.474 667.498 202.021 667.498 201.514C667.498 201.001 667.598 200.548 667.798 200.154C668.004 199.761 668.291 199.451 668.658 199.224C669.031 198.991 669.458 198.874 669.938 198.874C670.331 198.874 670.678 198.954 670.978 199.114C671.278 199.268 671.511 199.488 671.678 199.774V196.834H672.678V204.034H671.778L671.678 203.254C671.578 203.408 671.448 203.554 671.288 203.694C671.128 203.828 670.934 203.938 670.708 204.024C670.481 204.111 670.221 204.154 669.928 204.154ZM670.088 203.284C670.401 203.284 670.678 203.211 670.918 203.064C671.158 202.918 671.341 202.711 671.468 202.444C671.601 202.178 671.668 201.868 671.668 201.514C671.668 201.161 671.601 200.854 671.468 200.594C671.341 200.328 671.158 200.121 670.918 199.974C670.678 199.821 670.401 199.744 670.088 199.744C669.788 199.744 669.518 199.821 669.278 199.974C669.038 200.121 668.851 200.328 668.718 200.594C668.584 200.854 668.518 201.161 668.518 201.514C668.518 201.868 668.584 202.178 668.718 202.444C668.851 202.711 669.038 202.918 669.278 203.064C669.518 203.211 669.788 203.284 670.088 203.284Z" fill="#404040"/>
<path d="M93.248 106.288C92.016 106.288 90.936 106.072 90.008 105.64C89.08 105.192 88.36 104.568 87.848 103.768C87.336 102.968 87.08 102.032 87.08 100.96H89.6C89.616 101.568 89.76 102.128 90.032 102.64C90.32 103.136 90.728 103.536 91.256 103.84C91.8 104.128 92.464 104.272 93.248 104.272C93.92 104.272 94.496 104.16 94.976 103.936C95.472 103.712 95.848 103.408 96.104 103.024C96.36 102.624 96.488 102.168 96.488 101.656C96.488 101.064 96.352 100.576 96.08 100.192C95.808 99.808 95.44 99.496 94.976 99.256C94.528 99 94 98.776 93.392 98.584C92.8 98.392 92.176 98.184 91.52 97.96C90.192 97.528 89.2 96.968 88.544 96.28C87.904 95.592 87.584 94.696 87.584 93.592C87.584 92.648 87.808 91.832 88.256 91.144C88.704 90.44 89.328 89.896 90.128 89.512C90.944 89.112 91.904 88.912 93.008 88.912C94.096 88.912 95.048 89.112 95.864 89.512C96.68 89.912 97.32 90.464 97.784 91.168C98.248 91.872 98.48 92.696 98.48 93.64H95.936C95.936 93.208 95.824 92.784 95.6 92.368C95.376 91.952 95.04 91.616 94.592 91.36C94.144 91.088 93.592 90.952 92.936 90.952C92.392 90.936 91.904 91.024 91.472 91.216C91.04 91.408 90.704 91.688 90.464 92.056C90.224 92.424 90.104 92.864 90.104 93.376C90.104 93.888 90.208 94.304 90.416 94.624C90.64 94.928 90.96 95.192 91.376 95.416C91.792 95.64 92.272 95.848 92.816 96.04C93.376 96.216 93.992 96.416 94.664 96.64C95.496 96.912 96.232 97.248 96.872 97.648C97.528 98.032 98.04 98.536 98.408 99.16C98.792 99.768 98.984 100.552 98.984 101.512C98.984 102.344 98.768 103.12 98.336 103.84C97.904 104.56 97.264 105.152 96.416 105.616C95.568 106.064 94.512 106.288 93.248 106.288ZM101.886 106V93.904H104.286V106H101.886ZM103.11 91.624C102.646 91.624 102.262 91.48 101.958 91.192C101.67 90.904 101.526 90.536 101.526 90.088C101.526 89.656 101.67 89.304 101.958 89.032C102.262 88.744 102.646 88.6 103.11 88.6C103.558 88.6 103.934 88.744 104.238 89.032C104.542 89.304 104.694 89.656 104.694 90.088C104.694 90.536 104.542 90.904 104.238 91.192C103.934 91.48 103.558 91.624 103.11 91.624ZM112.638 111.568C111.534 111.568 110.558 111.424 109.71 111.136C108.862 110.864 108.206 110.44 107.742 109.864C107.278 109.288 107.046 108.584 107.046 107.752C107.046 107.32 107.142 106.88 107.334 106.432C107.526 106 107.838 105.584 108.27 105.184C108.702 104.784 109.286 104.424 110.022 104.104L111.366 105.184C110.55 105.488 109.998 105.848 109.71 106.264C109.438 106.696 109.302 107.112 109.302 107.512C109.302 107.992 109.446 108.392 109.734 108.712C110.022 109.032 110.414 109.272 110.91 109.432C111.422 109.592 111.998 109.672 112.638 109.672C113.262 109.672 113.806 109.584 114.27 109.408C114.734 109.232 115.094 108.984 115.35 108.664C115.606 108.344 115.734 107.968 115.734 107.536C115.734 107.024 115.542 106.592 115.158 106.24C114.774 105.904 114.038 105.704 112.95 105.64C112.038 105.576 111.262 105.488 110.622 105.376C109.998 105.264 109.462 105.128 109.014 104.968C108.582 104.808 108.214 104.632 107.91 104.44C107.622 104.248 107.374 104.048 107.166 103.84V103.288L109.566 100.816L111.51 101.488L108.894 103.912L109.398 102.832C109.574 102.944 109.742 103.056 109.902 103.168C110.062 103.264 110.278 103.352 110.55 103.432C110.822 103.512 111.19 103.584 111.654 103.648C112.118 103.712 112.726 103.776 113.478 103.84C114.566 103.92 115.438 104.112 116.094 104.416C116.766 104.72 117.254 105.128 117.558 105.64C117.862 106.152 118.014 106.76 118.014 107.464C118.014 108.152 117.822 108.808 117.438 109.432C117.07 110.056 116.486 110.568 115.686 110.968C114.902 111.368 113.886 111.568 112.638 111.568ZM112.638 102.28C111.614 102.28 110.742 102.088 110.022 101.704C109.318 101.32 108.774 100.8 108.39 100.144C108.022 99.488 107.838 98.76 107.838 97.96C107.838 97.144 108.022 96.416 108.39 95.776C108.774 95.12 109.326 94.6 110.046 94.216C110.766 93.816 111.63 93.616 112.638 93.616C113.646 93.616 114.502 93.816 115.206 94.216C115.926 94.6 116.47 95.12 116.838 95.776C117.222 96.416 117.414 97.144 117.414 97.96C117.414 98.76 117.222 99.488 116.838 100.144C116.47 100.8 115.926 101.32 115.206 101.704C114.502 102.088 113.646 102.28 112.638 102.28ZM112.638 100.36C113.422 100.36 114.046 100.16 114.51 99.76C114.974 99.344 115.206 98.744 115.206 97.96C115.206 97.176 114.974 96.584 114.51 96.184C114.046 95.768 113.422 95.56 112.638 95.56C111.854 95.56 111.222 95.768 110.742 96.184C110.262 96.584 110.022 97.176 110.022 97.96C110.022 98.744 110.262 99.344 110.742 99.76C111.222 100.16 111.854 100.36 112.638 100.36ZM114.606 95.8L114.03 93.904H118.998V95.56L114.606 95.8ZM121.405 106V93.904H123.565L123.709 95.968C124.093 95.248 124.637 94.68 125.341 94.264C126.045 93.832 126.853 93.616 127.765 93.616C128.725 93.616 129.549 93.808 130.237 94.192C130.925 94.576 131.461 95.16 131.845 95.944C132.229 96.712 132.421 97.68 132.421 98.848V106H130.021V99.088C130.021 97.968 129.773 97.12 129.277 96.544C128.781 95.968 128.061 95.68 127.117 95.68C126.493 95.68 125.933 95.832 125.437 96.136C124.941 96.424 124.541 96.856 124.237 97.432C123.949 98.008 123.805 98.712 123.805 99.544V106H121.405ZM139.499 106.288C138.507 106.288 137.683 106.12 137.027 105.784C136.371 105.448 135.883 105 135.563 104.44C135.243 103.864 135.083 103.248 135.083 102.592C135.083 101.792 135.291 101.112 135.707 100.552C136.123 99.976 136.715 99.536 137.483 99.232C138.251 98.928 139.171 98.776 140.243 98.776H143.387C143.387 98.072 143.283 97.488 143.075 97.024C142.867 96.56 142.555 96.216 142.139 95.992C141.739 95.752 141.227 95.632 140.603 95.632C139.883 95.632 139.267 95.808 138.755 96.16C138.243 96.496 137.923 97 137.795 97.672H135.395C135.491 96.824 135.779 96.104 136.259 95.512C136.755 94.904 137.387 94.44 138.155 94.12C138.923 93.784 139.739 93.616 140.603 93.616C141.739 93.616 142.691 93.816 143.459 94.216C144.227 94.616 144.803 95.184 145.187 95.92C145.587 96.64 145.787 97.504 145.787 98.512V106H143.699L143.507 103.96C143.331 104.28 143.123 104.584 142.883 104.872C142.643 105.16 142.355 105.408 142.019 105.616C141.699 105.824 141.323 105.984 140.891 106.096C140.475 106.224 140.011 106.288 139.499 106.288ZM139.955 104.344C140.467 104.344 140.931 104.24 141.347 104.032C141.763 103.824 142.115 103.544 142.403 103.192C142.707 102.824 142.931 102.416 143.075 101.968C143.235 101.504 143.323 101.032 143.339 100.552V100.48H140.483C139.795 100.48 139.235 100.568 138.803 100.744C138.387 100.904 138.083 101.128 137.891 101.416C137.699 101.704 137.603 102.04 137.603 102.424C137.603 102.824 137.691 103.168 137.867 103.456C138.059 103.728 138.331 103.944 138.683 104.104C139.035 104.264 139.459 104.344 139.955 104.344ZM148.851 106V88.72H151.251V106H148.851ZM159.226 106.288C158.202 106.288 157.306 106.12 156.538 105.784C155.77 105.448 155.162 104.976 154.714 104.368C154.266 103.76 153.994 103.048 153.898 102.232H156.346C156.426 102.616 156.578 102.968 156.802 103.288C157.042 103.608 157.362 103.864 157.762 104.056C158.178 104.248 158.666 104.344 159.226 104.344C159.754 104.344 160.186 104.272 160.522 104.128C160.874 103.968 161.13 103.76 161.29 103.504C161.45 103.232 161.53 102.944 161.53 102.64C161.53 102.192 161.418 101.856 161.194 101.632C160.986 101.392 160.666 101.208 160.234 101.08C159.818 100.936 159.314 100.808 158.722 100.696C158.162 100.6 157.618 100.472 157.09 100.312C156.578 100.136 156.114 99.92 155.698 99.664C155.298 99.408 154.978 99.088 154.738 98.704C154.498 98.304 154.378 97.816 154.378 97.24C154.378 96.552 154.562 95.936 154.93 95.392C155.298 94.832 155.818 94.4 156.49 94.096C157.178 93.776 157.986 93.616 158.914 93.616C160.258 93.616 161.338 93.936 162.154 94.576C162.97 95.216 163.45 96.12 163.594 97.288H161.266C161.202 96.744 160.962 96.328 160.546 96.04C160.13 95.736 159.578 95.584 158.89 95.584C158.202 95.584 157.674 95.72 157.306 95.992C156.938 96.264 156.754 96.624 156.754 97.072C156.754 97.36 156.858 97.616 157.066 97.84C157.274 98.064 157.578 98.256 157.978 98.416C158.394 98.56 158.898 98.696 159.49 98.824C160.338 98.984 161.098 99.184 161.77 99.424C162.442 99.664 162.978 100.016 163.378 100.48C163.778 100.944 163.978 101.608 163.978 102.472C163.994 103.224 163.802 103.888 163.402 104.464C163.018 105.04 162.466 105.488 161.746 105.808C161.042 106.128 160.202 106.288 159.226 106.288ZM173.065 106V89.2H178.801C180.145 89.2 181.249 89.424 182.113 89.872C182.977 90.32 183.617 90.92 184.033 91.672C184.449 92.424 184.657 93.28 184.657 94.24C184.657 95.152 184.449 95.992 184.033 96.76C183.633 97.512 183.001 98.12 182.137 98.584C181.273 99.032 180.161 99.256 178.801 99.256H175.465V106H173.065ZM175.465 97.264H178.705C179.969 97.264 180.865 96.992 181.393 96.448C181.937 95.888 182.209 95.152 182.209 94.24C182.209 93.264 181.937 92.512 181.393 91.984C180.865 91.456 179.969 91.192 178.705 91.192H175.465V97.264ZM187.292 106V93.904H189.692V106H187.292ZM188.516 91.624C188.052 91.624 187.668 91.48 187.364 91.192C187.076 90.904 186.932 90.536 186.932 90.088C186.932 89.656 187.076 89.304 187.364 89.032C187.668 88.744 188.052 88.6 188.516 88.6C188.964 88.6 189.34 88.744 189.644 89.032C189.948 89.304 190.1 89.656 190.1 90.088C190.1 90.536 189.948 90.904 189.644 91.192C189.34 91.48 188.964 91.624 188.516 91.624ZM193.124 111.28V93.904H195.284L195.524 95.776C195.78 95.408 196.1 95.064 196.484 94.744C196.868 94.408 197.324 94.136 197.852 93.928C198.396 93.72 199.028 93.616 199.748 93.616C200.9 93.616 201.908 93.896 202.772 94.456C203.652 95.016 204.332 95.776 204.812 96.736C205.308 97.68 205.556 98.76 205.556 99.976C205.556 101.192 205.308 102.28 204.812 103.24C204.316 104.184 203.628 104.928 202.748 105.472C201.884 106.016 200.876 106.288 199.724 106.288C198.78 106.288 197.948 106.104 197.228 105.736C196.508 105.352 195.94 104.824 195.524 104.152V111.28H193.124ZM199.34 104.2C200.076 104.2 200.724 104.024 201.284 103.672C201.86 103.32 202.308 102.824 202.628 102.184C202.964 101.544 203.132 100.8 203.132 99.952C203.132 99.104 202.964 98.368 202.628 97.744C202.308 97.104 201.86 96.608 201.284 96.256C200.724 95.888 200.076 95.704 199.34 95.704C198.588 95.704 197.924 95.888 197.348 96.256C196.788 96.608 196.348 97.104 196.028 97.744C195.708 98.368 195.548 99.104 195.548 99.952C195.548 100.8 195.708 101.544 196.028 102.184C196.348 102.824 196.788 103.32 197.348 103.672C197.924 104.024 198.588 104.2 199.34 104.2ZM213.831 106.288C212.679 106.288 211.655 106.024 210.759 105.496C209.863 104.968 209.159 104.232 208.647 103.288C208.151 102.344 207.903 101.248 207.903 100C207.903 98.72 208.151 97.608 208.647 96.664C209.159 95.704 209.863 94.96 210.759 94.432C211.655 93.888 212.695 93.616 213.879 93.616C215.063 93.616 216.079 93.88 216.927 94.408C217.775 94.936 218.431 95.64 218.895 96.52C219.359 97.384 219.591 98.344 219.591 99.4C219.591 99.56 219.583 99.736 219.567 99.928C219.567 100.104 219.559 100.304 219.543 100.528H209.655V98.824H217.191C217.143 97.816 216.807 97.032 216.183 96.472C215.559 95.896 214.783 95.608 213.855 95.608C213.199 95.608 212.599 95.76 212.055 96.064C211.511 96.352 211.071 96.784 210.735 97.36C210.415 97.92 210.255 98.632 210.255 99.496V100.168C210.255 101.064 210.415 101.824 210.735 102.448C211.071 103.056 211.511 103.52 212.055 103.84C212.599 104.144 213.191 104.296 213.831 104.296C214.599 104.296 215.231 104.128 215.727 103.792C216.223 103.456 216.591 103 216.831 102.424H219.231C219.023 103.16 218.671 103.824 218.175 104.416C217.679 104.992 217.063 105.448 216.327 105.784C215.607 106.12 214.775 106.288 213.831 106.288ZM222.257 106V88.72H224.657V106H222.257ZM228.12 106V93.904H230.52V106H228.12ZM229.344 91.624C228.88 91.624 228.496 91.48 228.192 91.192C227.904 90.904 227.76 90.536 227.76 90.088C227.76 89.656 227.904 89.304 228.192 89.032C228.496 88.744 228.88 88.6 229.344 88.6C229.792 88.6 230.168 88.744 230.472 89.032C230.776 89.304 230.928 89.656 230.928 90.088C230.928 90.536 230.776 90.904 230.472 91.192C230.168 91.48 229.792 91.624 229.344 91.624ZM233.952 106V93.904H236.112L236.256 95.968C236.64 95.248 237.184 94.68 237.888 94.264C238.592 93.832 239.4 93.616 240.312 93.616C241.272 93.616 242.096 93.808 242.784 94.192C243.472 94.576 244.008 95.16 244.392 95.944C244.776 96.712 244.968 97.68 244.968 98.848V106H242.568V99.088C242.568 97.968 242.32 97.12 241.824 96.544C241.328 95.968 240.608 95.68 239.664 95.68C239.04 95.68 238.48 95.832 237.984 96.136C237.488 96.424 237.088 96.856 236.784 97.432C236.496 98.008 236.352 98.712 236.352 99.544V106H233.952ZM253.51 106.288C252.358 106.288 251.334 106.024 250.438 105.496C249.542 104.968 248.838 104.232 248.326 103.288C247.83 102.344 247.582 101.248 247.582 100C247.582 98.72 247.83 97.608 248.326 96.664C248.838 95.704 249.542 94.96 250.438 94.432C251.334 93.888 252.374 93.616 253.558 93.616C254.742 93.616 255.758 93.88 256.606 94.408C257.454 94.936 258.11 95.64 258.574 96.52C259.038 97.384 259.27 98.344 259.27 99.4C259.27 99.56 259.262 99.736 259.246 99.928C259.246 100.104 259.238 100.304 259.222 100.528H249.334V98.824H256.87C256.822 97.816 256.486 97.032 255.862 96.472C255.238 95.896 254.462 95.608 253.534 95.608C252.878 95.608 252.278 95.76 251.734 96.064C251.19 96.352 250.75 96.784 250.414 97.36C250.094 97.92 249.934 98.632 249.934 99.496V100.168C249.934 101.064 250.094 101.824 250.414 102.448C250.75 103.056 251.19 103.52 251.734 103.84C252.278 104.144 252.87 104.296 253.51 104.296C254.278 104.296 254.91 104.128 255.406 103.792C255.902 103.456 256.27 103 256.51 102.424H258.91C258.702 103.16 258.35 103.824 257.854 104.416C257.358 104.992 256.742 105.448 256.006 105.784C255.286 106.12 254.454 106.288 253.51 106.288Z" fill="#1A1A1A"/>
<path d="M441.5 167.916V306.624" stroke="#F25917"/>
<path d="M267.395 167.916L267.395 263.415" stroke="#F3822D"/>
<path d="M92.1953 167.916L92.1953 263.415" stroke="#9B9B9B"/>
<path d="M616.238 167.916V342.034" stroke="#E51700"/>
<rect x="86.0703" y="238.034" width="12" height="104" fill="#9B9B9B"/>
<path opacity="0.24" d="M98.0703 238.034L261.395 254.091V342.034L98.0703 342.034V238.034Z" fill="url(#paint0_linear_124_6964)"/>
<path opacity="0.24" d="M273.27 254.034L436.594 292.624V342.034H273.27V254.034Z" fill="url(#paint1_linear_124_6964)"/>
<path opacity="0.24" d="M448.043 292.534L610.238 326.624V342.034H448.043V292.534Z" fill="url(#paint2_linear_124_6964)"/>
<rect x="261.395" y="254.034" width="12" height="88" fill="#F3822D"/>
<rect x="436.043" y="292.534" width="12" height="49.5" fill="#F25917"/>
<rect x="610.238" y="326.168" width="12" height="15.866" fill="#E51700"/>
<line x1="86" y1="382.5" x2="686" y2="382.5" stroke="#12110D" stroke-opacity="0.1"/>
<rect x="589" y="82" width="97" height="32" rx="16" fill="#FBFAF5"/>
<path d="M602.112 102V93.6H604.98C605.652 93.6 606.204 93.712 606.636 93.936C607.068 94.16 607.388 94.46 607.596 94.836C607.804 95.212 607.908 95.64 607.908 96.12C607.908 96.576 607.804 96.996 607.596 97.38C607.396 97.756 607.08 98.06 606.648 98.292C606.216 98.516 605.66 98.628 604.98 98.628H603.312V102H602.112ZM603.312 97.632H604.932C605.564 97.632 606.012 97.496 606.276 97.224C606.548 96.944 606.684 96.576 606.684 96.12C606.684 95.632 606.548 95.256 606.276 94.992C606.012 94.728 605.564 94.596 604.932 94.596H603.312V97.632ZM610.83 102.144C610.334 102.144 609.922 102.06 609.594 101.892C609.266 101.724 609.022 101.5 608.862 101.22C608.702 100.932 608.622 100.624 608.622 100.296C608.622 99.896 608.726 99.556 608.934 99.276C609.142 98.988 609.438 98.768 609.822 98.616C610.206 98.464 610.666 98.388 611.202 98.388H612.774C612.774 98.036 612.722 97.744 612.618 97.512C612.514 97.28 612.358 97.108 612.15 96.996C611.95 96.876 611.694 96.816 611.382 96.816C611.022 96.816 610.714 96.904 610.458 97.08C610.202 97.248 610.042 97.5 609.978 97.836H608.778C608.826 97.412 608.97 97.052 609.21 96.756C609.458 96.452 609.774 96.22 610.158 96.06C610.542 95.892 610.95 95.808 611.382 95.808C611.95 95.808 612.426 95.908 612.81 96.108C613.194 96.308 613.482 96.592 613.674 96.96C613.874 97.32 613.974 97.752 613.974 98.256V102H612.93L612.834 100.98C612.746 101.14 612.642 101.292 612.522 101.436C612.402 101.58 612.258 101.704 612.09 101.808C611.93 101.912 611.742 101.992 611.526 102.048C611.318 102.112 611.086 102.144 610.83 102.144ZM611.058 101.172C611.314 101.172 611.546 101.12 611.754 101.016C611.962 100.912 612.138 100.772 612.282 100.596C612.434 100.412 612.546 100.208 612.618 99.984C612.698 99.752 612.742 99.516 612.75 99.276V99.24H611.322C610.978 99.24 610.698 99.284 610.482 99.372C610.274 99.452 610.122 99.564 610.026 99.708C609.93 99.852 609.882 100.02 609.882 100.212C609.882 100.412 609.926 100.584 610.014 100.728C610.11 100.864 610.246 100.972 610.422 101.052C610.598 101.132 610.81 101.172 611.058 101.172ZM617.845 102.144C617.333 102.144 616.885 102.06 616.501 101.892C616.117 101.724 615.813 101.488 615.589 101.184C615.365 100.88 615.229 100.524 615.181 100.116H616.405C616.445 100.308 616.521 100.484 616.633 100.644C616.753 100.804 616.913 100.932 617.113 101.028C617.321 101.124 617.565 101.172 617.845 101.172C618.109 101.172 618.325 101.136 618.493 101.064C618.669 100.984 618.797 100.88 618.877 100.752C618.957 100.616 618.997 100.472 618.997 100.32C618.997 100.096 618.941 99.928 618.829 99.816C618.725 99.696 618.565 99.604 618.349 99.54C618.141 99.468 617.889 99.404 617.593 99.348C617.313 99.3 617.041 99.236 616.777 99.156C616.521 99.068 616.289 98.96 616.081 98.832C615.881 98.704 615.721 98.544 615.601 98.352C615.481 98.152 615.421 97.908 615.421 97.62C615.421 97.276 615.513 96.968 615.697 96.696C615.881 96.416 616.141 96.2 616.477 96.048C616.821 95.888 617.225 95.808 617.689 95.808C618.361 95.808 618.901 95.968 619.309 96.288C619.717 96.608 619.957 97.06 620.029 97.644H618.865C618.833 97.372 618.713 97.164 618.505 97.02C618.297 96.868 618.021 96.792 617.677 96.792C617.333 96.792 617.069 96.86 616.885 96.996C616.701 97.132 616.609 97.312 616.609 97.536C616.609 97.68 616.661 97.808 616.765 97.92C616.869 98.032 617.021 98.128 617.221 98.208C617.429 98.28 617.681 98.348 617.977 98.412C618.401 98.492 618.781 98.592 619.117 98.712C619.453 98.832 619.721 99.008 619.921 99.24C620.121 99.472 620.221 99.804 620.221 100.236C620.229 100.612 620.133 100.944 619.933 101.232C619.741 101.52 619.465 101.744 619.105 101.904C618.753 102.064 618.333 102.144 617.845 102.144ZM623.884 102C623.5 102 623.168 101.94 622.888 101.82C622.608 101.7 622.392 101.5 622.24 101.22C622.088 100.94 622.012 100.56 622.012 100.08V96.972H620.968V95.952H622.012L622.156 94.44H623.212V95.952H624.928V96.972H623.212V100.092C623.212 100.436 623.284 100.672 623.428 100.8C623.572 100.92 623.82 100.98 624.172 100.98H624.868V102H623.884ZM632.046 102.144C631.51 102.144 631.018 102.048 630.57 101.856C630.13 101.656 629.778 101.36 629.514 100.968C629.258 100.568 629.122 100.068 629.106 99.468H630.306C630.314 99.772 630.386 100.048 630.522 100.296C630.658 100.544 630.854 100.744 631.11 100.896C631.374 101.04 631.686 101.112 632.046 101.112C632.406 101.112 632.706 101.044 632.946 100.908C633.194 100.772 633.378 100.588 633.498 100.356C633.626 100.124 633.69 99.864 633.69 99.576C633.69 99.216 633.602 98.924 633.426 98.7C633.258 98.476 633.026 98.308 632.73 98.196C632.442 98.084 632.118 98.028 631.758 98.028H631.134V97.02H631.758C632.262 97.02 632.662 96.904 632.958 96.672C633.262 96.44 633.414 96.112 633.414 95.688C633.414 95.336 633.298 95.048 633.066 94.824C632.834 94.6 632.494 94.488 632.046 94.488C631.598 94.488 631.242 94.616 630.978 94.872C630.722 95.128 630.578 95.452 630.546 95.844H629.358C629.382 95.372 629.506 94.956 629.73 94.596C629.962 94.228 630.274 93.948 630.666 93.756C631.066 93.556 631.526 93.456 632.046 93.456C632.606 93.456 633.074 93.556 633.45 93.756C633.834 93.948 634.122 94.208 634.314 94.536C634.514 94.864 634.614 95.224 634.614 95.616C634.614 95.912 634.558 96.188 634.446 96.444C634.334 96.692 634.174 96.908 633.966 97.092C633.758 97.276 633.506 97.408 633.21 97.488C633.53 97.552 633.818 97.676 634.074 97.86C634.33 98.044 634.53 98.284 634.674 98.58C634.818 98.868 634.89 99.204 634.89 99.588C634.89 100.044 634.782 100.468 634.566 100.86C634.35 101.244 634.03 101.556 633.606 101.796C633.19 102.028 632.67 102.144 632.046 102.144ZM639.783 102.144C639.039 102.144 638.399 101.964 637.863 101.604C637.327 101.236 636.915 100.728 636.627 100.08C636.339 99.424 636.195 98.664 636.195 97.8C636.195 96.936 636.339 96.18 636.627 95.532C636.915 94.876 637.327 94.368 637.863 94.008C638.399 93.64 639.039 93.456 639.783 93.456C640.527 93.456 641.163 93.64 641.691 94.008C642.227 94.368 642.635 94.876 642.915 95.532C643.203 96.18 643.347 96.936 643.347 97.8C643.347 98.664 643.203 99.424 642.915 100.08C642.635 100.728 642.227 101.236 641.691 101.604C641.163 101.964 640.527 102.144 639.783 102.144ZM639.783 101.076C640.231 101.076 640.631 100.944 640.983 100.68C641.343 100.416 641.623 100.04 641.823 99.552C642.023 99.064 642.123 98.48 642.123 97.8C642.123 97.12 642.023 96.536 641.823 96.048C641.623 95.56 641.343 95.188 640.983 94.932C640.631 94.668 640.231 94.536 639.783 94.536C639.327 94.536 638.919 94.668 638.559 94.932C638.199 95.188 637.919 95.56 637.719 96.048C637.519 96.536 637.419 97.12 637.419 97.8C637.419 98.48 637.519 99.064 637.719 99.552C637.919 100.04 638.199 100.416 638.559 100.68C638.919 100.944 639.327 101.076 639.783 101.076ZM650.49 102.144C649.914 102.144 649.406 102.008 648.966 101.736C648.526 101.456 648.182 101.08 647.934 100.608C647.694 100.128 647.574 99.584 647.574 98.976C647.574 98.36 647.694 97.816 647.934 97.344C648.182 96.872 648.526 96.5 648.966 96.228C649.414 95.948 649.926 95.808 650.502 95.808C650.974 95.808 651.39 95.904 651.75 96.096C652.11 96.28 652.39 96.544 652.59 96.888V93.36H653.79V102H652.71L652.59 101.064C652.47 101.248 652.314 101.424 652.122 101.592C651.93 101.752 651.698 101.884 651.426 101.988C651.154 102.092 650.842 102.144 650.49 102.144ZM650.682 101.1C651.058 101.1 651.39 101.012 651.678 100.836C651.966 100.66 652.186 100.412 652.338 100.092C652.498 99.772 652.578 99.4 652.578 98.976C652.578 98.552 652.498 98.184 652.338 97.872C652.186 97.552 651.966 97.304 651.678 97.128C651.39 96.944 651.058 96.852 650.682 96.852C650.322 96.852 649.998 96.944 649.71 97.128C649.422 97.304 649.198 97.552 649.038 97.872C648.878 98.184 648.798 98.552 648.798 98.976C648.798 99.4 648.878 99.772 649.038 100.092C649.198 100.412 649.422 100.66 649.71 100.836C649.998 101.012 650.322 101.1 650.682 101.1ZM657.435 102.144C656.939 102.144 656.527 102.06 656.199 101.892C655.871 101.724 655.627 101.5 655.467 101.22C655.307 100.932 655.227 100.624 655.227 100.296C655.227 99.896 655.331 99.556 655.539 99.276C655.747 98.988 656.043 98.768 656.427 98.616C656.811 98.464 657.271 98.388 657.807 98.388H659.379C659.379 98.036 659.327 97.744 659.223 97.512C659.119 97.28 658.963 97.108 658.755 96.996C658.555 96.876 658.299 96.816 657.987 96.816C657.627 96.816 657.319 96.904 657.063 97.08C656.807 97.248 656.647 97.5 656.583 97.836H655.383C655.431 97.412 655.575 97.052 655.815 96.756C656.063 96.452 656.379 96.22 656.763 96.06C657.147 95.892 657.555 95.808 657.987 95.808C658.555 95.808 659.031 95.908 659.415 96.108C659.799 96.308 660.087 96.592 660.279 96.96C660.479 97.32 660.579 97.752 660.579 98.256V102H659.535L659.439 100.98C659.351 101.14 659.247 101.292 659.127 101.436C659.007 101.58 658.863 101.704 658.695 101.808C658.535 101.912 658.347 101.992 658.131 102.048C657.923 102.112 657.691 102.144 657.435 102.144ZM657.663 101.172C657.919 101.172 658.151 101.12 658.359 101.016C658.567 100.912 658.743 100.772 658.887 100.596C659.039 100.412 659.151 100.208 659.223 99.984C659.303 99.752 659.347 99.516 659.355 99.276V99.24H657.927C657.583 99.24 657.303 99.284 657.087 99.372C656.879 99.452 656.727 99.564 656.631 99.708C656.535 99.852 656.487 100.02 656.487 100.212C656.487 100.412 656.531 100.584 656.619 100.728C656.715 100.864 656.851 100.972 657.027 101.052C657.203 101.132 657.415 101.172 657.663 101.172ZM662.619 104.64L664.095 101.328H663.747L661.359 95.952H662.655L664.551 100.344L666.459 95.952H667.719L663.879 104.64H662.619ZM670.791 102.144C670.279 102.144 669.831 102.06 669.447 101.892C669.063 101.724 668.759 101.488 668.535 101.184C668.311 100.88 668.175 100.524 668.127 100.116H669.351C669.391 100.308 669.467 100.484 669.579 100.644C669.699 100.804 669.859 100.932 670.059 101.028C670.267 101.124 670.511 101.172 670.791 101.172C671.055 101.172 671.271 101.136 671.439 101.064C671.615 100.984 671.743 100.88 671.823 100.752C671.903 100.616 671.943 100.472 671.943 100.32C671.943 100.096 671.887 99.928 671.775 99.816C671.671 99.696 671.511 99.604 671.295 99.54C671.087 99.468 670.835 99.404 670.539 99.348C670.259 99.3 669.987 99.236 669.723 99.156C669.467 99.068 669.235 98.96 669.027 98.832C668.827 98.704 668.667 98.544 668.547 98.352C668.427 98.152 668.367 97.908 668.367 97.62C668.367 97.276 668.459 96.968 668.643 96.696C668.827 96.416 669.087 96.2 669.423 96.048C669.767 95.888 670.171 95.808 670.635 95.808C671.307 95.808 671.847 95.968 672.255 96.288C672.663 96.608 672.903 97.06 672.975 97.644H671.811C671.779 97.372 671.659 97.164 671.451 97.02C671.243 96.868 670.967 96.792 670.623 96.792C670.279 96.792 670.015 96.86 669.831 96.996C669.647 97.132 669.555 97.312 669.555 97.536C669.555 97.68 669.607 97.808 669.711 97.92C669.815 98.032 669.967 98.128 670.167 98.208C670.375 98.28 670.627 98.348 670.923 98.412C671.347 98.492 671.727 98.592 672.063 98.712C672.399 98.832 672.667 99.008 672.867 99.24C673.067 99.472 673.167 99.804 673.167 100.236C673.175 100.612 673.079 100.944 672.879 101.232C672.687 101.52 672.411 101.744 672.051 101.904C671.699 102.064 671.279 102.144 670.791 102.144Z" fill="#12110D"/>
</g>
<g filter="url(#filter1_d_124_6964)">
<rect x="244" y="432" width="285" height="64" rx="32" fill="url(#paint3_linear_124_6964)" shape-rendering="crispEdges"/>
<rect x="244.5" y="432.5" width="284" height="63" rx="31.5" stroke="url(#paint4_linear_124_6964)" shape-rendering="crispEdges"/>
<path d="M324.46 471V457H329.2C330.307 457 331.213 457.187 331.92 457.56C332.627 457.933 333.147 458.433 333.48 459.06C333.827 459.673 334 460.373 334 461.16C334 461.907 333.827 462.6 333.48 463.24C333.147 463.867 332.62 464.373 331.9 464.76C331.18 465.133 330.26 465.32 329.14 465.32H326.46V471H324.46ZM331.82 471L328.8 464.78H331L334.14 471H331.82ZM326.46 463.8H329.06C330.047 463.8 330.773 463.56 331.24 463.08C331.707 462.587 331.94 461.96 331.94 461.2C331.94 460.427 331.713 459.813 331.26 459.36C330.807 458.907 330.073 458.68 329.06 458.68H326.46V463.8ZM340.443 471.24C339.483 471.24 338.63 471.02 337.883 470.58C337.137 470.14 336.55 469.527 336.123 468.74C335.71 467.953 335.503 467.04 335.503 466C335.503 464.933 335.71 464.007 336.123 463.22C336.55 462.42 337.137 461.8 337.883 461.36C338.63 460.907 339.497 460.68 340.483 460.68C341.47 460.68 342.317 460.9 343.023 461.34C343.73 461.78 344.277 462.367 344.663 463.1C345.05 463.82 345.243 464.62 345.243 465.5C345.243 465.633 345.237 465.78 345.223 465.94C345.223 466.087 345.217 466.253 345.203 466.44H336.963V465.02H343.243C343.203 464.18 342.923 463.527 342.403 463.06C341.883 462.58 341.237 462.34 340.463 462.34C339.917 462.34 339.417 462.467 338.963 462.72C338.51 462.96 338.143 463.32 337.863 463.8C337.597 464.267 337.463 464.86 337.463 465.58V466.14C337.463 466.887 337.597 467.52 337.863 468.04C338.143 468.547 338.51 468.933 338.963 469.2C339.417 469.453 339.91 469.58 340.443 469.58C341.083 469.58 341.61 469.44 342.023 469.16C342.437 468.88 342.743 468.5 342.943 468.02H344.943C344.77 468.633 344.477 469.187 344.063 469.68C343.65 470.16 343.137 470.54 342.523 470.82C341.923 471.1 341.23 471.24 340.443 471.24ZM349.935 471L346.155 460.92H348.255L351.115 469.08L353.995 460.92H356.055L352.295 471H349.935ZM357.996 471V460.92H359.996V471H357.996ZM359.016 459.02C358.629 459.02 358.309 458.9 358.056 458.66C357.816 458.42 357.696 458.113 357.696 457.74C357.696 457.38 357.816 457.087 358.056 456.86C358.309 456.62 358.629 456.5 359.016 456.5C359.389 456.5 359.703 456.62 359.956 456.86C360.209 457.087 360.336 457.38 360.336 457.74C360.336 458.113 360.209 458.42 359.956 458.66C359.703 458.9 359.389 459.02 359.016 459.02ZM367.416 471.24C366.456 471.24 365.603 471.02 364.856 470.58C364.109 470.14 363.523 469.527 363.096 468.74C362.683 467.953 362.476 467.04 362.476 466C362.476 464.933 362.683 464.007 363.096 463.22C363.523 462.42 364.109 461.8 364.856 461.36C365.603 460.907 366.469 460.68 367.456 460.68C368.443 460.68 369.289 460.9 369.996 461.34C370.703 461.78 371.249 462.367 371.636 463.1C372.023 463.82 372.216 464.62 372.216 465.5C372.216 465.633 372.209 465.78 372.196 465.94C372.196 466.087 372.189 466.253 372.176 466.44H363.936V465.02H370.216C370.176 464.18 369.896 463.527 369.376 463.06C368.856 462.58 368.209 462.34 367.436 462.34C366.889 462.34 366.389 462.467 365.936 462.72C365.483 462.96 365.116 463.32 364.836 463.8C364.569 464.267 364.436 464.86 364.436 465.58V466.14C364.436 466.887 364.569 467.52 364.836 468.04C365.116 468.547 365.483 468.933 365.936 469.2C366.389 469.453 366.883 469.58 367.416 469.58C368.056 469.58 368.583 469.44 368.996 469.16C369.409 468.88 369.716 468.5 369.916 468.02H371.916C371.743 468.633 371.449 469.187 371.036 469.68C370.623 470.16 370.109 470.54 369.496 470.82C368.896 471.1 368.203 471.24 367.416 471.24ZM376.088 471L373.128 460.92H375.108L377.308 469.32L376.928 469.3L379.368 460.92H381.608L384.048 469.3L383.668 469.32L385.848 460.92H387.868L384.908 471H382.848L380.288 462.26H380.688L378.128 471H376.088ZM394.89 471V457H403.59V458.64H396.89V463.18H402.49V464.78H396.89V471H394.89ZM405.77 471V460.92H407.77V471H405.77ZM406.79 459.02C406.403 459.02 406.083 458.9 405.83 458.66C405.59 458.42 405.47 458.113 405.47 457.74C405.47 457.38 405.59 457.087 405.83 456.86C406.083 456.62 406.403 456.5 406.79 456.5C407.163 456.5 407.476 456.62 407.73 456.86C407.983 457.087 408.11 457.38 408.11 457.74C408.11 458.113 407.983 458.42 407.73 458.66C407.476 458.9 407.163 459.02 406.79 459.02ZM410.63 471V460.92H412.43L412.55 462.64C412.87 462.04 413.323 461.567 413.91 461.22C414.496 460.86 415.17 460.68 415.93 460.68C416.73 460.68 417.416 460.84 417.99 461.16C418.563 461.48 419.01 461.967 419.33 462.62C419.65 463.26 419.81 464.067 419.81 465.04V471H417.81V465.24C417.81 464.307 417.603 463.6 417.19 463.12C416.776 462.64 416.176 462.4 415.39 462.4C414.87 462.4 414.403 462.527 413.99 462.78C413.576 463.02 413.243 463.38 412.99 463.86C412.75 464.34 412.63 464.927 412.63 465.62V471H410.63ZM426.848 471.24C425.888 471.24 425.041 471.013 424.308 470.56C423.574 470.093 423.001 469.467 422.588 468.68C422.188 467.88 421.988 466.973 421.988 465.96C421.988 464.933 422.188 464.027 422.588 463.24C423.001 462.453 423.574 461.833 424.308 461.38C425.054 460.913 425.908 460.68 426.868 460.68C427.654 460.68 428.348 460.84 428.948 461.16C429.548 461.467 430.014 461.907 430.348 462.48V456.6H432.348V471H430.548L430.348 469.44C430.148 469.747 429.888 470.04 429.568 470.32C429.248 470.587 428.861 470.807 428.408 470.98C427.954 471.153 427.434 471.24 426.848 471.24ZM427.168 469.5C427.794 469.5 428.348 469.353 428.828 469.06C429.308 468.767 429.674 468.353 429.928 467.82C430.194 467.287 430.328 466.667 430.328 465.96C430.328 465.253 430.194 464.64 429.928 464.12C429.674 463.587 429.308 463.173 428.828 462.88C428.348 462.573 427.794 462.42 427.168 462.42C426.568 462.42 426.028 462.573 425.548 462.88C425.068 463.173 424.694 463.587 424.428 464.12C424.161 464.64 424.028 465.253 424.028 465.96C424.028 466.667 424.161 467.287 424.428 467.82C424.694 468.353 425.068 468.767 425.548 469.06C426.028 469.353 426.568 469.5 427.168 469.5ZM435.223 471V460.92H437.223V471H435.223ZM436.243 459.02C435.856 459.02 435.536 458.9 435.283 458.66C435.043 458.42 434.923 458.113 434.923 457.74C434.923 457.38 435.043 457.087 435.283 456.86C435.536 456.62 435.856 456.5 436.243 456.5C436.616 456.5 436.929 456.62 437.183 456.86C437.436 457.087 437.563 457.38 437.563 457.74C437.563 458.113 437.436 458.42 437.183 458.66C436.929 458.9 436.616 459.02 436.243 459.02ZM440.083 471V460.92H441.883L442.003 462.64C442.323 462.04 442.776 461.567 443.363 461.22C443.949 460.86 444.623 460.68 445.383 460.68C446.183 460.68 446.869 460.84 447.443 461.16C448.016 461.48 448.463 461.967 448.783 462.62C449.103 463.26 449.263 464.067 449.263 465.04V471H447.263V465.24C447.263 464.307 447.056 463.6 446.643 463.12C446.229 462.64 445.629 462.4 444.843 462.4C444.323 462.4 443.856 462.527 443.443 462.78C443.029 463.02 442.696 463.38 442.443 463.86C442.203 464.34 442.083 464.927 442.083 465.62V471H440.083ZM455.921 475.64C455.001 475.64 454.188 475.52 453.481 475.28C452.774 475.053 452.228 474.7 451.841 474.22C451.454 473.74 451.261 473.153 451.261 472.46C451.261 472.1 451.341 471.733 451.501 471.36C451.661 471 451.921 470.653 452.281 470.32C452.641 469.987 453.128 469.687 453.741 469.42L454.861 470.32C454.181 470.573 453.721 470.873 453.481 471.22C453.254 471.58 453.141 471.927 453.141 472.26C453.141 472.66 453.261 472.993 453.501 473.26C453.741 473.527 454.068 473.727 454.481 473.86C454.908 473.993 455.388 474.06 455.921 474.06C456.441 474.06 456.894 473.987 457.281 473.84C457.668 473.693 457.968 473.487 458.181 473.22C458.394 472.953 458.501 472.64 458.501 472.28C458.501 471.853 458.341 471.493 458.021 471.2C457.701 470.92 457.088 470.753 456.181 470.7C455.421 470.647 454.774 470.573 454.241 470.48C453.721 470.387 453.274 470.273 452.901 470.14C452.541 470.007 452.234 469.86 451.981 469.7C451.741 469.54 451.534 469.373 451.361 469.2V468.74L453.361 466.68L454.981 467.24L452.801 469.26L453.221 468.36C453.368 468.453 453.508 468.547 453.641 468.64C453.774 468.72 453.954 468.793 454.181 468.86C454.408 468.927 454.714 468.987 455.101 469.04C455.488 469.093 455.994 469.147 456.621 469.2C457.528 469.267 458.254 469.427 458.801 469.68C459.361 469.933 459.768 470.273 460.021 470.7C460.274 471.127 460.401 471.633 460.401 472.22C460.401 472.793 460.241 473.34 459.921 473.86C459.614 474.38 459.128 474.807 458.461 475.14C457.808 475.473 456.961 475.64 455.921 475.64ZM455.921 467.9C455.068 467.9 454.341 467.74 453.741 467.42C453.154 467.1 452.701 466.667 452.381 466.12C452.074 465.573 451.921 464.967 451.921 464.3C451.921 463.62 452.074 463.013 452.381 462.48C452.701 461.933 453.161 461.5 453.761 461.18C454.361 460.847 455.081 460.68 455.921 460.68C456.761 460.68 457.474 460.847 458.061 461.18C458.661 461.5 459.114 461.933 459.421 462.48C459.741 463.013 459.901 463.62 459.901 464.3C459.901 464.967 459.741 465.573 459.421 466.12C459.114 466.667 458.661 467.1 458.061 467.42C457.474 467.74 456.761 467.9 455.921 467.9ZM455.921 466.3C456.574 466.3 457.094 466.133 457.481 465.8C457.868 465.453 458.061 464.953 458.061 464.3C458.061 463.647 457.868 463.153 457.481 462.82C457.094 462.473 456.574 462.3 455.921 462.3C455.268 462.3 454.741 462.473 454.341 462.82C453.941 463.153 453.741 463.647 453.741 464.3C453.741 464.953 453.941 465.453 454.341 465.8C454.741 466.133 455.268 466.3 455.921 466.3ZM457.561 462.5L457.081 460.92H461.221V462.3L457.561 462.5ZM467.127 471.24C466.274 471.24 465.527 471.1 464.887 470.82C464.247 470.54 463.741 470.147 463.367 469.64C462.994 469.133 462.767 468.54 462.687 467.86H464.727C464.794 468.18 464.921 468.473 465.107 468.74C465.307 469.007 465.574 469.22 465.907 469.38C466.254 469.54 466.661 469.62 467.127 469.62C467.567 469.62 467.927 469.56 468.207 469.44C468.501 469.307 468.714 469.133 468.847 468.92C468.981 468.693 469.047 468.453 469.047 468.2C469.047 467.827 468.954 467.547 468.767 467.36C468.594 467.16 468.327 467.007 467.967 466.9C467.621 466.78 467.201 466.673 466.707 466.58C466.241 466.5 465.787 466.393 465.347 466.26C464.921 466.113 464.534 465.933 464.187 465.72C463.854 465.507 463.587 465.24 463.387 464.92C463.187 464.587 463.087 464.18 463.087 463.7C463.087 463.127 463.241 462.613 463.547 462.16C463.854 461.693 464.287 461.333 464.847 461.08C465.421 460.813 466.094 460.68 466.867 460.68C467.987 460.68 468.887 460.947 469.567 461.48C470.247 462.013 470.647 462.767 470.767 463.74H468.827C468.774 463.287 468.574 462.94 468.227 462.7C467.881 462.447 467.421 462.32 466.847 462.32C466.274 462.32 465.834 462.433 465.527 462.66C465.221 462.887 465.067 463.187 465.067 463.56C465.067 463.8 465.154 464.013 465.327 464.2C465.501 464.387 465.754 464.547 466.087 464.68C466.434 464.8 466.854 464.913 467.347 465.02C468.054 465.153 468.687 465.32 469.247 465.52C469.807 465.72 470.254 466.013 470.587 466.4C470.921 466.787 471.087 467.34 471.087 468.06C471.101 468.687 470.941 469.24 470.607 469.72C470.287 470.2 469.827 470.573 469.227 470.84C468.641 471.107 467.941 471.24 467.127 471.24Z" fill="#12110D"/>
<rect x="255" y="443" width="42" height="42" rx="21" fill="#E65C32"/>
<path fill-rule="evenodd" clip-rule="evenodd" d="M273.037 456.329C273.474 455.273 273.699 454.142 273.699 453H281.245C281.245 455.133 280.825 457.245 280.008 459.216C279.691 459.981 279.317 460.719 278.889 461.424C278.756 461.643 279.04 461.941 279.265 461.819C281.614 460.552 284.283 459.892 287 459.892V467.437C284.693 467.437 282.459 468.333 280.828 469.964C279.462 471.33 278.597 473.104 278.352 475H270.773C270.951 472.401 271.752 469.896 273.089 467.691C273.222 467.471 272.939 467.174 272.713 467.295C272.228 467.557 271.728 467.795 271.217 468.007C269.246 468.823 267.133 469.243 265 469.243L265 461.698C266.142 461.698 267.273 461.473 268.329 461.036C269.384 460.599 270.343 459.958 271.151 459.15C271.959 458.343 272.599 457.384 273.037 456.329Z" fill="white"/>
</g>
<defs>
<filter id="filter0_d_124_6964" x="0" y="0" width="772" height="504" filterUnits="userSpaceOnUse" color-interpolation-filters="sRGB">
<feFlood flood-opacity="0" result="BackgroundImageFix"/>
<feColorMatrix in="SourceAlpha" type="matrix" values="0 0 0 0 0 0 0 0 0 0 0 0 0 0 0 0 0 0 127 0" result="hardAlpha"/>
<feOffset dy="4"/>
<feGaussianBlur stdDeviation="18"/>
<feComposite in2="hardAlpha" operator="out"/>
<feColorMatrix type="matrix" values="0 0 0 0 0 0 0 0 0 0 0 0 0 0 0 0 0 0 0.05 0"/>
<feBlend mode="normal" in2="BackgroundImageFix" result="effect1_dropShadow_124_6964"/>
<feBlend mode="normal" in="SourceGraphic" in2="effect1_dropShadow_124_6964" result="shape"/>
</filter>
<filter id="filter1_d_124_6964" x="220" y="412" width="333" height="112" filterUnits="userSpaceOnUse" color-interpolation-filters="sRGB">
<feFlood flood-opacity="0" result="BackgroundImageFix"/>
<feColorMatrix in="SourceAlpha" type="matrix" values="0 0 0 0 0 0 0 0 0 0 0 0 0 0 0 0 0 0 127 0" result="hardAlpha"/>
<feOffset dy="4"/>
<feGaussianBlur stdDeviation="12"/>
<feComposite in2="hardAlpha" operator="out"/>
<feColorMatrix type="matrix" values="0 0 0 0 0 0 0 0 0 0 0 0 0 0 0 0 0 0 0.1 0"/>
<feBlend mode="normal" in2="BackgroundImageFix" result="effect1_dropShadow_124_6964"/>
<feBlend mode="normal" in="BackgroundImageFix" in2="effect1_dropShadow_124_6964" result="BackgroundImageFix"/>
<feBlend mode="normal" in="SourceGraphic" in2="BackgroundImageFix" result="shape"/>
</filter>
<linearGradient id="paint0_linear_124_6964" x1="261.395" y1="290.034" x2="98.0703" y2="290.034" gradientUnits="userSpaceOnUse">
<stop stop-color="#F3822D"/>
<stop offset="1" stop-color="#9B9B9B"/>
</linearGradient>
<linearGradient id="paint1_linear_124_6964" x1="436.594" y1="298.034" x2="273.27" y2="298.034" gradientUnits="userSpaceOnUse">
<stop stop-color="#F25917"/>
<stop offset="1" stop-color="#F3822D"/>
</linearGradient>
<linearGradient id="paint2_linear_124_6964" x1="610.238" y1="317.284" x2="448.043" y2="317.284" gradientUnits="userSpaceOnUse">
<stop stop-color="#E51700"/>
<stop offset="1" stop-color="#F25917"/>
</linearGradient>
<linearGradient id="paint3_linear_124_6964" x1="386.5" y1="432" x2="386.5" y2="496" gradientUnits="userSpaceOnUse">
<stop stop-color="#FFF5EC" stop-opacity="0.4"/>
<stop offset="1" stop-color="white" stop-opacity="0"/>
</linearGradient>
<linearGradient id="paint4_linear_124_6964" x1="386.5" y1="432" x2="386.5" y2="496" gradientUnits="userSpaceOnUse">
<stop stop-color="#E65C32"/>
<stop offset="1" stop-color="#FBFAF5"/>
</linearGradient>
</defs>
</svg>
