<svg xmlns="http://www.w3.org/2000/svg" fill="none" viewBox="0 0 149 89">
  <path fill="#12110D" d="m51.619 48.905 1.875-1.192c.69 1.521 1.876 2.269 3.732 2.269 1.663 0 2.714-.722 2.714-1.844 0-1.121-.761-1.637-2.45-2.03l-1.282-.303c-2.617-.606-4.183-1.779-4.183-4.086s1.901-3.97 5.253-3.97c3.351 0 4.447.96 5.182 2.99l-1.876 1.147c-.593-1.47-1.663-2.127-3.377-2.127-1.715 0-2.617.658-2.617 1.844s.831 1.637 2.333 1.985l1.283.303c2.449.56 4.254 1.38 4.254 4.041S60.487 52 57.155 52s-4.686-.934-5.543-3.061m17.222 1.14c1.644 0 2.546-1.077 2.546-3.597s-.902-3.597-2.546-3.597-2.546 1.148-2.546 3.597c0 2.45.903 3.596 2.546 3.596m-5.092-3.604c0-3.41 1.857-5.491 5.066-5.491 3.21 0 5.066 2.082 5.066 5.491 0 3.41-1.856 5.518-5.066 5.518s-5.066-2.082-5.066-5.518m11.795 2.76V37.246h2.379V49.02c0 .91.573 1.032 1.547.89l.045 1.727c-.426.142-.883.213-1.476.213-1.547 0-2.495-.632-2.495-2.643m11.847-3.757c.026-1.61-.522-2.661-2.114-2.661s-2.282 1.121-2.45 2.662zm-7.038 1.006c0-3.248 1.733-5.446 4.924-5.446 3.19 0 4.421 1.869 4.421 4.84s-.025.864-.096 1.334h-6.8c.167 1.844 1.025 2.9 2.83 2.9 1.804 0 1.997-.418 2.713-1.282l1.186 1.283c-.974 1.308-2.353 1.914-4.112 1.914-3.449 0-5.066-2.314-5.066-5.536zm16.242-3.461c-1.238 0-2.282.722-2.733 2.591v6.097h-2.378V41.242h2.14l.096 1.843c.69-1.47 1.83-2.101 3.423-2.101 2.333 0 3.59 1.218 3.59 3.906v6.826h-2.379v-6.8c0-1.218-.425-1.914-1.733-1.914m6.013-1.76h2.379v10.467h-2.379zm1.186-4.228c.877 0 1.496.586 1.496 1.379s-.619 1.405-1.496 1.405c-.876 0-1.495-.586-1.495-1.405s.619-1.38 1.495-1.38m2.952 12.711 1.618-1.167c.619 1.051 1.495 1.592 2.855 1.592s1.831-.47 1.831-1.218c0-.747-.477-1.031-1.715-1.334l-.902-.213c-2.024-.47-3.332-1.282-3.332-3.274s1.547-3.132 4.067-3.132 3.493.721 4.163 2.243l-1.688 1.076c-.497-1.031-1.309-1.495-2.546-1.495-1.238 0-1.734.49-1.734 1.218s.477 1.076 1.689 1.334l.902.213c2.262.535 3.403 1.282 3.403 3.222s-1.566 3.204-4.093 3.204c-2.526 0-3.564-.677-4.447-2.243m10.01 1.005v.187h-.406v1.05h-.239v-1.05h-.406v-.187zm.142 0h.309l.354.96.355-.96h.309v1.238h-.212v-.96l-.355.96h-.193l-.355-.96v.96h-.212zm-85.537 3.739h9.107c5.66-.071 10.964-7.129 6.446-11.963 0 .934-1 1.798-2.591 2.385-2.185.818-5.35 1.611-7.445 2.127-1.212.303-2.165.773-2.874 1.779-.548.792-3.255 4.627-3.255 4.627-.355.606-.071 1.051.618 1.051zm16.906-19.981h-9.133c-5.633.07-10.963 7.148-6.42 11.962 0-.934 1-1.798 2.591-2.384 2.185-.819 5.35-1.612 7.445-2.127 1.212-.303 2.166-.774 2.875-1.78.547-.792 3.254-4.627 3.254-4.627.355-.606.097-1.031-.593-1.031l-.025-.026z"/>
</svg>
