<svg xmlns="http://www.w3.org/2000/svg" fill="none" viewBox="0 0 149 89">
  <g fill="black" clip-path="url(#a)">
    <path
      d="M83.347 49.265c-.581 1.399-1.34 1.649-2.35 1.649s-1.769-.25-2.35-1.649l-4.725-11.091h3.082l2.602 6.42c.631 1.55 1.113 2.85 1.415 3.823.328-.974.808-2.323 1.415-3.822l2.602-6.421h3.032l-4.725 11.091zm13.16-9.693c-.606-1.398-1.338-1.648-2.35-1.648-1.01 0-1.718.224-2.35 1.648l-4.85 11.092h3.007l.909-2.249h6.544l.909 2.249h3.032zm-4.674 6.496.86-2.073c.631-1.525 1.138-2.798 1.467-3.748.328.95.833 2.249 1.44 3.748l.86 2.073zm16.297 2.947v1.649h-2.904v-1.649c0-1.2.049-1.45-.558-2.423l-5.28-8.418h3.285l3.006 4.947c.48.776.784 1.299 1.06 1.899.253-.6.556-1.1 1.037-1.899l3.032-4.947h3.158l-5.281 8.42c-.606.973-.555 1.223-.555 2.423m-46.103-4.649c0 4.173-2.552 6.545-6.898 6.545-4.118 0-6.77-2.173-6.77-6.519s2.803-6.47 6.895-6.47c4.093 0 6.771 2.323 6.771 6.444m-2.956.05c0-2.749-1.49-4.098-3.916-4.098-2.425 0-3.84 1.375-3.84 4.023 0 2.898 1.566 4.172 3.967 4.172 2.402 0 3.79-1.499 3.79-4.097m15.716 3.85v2.398H67.94c-2.07 0-3.235-1.074-3.235-2.924v-9.568h2.881v10.094zm-34.213 2.647c-2.222 0-3.663-.175-5.254-.5v-2.423c1.364.325 2.678.575 5.254.575 2.225 0 2.881-.475 2.881-1.35 0-.824-.607-1.25-3.006-1.648-4.272-.725-5.408-1.925-5.408-3.949 0-2.447 1.996-3.696 5.56-3.696 1.464 0 3.258.15 4.9.525v2.424c-1.895-.425-3.436-.6-4.903-.6-1.87 0-2.602.3-2.602 1.174 0 .75.505 1.2 3.233 1.7 4.27.775 5.179 1.999 5.179 3.871 0 2.174-1.693 3.897-5.836 3.897"
    />
  </g>
  <defs>
    <clipPath id="a">
      <path fill="white" d="M35.04 37.924h78.923v13.154H35.04z" />
    </clipPath>
  </defs>
</svg>
