<svg xmlns="http://www.w3.org/2000/svg" fill="none" viewBox="0 0 115 32">
  <g clip-path="url(#a)">
    <mask id="b" width="32" height="32" x="0" y="0" maskUnits="userSpaceOnUse" style="mask-type:luminance">
      <path fill="white" d="M31.743.863H0v30.283h31.743z"/>
    </mask>
    <g mask="url(#b)">
      <path fill="#FBFAF5" fill-rule="evenodd" d="M11.595 5.445c.63-1.453.955-3.01.955-4.582h10.887a21.5 21.5 0 0 1-1.784 8.556 22 22 0 0 1-1.614 3.04c-.192.301.216.711.542.543 3.39-1.744 7.239-2.652 11.16-2.652v10.386c-3.33 0-6.552 1.233-8.905 3.478-1.972 1.881-3.22 4.323-3.573 6.933H8.328a21.65 21.65 0 0 1 3.343-10.062c.192-.302-.217-.712-.542-.544q-1.052.541-2.16.98A24.4 24.4 0 0 1 0 23.221V12.836c1.648 0 3.28-.31 4.803-.912A12.6 12.6 0 0 0 8.874 9.33a12 12 0 0 0 2.72-3.884" clip-rule="evenodd"/>
    </g>
    <path fill="#FBFAF5" fill-rule="evenodd" d="M45.979 9.082c.24-.556.363-1.152.363-1.753h4.137c0 1.123-.23 2.236-.678 3.274a8.4 8.4 0 0 1-.59 1.126c-.078.124.09.292.221.225a9.2 9.2 0 0 1 4.19-1.006v3.974a4.87 4.87 0 0 0-3.372 1.342 4.5 4.5 0 0 0-1.396 3.239c0 1.215.502 2.38 1.396 3.24a4.87 4.87 0 0 0 3.373 1.341v3.974c-2.362 0-4.628-.901-6.298-2.506s-2.608-3.78-2.608-6.049a8.3 8.3 0 0 1 1.268-4.4c.077-.124-.09-.293-.222-.225q-.381.195-.782.355a9.2 9.2 0 0 1-3.408.65V11.91a4.9 4.9 0 0 0 1.825-.349 4.8 4.8 0 0 0 1.547-.993 4.6 4.6 0 0 0 1.034-1.486m64.624 3.465c0 .201-.271.295-.416.15-1.288-1.296-2.994-1.932-5.139-1.932-2.284 0-4.228.851-5.864 2.521-1.602 1.67-2.42 3.7-2.42 6.123s.818 4.486 2.42 6.156c1.636 1.67 3.58 2.488 5.864 2.488 2.145 0 3.851-.636 5.139-1.931.145-.146.416-.052.416.15v1.323H115V11.223h-4.397zm-4.738 11.479q-2.045 0-3.374-1.277-1.33-1.326-1.329-3.34c0-1.342.442-2.456 1.329-3.307.886-.884 2.011-1.31 3.374-1.31 1.364 0 2.489.426 3.374 1.31.921.851 1.364 1.965 1.364 3.307 0 1.343-.443 2.456-1.364 3.34q-1.328 1.277-3.374 1.277M72.79 21.145H60.517c-.29 0-.503.266-.398.527.694 1.708 2.236 2.55 4.627 2.55 1.67 0 2.965-.556 3.817-1.637l3.545 1.965c-1.67 2.325-4.158 3.503-7.43 3.503-2.83 0-5.079-.818-6.783-2.455q-2.557-2.456-2.557-6.189c0-2.456.852-4.519 2.523-6.156 1.67-1.67 3.851-2.488 6.476-2.488 2.488 0 4.567.818 6.17 2.488 1.635 1.67 2.453 3.7 2.453 6.156 0 .557-.068 1.113-.17 1.736m-12.762-3.797c-.094.262.12.522.41.522h7.567c.287 0 .5-.256.411-.518-.642-1.876-2.23-2.789-4.08-2.789-2.148 0-3.671 1.011-4.308 2.785m19.623-3.737a79 79 0 0 1 .018-2.307H75.32v16.189h4.348v-7.738c0-1.554.505-2.655 1.55-3.335s2.258-.94 3.573-.777V10.98c-2.028 0-4.363 1.452-4.976 2.655-.025.05-.164.031-.165-.024m11.455-2.375s-.031 1.446-.017 2.307c0 .055.14.074.165.024.612-1.203 2.947-2.654 4.975-2.654v4.662c-1.314-.162-2.527.097-3.572.777s-1.55 1.78-1.55 3.335v7.738h-4.348V11.236z" clip-rule="evenodd"/>
  </g>
  <defs>
    <clipPath id="a">
      <path fill="white" d="M0 0h115v32H0z"/>
    </clipPath>
  </defs>
</svg>
