<svg xmlns="http://www.w3.org/2000/svg" fill="none" viewBox="0 0 370 354">
  <path
    fill="currentColor"
    fill-rule="evenodd"
    d="M135.15 53.56c7.351-16.98 11.135-35.18 11.135-53.56h126.898c0 34.324-7.066 68.311-20.794 100.022a257 257 0 0 1-18.813 35.524c-2.238 3.531 2.524 8.322 6.323 6.362 39.501-20.39 84.372-31.007 130.07-31.007v121.412c-38.798 0-76.359 14.407-103.794 40.654-22.978 21.984-37.521 50.529-41.64 81.033H97.075c3.005-41.824 16.468-82.126 38.961-117.611 2.239-3.531-2.522-8.324-6.321-6.363a279 279 0 0 1-25.172 11.449C71.399 254.61 35.875 261.371 0 261.371V139.959c19.21 0 38.233-3.619 55.98-10.654 17.75-7.033 33.876-17.342 47.459-30.34 13.584-12.995 24.36-28.424 31.711-45.405"
    clip-rule="evenodd"
  />
</svg>
