<svg width="62" height="32" viewBox="0 0 62 32" fill="none" xmlns="http://www.w3.org/2000/svg">
<path d="M17.8762 22.0497C15.3782 22.0497 13.3459 24.082 13.3459 26.58C13.3459 29.0779 15.3782 31.1103 17.8762 31.1103C20.3742 31.1103 22.4065 29.0779 22.4065 26.58C22.4065 24.082 20.3742 22.0497 17.8762 22.0497Z" fill="#12110D"/>
<path d="M5.21555 22.0497C2.71757 22.0497 0.685239 24.082 0.685239 26.58C0.685239 29.0779 2.71757 31.1103 5.21555 31.1103C7.71352 31.1103 9.74585 29.0779 9.74585 26.58C9.74585 24.082 7.71352 22.0497 5.21555 22.0497Z" fill="#12110D"/>
<path d="M30.5369 22.0497C28.0389 22.0497 26.0066 24.082 26.0066 26.58C26.0066 29.0779 28.0389 31.1103 30.5369 31.1103C33.0348 31.1103 35.0672 29.0779 35.0672 26.58C35.0672 24.082 33.0348 22.0497 30.5369 22.0497Z" fill="#12110D"/>
<path d="M55.8582 22.0497C53.3602 22.0497 51.3279 24.082 51.3279 26.58C51.3279 29.0779 53.3602 31.1103 55.8582 31.1103C58.3562 31.1103 60.3885 29.0779 60.3885 26.58C60.3885 24.082 58.3562 22.0497 55.8582 22.0497Z" fill="#12110D"/>
<path d="M43.1975 22.0497C40.6996 22.0497 38.6662 24.082 38.6662 26.58C38.6662 29.0779 40.6985 31.1103 43.1965 31.1103C45.6945 31.1103 47.7268 29.0779 47.7268 26.58C47.7278 24.082 45.6965 22.0497 43.1975 22.0497Z" fill="#12110D"/>
<path d="M8.99249 9.2121C8.99249 7.09335 7.39428 5.49513 5.27553 5.49513C3.15678 5.49513 1.55856 7.09335 1.55856 9.2121C1.55856 11.3308 3.15678 12.9291 5.27553 12.9291C7.39428 12.9291 8.99249 11.3298 8.99249 9.2121ZM0 9.2121C0 6.27492 2.35767 4.05654 5.27553 4.05654C8.19339 4.05654 10.5511 6.25459 10.5511 9.19176V13.7078C10.5511 14.1674 10.2308 14.4866 9.75195 14.4866C9.2731 14.4866 8.95284 14.1674 8.95284 13.7078V12.3892H8.87253C8.25337 13.4486 7.01404 14.3677 5.1759 14.3677C2.33835 14.3677 0 12.1696 0 9.2121Z" fill="#12110D"/>
<path d="M21.6216 9.2121C21.6216 7.09335 20.0234 5.49513 17.9047 5.49513C15.7859 5.49513 14.1877 7.09335 14.1877 9.2121C14.1877 11.3308 15.7859 12.9291 17.9047 12.9291C20.0234 12.9291 21.6216 11.3298 21.6216 9.2121ZM14.6676 17.7044C14.2477 17.5041 14.0484 17.1442 14.208 16.7253C14.3677 16.2851 14.7672 16.1062 15.1871 16.3054C15.9069 16.645 16.8056 16.8849 17.7644 16.8849C20.1424 16.8849 21.581 15.4657 21.581 13.048V12.3882H21.5007C20.8815 13.4476 19.6422 14.3666 17.804 14.3666C14.9665 14.3666 12.6291 12.1686 12.6291 9.21108C12.6291 6.25357 14.9868 4.05552 17.9047 4.05552C20.8225 4.05552 23.1802 6.25357 23.1802 9.19075V12.9474C23.1802 16.1845 21.1021 18.3622 17.7054 18.3622C16.6664 18.3632 15.6273 18.1639 14.6676 17.7044Z" fill="#12110D"/>
<path d="M34.2508 9.2121C34.2508 7.09335 32.6526 5.49513 30.5338 5.49513C28.4151 5.49513 26.8168 7.09335 26.8168 9.2121C26.8168 11.3308 28.4151 12.9291 30.5338 12.9291C32.6526 12.9291 34.2508 11.3298 34.2508 9.2121ZM25.2593 9.2121C25.2593 6.27492 27.5977 4.05654 30.5348 4.05654C33.472 4.05654 35.8104 6.27391 35.8104 9.2121C35.8104 12.1503 33.472 14.3677 30.5348 14.3677C27.5977 14.3677 25.2593 12.1493 25.2593 9.2121Z" fill="#12110D"/>
<path d="M46.8799 9.2121C46.8799 7.09335 45.2817 5.49513 43.163 5.49513C41.0442 5.49513 39.446 7.09335 39.446 9.2121C39.446 11.3308 41.0442 12.9291 43.163 12.9291C45.2817 12.9291 46.8799 11.3298 46.8799 9.2121ZM37.8884 9.2121C37.8884 6.27492 40.2065 4.05654 43.0643 4.05654C44.9025 4.05654 46.1418 4.97561 46.761 6.03499H46.8413V0.77979C46.8413 0.320253 47.1615 0 47.6404 0C48.1193 0 48.4395 0.320253 48.4395 0.77979V9.23141C48.4395 12.1686 46.1012 14.3666 43.164 14.3666C40.2461 14.3677 37.8884 12.1493 37.8884 9.2121Z" fill="#12110D"/>
<path d="M59.5101 9.2121C59.5101 7.09335 57.9119 5.49513 55.7931 5.49513C53.6744 5.49513 52.0762 7.09335 52.0762 9.2121C52.0762 11.3308 53.6744 12.9291 55.7931 12.9291C57.9119 12.9291 59.5101 11.3298 59.5101 9.2121ZM50.5176 9.2121C50.5176 6.27492 52.8753 4.05654 55.7931 4.05654C58.711 4.05654 61.0686 6.25459 61.0686 9.19176V13.7078C61.0686 14.1674 60.7484 14.4866 60.2695 14.4866C59.7907 14.4866 59.4704 14.1674 59.4704 13.7078V12.3892H59.3901C58.771 13.4486 57.5316 14.3677 55.6935 14.3677C52.8559 14.3677 50.5176 12.1696 50.5176 9.2121Z" fill="#12110D"/>
</svg>
