<svg width="37" height="35" viewBox="0 0 37 35" fill="none" xmlns="http://www.w3.org/2000/svg">
<path d="M4.33084 1.78721V6.00127C4.33084 6.47527 4.51914 6.92986 4.85431 7.26503C5.18947 7.60019 5.64406 7.78849 6.11806 7.78849C6.59206 7.78849 7.04664 7.60019 7.38181 7.26503C7.71698 6.92986 7.90527 6.47527 7.90527 6.00127V1.78721C7.90527 1.31321 7.71698 0.85863 7.38181 0.523463C7.04664 0.188295 6.59206 0 6.11806 0C5.64406 0 5.18947 0.188295 4.85431 0.523463C4.51914 0.85863 4.33084 1.31321 4.33084 1.78721ZM5.61011 6.00127V1.78721C5.60934 1.71952 5.62274 1.65242 5.64944 1.59021C5.67615 1.528 5.71557 1.47207 5.76518 1.426C5.81479 1.37994 5.87348 1.34476 5.9375 1.32273C6.00151 1.3007 6.06942 1.2923 6.13687 1.29808C6.20167 1.29599 6.26621 1.30721 6.3265 1.33105C6.38679 1.35489 6.44155 1.39085 6.48739 1.43669C6.53324 1.48253 6.56919 1.53729 6.59303 1.59758C6.61687 1.65787 6.62809 1.72241 6.626 1.78721V6.00127C6.62406 6.1304 6.5719 6.25368 6.48059 6.345C6.38928 6.43631 6.26599 6.48847 6.13687 6.49041C6.07015 6.49292 6.0036 6.48226 5.94101 6.45904C5.87841 6.43581 5.82101 6.40047 5.77209 6.35504C5.72317 6.30961 5.68368 6.25498 5.65589 6.19428C5.62809 6.13358 5.61254 6.06799 5.61011 6.00127ZM18.2147 0.0940638H14.6026V1.37333H15.769V7.6568H17.0483V1.37333H18.2147V0.0940638ZM21.9772 0.0940638V6.00127C21.9772 6.131 21.9257 6.25541 21.834 6.34714C21.7422 6.43887 21.6178 6.49041 21.4881 6.49041C21.3584 6.49041 21.234 6.43887 21.1422 6.34714C21.0505 6.25541 20.999 6.131 20.999 6.00127V0.0940638H19.6821V6.00127C19.6821 6.48026 19.8723 6.93963 20.211 7.27833C20.5497 7.61702 21.0091 7.8073 21.4881 7.8073C21.9671 7.8073 22.4265 7.61702 22.7651 7.27833C23.1038 6.93963 23.2941 6.48026 23.2941 6.00127V0.0940638H21.9772ZM33.6788 1.37333V0.0940638H30.5182V7.6568H33.6788V6.37753H31.7975V4.421H33.0015V3.14173H31.7975V1.37333H33.6788ZM13.3986 7.6568H12.0441L11.1034 4.08237C11.3381 4.03593 11.5492 3.90904 11.7004 3.72357C11.8515 3.53811 11.9331 3.30571 11.9312 3.06648V1.90009C11.9327 1.83049 11.9202 1.76131 11.8942 1.6967C11.8683 1.63209 11.8296 1.57341 11.7804 1.52418C11.7311 1.47496 11.6724 1.43622 11.6078 1.41029C11.5432 1.38436 11.474 1.37179 11.4044 1.37333H10.9153V7.6568H9.63605V0.0940638H11.4044C11.8718 0.0898729 12.3223 0.268533 12.6597 0.591904C12.9971 0.915276 13.1948 1.35774 13.2105 1.82484V3.02886C13.2277 3.34132 13.172 3.6535 13.048 3.9408C12.9239 4.22809 12.7348 4.48264 12.4956 4.68438L13.3986 7.6568ZM27.6587 0.0940638V4.23287L26.3418 0.0940638H25.0249V7.6568H26.3418V3.9695L27.5458 7.6568H28.9756V0.0940638H27.6587ZM0.00390625 0.20694V7.76968H1.35843V4.53388H2.60007V3.25461H1.35843V1.48621H3.31495V0.20694H0.00390625Z" fill="black"/>
<path d="M5.45524 9.80078H0.00390625V12.7211H2.53488V31.9955H5.45524V9.80078Z" fill="black"/>
<path d="M16.6484 9.80078C18.2091 9.80082 19.4746 11.0663 19.4746 12.627V29.1748C19.4744 30.7352 18.2089 32 16.6484 32H13.3584C11.5749 31.9999 10.1289 30.5541 10.1289 28.7705V13.0303C10.1291 11.2469 11.575 9.80085 13.3584 9.80078H16.6484ZM14.0527 12.5762C13.6069 12.5763 13.2451 12.938 13.2451 13.3838V28.418C13.2451 28.8638 13.6069 29.2255 14.0527 29.2256H15.9424C16.3883 29.2256 16.75 28.8639 16.75 28.418V13.3838C16.75 12.9379 16.3883 12.5762 15.9424 12.5762H14.0527Z" fill="black"/>
<path d="M30.6973 9.62012C32.2578 9.62012 33.5232 10.8849 33.5234 12.4453V28.9932C33.5234 30.5538 32.2579 31.8193 30.6973 31.8193H27.3467C25.5632 31.8193 24.1173 30.3733 24.1172 28.5898V12.8496C24.1172 11.066 25.5631 9.62012 27.3467 9.62012H30.6973ZM28.0703 12.7217C27.6244 12.7217 27.2627 13.0834 27.2627 13.5293V28.2686C27.2627 28.7145 27.6244 29.0762 28.0703 29.0762H29.96C30.4058 29.0761 30.7676 28.7144 30.7676 28.2686V13.5293C30.7676 13.0835 30.4058 12.7218 29.96 12.7217H28.0703Z" fill="black"/>
</svg>
