<svg width="109" height="32" viewBox="0 0 109 32" fill="none" xmlns="http://www.w3.org/2000/svg">
<path d="M10.4787 9.86366C12.9109 6.91798 13.0373 3.01241 10.7556 1.14061C8.47393 -0.731185 4.65106 0.13872 2.21887 3.0844C-0.219339 6.03008 -0.339744 9.93565 1.94194 11.8074C4.22362 13.6792 8.04649 12.8093 10.4787 9.86366Z" fill="#12110D"/>
<path d="M11.159 23.4222C12.2246 22.1323 10.6593 19.1026 7.67324 16.6489C4.68116 14.1952 1.40011 13.2533 0.334526 14.5431C-0.731062 15.833 0.834209 18.8627 3.82026 21.3164C6.81234 23.7701 10.0934 24.712 11.159 23.4222Z" fill="#12110D"/>
<path d="M22.5553 20.9144C24.9875 17.9688 25.114 14.0632 22.8323 12.1914C20.5506 10.3196 16.7277 11.1895 14.2955 14.1352C11.8633 17.0809 11.7369 20.9864 14.0186 22.8582C16.3003 24.73 20.1232 23.8601 22.5553 20.9144Z" fill="#12110D"/>
<path d="M24.4397 9.4557C25.5053 8.16584 23.94 5.13617 20.954 2.68244C17.9619 0.234709 14.6748 -0.713187 13.6152 0.576672C12.5557 1.86653 14.1149 4.8962 17.101 7.34993C20.0931 9.80366 23.3741 10.7456 24.4397 9.4557Z" fill="#12110D"/>
<path fill-rule="evenodd" clip-rule="evenodd" d="M79.597 19.9005C74.4075 19.9005 71.8911 16.5949 73.2456 11.1655C74.4376 6.432 77.4598 4.09826 81.7222 4.09826C86.8996 4.09826 89.4281 7.4099 88.0735 12.8333C86.8815 17.5668 83.8594 19.9005 79.597 19.9005ZM79.9823 16.2289C81.6921 16.2289 82.7215 14.8071 83.3476 12.3114C84.0219 9.61166 83.7028 7.76986 81.3369 7.76986C79.6271 7.76986 78.5976 9.1917 77.9715 11.6874C77.2973 14.3871 77.6043 16.2289 79.9823 16.2289ZM38.9301 4.33223C41.585 4.33223 43.078 5.69408 42.3676 8.56177L41.8318 10.6735C41.2057 13.1273 39.6164 13.9612 37.3106 13.9612H35.6129L34.1861 19.6666H30.1766L34.0236 4.33223H38.9361H38.9301ZM38.7374 8.11182C38.8578 7.61987 38.7675 7.3319 38.31 7.3319H37.2805L36.3654 10.9855H37.431C37.8585 10.9855 38.0872 10.7695 38.1956 10.3316L38.7434 8.11782L38.7374 8.11182ZM51.5907 7.57788H47.8702L47.1959 10.3076H50.6756L49.8689 13.5292H46.3772L45.6547 16.4209H49.4053L48.5986 19.6666H40.8626L44.7095 4.33223H52.4034L51.5847 7.57788H51.5907ZM73.36 4.33223H68.6341L64.7871 19.6666H69.5131L73.36 4.33223ZM109 4.33223H103.925L101.764 12.9293L97.5615 4.33223H91.5773L87.7304 19.6666H92.8115L95.1233 10.4456L99.6385 19.6666H105.153L109 4.33223ZM61.5302 4.27824C63.1857 4.27824 64.4259 4.74619 65.1183 5.64009C65.7323 6.438 65.8889 7.55388 65.5638 8.87374C65.1423 10.6135 64.0888 11.6094 62.4272 11.8434L61.9516 11.9094L62.4031 12.0654C63.9142 12.5813 64.45 13.7872 63.9864 15.659L62.9871 19.6726H58.4598L59.4231 15.791C59.5916 15.1191 59.5495 14.6271 59.2906 14.2971C59.0558 13.9912 58.6404 13.8352 58.0505 13.8352H56.4792L56.4611 13.9192L55.0283 19.6666H50.501L54.3239 4.27224H61.5181L61.5302 4.27824ZM59.2906 10.7395C60.1575 10.7395 60.6452 10.3256 60.874 9.40168C61.0245 8.79574 60.9823 8.35179 60.7475 8.05183C60.5127 7.75186 60.0913 7.60187 59.4652 7.60187H58.0324L58.0143 7.68587L57.2859 10.6015L57.2498 10.7395H59.2906Z" fill="#12110D"/>
</svg>
