<svg
  viewBox="0 0 1440 800"
  fill="none"
  xmlns="http://www.w3.org/2000/svg"
  preserveAspectRatio="xMidYMid slice"
>
  <g>
    <path
      d="M0 607.038C47.2305 602.685 76.2413 616.532 94.1074 634.287C112.789 652.852 119.247 675.652 121.655 686.233C128.525 716.406 136.407 746.035 130.937 777.852C129.613 785.574 127.553 792.99 124.825 800H124.21C126.964 792.965 129.04 785.517 130.37 777.755C135.817 746.076 127.973 716.571 121.095 686.361C118.695 675.816 112.268 653.145 93.7031 634.695C75.9664 617.068 47.1144 603.261 0 607.616V607.038Z"
      fill="currentColor"
    />
    <path
      d="M542.869 647.869C543.013 647.804 543.183 647.867 543.249 648.012C543.315 648.156 543.251 648.326 543.106 648.392C528.253 655.149 514.525 664.171 501.178 673.74C459.439 703.614 415.47 710.937 366.219 694.964C342.394 687.239 317.018 682.203 292.038 680.761C275.472 679.815 261.06 683.414 249.242 691.213C237.424 699.012 228.179 711.025 221.974 726.938C212.51 751.159 204.122 775.878 194.393 800H193.772C203.538 775.813 211.929 751.067 221.438 726.729C227.679 710.726 236.991 698.61 248.926 690.733C260.861 682.857 275.401 679.235 292.071 680.187C317.104 681.632 342.529 686.678 366.396 694.417C415.471 710.333 459.25 703.042 500.843 673.272C514.2 663.696 527.965 654.65 542.869 647.869Z"
      fill="currentColor"
    />
    <path
      d="M564.669 755.258C564.81 755.186 564.983 755.241 565.056 755.382C565.128 755.523 565.072 755.696 564.931 755.769C546.23 765.343 527.451 774.772 508.84 784.514C483.768 797.652 457.404 800.001 430.357 793.845L429.069 793.545C415.515 790.315 402.079 786.554 388.632 782.923C375.182 779.291 361.718 775.788 348.094 773.071C314.823 766.452 284.646 773.261 263.151 800H262.415C284.09 772.759 314.628 765.828 348.206 772.508C361.85 775.229 375.33 778.736 388.781 782.368C402.235 786.001 415.657 789.758 429.201 792.985C456.58 799.485 483.24 797.28 508.573 784.005C527.188 774.262 545.974 764.829 564.669 755.258Z"
      fill="currentColor"
    />
    <path
      d="M566.107 755.089C574.545 753.607 582.066 754.524 588.62 757.518C595.173 760.51 600.741 765.57 605.29 772.346L605.291 772.347C610.543 780.191 614.542 789.339 617.067 798.456C617.21 798.97 617.351 799.485 617.492 800H616.896C616.768 799.537 616.642 799.073 616.514 798.61C614.003 789.545 610.028 780.454 604.813 772.666C600.311 765.961 594.819 760.981 588.381 758.04C581.944 755.1 574.543 754.191 566.207 755.655C566.051 755.683 565.901 755.578 565.874 755.422C565.847 755.266 565.951 755.116 566.107 755.089Z"
      fill="currentColor"
    />
    <path
      d="M599.062 640.006C623.359 645.839 639.169 663.563 650.615 683.9C661.946 704.034 670.748 726.024 677.566 748.197L679.073 753.156C683.939 769.076 689.319 784.702 695.329 800H694.712C688.375 783.853 682.74 767.342 677.67 750.51L677.017 748.366C670.208 726.222 661.42 704.272 650.114 684.183C638.704 663.909 623.002 646.344 598.929 640.564C598.775 640.527 598.68 640.373 598.717 640.219C598.754 640.065 598.908 639.969 599.062 640.006Z"
      fill="currentColor"
    />
    <path
      d="M1075.02 0C1078.83 10.2343 1081.77 20.8668 1083.36 32.0967C1088.23 66.4508 1087.29 99.8761 1072.36 131.468C1046.49 186.099 1012.56 235.321 969.334 277.8C949.551 297.268 924.898 309.52 900.119 320.877C864.706 337.104 829.284 353.42 793.067 367.697C762.721 379.675 733.249 392.861 707.342 412.633C694.966 422.081 683.135 432.997 673.593 445.235C656.717 466.87 654.061 491.802 662.889 517.836C667.321 530.911 671.347 544.134 676.328 557L678.219 561.809C696.566 608.892 705.051 658.651 717.573 707.212C726.161 740.572 738.114 771.852 755.835 800H755.154C737.947 772.582 726.191 742.217 717.674 709.882L717.017 707.355C704.279 657.96 695.747 607.48 676.804 559.781L675.793 557.209C670.805 544.324 666.769 531.072 662.345 518.021C653.464 491.83 656.128 466.691 673.14 444.882C682.72 432.594 694.591 421.645 706.993 412.176C732.966 392.354 762.5 379.145 792.856 367.163L796.248 365.819C831.269 351.873 865.57 336.076 899.88 320.354C924.659 308.998 949.227 296.781 968.932 277.391C1012.1 234.963 1045.99 185.798 1071.84 131.223C1086.71 99.7719 1087.65 66.4728 1082.79 32.1768C1081.19 20.9205 1078.25 10.2633 1074.41 0H1075.02Z"
      fill="currentColor"
    />
    <path
      d="M1440 616.66C1436.76 651.918 1430.47 686.693 1413.2 719.144C1394.55 754.247 1366.9 779.067 1331.21 795.525L1329.51 796.304C1326.63 797.602 1323.73 798.831 1320.81 800H1319.25C1322.61 798.676 1325.96 797.274 1329.27 795.779C1365.68 779.377 1393.81 754.413 1412.7 718.874C1430.99 684.49 1436.93 647.481 1440 609.989V616.66Z"
      fill="currentColor"
    />
    <path
      d="M1440 760.736C1430.61 775.718 1419.33 788.807 1406.3 800H1405.42C1418.84 788.554 1430.43 775.102 1440 759.647V760.736Z"
      fill="currentColor"
    />
    <path
      d="M913.136 379.239C938.366 377.566 963.303 380.059 984.82 394.013L986.238 394.941C1000.86 404.613 1014.58 416.403 1026.6 429.175C1054.95 459.355 1071.14 495.139 1069.95 537.51C1068.6 585.337 1049.63 626.347 1020.28 662.974C1005.85 680.945 991.236 698.76 976.63 716.574C962.023 734.388 947.421 752.201 933.01 770.169C917.618 789.36 897.268 797.816 873.995 794.631C847.712 791.013 826.864 781.789 810.596 767.148C794.329 752.509 782.659 732.472 774.699 707.26C765.746 678.894 764.756 649.175 764.275 619.751C763.597 579.279 763.258 538.774 764.588 498.324L764.639 497.043C765.271 483.785 769.281 469.898 774.938 457.882C790.802 424.129 821.957 407.923 854.439 395.231L856.169 394.567C874.081 387.803 893.256 384.233 911.749 379.193C911.902 379.152 912.06 379.242 912.102 379.395C912.143 379.548 912.053 379.705 911.9 379.747C892.746 384.967 873.016 388.581 854.648 395.767C822.185 408.451 791.221 424.59 775.459 458.127C769.645 470.475 765.585 484.795 765.162 498.342C763.832 538.777 764.173 579.271 764.851 619.741C765.332 649.169 766.322 678.811 775.247 707.087L776.002 709.429C783.915 733.471 795.314 752.623 810.98 766.722C827.15 781.273 847.885 790.457 874.073 794.062C897.134 797.218 917.289 788.852 932.562 769.81C946.975 751.839 961.579 734.024 976.186 716.21C990.792 698.396 1005.4 680.582 1019.83 662.614C1049.13 626.059 1068.03 585.166 1069.37 537.493L1069.42 535.521C1070.04 494.841 1054.51 460.298 1027.5 430.982L1026.18 429.568C1013.81 416.415 999.62 404.308 984.508 394.494C963.141 380.638 938.35 378.144 913.174 379.813C913.015 379.824 912.879 379.703 912.868 379.545C912.858 379.387 912.978 379.25 913.136 379.239Z"
      fill="currentColor"
    />
    <path
      d="M1214.16 342.026C1223.92 341.236 1233.48 344.865 1244.44 352.188L1247.15 354.004C1271.46 370.405 1294.73 388.423 1317.86 406.539L1328.13 414.593L1329.64 415.796C1361.25 441.205 1379.93 475.156 1390.97 513.836C1403.11 556.416 1405.32 599.533 1398.8 643.243C1391.75 690.833 1370.39 729.208 1328.21 754.465C1304.77 768.511 1279.16 774.805 1252.5 779.764C1214.06 786.908 1176.24 786.2 1138.86 776.36C1115.77 770.281 1097.31 756.344 1090.54 732.007C1086.26 716.561 1087.85 700.448 1091.7 684.961L1092.95 679.971C1095.89 668.332 1098.98 656.726 1102.06 645.119C1105.58 631.854 1109.1 618.588 1112.38 605.266C1118.46 580.573 1123.78 555.685 1129.43 530.871C1129.47 530.717 1129.62 530.62 1129.77 530.655C1129.93 530.691 1130.03 530.844 1129.99 530.999C1124.34 555.803 1119.02 580.704 1112.94 605.403C1109.65 618.731 1106.14 632.002 1102.62 645.267C1099.1 658.532 1095.57 671.791 1092.26 685.1C1088.42 700.539 1086.85 716.542 1091.1 731.854C1097.79 755.944 1116.06 769.762 1139 775.805C1176.3 785.621 1214.03 786.329 1252.4 779.199C1279.04 774.244 1304.57 767.963 1327.91 753.972C1369.92 728.819 1391.21 690.612 1398.24 643.158L1398.54 641.113C1404.57 598.861 1402.41 557.17 1390.97 515.985L1390.41 513.993C1379.23 474.781 1360.18 440.486 1327.77 415.044C1300.39 393.575 1273.01 371.945 1244.12 352.666C1233.21 345.375 1223.78 341.825 1214.21 342.6C1204.63 343.375 1194.86 348.483 1183.28 358.647C1159.83 379.226 1151.86 407.094 1145.89 435.721C1139.58 465.961 1135.21 496.592 1130.05 527.074V527.078C1130.03 527.203 1130.05 527.353 1130.11 527.537C1130.18 527.721 1130.28 527.921 1130.42 528.138C1130.55 528.355 1130.7 528.574 1130.85 528.805C1131 529.031 1131.15 529.267 1131.27 529.501C1131.34 529.642 1131.28 529.815 1131.14 529.888C1131 529.96 1130.83 529.905 1130.75 529.764C1130.65 529.559 1130.51 529.345 1130.37 529.12C1130.22 528.9 1130.06 528.665 1129.92 528.437C1129.78 528.207 1129.66 527.968 1129.57 527.729C1129.49 527.489 1129.44 527.232 1129.49 526.975C1134.64 496.513 1139.02 465.856 1145.33 435.604C1151.3 406.966 1159.29 378.929 1182.9 358.216C1194.52 348.017 1204.41 342.816 1214.16 342.026Z"
      fill="currentColor"
    />
    <path
      d="M1257.56 491.509C1287.15 490.827 1312.67 501.707 1330.47 524.557C1355.29 556.392 1365.9 592.976 1359.98 634.207C1356.09 661.204 1347.42 685.429 1328.09 704.69C1299.93 732.803 1264.99 741.172 1226.24 737.627C1206.68 735.838 1189.11 728.65 1176.39 716.145C1163.67 703.635 1155.82 685.824 1155.67 662.829C1155.45 628.592 1164.8 596.238 1177.66 564.756C1192.6 528.181 1214.41 499.215 1256.22 491.485C1256.37 491.456 1256.52 491.559 1256.55 491.715C1256.58 491.871 1256.48 492.021 1256.32 492.05C1214.79 499.728 1193.1 528.48 1178.19 564.973C1165.34 596.421 1156.03 628.695 1156.25 662.825C1156.39 685.682 1164.19 703.344 1176.79 715.735C1189.4 728.131 1206.83 735.275 1226.29 737.055C1264.92 740.589 1299.67 732.247 1327.69 704.284C1346.9 685.142 1355.53 661.052 1359.41 634.126C1365.3 593.056 1354.75 556.627 1330.01 524.91C1312.34 502.22 1287 491.406 1257.58 492.084C1257.42 492.088 1257.29 491.961 1257.28 491.803C1257.28 491.644 1257.41 491.512 1257.56 491.509Z"
      fill="currentColor"
    />
    <path
      d="M1260.17 588.111C1267.47 587.186 1274.08 587.824 1279.84 590.356C1285.42 592.811 1290.19 597.037 1294 603.301L1294.37 603.913L1294.91 604.867C1306.07 625.008 1300.84 651.259 1283.72 665.509C1262.32 683.296 1230.09 673.043 1226.15 647.178C1224.4 635.722 1226.2 622.551 1231.62 611.448C1237.03 600.343 1246.07 591.286 1258.8 588.117C1258.96 588.079 1259.11 588.173 1259.15 588.327C1259.19 588.481 1259.09 588.636 1258.94 588.675C1246.41 591.794 1237.49 600.708 1232.13 611.7C1226.77 622.695 1224.98 635.748 1226.71 647.091C1230.57 672.431 1262.23 682.624 1283.36 665.067C1300.53 650.769 1305.59 624.217 1293.87 604.203C1290.05 597.692 1285.25 593.362 1279.61 590.883C1273.97 588.403 1267.47 587.766 1260.24 588.682C1260.08 588.702 1259.94 588.59 1259.92 588.433C1259.9 588.275 1260.01 588.131 1260.17 588.111Z"
      fill="currentColor"
    />
    <path
      d="M575.19 637.733C575.347 637.708 575.495 637.813 575.521 637.97C575.546 638.126 575.44 638.274 575.284 638.3C571.533 638.921 567.864 639.74 564.251 640.701C564.098 640.742 563.94 640.65 563.899 640.497C563.859 640.344 563.95 640.186 564.104 640.146C567.732 639.18 571.418 638.358 575.19 637.733Z"
      fill="currentColor"
    />
    <path
      d="M576.528 637.729C578.406 637.857 580.29 637.942 582.179 638.026C584.066 638.111 585.958 638.196 587.844 638.324C588.002 638.335 588.121 638.472 588.11 638.63C588.1 638.788 587.963 638.908 587.805 638.897C585.927 638.77 584.042 638.685 582.153 638.601C580.266 638.516 578.374 638.431 576.489 638.303C576.331 638.292 576.212 638.155 576.223 637.997C576.233 637.839 576.37 637.719 576.528 637.729Z"
      fill="currentColor"
    />
    <path
      d="M905.298 462.758C927.614 461.337 946.718 468.532 964.329 482.246C995.743 506.709 1005.06 550.92 982.433 581.936C965.164 605.583 941.768 620.857 913.22 627.812C899.828 631.089 889.781 630.993 881.682 626.815C873.838 622.769 867.879 614.924 862.466 602.78L861.943 601.592C852.61 580.117 852.5 557.543 852.811 534.862L852.845 533.237C853.294 516.5 856.891 501.327 864.759 489.167C872.885 476.607 885.552 467.285 903.946 462.766C904.1 462.728 904.256 462.822 904.294 462.976C904.332 463.129 904.238 463.285 904.084 463.323C885.819 467.81 873.281 477.052 865.241 489.479C857.197 501.912 853.64 517.558 853.386 534.871C853.075 557.561 853.193 580.017 862.471 601.363C868.005 614.143 874.025 622.219 881.945 626.305C889.863 630.389 899.745 630.518 913.084 627.254L914.412 626.924C942.231 619.854 965.051 604.763 981.968 581.597C1004.38 550.873 995.188 507.004 963.977 482.699C946.456 469.056 927.486 461.92 905.334 463.331C905.176 463.341 905.039 463.221 905.029 463.062C905.019 462.904 905.14 462.768 905.298 462.758Z"
      fill="currentColor"
    />
    <path
      d="M475.303 0C467.933 11.178 462.063 23.3577 458.889 37.3213C455.006 54.4523 459.727 69.2208 464.849 84.2061L465.755 86.8408C475.168 114.053 486.033 140.765 495.877 167.861C508.447 202.498 515.296 238.348 519.71 274.951C524.775 317.097 528.595 359.256 527.123 401.676C524.773 470.567 499.595 529.135 444.842 572.78C424.166 589.25 399.687 597.115 373.034 596.463C309.982 594.905 246.901 593.234 183.851 591.591C165.687 591.115 152.161 586.496 142.113 579.414C132.066 572.332 125.516 562.802 121.28 552.535C112.813 532.015 113.576 508.52 114.127 495.651C115.428 464.815 115.766 433.814 114.127 403.012C111.612 355.976 94.069 313.539 71.7021 272.403C53.6977 239.296 29.169 215.453 0 197.797V197.127C29.3716 214.844 54.0841 238.804 72.207 272.129C94.5901 313.295 112.18 355.821 114.701 402.981C116.342 433.807 116.002 464.828 114.701 495.676C114.15 508.551 113.399 531.927 121.812 552.316C126.015 562.505 132.504 571.938 142.444 578.944C152.384 585.95 165.794 590.543 183.865 591.016C246.916 592.659 309.996 594.33 373.048 595.888C399.158 596.527 423.157 588.955 443.518 573.092L444.484 572.33C499.087 528.804 524.203 470.403 526.549 401.655C528.019 359.281 524.203 317.157 519.14 275.02C514.728 238.441 507.887 202.639 495.337 168.058C485.189 140.124 473.921 112.515 464.305 84.3926C459.186 69.4141 454.405 54.5018 458.328 37.1943L458.608 35.9932C461.828 22.5804 467.525 10.8143 474.615 0H475.303Z"
      fill="currentColor"
    />
    <path
      d="M354.308 0C350.179 6.81316 347.733 13.8225 346.958 21.041C345.04 38.9119 353.354 58.1551 371.928 78.9863C388.32 97.3794 405.622 115.044 421.38 133.966C464.712 185.943 480.828 246.405 472.134 312.921C466.64 355.082 451.176 394.095 426.769 429.306C391.003 480.906 344.189 512.726 279.091 510.115C255.133 509.15 233.081 501.768 214.833 484.321C192.165 462.648 185.359 433.898 177.021 405.717C164.523 363.474 150.714 321.543 139.539 278.943C129.894 242.215 120.296 205.367 119.106 166.699C118.372 142.71 113.145 118.809 109.041 94.9453C107.204 84.2348 104.702 73.6231 102.343 62.9834C99.9842 52.3479 97.7674 41.6871 96.5068 30.8955C95.2806 20.4745 95.6877 10.1888 97.0166 0H97.5967C96.3203 9.75131 95.8904 19.5818 96.9346 29.5361L97.0781 30.8281C98.3351 41.5886 100.546 52.2261 102.904 62.8594C105.262 73.4888 107.767 84.1193 109.607 94.8477C113.705 118.676 118.945 142.639 119.681 166.682C120.868 205.274 130.448 242.06 140.095 278.797C151.267 321.387 165.067 363.287 177.572 405.554C185.925 433.789 192.697 462.361 215.23 483.905C233.358 501.237 255.265 508.58 279.113 509.541C343.964 512.142 390.61 480.465 426.297 428.979C450.655 393.84 466.082 354.913 471.563 312.847C480.238 246.481 464.162 186.181 420.938 134.333C405.185 115.417 387.919 97.7932 371.499 79.3691C352.876 58.4835 344.444 39.0833 346.387 20.9795C347.16 13.7704 349.579 6.78222 353.638 0H354.308Z"
      fill="currentColor"
    />
    <path
      d="M1142.88 0C1146.65 11.4659 1150.14 23.0393 1153.64 34.6309C1159.35 53.5692 1165.97 72.3104 1173.21 90.7412C1182.18 113.616 1201.34 124.198 1223.72 131.241C1247.82 138.851 1272.97 145.009 1295.21 156.579C1323.96 171.556 1338.6 200.083 1350.42 229.2L1352.99 235.548C1365.81 267.301 1378.18 299.242 1390.96 331.016C1402.52 359.799 1415.57 388.088 1425.81 417.351C1433.44 439.108 1438.32 461.71 1440 484.842V496.502C1439.3 469.37 1434.15 442.882 1425.27 417.54C1415.35 389.205 1402.81 361.818 1391.51 333.93L1390.42 331.229C1376.79 297.321 1363.64 263.263 1349.88 229.416C1338.07 200.306 1323.5 171.962 1294.95 157.089C1272.77 145.549 1247.7 139.415 1223.54 131.789C1201.46 124.838 1182.35 114.402 1173.11 92.0254L1172.67 90.9512C1165.43 72.5081 1158.81 53.7521 1153.09 34.7969C1149.57 23.1423 1146.06 11.5139 1142.28 0H1142.88Z"
      fill="currentColor"
    />
    <path
      d="M0 281.947C40.5868 314.315 60.7919 369.058 48.1934 419.981C40.6011 450.655 23.0391 472.785 0 489.407V488.698C22.7888 472.165 40.1209 450.204 47.6357 419.844C60.1414 369.296 40.1774 314.952 0 282.684V281.947Z"
      fill="currentColor"
    />
    <path
      d="M309.884 161.63C315.821 161.389 321.702 161.48 327.285 162.82C361.226 170.99 385.688 187.117 400.199 209.468C414.71 231.818 419.245 260.351 413.409 293.285C406.208 333.873 382.592 365.457 349.332 388.376C330.983 401.02 310.123 410.969 285.411 403.481C265.409 397.394 251.941 383.991 243.991 366.336C233.973 344.067 225.083 320.854 219.448 297.125C215.506 280.487 215.338 261.984 217.973 245.018C221.261 223.932 228.832 206.149 240.899 192.206C252.967 178.262 269.519 168.174 290.738 162.454C290.891 162.413 291.048 162.503 291.09 162.656C291.131 162.809 291.041 162.967 290.888 163.009C269.763 168.703 253.317 178.736 241.334 192.582C229.725 205.996 222.291 223.004 218.86 243.146L218.541 245.105C215.916 262.011 216.085 280.438 220.007 296.992C225.63 320.673 234.505 343.85 244.515 366.101C252.405 383.622 265.753 396.897 285.578 402.932L286.722 403.266C310.675 410.032 330.981 400.323 349.006 387.902C382.164 365.054 405.674 333.595 412.843 293.186C418.66 260.358 414.13 231.98 399.717 209.78C385.304 187.582 360.985 171.523 327.15 163.379C321.646 162.057 315.829 161.964 309.907 162.204C304.002 162.444 297.96 163.019 292.086 163.019C291.927 163.019 291.799 162.89 291.799 162.731C291.799 162.573 291.927 162.444 292.086 162.444C297.95 162.444 303.93 161.872 309.884 161.63Z"
      fill="currentColor"
    />
    <path
      d="M1008.17 0C1024.66 35.4753 1025.55 72.216 1011.1 109.246C999.455 139.08 979.852 164.324 961.875 190.473C930.247 236.479 890.55 273.291 841.136 298.632L838.775 299.83C802.664 317.948 764.59 331.411 725.247 341.045L721.436 341.966C695.668 348.082 669.685 353.589 643.069 350.723C633.268 349.67 623.163 346.23 614.368 341.629C588.716 328.147 577.881 303.293 569.958 277.652C554 225.981 541.804 173.459 534.08 119.746C528.923 83.9114 535.413 52.0684 553.891 21.4248C558.145 14.3746 562.293 7.2342 566.269 0H566.925C562.898 7.33715 558.694 14.5764 554.383 21.7217C535.974 52.2513 529.511 83.9604 534.649 119.664C542.369 173.345 554.557 225.838 570.507 277.482C578.424 303.104 589.202 327.754 614.636 341.12C623.379 345.695 633.414 349.108 643.131 350.151C669.637 353.006 695.532 347.525 721.302 341.407L725.109 340.487C764.416 330.862 802.449 317.413 838.518 299.316C888.934 273.992 929.32 236.813 961.401 190.147C979.406 163.959 998.951 138.791 1010.56 109.037C1025 72.0678 1024.07 35.4076 1007.54 0H1008.17Z"
      fill="currentColor"
    />
    <path
      d="M933.208 1.81641C951.796 38.5562 955.261 75.0652 939.44 113.188C922.142 154.886 897.029 191.197 865.097 223.055C817.692 270.376 760.271 292.437 694.18 290.618L692.617 290.57C665.043 289.633 641.135 278.607 624.36 254.394C607.549 230.126 600.837 203.282 596.62 174.577C591.859 142.203 596.817 112.762 614.285 85.6211C624.22 70.2035 635.803 55.8275 646.77 41.1123L647.575 40.0234C656.814 27.4274 663.835 14.2045 668.147 0H668.747C664.419 14.3355 657.348 27.6707 648.039 40.3623L647.23 41.4561C636.59 55.7341 625.411 69.6399 615.703 84.4922L614.769 85.9326C597.386 112.941 592.445 142.237 597.188 174.493C601.401 203.166 608.096 229.907 624.833 254.066C641.492 278.113 665.221 289.064 692.637 289.996C759.231 292.202 817.029 270.227 864.691 222.648C896.575 190.84 921.642 154.59 938.909 112.968C954.657 75.0206 951.219 38.6879 932.695 2.07617C932.346 1.38474 931.999 0.692054 931.65 0H932.294C932.599 0.605383 932.902 1.21149 933.208 1.81641Z"
      fill="currentColor"
    />
    <path
      d="M1236.74 0C1251.33 19.8237 1271.6 33.5988 1300.68 36.8643C1327.91 39.9216 1355.43 40.997 1382.84 42.1582C1391.11 42.5139 1398.22 44.4207 1404.13 48.1172C1410.03 51.8145 1414.72 57.291 1418.16 64.7539C1419.61 67.8491 1419.89 71.8445 1419.52 75.2725C1417.19 97.2533 1413.11 119.083 1412.37 141.037L1412.31 143.162C1412.11 151.818 1413.09 160.5 1414.38 169.204C1415.67 177.898 1417.27 186.633 1418.31 195.346C1421.58 223.083 1430.22 249.264 1440 275.023V276.641C1430.21 250.981 1421.47 224.883 1417.96 197.262L1417.74 195.413C1416.7 186.709 1415.1 178.011 1413.81 169.288C1412.52 160.574 1411.53 151.853 1411.73 143.148C1412.27 120.45 1416.55 97.8345 1418.95 75.2109C1419.31 71.8421 1419.03 67.9633 1417.64 64.998L1417.64 64.9961C1414.24 57.6198 1409.62 52.2349 1403.82 48.6045C1398.2 45.0864 1391.45 43.2051 1383.58 42.7705L1382.82 42.7324C1355.41 41.5714 1327.87 40.4955 1300.62 37.4355C1271.17 34.1291 1250.71 20.1081 1236.02 0H1236.74Z"
      fill="currentColor"
    />
    <path
      d="M794.338 81.502C794.492 81.4656 794.647 81.5615 794.684 81.7158C794.72 81.8701 794.624 82.0251 794.47 82.0615C756.294 91.0801 725.341 112.057 699.489 140.854C692.756 148.357 688.323 156.51 686.645 165.175C685.019 173.567 685.974 182.457 689.95 191.728L690.344 192.626L690.735 193.477C694.837 202.168 700.694 207.677 707.771 211.257C714.627 214.726 722.639 216.389 731.331 217.364L733.079 217.551L734.138 217.648C756.422 219.506 782.162 208.67 801.392 189.246C820.92 169.521 833.707 140.966 829.336 107.931C827.549 94.3466 813.081 83.0828 795.66 82.0684C795.502 82.0591 795.38 81.9231 795.39 81.7646C795.399 81.6063 795.535 81.4859 795.693 81.4951C813.293 82.5199 828.072 93.9123 829.906 107.855C834.304 141.092 821.434 169.818 801.8 189.65C782.172 209.475 755.755 220.441 733.021 218.122C723.633 217.172 714.921 215.518 707.512 211.77C700.093 208.016 693.991 202.17 689.819 192.861L689.421 191.953C685.404 182.587 684.431 173.581 686.08 165.065C687.782 156.278 692.274 148.033 699.062 140.47C724.976 111.604 756.026 90.5525 794.338 81.502Z"
      fill="currentColor"
    />
  </g>
</svg>
